<svg width="56" height="50" viewBox="0 0 56 50" fill="none" xmlns="http://www.w3.org/2000/svg">
<path d="M1 29.898V34.2245C1 36.4336 2.79086 38.2245 5 38.2245H21.5714M1 29.898V5C1 2.79086 2.79086 1 5 1H50.8776C53.0867 1 54.8776 2.79086 54.8776 5V29.898M1 29.898H54.8776M54.8776 29.898V34.2245C54.8776 36.4336 53.0867 38.2245 50.8776 38.2245H34.3061M21.5714 38.2245L19.1224 49M21.5714 38.2245H34.3061M19.1224 49H12.2653M19.1224 49H36.7551M36.7551 49L34.3061 38.2245M36.7551 49H43.6122" stroke="white" stroke-width="1.5"/>
<circle cx="27.9397" cy="33.8166" r="1.95918" fill="white"/>
<path d="M23.0405 11.2852L18.1426 16.1831L23.0405 21.0811" stroke="white" stroke-width="1.5"/>
<path d="M32.8364 21.082L37.7344 16.1841L32.8364 11.2861" stroke="white" stroke-width="1.5"/>
<path d="M30.8776 11.2852L25 21.0811" stroke="white" stroke-width="1.5"/>
</svg>
