<svg width="408" height="940" viewBox="0 0 408 940" fill="none" xmlns="http://www.w3.org/2000/svg">
<path d="M266.791 470.452L266.1 471.321C217.81 532.038 192.439 563.938 175.814 594.865C159.1 625.957 151.23 656.055 137.762 713.385C124.349 770.476 70.5497 810.967 10.1651 821.779C-50.1984 832.587 -117.019 813.71 -156.437 752.205C-176.245 721.298 -202.042 694.838 -228.813 669.539C-235.8 662.935 -242.852 656.413 -249.881 649.911C-269.799 631.487 -289.537 613.231 -307.108 593.787C-330.872 567.491 -350.635 539.063 -361.457 505.206C-372.277 471.356 -374.171 432.041 -362.14 383.954C-350.103 335.842 -333.288 304.261 -311.575 282.598C-289.864 260.937 -263.211 249.147 -231.402 240.701C-210.608 235.179 -187.651 231.095 -162.451 226.612C-149.074 224.233 -135.064 221.74 -120.411 218.861C-78.1792 210.562 -30.6741 199.059 22.2491 177.782C75.0299 156.563 122.762 156.62 163.153 170.525C203.55 184.431 236.638 212.201 260.1 246.459C307.043 315.004 315.366 409.376 266.791 470.452Z" stroke="#212121"/>
<path d="M253.789 470.412L253.125 471.248C206.807 529.484 182.471 560.084 166.523 589.75C150.49 619.576 142.941 648.448 130.022 703.438C117.16 758.189 65.5642 797.023 7.6497 807.392C-50.2437 817.758 -114.328 799.654 -152.132 740.667C-171.133 711.019 -195.879 685.638 -221.557 661.371C-228.259 655.037 -235.024 648.78 -241.767 642.543C-260.871 624.872 -279.802 607.362 -296.656 588.712C-319.448 563.491 -338.403 536.225 -348.782 503.754C-359.159 471.289 -360.976 433.584 -349.437 387.462C-337.891 341.316 -321.764 311.027 -300.941 290.252C-280.12 269.478 -254.558 258.171 -224.049 250.07C-204.105 244.774 -182.086 240.857 -157.915 236.557C-145.084 234.275 -131.646 231.884 -117.59 229.122C-77.0807 221.162 -31.513 210.128 19.2517 189.719C69.8741 169.368 115.653 169.423 154.39 182.758C193.134 196.095 224.868 222.728 247.37 255.585C292.394 321.328 300.375 411.838 253.789 470.412Z" stroke="#212121"/>
<path d="M239.984 470.368L239.348 471.167C195.125 526.771 171.887 555.989 156.658 584.317C141.348 612.799 134.14 640.369 121.805 692.874C109.526 745.14 60.2707 782.215 4.97896 792.115C-50.2917 802.011 -111.471 784.727 -147.561 728.414C-165.705 700.104 -189.334 675.868 -213.853 652.697C-220.253 646.648 -226.712 640.674 -233.15 634.718C-251.391 617.846 -269.466 601.128 -285.557 583.322C-307.319 559.241 -325.415 533.211 -335.323 502.211C-345.23 471.217 -346.966 435.219 -335.949 391.185C-324.925 347.126 -309.528 318.21 -289.65 298.377C-269.773 278.546 -245.37 267.751 -216.242 260.017C-197.199 254.96 -176.177 251.221 -153.099 247.115C-140.847 244.936 -128.016 242.653 -114.594 240.015C-75.9142 232.415 -32.4038 221.879 16.0692 202.391C64.3998 182.961 108.105 183.014 145.086 195.745C182.075 208.478 212.371 233.904 233.854 265.273C276.84 328.041 284.457 414.45 239.984 470.368Z" stroke="#212121"/>
<path d="M225.612 470.322L225.004 471.087C182.962 523.948 160.867 551.728 146.389 578.663C131.831 605.744 124.977 631.96 113.249 681.878C101.578 731.557 54.7594 766.8 2.19807 776.211C-50.3421 785.619 -108.497 769.188 -142.802 715.66C-160.054 688.741 -182.522 665.697 -205.833 643.667C-211.918 637.917 -218.059 632.236 -224.18 626.575C-241.523 610.533 -258.706 594.639 -274.004 577.711C-294.692 554.818 -311.894 530.073 -321.313 500.604C-330.731 471.142 -332.381 436.922 -321.907 395.062C-311.428 353.176 -296.791 325.689 -277.896 306.837C-259.003 287.987 -235.806 277.725 -208.115 270.372C-190.011 265.565 -170.026 262.01 -148.086 258.107C-136.437 256.035 -124.237 253.864 -111.475 251.356C-74.7004 244.13 -33.3316 234.113 12.7556 215.584C58.7004 197.114 100.246 197.165 135.4 209.266C170.561 221.37 199.361 245.54 219.783 275.36C260.647 335.029 267.886 417.17 225.612 470.322Z" stroke="#212121"/>
<path d="M211.744 470.277L211.165 471.005C171.227 521.221 150.235 547.615 136.479 573.204C122.647 598.935 116.135 623.843 104.994 671.266C93.9095 718.449 49.4417 751.925 -0.484895 760.864C-50.3904 769.799 -105.626 754.193 -138.21 703.351C-154.602 677.775 -175.948 655.882 -198.093 634.953C-203.875 629.489 -209.709 624.093 -215.525 618.713C-232 603.474 -248.323 588.376 -262.855 572.296C-282.508 550.549 -298.847 527.043 -307.794 499.053C-316.739 471.069 -318.307 438.565 -308.358 398.801C-298.403 359.011 -284.499 332.903 -266.553 314.998C-248.609 297.095 -226.577 287.348 -200.272 280.363C-183.075 275.797 -164.091 272.42 -143.248 268.712C-132.182 266.743 -120.591 264.681 -108.466 262.298C-73.5286 255.433 -34.2265 245.916 9.55852 228.314C53.2011 210.768 92.6635 210.817 126.054 222.312C159.451 233.808 186.807 256.766 206.206 285.092C245.023 341.772 251.896 419.793 211.744 470.277Z" stroke="#212121"/>
<path d="M197.334 470.232L196.784 470.923C159.032 518.39 139.187 543.342 126.182 567.535C113.104 591.862 106.948 615.411 96.4163 660.24C85.9407 704.829 43.9159 736.469 -3.27296 744.918C-50.4406 753.363 -102.644 738.612 -133.439 690.562C-148.936 666.382 -169.116 645.684 -190.051 625.899C-195.517 620.734 -201.033 615.632 -206.53 610.547C-222.104 596.142 -237.533 581.871 -251.27 566.67C-269.846 546.114 -285.289 523.898 -293.746 497.443C-302.2 470.994 -303.682 440.273 -294.278 402.688C-284.868 365.078 -271.727 340.402 -254.767 323.481C-237.808 306.562 -216.987 297.349 -192.123 290.747C-175.867 286.431 -157.923 283.239 -138.221 279.734C-127.759 277.873 -116.802 275.923 -105.339 273.671C-72.3111 267.181 -35.1565 258.184 6.23624 241.543C47.4866 224.959 84.7841 225.006 116.342 235.87C147.906 246.735 173.762 268.434 192.097 295.206C228.786 348.78 235.279 422.521 197.334 470.232Z" stroke="#212121"/>
<path d="M183.786 470.187L183.263 470.845C147.566 515.727 128.799 539.323 116.501 562.202C104.133 585.21 98.3103 607.482 88.3515 649.872C78.4489 692.023 38.7207 721.936 -5.8942 729.924C-50.488 737.909 -99.8399 723.963 -128.953 678.537C-143.609 655.669 -162.694 636.095 -182.491 617.386C-187.66 612.501 -192.876 607.676 -198.074 602.868C-212.801 589.246 -227.389 575.752 -240.378 561.38C-257.943 541.943 -272.544 520.938 -280.538 495.927C-288.531 470.923 -289.932 441.877 -281.041 406.341C-272.144 370.779 -259.719 347.451 -243.686 331.454C-227.655 315.46 -207.971 306.75 -184.461 300.508C-169.09 296.426 -152.124 293.408 -133.495 290.094C-123.602 288.334 -113.24 286.491 -102.399 284.36C-71.1666 278.223 -36.0309 269.715 3.11275 253.979C42.114 238.299 77.3763 238.344 107.211 248.614C137.052 258.887 161.497 279.401 178.832 304.713C213.522 355.367 219.658 425.084 183.786 470.187Z" stroke="#212121"/>
<path d="M171.011 470.146L170.515 470.771C136.756 513.216 119.006 535.535 107.373 557.175C95.6735 578.939 90.1663 600.007 80.7477 640.097C71.3852 679.949 33.8225 708.234 -8.3655 715.788C-50.5323 723.338 -97.196 710.151 -124.723 667.199C-138.586 645.568 -156.638 627.054 -175.362 609.359C-180.251 604.739 -185.184 600.176 -190.101 595.627C-204.029 582.745 -217.825 569.984 -230.108 556.392C-246.719 538.011 -260.525 518.148 -268.085 494.499C-275.642 470.856 -276.968 443.391 -268.56 409.785C-260.146 376.155 -248.397 354.097 -233.238 338.973C-218.081 323.85 -199.469 315.615 -177.237 309.711C-162.701 305.852 -146.657 302.997 -129.038 299.863C-119.682 298.199 -109.881 296.455 -99.6268 294.44C-70.0872 288.636 -36.8551 280.589 0.167905 265.704C37.0485 250.878 70.3918 250.92 98.6021 260.631C126.819 270.345 149.934 289.742 166.326 313.678C199.13 361.578 204.929 427.5 171.011 470.146Z" stroke="#212121"/>
<path d="M159.37 470.111L158.898 470.705C126.906 510.93 110.081 532.085 99.0546 552.596C87.9648 573.226 82.7447 593.197 73.8183 631.192C64.9481 668.948 29.3589 695.75 -10.6174 702.907C-50.5726 710.061 -94.7863 697.566 -120.868 656.869C-134.009 636.366 -151.119 618.817 -168.865 602.047C-173.499 597.667 -178.175 593.342 -182.835 589.032C-196.035 576.822 -209.109 564.73 -220.749 551.849C-236.491 534.43 -249.573 515.608 -256.736 493.199C-263.897 470.797 -265.153 444.772 -257.186 412.927C-249.212 381.057 -238.079 360.156 -223.716 345.827C-209.356 331.499 -191.722 323.695 -170.654 318.101C-156.878 314.443 -141.674 311.739 -124.977 308.768C-116.109 307.191 -106.82 305.538 -97.1003 303.628C-69.1034 298.127 -37.606 290.5 -2.51558 276.393C32.4325 262.343 64.0269 262.384 90.7567 271.585C117.493 280.789 139.396 299.169 154.928 321.85C186.014 367.241 191.506 429.705 159.37 470.111Z" stroke="#212121"/>
<path d="M146.493 470.07L146.047 470.63C116.008 508.4 100.208 528.266 89.8527 547.529C79.437 566.905 74.5345 585.661 66.1527 621.338C57.827 656.777 24.4207 681.937 -13.1092 688.657C-50.6179 695.373 -92.1215 683.643 -116.605 645.44C-128.946 626.184 -145.015 609.704 -161.679 593.956C-166.031 589.843 -170.422 585.782 -174.798 581.734C-187.193 570.269 -199.468 558.915 -210.397 546.821C-225.177 530.466 -237.459 512.796 -244.183 491.76C-250.905 470.729 -252.085 446.298 -244.605 416.399C-237.118 386.476 -226.666 366.856 -213.185 353.406C-199.705 339.957 -183.152 332.631 -163.372 327.379C-150.437 323.945 -136.163 321.405 -120.485 318.616C-112.158 317.135 -103.435 315.583 -94.3063 313.789C-68.0158 308.623 -38.4374 301.461 -5.48468 288.213C27.3257 275.023 56.9857 275.062 82.0778 283.7C107.176 292.339 127.738 309.594 142.321 330.887C171.505 373.502 176.658 432.142 146.493 470.07Z" stroke="#212121"/>
<path d="M132.172 470.024L131.755 470.549C103.889 505.586 89.2283 524.019 79.6197 541.893C69.9538 559.875 65.4045 577.281 57.6282 610.381C49.9081 643.242 18.9294 666.577 -15.8797 672.809C-50.6677 679.038 -89.1577 668.159 -111.863 632.73C-123.315 614.861 -138.227 599.569 -153.687 584.958C-157.726 581.141 -161.8 577.373 -165.86 573.617C-177.359 562.981 -188.746 552.449 -198.885 541.229C-212.595 526.058 -223.986 509.669 -230.222 490.159C-236.456 470.654 -237.552 447.994 -230.613 420.261C-223.668 392.504 -213.973 374.307 -201.472 361.835C-188.972 349.364 -173.622 342.569 -155.273 337.697C-143.274 334.511 -130.034 332.156 -115.489 329.568C-107.763 328.194 -99.6694 326.754 -91.1986 325.09C-66.8059 320.296 -39.3615 313.651 -8.78614 301.359C21.6469 289.124 49.1556 289.161 72.4264 297.172C95.7036 305.185 114.774 321.188 128.3 340.937C155.37 380.465 160.146 434.852 132.172 470.024Z" stroke="#212121"/>
<path d="M118.162 469.978L117.773 470.466C92.0323 502.831 78.4865 519.863 69.6081 536.379C60.6756 552.995 56.4719 569.08 49.2881 599.659C42.1604 629.998 13.5568 651.548 -18.5905 657.304C-50.7166 663.056 -86.258 653.009 -107.224 620.294C-117.807 603.782 -131.585 589.652 -145.868 576.153C-149.6 572.627 -153.364 569.145 -157.116 565.675C-167.738 555.85 -178.256 546.121 -187.621 535.758C-200.285 521.744 -210.805 506.608 -216.564 488.591C-222.321 470.58 -223.333 449.653 -216.924 424.039C-210.509 398.399 -201.555 381.596 -190.013 370.08C-178.472 358.565 -164.298 352.291 -147.35 347.791C-136.267 344.848 -124.037 342.672 -110.602 340.282C-103.464 339.012 -95.9857 337.682 -88.1584 336.144C-65.6222 331.716 -40.2658 325.576 -12.0163 314.219C16.0909 302.919 41.4948 302.954 62.9838 310.351C84.4792 317.751 102.091 332.529 114.582 350.769C139.585 387.277 143.991 437.501 118.162 469.978Z" stroke="#212121"/>
<path d="M104.1 469.933L103.739 470.386C80.1322 500.068 67.7054 515.693 59.5599 530.845C51.3637 546.092 47.5069 560.852 40.9177 588.899C34.3846 616.707 8.16493 636.465 -21.3107 641.742C-50.7652 647.016 -83.3471 637.804 -102.568 607.814C-112.277 592.664 -124.918 579.7 -138.02 567.318C-141.444 564.083 -144.897 560.889 -148.338 557.706C-158.081 548.694 -167.726 539.772 -176.315 530.268C-187.929 517.416 -197.574 503.538 -202.854 487.019C-208.132 470.507 -209.061 451.32 -203.184 427.831C-197.301 404.318 -189.091 388.913 -178.511 378.357C-167.932 367.803 -154.939 362.05 -139.397 357.923C-129.232 355.224 -118.018 353.229 -105.696 351.037C-99.1481 349.873 -92.2879 348.652 -85.1063 347.241C-64.4337 343.179 -41.1729 337.546 -15.2578 327.128C10.5148 316.767 33.8062 316.8 53.5068 323.581C73.2138 330.365 89.3615 343.914 100.815 360.638C123.741 394.115 127.777 440.163 104.1 469.933Z" stroke="#212121"/>
<path d="M90.037 469.888L89.7052 470.306C68.2318 497.305 56.9238 511.523 49.5113 525.312C42.0513 539.19 38.5414 552.623 32.5468 578.139C26.6084 603.416 2.77254 621.381 -24.0314 626.181C-50.8143 630.976 -80.4367 622.6 -97.9116 595.333C-106.748 581.545 -118.252 569.748 -130.173 558.483C-133.288 555.539 -136.43 552.632 -139.561 549.736C-148.425 541.537 -157.198 533.423 -165.01 524.778C-175.574 513.088 -184.344 500.467 -189.145 485.447C-193.944 470.434 -194.789 452.986 -189.445 431.624C-184.094 410.237 -176.627 396.231 -167.009 386.635C-157.392 377.04 -145.58 371.809 -131.445 368.056C-122.199 365.601 -111.999 363.786 -100.79 361.792C-94.8328 360.733 -88.5905 359.622 -82.0548 358.338C-63.2456 354.642 -42.0804 349.517 -18.4998 340.037C4.93831 330.614 26.1172 330.645 44.0294 336.811C61.948 342.979 76.6314 355.299 87.0467 370.508C107.897 400.953 111.562 442.824 90.037 469.888Z" stroke="#212121"/>
<path d="M77.211 469.849L76.9053 470.233C57.3778 494.786 47.0903 507.72 40.3463 520.266C33.5578 532.894 30.3642 545.118 24.912 568.326C19.5159 591.295 -2.14565 607.625 -26.5129 611.988C-50.8589 616.347 -77.7821 608.733 -93.6647 583.951C-101.705 571.405 -112.172 560.672 -123.015 550.425C-125.849 547.746 -128.708 545.102 -131.556 542.468C-139.617 535.011 -147.594 527.633 -154.699 519.771C-164.305 509.141 -172.277 497.668 -176.641 484.015C-181.004 470.368 -181.772 454.507 -176.913 435.084C-172.047 415.637 -165.259 402.905 -156.518 394.185C-147.78 385.466 -137.044 380.711 -124.191 377.298C-115.783 375.066 -106.509 373.416 -96.3156 371.603C-90.8969 370.639 -85.2182 369.629 -79.2715 368.46C-62.162 365.098 -42.9081 360.436 -21.4567 351.812C-0.147833 343.245 19.1042 343.274 35.3853 348.879C51.6727 354.486 65.0206 365.684 74.4892 379.51C93.4463 407.191 96.7732 445.252 77.211 469.849Z" stroke="#212121"/>
<path d="M62.52 469.801L62.2443 470.148C44.9455 491.898 35.8268 503.363 29.8486 514.485C23.8292 525.682 20.9979 536.521 16.1669 557.084C11.3921 577.409 -7.77908 591.867 -29.3552 595.731C-50.9103 599.59 -74.7418 592.849 -88.8005 570.912C-95.9291 559.789 -105.208 550.274 -114.817 541.194C-117.329 538.82 -119.863 536.476 -122.387 534.141C-129.53 527.535 -136.595 520.999 -142.889 514.035C-151.398 504.619 -158.456 494.459 -162.32 482.372C-166.182 470.291 -166.863 456.247 -162.56 439.046C-158.25 421.819 -152.238 410.549 -144.503 402.831C-136.77 395.115 -127.267 390.906 -115.883 387.883C-108.435 385.905 -100.222 384.444 -91.1908 382.838C-86.3888 381.983 -81.3557 381.088 -76.0837 380.052C-60.9209 377.073 -43.8563 372.941 -24.8437 365.297C-5.97362 357.711 11.0715 357.738 25.4843 362.699C39.9034 367.663 51.7216 377.577 60.1058 389.82C76.8943 414.334 79.8339 448.032 62.52 469.801Z" stroke="#212121"/>
<path d="M46.7683 469.751L46.5245 470.057C31.6156 488.803 23.7503 498.692 18.593 508.286C13.3983 517.95 10.9556 527.303 6.79063 545.032C2.68181 562.521 -13.8191 574.972 -32.4026 578.299C-50.9651 581.623 -71.4816 575.817 -83.5849 556.932C-89.7356 547.335 -97.7408 539.127 -106.026 531.297C-108.194 529.248 -110.379 527.227 -112.556 525.214C-118.713 519.518 -124.802 513.887 -130.226 507.885C-137.558 499.771 -143.637 491.02 -146.964 480.611C-150.289 470.208 -150.877 458.114 -147.169 443.294C-143.455 428.449 -138.277 418.745 -131.62 412.103C-124.964 405.462 -116.785 401.837 -106.975 399.232C-100.557 397.528 -93.4799 396.269 -85.6957 394.884C-81.555 394.148 -77.214 393.375 -72.6654 392.482C-59.59 389.912 -44.8727 386.349 -28.4751 379.757C-12.2199 373.222 2.45894 373.246 14.8685 377.518C27.2843 381.792 37.4623 390.33 44.6839 400.875C59.1471 421.994 61.6716 451.012 46.7683 469.751Z" stroke="#212121"/>
<path d="M31.2639 469.702L31.0518 469.968C18.495 485.756 11.8632 494.095 7.51409 502.185C3.13108 510.339 1.07076 518.231 -2.43857 533.168C-5.89177 547.867 -19.7643 558.342 -35.4023 561.142C-51.0191 563.938 -68.2728 559.054 -78.4512 543.172C-83.6396 535.076 -90.391 528.154 -97.3735 521.556C-99.2015 519.828 -101.044 518.124 -102.878 516.427C-108.066 511.628 -113.193 506.886 -117.761 501.832C-123.936 494.999 -129.051 487.634 -131.849 478.878C-134.646 470.128 -135.142 459.951 -132.021 447.476C-128.893 434.975 -124.535 426.812 -118.939 421.229C-113.344 415.647 -106.466 412.596 -98.2075 410.404C-92.8016 408.968 -86.8439 407.908 -80.287 406.742C-76.7972 406.121 -73.1375 405.47 -69.3009 404.716C-58.2801 402.551 -45.8732 399.547 -32.0495 393.989C-18.3681 388.489 -6.01848 388.511 4.41927 392.104C14.8633 395.699 23.4269 402.882 29.5042 411.756C41.6786 429.533 43.7944 453.946 31.2639 469.702Z" stroke="#212121"/>
</svg>
