<svg width="420" height="940" viewBox="0 0 420 940" fill="none" xmlns="http://www.w3.org/2000/svg">
<path d="M776.791 470.452L776.1 471.321C727.81 532.038 702.439 563.938 685.814 594.865C669.1 625.957 661.23 656.055 647.762 713.385C634.349 770.476 580.55 810.967 520.165 821.779C459.802 832.587 392.981 813.71 353.563 752.205C333.755 721.298 307.958 694.838 281.187 669.539C274.2 662.935 267.148 656.413 260.119 649.911C240.201 631.487 220.463 613.231 202.892 593.787C179.128 567.491 159.365 539.063 148.543 505.206C137.723 471.356 135.829 432.041 147.86 383.954C159.897 335.842 176.712 304.261 198.425 282.598C220.136 260.937 246.789 249.147 278.598 240.701C299.392 235.179 322.349 231.095 347.549 226.612C360.926 224.233 374.936 221.74 389.589 218.861C431.821 210.562 479.326 199.059 532.249 177.782C585.03 156.563 632.762 156.62 673.153 170.525C713.55 184.431 746.638 212.201 770.1 246.459C817.043 315.004 825.366 409.376 776.791 470.452Z" stroke="#212121"/>
<path d="M763.789 470.412L763.125 471.248C716.807 529.484 692.471 560.084 676.523 589.75C660.49 619.576 652.941 648.448 640.022 703.438C627.16 758.189 575.564 797.023 517.65 807.392C459.756 817.758 395.672 799.654 357.868 740.667C338.867 711.019 314.121 685.638 288.443 661.371C281.741 655.037 274.976 648.78 268.233 642.543C249.129 624.872 230.198 607.362 213.344 588.712C190.552 563.491 171.597 536.225 161.218 503.754C150.841 471.289 149.024 433.584 160.563 387.462C172.109 341.316 188.236 311.027 209.059 290.252C229.88 269.478 255.442 258.171 285.951 250.07C305.895 244.774 327.914 240.857 352.085 236.557C364.916 234.275 378.354 231.884 392.41 229.122C432.919 221.162 478.487 210.128 529.252 189.719C579.874 169.368 625.653 169.423 664.39 182.758C703.134 196.095 734.868 222.728 757.37 255.585C802.394 321.328 810.375 411.838 763.789 470.412Z" stroke="#212121"/>
<path d="M749.984 470.368L749.348 471.167C705.125 526.771 681.886 555.989 666.658 584.317C651.348 612.799 644.14 640.369 631.804 692.874C619.525 745.14 570.27 782.215 514.979 792.115C459.708 802.011 398.529 784.727 362.439 728.414C344.295 700.104 320.666 675.868 296.147 652.697C289.747 646.648 283.288 640.674 276.849 634.718C258.608 617.846 240.534 601.128 224.443 583.322C202.681 559.241 184.585 533.211 174.676 502.211C164.769 471.217 163.034 435.219 174.051 391.185C185.075 347.126 200.471 318.21 220.35 298.377C240.226 278.546 264.629 267.751 293.758 260.017C312.8 254.96 333.823 251.221 356.9 247.115C369.153 244.936 381.984 242.653 395.406 240.015C434.086 232.415 477.596 221.879 526.069 202.391C574.4 182.961 618.104 183.014 655.086 195.745C692.074 208.478 722.371 233.904 743.854 265.273C786.84 328.041 794.457 414.45 749.984 470.368Z" stroke="#212121"/>
<path d="M735.613 470.322L735.004 471.087C692.962 523.948 670.868 551.728 656.389 578.663C641.831 605.744 634.977 631.96 623.25 681.878C611.578 731.557 564.76 766.8 512.198 776.211C459.658 785.619 401.504 769.188 367.198 715.66C349.946 688.741 327.479 665.697 304.168 643.667C298.083 637.917 291.942 632.236 285.82 626.575C268.478 610.533 251.295 594.639 235.997 577.711C215.308 554.818 198.106 530.073 188.687 500.604C179.269 471.142 177.619 436.922 188.093 395.062C198.573 353.176 213.209 325.689 232.104 306.837C250.998 287.987 274.194 277.725 301.885 270.372C319.989 265.565 339.974 262.01 361.914 258.107C373.563 256.035 385.763 253.864 398.525 251.356C435.3 244.13 476.669 234.113 522.756 215.584C568.701 197.114 610.246 197.165 645.4 209.266C680.561 221.37 709.361 245.54 729.784 275.36C770.648 335.029 777.886 417.17 735.613 470.322Z" stroke="#212121"/>
<path d="M721.744 470.277L721.165 471.005C681.227 521.221 660.235 547.615 646.479 573.204C632.647 598.935 626.135 623.843 614.994 671.266C603.909 718.449 559.442 751.925 509.515 760.864C459.61 769.799 404.374 754.193 371.79 703.351C355.398 677.775 334.052 655.882 311.907 634.953C306.125 629.489 300.291 624.093 294.475 618.713C278 603.474 261.677 588.376 247.145 572.296C227.492 550.549 211.153 527.043 202.206 499.053C193.261 471.069 191.693 438.565 201.642 398.801C211.597 359.011 225.501 332.903 243.447 314.998C261.391 297.095 283.423 287.348 309.728 280.363C326.925 275.797 345.909 272.42 366.752 268.712C377.818 266.743 389.409 264.681 401.534 262.298C436.471 255.433 475.774 245.916 519.559 228.314C563.201 210.768 602.664 210.817 636.054 222.312C669.451 233.808 696.807 256.766 716.206 285.092C755.023 341.772 761.896 419.793 721.744 470.277Z" stroke="#212121"/>
<path d="M707.334 470.232L706.784 470.923C669.032 518.39 649.187 543.342 636.182 567.535C623.104 591.862 616.948 615.411 606.416 660.24C595.941 704.829 553.916 736.469 506.727 744.918C459.559 753.363 407.356 738.612 376.561 690.562C361.064 666.382 340.884 645.684 319.949 625.899C314.483 620.734 308.967 615.632 303.47 610.547C287.896 596.142 272.467 581.871 258.73 566.67C240.154 546.114 224.711 523.898 216.254 497.443C207.8 470.994 206.318 440.273 215.722 402.688C225.132 365.078 238.273 340.402 255.233 323.481C272.192 306.562 293.013 297.349 317.877 290.747C334.133 286.431 352.077 283.239 371.779 279.734C382.241 277.873 393.198 275.923 404.661 273.671C437.689 267.181 474.844 258.184 516.236 241.543C557.487 224.959 594.784 225.006 626.342 235.87C657.906 246.735 683.762 268.434 702.097 295.206C738.786 348.78 745.279 422.521 707.334 470.232Z" stroke="#212121"/>
<path d="M693.786 470.187L693.263 470.845C657.567 515.727 638.8 539.323 626.501 562.202C614.133 585.21 608.311 607.482 598.352 649.872C588.449 692.023 548.721 721.936 504.106 729.924C459.512 737.909 410.16 723.963 381.047 678.537C366.391 655.669 347.306 636.095 327.51 617.386C322.341 612.501 317.125 607.676 311.926 602.868C297.199 589.246 282.611 575.752 269.622 561.38C252.057 541.943 237.457 520.938 229.462 495.927C221.47 470.923 220.068 441.877 228.959 406.341C237.857 370.779 250.281 347.451 266.314 331.454C282.345 315.46 302.03 306.75 325.539 300.508C340.91 296.426 357.876 293.408 376.505 290.094C386.398 288.334 396.76 286.491 407.601 284.36C438.834 278.223 473.969 269.715 513.113 253.979C552.114 238.299 587.377 238.344 617.211 248.614C647.052 258.887 671.498 279.401 688.832 304.713C723.522 355.367 729.658 425.084 693.786 470.187Z" stroke="#212121"/>
<path d="M681.011 470.146L680.515 470.771C646.756 513.216 629.006 535.535 617.373 557.175C605.673 578.939 600.166 600.007 590.748 640.097C581.385 679.949 543.822 708.234 501.634 715.788C459.468 723.338 412.804 710.151 385.277 667.199C371.414 645.568 353.362 627.054 334.638 609.359C329.749 604.739 324.816 600.176 319.899 595.627C305.971 582.745 292.175 569.984 279.892 556.392C263.281 538.011 249.475 518.148 241.915 494.499C234.358 470.856 233.032 443.391 241.44 409.785C249.854 376.155 261.603 354.097 276.762 338.973C291.919 323.85 310.531 315.615 332.763 309.711C347.299 305.852 363.343 302.997 380.962 299.863C390.318 298.199 400.119 296.455 410.373 294.44C439.913 288.636 473.145 280.589 510.168 265.704C547.049 250.878 580.392 250.92 608.602 260.631C636.819 270.345 659.934 289.742 676.326 313.678C709.13 361.578 714.929 427.5 681.011 470.146Z" stroke="#212121"/>
<path d="M669.37 470.111L668.898 470.705C636.905 510.93 620.081 532.085 609.054 552.596C597.965 573.226 592.744 593.197 583.818 631.192C574.948 668.948 539.359 695.75 499.382 702.907C459.427 710.061 415.213 697.566 389.131 656.869C375.991 636.366 358.88 618.817 341.135 602.047C336.501 597.667 331.825 593.342 327.165 589.032C313.965 576.822 300.891 564.73 289.25 551.849C273.509 534.43 260.427 515.608 253.264 493.199C246.103 470.797 244.846 444.772 252.814 412.927C260.788 381.057 271.921 360.156 286.283 345.827C300.644 331.499 318.278 323.695 339.346 318.101C353.122 314.443 368.326 311.739 385.023 308.768C393.891 307.191 403.18 305.538 412.9 303.628C440.896 298.127 472.394 290.5 507.484 276.393C542.432 262.343 574.027 262.384 600.756 271.585C627.493 280.789 649.395 299.169 664.928 321.85C696.014 367.241 701.506 429.705 669.37 470.111Z" stroke="#212121"/>
<path d="M656.493 470.07L656.047 470.63C626.008 508.4 610.208 528.266 599.853 547.529C589.437 566.905 584.535 585.661 576.153 621.338C567.827 656.777 534.421 681.937 496.891 688.657C459.382 695.373 417.879 683.643 393.395 645.44C381.054 626.184 364.985 609.704 348.321 593.956C343.969 589.843 339.578 585.782 335.202 581.734C322.808 570.269 310.533 558.915 299.603 546.821C284.823 530.466 272.542 512.796 265.817 491.76C259.095 470.729 257.915 446.298 265.395 416.399C272.882 386.476 283.335 366.856 296.816 353.406C310.295 339.957 326.848 332.631 346.628 327.379C359.563 323.945 373.837 321.405 389.515 318.616C397.842 317.135 406.566 315.583 415.694 313.789C441.984 308.623 471.563 301.461 504.516 288.213C537.326 275.023 566.986 275.062 592.078 283.7C617.176 292.339 637.738 309.594 652.321 330.887C681.505 373.502 686.658 432.142 656.493 470.07Z" stroke="#212121"/>
<path d="M642.172 470.024L641.755 470.549C613.889 505.586 599.228 524.019 589.62 541.893C579.954 559.875 575.405 577.281 567.628 610.381C559.908 643.242 528.929 666.577 494.12 672.809C459.332 679.038 420.842 668.159 398.137 632.73C386.685 614.861 371.773 599.569 356.313 584.958C352.274 581.141 348.2 577.373 344.14 573.617C332.641 562.981 321.254 552.449 311.115 541.229C297.405 526.058 286.014 509.669 279.778 490.159C273.544 470.654 272.448 447.994 279.387 420.261C286.332 392.504 296.027 374.307 308.528 361.835C321.028 349.364 336.378 342.569 354.727 337.697C366.726 334.511 379.966 332.156 394.511 329.568C402.237 328.194 410.331 326.754 418.801 325.09C443.194 320.296 470.638 313.651 501.214 301.359C531.647 289.124 559.156 289.161 582.426 297.172C605.704 305.185 624.774 321.188 638.3 340.937C665.37 380.465 670.146 434.852 642.172 470.024Z" stroke="#212121"/>
<path d="M628.162 469.978L627.773 470.466C602.033 502.831 588.487 519.863 579.608 536.379C570.676 552.995 566.472 569.08 559.288 599.659C552.161 629.998 523.557 651.548 491.41 657.304C459.284 663.056 423.742 653.009 402.776 620.294C392.194 603.782 378.415 589.652 364.132 576.153C360.4 572.627 356.636 569.145 352.885 565.675C342.262 555.85 331.745 546.121 322.379 535.758C309.715 521.744 299.196 506.608 293.437 488.591C287.68 470.58 286.668 449.653 293.076 424.039C299.491 398.399 308.445 381.596 319.988 370.08C331.529 358.565 345.703 352.291 362.65 347.791C373.734 344.848 385.963 342.672 399.398 340.282C406.536 339.012 414.015 337.682 421.842 336.144C444.378 331.716 469.734 325.576 497.984 314.219C526.091 302.919 551.495 302.954 572.984 310.351C594.479 317.751 612.091 332.529 624.583 350.769C649.585 387.277 653.991 437.501 628.162 469.978Z" stroke="#212121"/>
<path d="M614.099 469.933L613.739 470.386C590.132 500.068 577.705 515.693 569.56 530.845C561.363 546.092 557.507 560.852 550.917 588.899C544.384 616.707 518.165 636.465 488.689 641.742C459.235 647.016 426.653 637.804 407.432 607.814C397.723 592.664 385.081 579.7 371.979 567.318C368.556 564.083 365.103 560.889 361.662 557.706C351.919 548.694 342.273 539.772 333.684 530.268C322.07 517.416 312.426 503.538 307.146 487.019C301.867 470.507 300.939 451.32 306.816 427.831C312.699 404.318 320.909 388.913 331.489 378.357C342.068 367.803 355.061 362.05 370.603 357.923C380.767 355.224 391.982 353.229 404.304 351.037C410.852 349.873 417.712 348.652 424.893 347.241C445.566 343.179 468.827 337.546 494.742 327.128C520.515 316.767 543.806 316.8 563.507 323.581C583.214 330.365 599.361 343.914 610.814 360.638C633.741 394.115 637.776 440.163 614.099 469.933Z" stroke="#212121"/>
<path d="M600.037 469.888L599.705 470.306C578.232 497.305 566.924 511.523 559.511 525.312C552.051 539.19 548.541 552.623 542.547 578.139C536.608 603.416 512.772 621.381 485.968 626.181C459.185 630.976 429.563 622.6 412.088 595.333C403.252 581.545 391.748 569.748 379.827 558.483C376.712 555.539 373.57 552.632 370.439 549.736C361.575 541.537 352.802 533.423 344.989 524.778C334.426 513.088 325.656 500.467 320.855 485.447C316.055 470.434 315.21 452.986 320.555 431.624C325.906 410.237 333.373 396.231 342.991 386.635C352.607 377.04 364.42 371.809 378.555 368.056C387.801 365.601 398.001 363.786 409.21 361.792C415.167 360.733 421.409 359.622 427.945 358.338C446.754 354.642 467.919 349.517 491.5 340.037C514.938 330.614 536.117 330.645 554.029 336.811C571.948 342.979 586.631 355.299 597.046 370.508C617.897 400.953 621.562 442.824 600.037 469.888Z" stroke="#212121"/>
<path d="M587.211 469.849L586.905 470.233C567.378 494.786 557.09 507.72 550.346 520.266C543.558 532.894 540.364 545.118 534.912 568.326C529.516 591.295 507.854 607.625 483.487 611.988C459.141 616.347 432.218 608.733 416.335 583.951C408.295 571.405 397.828 560.672 386.985 550.425C384.151 547.746 381.292 545.102 378.444 542.468C370.383 535.011 362.405 527.633 355.301 519.771C345.695 509.141 337.722 497.668 333.358 484.015C328.996 470.368 328.227 454.507 333.087 435.084C337.953 415.637 344.741 402.905 353.481 394.185C362.22 385.466 372.956 380.711 385.809 377.298C394.216 375.066 403.49 373.416 413.684 371.603C419.103 370.639 424.782 369.629 430.728 368.46C447.838 365.098 467.092 360.436 488.543 351.812C509.852 343.245 529.104 343.274 545.385 348.879C561.672 354.486 575.02 365.684 584.489 379.51C603.446 407.191 606.773 445.252 587.211 469.849Z" stroke="#212121"/>
<path d="M572.52 469.801L572.244 470.148C554.945 491.898 545.827 503.363 539.849 514.485C533.829 525.682 530.998 536.521 526.167 557.084C521.392 577.409 502.221 591.867 480.645 595.731C459.09 599.59 435.258 592.849 421.199 570.912C414.071 559.789 404.792 550.274 395.183 541.194C392.671 538.82 390.137 536.476 387.613 534.141C380.47 527.535 373.405 520.999 367.111 514.035C358.602 504.619 351.544 494.459 347.68 482.372C343.818 470.291 343.137 456.247 347.44 439.046C351.75 421.819 357.762 410.549 365.497 402.831C373.23 395.115 382.733 390.906 394.117 387.883C401.565 385.905 409.778 384.444 418.809 382.838C423.611 381.983 428.644 381.088 433.916 380.052C449.079 377.073 466.144 372.941 485.156 365.297C504.026 357.711 521.072 357.738 535.484 362.699C549.903 367.663 561.722 377.577 570.106 389.82C586.894 414.334 589.834 448.032 572.52 469.801Z" stroke="#212121"/>
<path d="M556.768 469.751L556.524 470.057C541.615 488.803 533.75 498.692 528.593 508.286C523.398 517.95 520.955 527.303 516.79 545.032C512.682 562.521 496.181 574.972 477.597 578.299C459.035 581.623 438.518 575.817 426.415 556.932C420.264 547.335 412.259 539.127 403.974 531.297C401.806 529.248 399.621 527.227 397.444 525.214C391.287 519.518 385.198 513.887 379.774 507.885C372.442 499.771 366.363 491.02 363.036 480.611C359.711 470.208 359.122 458.114 362.83 443.294C366.544 428.449 371.723 418.745 378.38 412.103C385.036 405.462 393.215 401.837 403.024 399.232C409.443 397.528 416.52 396.269 424.304 394.884C428.445 394.148 432.786 393.375 437.334 392.482C450.41 389.912 465.127 386.349 481.525 379.757C497.78 373.222 512.459 373.246 524.868 377.518C537.284 381.792 547.462 390.33 554.684 400.875C569.147 421.994 571.671 451.012 556.768 469.751Z" stroke="#212121"/>
<path d="M541.264 469.702L541.052 469.968C528.495 485.756 521.863 494.095 517.514 502.185C513.131 510.339 511.071 518.231 507.561 533.168C504.108 547.867 490.235 558.342 474.597 561.142C458.981 563.938 441.727 559.054 431.549 543.172C426.36 535.076 419.609 528.154 412.626 521.556C410.798 519.828 408.956 518.124 407.121 516.427C401.933 511.628 396.807 506.886 392.239 501.832C386.064 494.999 380.949 487.634 378.15 478.878C375.353 470.128 374.857 459.951 377.979 447.476C381.106 434.975 385.465 426.812 391.061 421.229C396.656 415.647 403.533 412.596 411.792 410.404C417.198 408.968 423.156 407.908 429.713 406.742C433.203 406.121 436.862 405.47 440.699 404.716C451.72 402.551 464.127 399.547 477.95 393.989C491.632 388.489 503.981 388.511 514.419 392.104C524.863 395.699 533.427 402.882 539.504 411.756C551.678 429.533 553.794 453.946 541.264 469.702Z" stroke="#212121"/>
</svg>
