<svg width="392" height="941" viewBox="0 0 392 941" fill="none" xmlns="http://www.w3.org/2000/svg">
<path d="M250.668 471.069L249.977 471.938C201.687 532.655 176.316 564.555 159.691 595.482C142.977 626.574 135.107 656.672 121.638 714.002C108.226 771.093 54.4267 811.584 -5.95796 822.396C-66.3215 833.204 -133.142 814.327 -172.56 752.822C-192.368 721.915 -218.165 695.455 -244.936 670.156C-251.923 663.553 -258.975 657.03 -266.004 650.528C-285.922 632.104 -305.66 613.848 -323.231 594.404C-346.995 568.108 -366.758 539.68 -377.58 505.823C-388.4 471.973 -390.294 432.659 -378.263 384.572C-366.226 336.46 -349.411 304.878 -327.699 283.215C-305.987 261.554 -279.334 249.764 -247.525 241.318C-226.731 235.797 -203.774 231.712 -178.574 227.23C-165.197 224.85 -151.187 222.357 -136.534 219.478C-94.3023 211.179 -46.7971 199.676 6.12607 178.4C58.9068 157.18 106.639 157.238 147.03 171.142C187.427 185.048 220.515 212.818 243.977 247.076C290.92 315.622 299.243 409.993 250.668 471.069Z" stroke="#212121"/>
<path d="M237.789 471.412L237.124 472.248C190.807 530.484 166.47 561.084 150.523 590.75C134.49 620.576 126.941 649.448 114.022 704.438C101.159 759.189 49.5638 798.023 -8.35079 808.392C-66.2442 818.758 -130.328 800.654 -168.132 741.667C-187.133 712.019 -211.879 686.638 -237.557 662.371C-244.26 656.037 -251.024 649.78 -257.767 643.543C-276.872 625.872 -295.803 608.362 -312.656 589.712C-335.449 564.491 -354.403 537.225 -364.782 504.754C-375.16 472.289 -376.977 434.584 -365.437 388.462C-353.892 342.316 -337.765 312.027 -316.942 291.252C-296.121 270.478 -270.558 259.171 -240.05 251.07C-220.105 245.774 -198.086 241.857 -173.916 237.557C-161.084 235.275 -147.646 232.884 -133.59 230.122C-93.0812 222.162 -47.5135 211.128 3.25126 190.719C53.8736 170.368 99.6522 170.423 138.39 183.758C177.134 197.095 208.868 223.728 231.37 256.585C276.394 322.328 284.374 412.838 237.789 471.412Z" stroke="#212121"/>
<path d="M223.984 471.368L223.348 472.167C179.125 527.771 155.886 556.989 140.658 585.317C125.348 613.799 118.139 641.369 105.804 693.874C93.5252 746.14 44.2702 783.215 -11.0215 793.115C-66.2922 803.011 -127.471 785.727 -163.561 729.414C-181.705 701.104 -205.335 676.868 -229.853 653.697C-236.253 647.648 -242.712 641.674 -249.151 635.718C-267.392 618.846 -285.466 602.128 -301.557 584.322C-323.319 560.241 -341.415 534.211 -351.324 503.211C-361.231 472.217 -362.966 436.219 -351.949 392.185C-340.926 348.126 -325.529 319.21 -305.651 299.377C-285.774 279.546 -261.371 268.751 -232.243 261.017C-213.2 255.96 -192.177 252.221 -169.1 248.115C-156.848 245.936 -144.016 243.653 -130.594 241.015C-91.9147 233.415 -48.4043 222.879 0.0687377 203.391C48.3993 183.961 92.1041 184.014 129.086 196.745C166.074 209.478 196.371 234.904 217.854 266.273C260.84 329.041 268.457 415.45 223.984 471.368Z" stroke="#212121"/>
<path d="M209.612 471.322L209.004 472.087C166.962 524.948 144.867 552.728 130.389 579.663C115.831 606.744 108.977 632.96 97.2494 682.878C85.5781 732.557 38.7594 767.8 -13.8019 777.211C-66.3421 786.619 -124.497 770.188 -158.802 716.66C-176.054 689.741 -198.522 666.697 -221.833 644.667C-227.918 638.917 -234.059 633.236 -240.18 627.575C-257.523 611.533 -274.706 595.639 -290.004 578.711C-310.692 555.818 -327.894 531.073 -337.313 501.604C-346.731 472.142 -348.381 437.922 -337.907 396.062C-327.428 354.176 -312.791 326.689 -293.896 307.837C-275.003 288.987 -251.806 278.725 -224.115 271.372C-206.011 266.565 -186.026 263.01 -164.086 259.107C-152.437 257.035 -140.237 254.864 -127.475 252.356C-90.7004 245.13 -49.3316 235.113 -3.24441 216.584C42.7004 198.114 84.2461 198.165 119.4 210.266C154.561 222.37 183.361 246.54 203.783 276.36C244.647 336.029 251.886 418.17 209.612 471.322Z" stroke="#212121"/>
<path d="M195.744 471.279L195.165 472.007C155.226 522.223 134.235 548.617 120.479 574.206C106.647 599.937 100.135 624.845 88.9939 672.268C77.909 719.451 33.4413 752.927 -16.4854 761.866C-66.3909 770.801 -121.627 755.195 -154.211 704.353C-170.602 678.777 -191.948 656.883 -214.094 635.955C-219.875 630.491 -225.71 625.094 -231.525 619.715C-248 604.476 -264.323 589.378 -278.855 573.298C-298.508 551.551 -314.848 528.045 -323.795 500.055C-332.74 472.071 -334.307 439.566 -324.358 399.802C-314.403 360.013 -300.5 333.905 -282.554 316C-264.609 298.097 -242.578 288.35 -216.273 281.365C-199.075 276.799 -180.091 273.421 -159.249 269.714C-148.182 267.745 -136.592 265.683 -124.466 263.3C-89.5291 256.435 -50.227 246.918 -6.44197 229.316C37.2006 211.77 76.663 211.819 110.054 223.313C143.45 234.81 170.807 257.768 190.205 286.094C229.022 342.774 235.895 420.795 195.744 471.279Z" stroke="#212121"/>
<path d="M181.333 471.232L180.783 471.923C143.031 519.39 123.186 544.342 110.181 568.535C97.1039 592.862 90.9474 616.411 80.4158 661.24C69.9402 705.829 27.9154 737.469 -19.2734 745.918C-66.4411 754.363 -118.644 739.612 -149.439 691.562C-164.936 667.382 -185.117 646.684 -206.052 626.899C-211.517 621.734 -217.033 616.632 -222.531 611.547C-238.105 597.142 -253.533 582.871 -267.27 567.67C-285.847 547.114 -301.29 524.898 -309.746 498.443C-318.2 471.994 -319.682 441.273 -310.278 403.688C-300.868 366.078 -287.727 341.402 -270.767 324.481C-253.809 307.562 -232.987 298.349 -208.123 291.747C-191.867 287.431 -173.923 284.239 -154.221 280.734C-143.76 278.873 -132.803 276.923 -121.339 274.671C-88.3116 268.181 -51.157 259.184 -9.76424 242.543C31.4861 225.959 68.7836 226.006 100.341 236.87C131.906 247.735 157.761 269.434 176.096 296.206C212.786 349.78 219.279 423.521 181.333 471.232Z" stroke="#212121"/>
<path d="M167.786 471.189L167.263 471.846C131.566 516.729 112.799 540.325 100.501 563.204C88.1326 586.212 82.3103 608.484 72.3515 650.874C62.4489 693.025 22.7207 722.938 -21.8942 730.926C-66.488 738.911 -115.84 724.965 -144.953 679.539C-159.609 656.671 -178.694 637.097 -198.491 618.388C-203.66 613.503 -208.876 608.678 -214.074 603.87C-228.801 590.248 -243.389 576.754 -256.378 562.382C-273.943 542.945 -288.544 521.94 -296.538 496.929C-304.531 471.925 -305.932 442.879 -297.041 407.342C-288.144 371.781 -275.719 348.453 -259.686 332.456C-243.655 316.462 -223.971 307.752 -200.461 301.51C-185.09 297.428 -168.124 294.41 -149.495 291.096C-139.602 289.336 -129.24 287.493 -118.399 285.362C-87.1666 279.225 -52.0309 270.717 -12.8873 254.981C26.114 239.301 61.3763 239.346 91.2111 249.616C121.052 259.889 145.497 280.403 162.832 305.715C197.522 356.369 203.658 426.086 167.786 471.189Z" stroke="#212121"/>
<path d="M155.011 471.148L154.514 471.772C120.756 514.218 103.005 536.537 91.3723 558.177C79.673 579.941 74.1658 601.009 64.7472 641.099C55.3847 680.951 17.822 709.236 -24.366 716.79C-66.5328 724.34 -113.196 711.153 -140.724 668.201C-154.587 646.57 -172.639 628.056 -191.362 610.361C-196.251 605.741 -201.185 601.177 -206.102 596.629C-220.03 583.747 -233.826 570.986 -246.109 557.394C-262.72 539.013 -276.526 519.15 -284.085 495.501C-291.643 471.858 -292.969 444.392 -284.561 410.787C-276.146 377.157 -264.397 355.099 -249.239 339.975C-234.081 324.852 -215.47 316.617 -193.238 310.713C-178.701 306.854 -162.657 303.999 -145.039 300.865C-135.682 299.201 -125.882 297.457 -115.627 295.442C-86.0877 289.638 -52.8556 281.591 -15.8326 266.706C21.048 251.879 54.3913 251.922 82.6016 261.633C110.818 271.347 133.933 290.744 150.325 314.68C183.129 362.58 188.928 428.502 155.011 471.148Z" stroke="#212121"/>
<path d="M143.369 471.111L142.897 471.705C110.905 511.93 94.0799 533.085 83.0536 553.596C71.9638 574.226 66.7437 594.197 57.8174 632.192C48.9471 669.948 13.3579 696.75 -26.6184 703.907C-66.5736 711.061 -110.787 698.566 -136.869 657.869C-150.01 637.366 -167.12 619.817 -184.866 603.047C-189.5 598.667 -194.176 594.342 -198.836 590.032C-212.036 577.822 -225.11 565.73 -236.75 552.849C-252.492 535.43 -265.574 516.608 -272.737 494.199C-279.898 471.797 -281.154 445.772 -273.187 413.927C-265.213 382.057 -254.08 361.156 -239.717 346.827C-225.357 332.499 -207.722 324.695 -186.655 319.101C-172.879 315.443 -157.675 312.739 -140.978 309.768C-132.11 308.191 -122.821 306.538 -113.101 304.628C-85.1043 299.127 -53.607 291.5 -18.5166 277.393C16.4315 263.343 48.026 263.384 74.7558 272.585C101.492 281.789 123.395 300.169 138.927 322.85C170.013 368.241 175.505 430.705 143.369 471.111Z" stroke="#212121"/>
<path d="M130.492 471.07L130.047 471.63C100.007 509.4 84.2073 529.266 73.8522 548.529C63.4365 567.905 58.5341 586.661 50.1522 622.338C41.8265 657.777 8.42019 682.937 -29.1096 689.657C-66.6183 696.373 -108.122 684.643 -132.606 646.44C-144.947 627.184 -161.016 610.704 -177.68 594.956C-182.031 590.843 -186.422 586.782 -190.798 582.734C-203.193 571.269 -215.468 559.915 -226.398 547.821C-241.178 531.466 -253.459 513.796 -260.183 492.76C-266.905 471.729 -268.086 447.298 -260.605 417.399C-253.119 387.476 -242.666 367.856 -229.185 354.406C-215.706 340.957 -199.153 333.631 -179.372 328.379C-166.438 324.945 -152.163 322.405 -136.486 319.616C-128.158 318.135 -119.435 316.583 -110.307 314.789C-84.0163 309.623 -54.4379 302.461 -21.4852 289.213C11.3252 276.023 40.9852 276.062 66.0773 284.7C91.1757 293.339 111.738 310.594 126.32 331.887C155.505 374.502 160.658 433.142 130.492 471.07Z" stroke="#212121"/>
<path d="M116.172 471.024L115.754 471.549C87.8882 506.586 73.2278 525.019 63.6192 542.893C53.9533 560.875 49.404 578.281 41.6278 611.381C33.9076 644.242 2.9289 667.577 -31.8802 673.809C-66.6682 680.038 -105.158 669.159 -127.864 633.73C-139.316 615.861 -154.227 600.569 -169.688 585.958C-173.726 582.141 -177.801 578.373 -181.861 574.617C-193.36 563.981 -204.746 553.449 -214.885 542.229C-228.596 527.058 -239.986 510.669 -246.223 491.159C-252.457 471.654 -253.552 448.994 -246.613 421.261C-239.668 393.504 -229.974 375.307 -217.472 362.835C-204.973 350.364 -189.622 343.569 -171.274 338.697C-159.275 335.511 -146.034 333.156 -131.49 330.568C-123.764 329.194 -115.67 327.754 -107.199 326.09C-82.8063 321.296 -55.362 314.651 -24.7866 302.359C5.64637 290.124 33.1551 290.161 56.4259 298.172C79.7031 306.185 98.774 322.188 112.299 341.937C139.37 381.465 144.145 435.852 116.172 471.024Z" stroke="#212121"/>
<path d="M102.162 470.98L101.773 471.468C76.0323 503.833 62.4865 520.864 53.6081 537.381C44.6756 553.997 40.4719 570.082 33.2881 600.661C26.1604 631 -2.44318 652.55 -34.5905 658.305C-66.7166 664.058 -102.258 654.011 -123.224 621.296C-133.807 604.784 -147.585 590.654 -161.868 577.155C-165.6 573.629 -169.364 570.147 -173.116 566.677C-183.738 556.852 -194.256 547.123 -203.621 536.76C-216.285 522.746 -226.805 507.61 -232.564 489.593C-238.321 471.582 -239.333 450.655 -232.924 425.041C-226.509 399.401 -217.555 382.598 -206.013 371.082C-194.472 359.567 -180.298 353.293 -163.35 348.793C-152.267 345.85 -140.037 343.674 -126.602 341.284C-119.464 340.014 -111.986 338.684 -104.158 337.146C-81.6222 332.718 -56.2658 326.578 -28.0163 315.221C0.0908596 303.921 25.4948 303.956 46.9838 311.353C68.4792 318.753 86.0912 333.531 98.5823 351.771C123.585 388.279 127.991 438.503 102.162 470.98Z" stroke="#212121"/>
<path d="M88.099 470.935L87.7388 471.388C64.1317 501.07 51.7049 516.695 43.5594 531.847C35.3632 547.094 31.5064 561.854 24.9172 589.901C18.3841 617.709 -7.83556 637.466 -37.3112 642.744C-66.7657 648.018 -99.3476 638.806 -118.568 608.816C-128.278 593.666 -140.919 580.702 -154.021 568.32C-157.444 565.085 -160.897 561.89 -164.338 558.708C-174.082 549.696 -183.727 540.774 -192.316 531.27C-203.93 518.418 -213.575 504.54 -218.855 488.021C-224.133 471.509 -225.061 452.321 -219.185 428.833C-213.302 405.32 -205.091 389.915 -194.511 379.359C-183.932 368.805 -170.939 363.052 -155.398 358.925C-145.233 356.226 -134.018 354.231 -121.696 352.039C-115.149 350.874 -108.288 349.654 -101.107 348.243C-80.4342 344.181 -57.1734 338.548 -31.2583 328.13C-5.48568 317.769 17.8057 317.802 37.5064 324.583C57.2133 331.367 73.361 344.916 84.8142 361.64C107.741 395.117 111.776 441.165 88.099 470.935Z" stroke="#212121"/>
<path d="M74.0366 470.89L73.7047 471.308C52.2313 498.307 40.9233 512.525 33.5108 526.314C26.0508 540.191 22.5409 553.625 16.5463 579.141C10.6079 604.418 -13.2279 622.383 -40.0319 627.183C-66.8148 631.978 -96.4372 623.602 -113.912 596.335C-122.749 582.547 -134.253 570.75 -146.173 559.485C-149.288 556.54 -152.431 553.634 -155.562 550.738C-164.425 542.539 -173.198 534.425 -181.011 525.78C-191.575 514.09 -200.345 501.469 -205.146 486.449C-209.945 471.436 -210.79 453.988 -205.445 432.626C-200.094 411.239 -192.628 397.233 -183.009 387.636C-173.393 378.042 -161.58 372.811 -147.445 369.058C-138.199 366.603 -127.999 364.788 -116.791 362.794C-110.833 361.735 -104.591 360.624 -98.0553 359.34C-79.2461 355.644 -58.0809 350.519 -34.5003 341.039C-11.0622 331.616 10.1167 331.647 28.0289 337.813C45.9475 343.981 60.6309 356.301 71.0462 371.51C91.8967 401.955 95.5616 443.826 74.0366 470.89Z" stroke="#212121"/>
<path d="M61.2105 470.849L60.9048 471.233C41.3773 495.786 31.0898 508.72 24.3458 521.266C17.5573 533.894 14.3637 546.118 8.91148 569.326C3.51539 592.295 -18.1461 608.625 -42.5133 612.988C-66.8594 617.347 -93.7826 609.733 -109.665 584.951C-117.706 572.405 -128.172 561.672 -139.015 551.425C-141.85 548.746 -144.708 546.102 -147.556 543.468C-155.618 536.011 -163.595 528.633 -170.7 520.771C-180.305 510.141 -188.278 498.668 -192.642 485.015C-197.004 471.368 -197.773 455.507 -192.913 436.084C-188.048 416.637 -181.259 403.905 -172.519 395.185C-163.78 386.466 -153.045 381.711 -140.192 378.298C-131.784 376.066 -122.51 374.416 -112.316 372.603C-106.897 371.639 -101.219 370.629 -95.272 369.46C-78.1624 366.098 -58.9086 361.436 -37.4572 352.812C-16.1483 344.245 3.10374 344.274 19.3848 349.879C35.6722 355.486 49.0201 366.684 58.4887 380.51C77.4458 408.191 80.7727 446.252 61.2105 470.849Z" stroke="#212121"/>
<path d="M46.5195 470.801L46.2438 471.148C28.945 492.898 19.8264 504.363 13.8481 515.485C7.82871 526.682 4.99746 537.521 0.166459 558.084C-4.60842 578.409 -23.7796 592.867 -45.3557 596.731C-66.9108 600.59 -90.7423 593.849 -104.801 571.912C-111.93 560.789 -121.208 551.274 -130.817 542.194C-133.33 539.82 -135.863 537.476 -138.387 535.141C-145.53 528.535 -152.596 521.999 -158.889 515.035C-167.398 505.619 -174.457 495.459 -178.321 483.372C-182.182 471.291 -182.864 457.247 -178.56 440.046C-174.25 422.819 -168.239 411.549 -160.504 403.831C-152.77 396.115 -143.268 391.906 -131.884 388.883C-124.436 386.905 -116.222 385.444 -107.191 383.838C-102.389 382.983 -97.3562 382.088 -92.0842 381.052C-76.9214 378.073 -59.8568 373.941 -40.8442 366.297C-21.9741 358.711 -4.92897 358.738 9.4838 363.699C23.9029 368.663 35.7211 378.577 44.1053 390.82C60.8938 415.334 63.8334 449.032 46.5195 470.801Z" stroke="#212121"/>
<path d="M30.7679 470.751L30.524 471.057C15.6151 489.803 7.74978 499.692 2.59253 509.286C-2.6022 518.95 -5.04493 528.303 -9.20986 546.032C-13.3187 563.521 -29.8196 575.972 -48.4031 579.299C-66.9655 582.623 -87.4821 576.817 -99.5854 557.932C-105.736 548.335 -113.741 540.127 -122.026 532.297C-124.194 530.248 -126.379 528.227 -128.556 526.214C-134.714 520.518 -140.802 514.887 -146.226 508.885C-153.558 500.771 -159.638 492.02 -162.965 481.611C-166.29 471.208 -166.878 459.114 -163.17 444.294C-159.456 429.449 -154.278 419.745 -147.62 413.103C-140.964 406.462 -132.785 402.837 -122.976 400.232C-116.557 398.528 -109.48 397.269 -101.696 395.884C-97.5554 395.148 -93.2145 394.375 -88.6659 393.482C-75.5905 390.912 -60.8732 387.349 -44.4756 380.757C-28.2204 374.222 -13.5415 374.246 -1.13201 378.518C11.2838 382.792 21.4618 391.33 28.6835 401.875C43.1466 422.994 45.6711 452.012 30.7679 470.751Z" stroke="#212121"/>
<path d="M15.2634 470.702L15.0513 470.968C2.4945 486.756 -4.13725 495.095 -8.4864 503.185C-12.8694 511.339 -14.9297 519.231 -18.4391 534.168C-21.8923 548.867 -35.7648 559.342 -51.4028 562.142C-67.0196 564.938 -84.2732 560.054 -94.4517 544.172C-99.6401 536.076 -106.392 529.154 -113.374 522.556C-115.202 520.828 -117.044 519.124 -118.879 517.427C-124.067 512.628 -129.194 507.886 -133.762 502.832C-139.936 495.999 -145.051 488.634 -147.85 479.878C-150.647 471.128 -151.143 460.951 -148.022 448.476C-144.894 435.975 -140.536 427.812 -134.939 422.229C-129.344 416.647 -122.467 413.596 -114.208 411.404C-108.802 409.968 -102.844 408.908 -96.2875 407.742C-92.7976 407.121 -89.138 406.47 -85.3014 405.716C-74.2806 403.551 -61.8737 400.547 -48.05 394.989C-34.3686 389.489 -22.019 389.511 -11.5812 393.104C-1.13715 396.699 7.42644 403.882 13.5037 412.756C25.6781 430.533 27.7939 454.946 15.2634 470.702Z" stroke="#212121"/>
</svg>
