<svg width="660" height="679" viewBox="0 0 660 679" fill="none" xmlns="http://www.w3.org/2000/svg">
<path d="M647.82 288.916L647.357 289.926C615.003 360.435 598.004 397.481 589.265 431.488C580.478 465.676 580.041 496.783 580.686 555.671C581.007 584.987 570.839 608.494 553.682 626.752C536.516 645.02 512.333 658.053 484.605 666.362C429.142 682.981 359.622 680.659 304.132 663.662C297.028 661.485 290.02 659.353 283.111 657.251C200.217 632.025 131.636 611.156 82.7809 571.641C29.9159 528.883 0.100174 464.236 0.503062 348.329C0.704466 290.387 11.2492 249.039 29.3938 217.769C47.5368 186.501 73.3056 165.261 104.043 147.579C127.053 134.343 152.817 123.115 180.24 111.164C189.471 107.141 198.89 103.036 208.455 98.7452C246.418 81.7151 286.636 61.7721 326.379 32.4263C405.51 -26.0021 502.12 2.53001 570.896 63.5879C605.274 94.1079 632.65 132.723 647.355 172.574C662.061 212.427 664.082 253.477 647.82 288.916Z" stroke="#212121"/>
<path d="M634.498 291.007L634.053 291.978C603.054 359.534 586.765 395.031 578.391 427.617C569.971 460.378 569.553 490.187 570.17 546.61C570.478 574.694 560.738 597.213 544.302 614.703C527.858 632.203 504.69 644.689 478.124 652.649C424.987 668.571 358.379 666.347 305.214 650.062C298.408 647.977 291.693 645.934 285.074 643.92C205.646 619.749 139.939 599.754 93.1313 561.896C42.4847 520.932 13.9176 458.997 14.3037 347.943C14.4966 292.427 24.5997 252.813 41.9828 222.855C59.3643 192.9 84.0516 172.552 113.501 155.61C135.547 142.928 160.231 132.171 186.507 120.72C195.352 116.865 204.377 112.932 213.543 108.82C249.918 92.5026 288.455 73.3932 326.537 45.2739C402.345 -10.7015 494.903 16.6305 560.797 75.1306C593.734 104.372 619.963 141.368 634.052 179.549C648.14 217.73 650.076 257.057 634.498 291.007Z" stroke="#212121"/>
<path d="M622.128 292.948L621.7 293.88C591.958 358.696 576.33 392.756 568.294 424.023C560.216 455.459 559.814 484.061 560.406 538.196C560.701 565.136 551.358 586.736 535.593 603.514C519.818 620.301 497.593 632.279 472.107 639.916C421.128 655.191 357.225 653.057 306.22 637.434C299.689 635.433 293.248 633.473 286.898 631.541C210.689 608.35 147.65 589.167 102.743 552.846C54.1561 513.548 26.7486 454.131 27.1189 347.584C27.3041 294.322 36.997 256.318 53.6731 227.579C70.3474 198.842 94.0306 179.321 122.284 163.067C143.435 150.9 167.117 140.579 192.327 129.593C200.813 125.895 209.473 122.121 218.268 118.176C253.168 102.519 290.144 84.184 326.684 57.2036C399.407 3.50595 488.201 29.7236 551.42 85.8485C583.019 113.902 608.183 149.395 621.699 186.025C635.215 222.654 637.071 260.381 622.128 292.948Z" stroke="#212121"/>
<path d="M607.618 295.225L607.21 296.114C578.944 357.714 564.089 390.087 556.451 419.807C548.772 449.688 548.391 476.875 548.954 528.327C549.234 553.925 540.356 574.449 525.377 590.39C510.388 606.341 489.269 617.724 465.048 624.981C416.602 639.498 355.871 637.47 307.398 622.622C301.192 620.721 295.07 618.858 289.035 617.021C216.602 594.98 156.692 576.749 114.015 542.231C67.8446 504.887 41.7971 448.424 42.149 347.163C42.325 296.543 51.537 260.428 67.3836 233.118C83.2285 205.811 105.734 187.26 132.585 171.814C152.686 160.25 175.192 150.442 199.152 140C207.218 136.485 215.449 132.898 223.808 129.148C256.98 114.267 292.125 96.8402 326.855 71.1956C395.961 20.1694 480.34 45.0801 540.421 98.4192C570.451 125.08 594.365 158.811 607.209 193.62C620.054 228.43 621.817 264.28 607.618 295.225Z" stroke="#212121"/>
<path d="M593.397 297.456L593.008 298.304C566.189 356.752 552.092 387.472 544.845 415.674C537.557 444.031 537.195 469.832 537.729 518.653C537.995 542.937 529.574 562.405 515.364 577.526C501.146 592.658 481.111 603.457 458.131 610.342C412.167 624.115 354.546 622.191 308.554 608.104C302.666 606.3 296.857 604.532 291.131 602.79C222.399 581.874 165.557 564.577 125.065 531.827C81.2628 496.399 56.5482 442.83 56.8822 346.75C57.0492 298.721 65.7897 264.457 80.8235 238.547C95.8554 212.641 117.206 195.041 142.682 180.386C161.755 169.414 183.109 160.108 205.843 150.201C213.497 146.865 221.308 143.461 229.241 139.903C260.717 125.782 294.067 109.245 327.025 84.9098C392.584 36.5022 472.636 60.1318 529.641 110.74C558.134 136.036 580.823 168.039 593.009 201.064C605.195 234.091 606.867 268.1 593.397 297.456Z" stroke="#212121"/>
<path d="M578.011 299.872L577.643 300.675C552.388 355.712 539.112 384.644 532.286 411.205C525.422 437.914 525.082 462.215 525.585 508.19C525.835 531.051 517.907 549.377 504.531 563.612C491.146 577.856 472.283 588.024 450.647 594.507C407.367 607.475 353.11 605.664 309.804 592.399C304.259 590.701 298.79 589.036 293.398 587.396C228.669 567.698 175.146 551.41 137.019 520.573C95.7785 487.217 72.506 436.781 72.8205 346.305C72.9777 301.079 81.2082 268.817 95.3625 244.424C109.515 220.033 129.617 203.462 153.605 189.663C171.565 179.331 191.672 170.569 213.081 161.239C220.289 158.097 227.645 154.891 235.116 151.54C264.759 138.242 296.168 122.668 327.207 99.7491C388.929 54.1745 464.3 76.4181 517.978 124.073C544.807 147.891 566.17 178.025 577.644 209.121C589.119 240.217 590.692 272.236 578.011 299.872Z" stroke="#212121"/>
<path d="M561.985 302.387L561.639 303.14C538.014 354.627 525.593 381.696 519.206 406.548C512.783 431.54 512.465 454.279 512.936 497.29C513.17 518.668 505.757 535.805 493.248 549.116C480.731 562.437 463.09 571.947 442.851 578.011C402.369 590.141 351.616 588.447 311.107 576.039C305.92 574.45 300.804 572.893 295.761 571.359C235.202 552.93 185.135 537.694 149.471 508.849C110.899 477.651 89.1287 430.477 89.4229 345.84C89.5699 303.533 97.2692 273.357 110.507 250.542C123.744 227.731 142.545 212.231 164.984 199.323C181.784 189.659 200.593 181.462 220.621 172.734C227.365 169.795 234.247 166.795 241.237 163.659C268.97 151.219 298.356 136.647 327.398 115.204C385.124 72.5799 455.618 93.38 505.83 137.957C530.926 160.237 550.909 188.424 561.641 217.51C572.374 246.596 573.844 276.542 561.985 302.387Z" stroke="#212121"/>
<path d="M545.628 304.954L545.304 305.66C523.342 353.521 511.794 378.688 505.855 401.795C499.883 425.035 499.587 446.179 500.025 486.164C500.242 506.03 493.354 521.953 481.731 534.321C470.099 546.699 453.705 555.538 434.894 561.174C397.266 572.449 350.09 570.875 312.436 559.341C307.615 557.864 302.859 556.417 298.171 554.99C241.869 537.857 195.33 523.695 162.18 496.883C126.332 467.888 106.094 424.044 106.368 345.366C106.505 306.039 113.662 277.991 125.965 256.788C138.266 235.588 155.74 221.183 176.597 209.184C192.214 200.2 209.697 192.581 228.316 184.467C234.586 181.734 240.985 178.946 247.485 176.03C273.267 164.464 300.59 150.916 327.591 130.978C381.239 91.3665 446.756 110.693 493.431 152.13C516.758 172.839 535.331 199.039 545.307 226.073C555.283 253.108 556.647 280.938 545.628 304.954Z" stroke="#212121"/>
<path d="M529.01 307.562L528.708 308.219C508.437 352.397 497.775 375.633 492.292 396.967C486.777 418.426 486.504 437.95 486.908 474.862C487.109 493.191 480.754 507.88 470.031 519.291C459.299 530.712 444.172 538.868 426.811 544.07C392.083 554.476 348.54 553.023 313.786 542.378C309.336 541.015 304.947 539.679 300.62 538.362C248.642 522.545 205.687 509.473 175.091 484.726C142.01 457.97 123.33 417.508 123.583 344.885C123.709 308.584 130.315 282.7 141.668 263.133C153.02 243.57 169.144 230.276 188.395 219.202C202.809 210.91 218.946 203.877 236.134 196.387C241.922 193.864 247.83 191.29 253.831 188.598C277.633 177.92 302.859 165.412 327.789 147.004C377.292 110.452 437.753 128.282 480.834 166.528C502.364 185.642 519.506 209.824 528.713 234.773C537.919 259.724 539.177 285.404 529.01 307.562Z" stroke="#212121"/>
<path d="M510.308 310.495L510.033 311.096C491.663 351.129 481.998 372.192 477.028 391.532C472.028 410.987 471.781 428.688 472.147 462.141C472.328 478.74 466.574 492.042 456.864 502.375C447.145 512.718 433.443 520.106 417.714 524.819C386.249 534.247 346.795 532.931 315.306 523.286C311.273 522.05 307.296 520.84 303.376 519.647C256.264 505.31 217.342 493.466 189.62 471.044C159.653 446.806 142.727 410.151 142.955 344.341C143.07 311.447 149.056 287.996 159.34 270.272C169.623 252.551 184.229 240.508 201.672 230.474C214.733 222.96 229.355 216.588 244.932 209.8C250.178 207.513 255.533 205.18 260.973 202.739C282.546 193.061 305.412 181.724 328.01 165.038C372.85 131.929 427.621 148.074 466.657 182.729C486.165 200.048 501.697 221.958 510.038 244.562C518.379 267.167 519.517 290.427 510.308 310.495Z" stroke="#212121"/>
<path d="M493.378 313.154L493.126 313.705C476.478 349.986 467.716 369.081 463.21 386.614C458.676 404.256 458.452 420.306 458.784 450.627C458.949 465.661 453.737 477.706 444.944 487.063C436.142 496.43 423.73 503.124 409.478 507.394C380.968 515.937 345.217 514.745 316.682 506.004C313.028 504.885 309.424 503.788 305.871 502.707C263.165 489.711 227.895 478.978 202.775 458.66C175.627 436.703 160.287 403.494 160.494 343.851C160.598 314.041 166.023 292.794 175.339 276.738C184.654 260.685 197.886 249.774 213.692 240.681C225.529 233.872 238.779 228.098 252.897 221.945C257.653 219.873 262.507 217.757 267.439 215.544C286.995 206.772 307.724 196.494 328.211 181.366C368.829 151.375 418.45 165.995 453.824 197.4C471.501 213.093 485.574 232.946 493.132 253.426C500.689 273.908 501.718 294.978 493.378 313.154Z" stroke="#212121"/>
<path d="M473.634 316.252L473.408 316.744C458.768 348.649 451.059 365.449 447.094 380.877C443.104 396.403 442.908 410.529 443.2 437.198C443.344 450.405 438.766 460.985 431.043 469.205C423.31 477.434 412.403 483.317 399.874 487.071C374.81 494.582 343.375 493.534 318.286 485.849C315.073 484.865 311.904 483.9 308.78 482.95C271.212 471.517 240.2 462.079 218.114 444.216C194.254 424.918 180.765 395.728 180.947 343.278C181.038 317.065 185.809 298.387 193.997 284.276C202.183 270.168 213.812 260.577 227.709 252.583C238.118 246.595 249.768 241.518 262.185 236.107C266.369 234.283 270.64 232.422 274.98 230.475C292.182 222.758 310.42 213.716 328.445 200.406C364.14 174.05 407.753 186.891 438.857 214.505C454.399 228.303 466.772 245.758 473.415 263.762C480.059 281.767 480.962 300.283 473.634 316.252Z" stroke="#212121"/>
<path d="M452.868 319.51L452.67 319.941C440.142 347.243 433.541 361.63 430.145 374.843C426.727 388.144 426.559 400.245 426.809 423.073C426.932 434.36 423.021 443.398 416.422 450.421C409.813 457.454 400.49 462.484 389.773 465.696C368.332 472.12 341.438 471.224 319.973 464.649C317.225 463.807 314.513 462.982 311.841 462.169C279.677 452.38 253.144 444.306 234.249 429.024C213.847 412.522 202.305 387.56 202.461 342.676C202.539 320.245 206.62 304.27 213.621 292.205C220.62 280.142 230.564 271.941 242.454 265.101C251.359 259.978 261.327 255.634 271.955 251.002C275.537 249.441 279.194 247.847 282.911 246.18C297.638 239.574 313.256 231.83 328.692 220.433C359.208 197.9 396.503 208.871 423.116 232.498C436.412 244.302 446.996 259.234 452.678 274.633C458.361 290.034 459.13 305.863 452.868 319.51Z" stroke="#212121"/>
<path d="M432.29 322.74L432.121 323.109C421.685 345.852 416.181 357.847 413.35 368.865C410.498 379.961 410.359 390.056 410.567 409.078C410.67 418.462 407.418 425.974 401.934 431.81C396.44 437.657 388.685 441.843 379.763 444.516C361.914 449.865 339.519 449.119 321.645 443.645C319.356 442.943 317.099 442.256 314.873 441.579C288.063 433.42 265.969 426.696 250.237 413.972C233.261 400.241 223.647 379.468 223.777 342.08C223.842 323.397 227.241 310.1 233.066 300.062C238.889 290.027 247.163 283.201 257.063 277.506C264.48 273.239 272.78 269.622 281.635 265.763C284.621 264.462 287.67 263.133 290.77 261.742C303.044 256.236 316.065 249.781 328.936 240.277C354.32 221.534 385.355 230.651 407.518 250.327C418.589 260.156 427.4 272.588 432.13 285.406C436.861 298.226 437.497 311.393 432.29 322.74Z" stroke="#212121"/>
</svg>
