<svg width="24" height="24" viewBox="0 0 24 24" fill="none" xmlns="http://www.w3.org/2000/svg">
<rect width="24" height="24" rx="12" fill="#0077B5"/>
<path d="M18.6621 17.6618C17.8746 17.6431 17.1059 17.6431 16.3184 17.6618C16.1496 17.6618 16.1121 17.6243 16.1121 17.4556C16.1121 16.0681 16.1121 14.6618 16.1121 13.2743C16.1121 12.9556 16.0934 12.6368 15.9996 12.3368C15.7184 11.3618 14.5934 11.0056 13.7871 11.6618C13.3559 11.9993 13.1871 12.4681 13.1871 13.0306C13.1871 14.3431 13.1871 15.6556 13.1871 16.9681C13.1871 17.1368 13.1684 17.3056 13.1871 17.4931C13.2059 17.6431 13.1309 17.6806 12.9996 17.6618C12.1934 17.6618 11.4059 17.6618 10.5996 17.6618C10.4496 17.6618 10.4121 17.6243 10.4121 17.4743C10.4309 16.2931 10.4309 15.1118 10.4309 13.9118C10.4309 12.4493 10.4309 10.9868 10.4121 9.54306C10.4121 9.37431 10.4496 9.33681 10.5996 9.33681C11.4059 9.33681 12.1934 9.33681 12.9996 9.33681C13.1496 9.33681 13.1871 9.37431 13.1871 9.52431C13.1871 9.82431 13.1871 10.1243 13.1871 10.4806C13.2434 10.4243 13.2621 10.4056 13.2809 10.3868C14.0121 9.31806 15.0434 9.01806 16.2621 9.20556C17.6684 9.43056 18.5684 10.4056 18.7934 11.9056C18.8496 12.2618 18.8684 12.6181 18.8684 12.9743C18.8684 14.4743 18.8684 15.9556 18.8684 17.4556C18.8684 17.6056 18.8309 17.6618 18.6621 17.6618Z" fill="white"/>
<path d="M8.9125 13.5004C8.9125 14.8129 8.9125 16.1254 8.9125 17.4379C8.9125 17.6066 8.875 17.6629 8.70625 17.6629C7.91875 17.6441 7.13125 17.6629 6.34375 17.6629C6.19375 17.6629 6.15625 17.6254 6.15625 17.4754C6.15625 14.8316 6.15625 12.1691 6.15625 9.52539C6.15625 9.39414 6.19375 9.33789 6.34375 9.33789C7.15 9.33789 7.95625 9.33789 8.7625 9.33789C8.93125 9.33789 8.95 9.39414 8.95 9.54414C8.9125 10.8566 8.9125 12.1691 8.9125 13.5004Z" fill="white"/>
<path d="M9.04372 7.16227C8.85622 7.91226 8.08747 8.34351 7.20622 8.19351C6.26872 8.04351 5.74372 7.12477 6.08122 6.22477C6.30622 5.66227 6.84997 5.32477 7.54372 5.34352C8.59372 5.32477 9.28747 6.16852 9.04372 7.16227Z" fill="white"/>
</svg>
