<svg width="556" height="529" viewBox="0 0 556 529" fill="none" xmlns="http://www.w3.org/2000/svg">
<path d="M441.655 434.802L440.775 434.961C380.306 445.919 348.52 451.678 322.454 461.428C296.243 471.231 275.825 485.064 237.861 512.19C218.982 525.679 199.126 529.729 179.509 526.867C159.878 524.003 140.459 514.214 122.495 499.975C86.5612 471.494 56.5495 425.293 42.4304 381.551C40.6226 375.951 38.8302 370.432 37.0634 364.993C15.8525 299.69 -1.68722 245.689 1.82491 196.048C5.62399 142.352 34.075 93.6864 109.544 41.3895C147.269 15.2477 178.897 3.35445 207.419 0.961885C235.937 -1.43039 261.405 5.67097 286.823 17.6158C305.853 26.5585 324.826 38.2 345.026 50.5947C351.827 54.7679 358.767 59.0265 365.896 63.2962C394.18 80.2373 425.385 97.325 462.486 109.839C536.269 134.726 561.544 210.368 553.072 282.718C548.837 318.88 536.172 354.163 516.962 381.775C497.751 409.389 472.02 429.299 441.655 434.802ZM429.215 421.847L428.392 421.996C372.18 432.182 342.627 437.537 318.391 446.602C294.019 455.718 275.033 468.58 239.739 493.798C222.196 506.333 203.745 510.096 185.517 507.437C167.275 504.776 149.227 495.678 132.53 482.444C99.1293 455.971 71.232 413.025 58.1078 372.365C56.4273 367.159 54.7613 362.03 53.1189 356.973C33.399 296.26 17.0951 246.064 20.3597 199.922C23.8906 150.017 50.332 104.782 120.488 56.167C155.556 31.8661 184.954 20.8124 211.462 18.5888C237.966 16.3655 261.636 22.9651 285.264 34.0682C302.953 42.3811 320.589 53.2023 339.368 64.725C345.691 68.6049 352.144 72.5643 358.772 76.5343C385.068 92.2843 414.081 108.172 448.576 119.807C517.147 142.936 540.642 213.236 532.767 280.49C528.831 314.103 517.058 346.899 499.203 372.564C481.347 398.23 457.433 416.733 429.215 421.847ZM240.321 494.612C275.627 469.385 294.511 456.601 318.742 447.538C342.894 438.505 372.367 433.164 428.71 422.954L429.393 422.831C457.943 417.657 482.064 398.95 500.024 373.135C517.984 347.32 529.807 314.364 533.76 280.606C541.663 213.119 518.106 142.204 448.896 118.859C414.501 107.258 385.559 91.4128 359.286 75.6764C352.683 71.7212 346.245 67.7711 339.931 63.8965C321.137 52.3649 303.433 41.5018 285.689 33.1632C261.964 22.0141 238.114 15.3496 211.378 17.5923C184.646 19.8347 155.083 30.9774 119.918 55.3451C49.6079 104.067 22.9215 149.545 19.3622 199.852C16.0831 246.199 32.4503 296.584 52.1479 357.222C53.7972 362.299 55.4697 367.448 57.1561 372.672C70.3335 413.497 98.3353 456.617 131.909 483.227C148.698 496.534 166.906 505.732 185.373 508.426C203.853 511.122 222.564 507.299 240.321 494.612ZM416.577 408.686L415.813 408.824C363.926 418.226 336.641 423.171 314.264 431.54C291.759 439.957 274.228 451.834 241.648 475.114C225.461 486.679 208.438 490.151 191.62 487.697C174.789 485.242 158.135 476.848 142.724 464.633C111.897 440.2 86.1478 400.562 74.0343 363.033C72.4833 358.228 70.9455 353.493 69.4296 348.826C51.2245 292.776 36.176 246.446 39.1891 203.857C42.4476 157.803 66.8475 116.054 131.606 71.1793C163.975 48.7486 191.107 38.5479 215.569 36.4959C240.028 34.4442 261.872 40.5341 283.679 50.7821C300.007 58.4551 316.285 68.4431 333.62 79.0799C339.458 82.6618 345.416 86.3172 351.535 89.9826C375.811 104.523 402.597 119.191 434.445 129.933C497.721 151.276 519.408 216.15 512.139 278.226C508.506 309.251 497.641 339.52 481.161 363.207C464.682 386.894 442.613 403.968 416.577 408.686ZM242.229 475.927C274.823 452.639 292.251 440.841 314.614 432.477C336.907 424.139 364.113 419.209 416.131 409.783L416.755 409.67C443.124 404.891 465.399 387.614 481.982 363.778C498.566 339.94 509.483 309.511 513.132 278.342C520.429 216.033 498.68 150.544 434.764 128.985C403.016 118.277 376.302 103.651 352.049 89.1248C345.954 85.4741 340.012 81.828 334.183 78.2513C316.833 67.6057 300.488 57.5758 284.105 49.8771C262.199 39.5831 240.175 33.4283 215.485 35.4994C190.799 37.5702 163.502 47.8599 131.036 70.3574C66.1233 115.339 41.4784 157.331 38.1916 203.787C35.164 246.58 50.2757 293.1 68.4586 349.075C69.9813 353.762 71.5257 358.516 73.0827 363.34C85.2494 401.034 111.103 440.846 142.103 465.417C157.605 477.704 174.42 486.199 191.476 488.687C208.546 491.177 225.829 487.645 242.229 475.927ZM402.354 393.874L401.655 394.001C354.636 402.521 329.903 407.002 309.619 414.589C289.216 422.22 273.323 432.988 243.796 454.086C229.136 464.561 213.72 467.704 198.489 465.483C183.246 463.259 168.159 455.655 154.196 444.589C126.266 422.451 102.934 386.535 91.9579 352.53C90.5525 348.176 89.1591 343.886 87.7856 339.657C71.285 288.855 57.6494 246.874 60.3796 208.286C63.3314 166.565 85.4337 128.739 144.117 88.0735C173.45 67.7474 198.032 58.5066 220.191 56.6477C242.348 54.7891 262.137 60.3055 281.897 69.5912C296.692 76.5441 311.442 85.5944 327.152 95.2341C332.443 98.4807 337.843 101.794 343.391 105.117C365.393 118.295 389.673 131.591 418.542 141.328C475.86 160.662 495.512 219.429 488.925 275.678C485.633 303.789 475.788 331.214 460.858 352.675C445.927 374.137 425.936 389.601 402.354 393.874ZM244.377 454.9C273.918 433.793 289.708 423.104 309.97 415.526C330.17 407.971 354.823 403.503 401.973 394.959L402.533 394.858C426.446 390.524 446.644 374.857 461.679 353.246C476.714 331.635 486.61 304.049 489.918 275.794C496.532 219.311 476.818 159.93 418.861 140.381C390.092 130.677 365.884 117.424 343.905 104.259C338.382 100.951 332.997 97.647 327.715 94.4057C311.99 84.757 297.172 75.6648 282.322 68.6862C262.464 59.3544 242.495 53.7732 220.108 55.6512C197.724 57.5289 172.976 66.8588 143.548 87.2515C84.7096 128.024 62.3623 166.093 59.3821 208.215C56.6374 247.008 70.3363 289.179 86.8145 339.906C88.1949 344.155 89.5949 348.465 91.0063 352.837C102.036 387.007 125.472 423.098 153.575 445.372C167.63 456.512 182.876 464.216 198.345 466.472C213.827 468.731 229.504 465.527 244.377 454.9ZM389.479 380.465L388.838 380.581C346.225 388.303 323.804 392.366 305.414 399.244C286.914 406.163 272.504 415.927 245.74 435.05C232.462 444.538 218.501 447.384 204.708 445.372C190.901 443.358 177.234 436.471 164.583 426.443C139.274 406.384 118.131 373.837 108.184 343.022C106.911 339.076 105.648 335.189 104.403 331.357C89.4458 285.306 77.0893 247.262 79.5633 212.295C82.2375 174.497 102.26 140.223 155.444 103.368C182.027 84.9475 204.301 76.5756 224.376 74.8916C244.448 73.2079 262.377 78.2049 280.283 86.6195C293.691 92.9204 307.057 101.122 321.297 109.859C326.093 112.802 330.988 115.806 336.018 118.818C355.962 130.764 377.972 142.817 404.144 151.645C456.068 169.159 473.878 222.397 467.909 273.371C464.927 298.845 456.005 323.696 442.477 343.141C428.948 362.587 410.837 376.595 389.479 380.465ZM246.322 435.864C273.098 416.732 287.406 407.047 305.765 400.18C324.07 393.334 346.412 389.285 389.157 381.54L389.657 381.449C411.348 377.518 429.665 363.307 443.298 343.712C456.93 324.117 465.903 299.105 468.903 273.488C474.899 222.28 457.027 168.427 404.464 150.697C378.392 141.903 356.453 129.892 336.532 117.96C331.527 114.963 326.647 111.968 321.859 109.03C307.605 100.284 294.171 92.0411 280.708 85.7144C262.704 77.2539 244.596 72.192 224.292 73.8951C203.993 75.5979 181.554 84.0588 154.875 102.546C101.536 139.508 81.2684 174.025 78.5658 212.224C76.0773 247.396 88.4971 285.629 103.432 331.605C104.684 335.458 105.953 339.365 107.232 343.329C117.232 374.309 138.48 407.03 163.961 427.227C176.705 437.327 190.532 444.315 204.564 446.362C218.609 448.41 232.83 445.504 246.322 435.864ZM374.463 364.828L373.893 364.932C336.418 371.722 316.691 375.297 300.51 381.349C284.229 387.438 271.548 396.031 248.008 412.851C236.341 421.187 224.077 423.687 211.96 421.92C199.829 420.15 187.817 414.098 176.695 405.282C154.444 387.646 135.853 359.029 127.107 331.935C125.987 328.465 124.877 325.047 123.782 321.678C110.625 281.167 99.7598 247.715 101.935 216.971C104.286 183.748 121.882 153.615 168.653 121.205C192.03 105.006 211.611 97.6479 229.256 96.1678C246.897 94.688 262.656 99.0794 278.4 106.478C290.191 112.019 301.944 119.23 314.468 126.915C318.687 129.504 322.994 132.146 327.419 134.797C344.963 145.305 364.328 155.91 387.354 163.676C432.988 179.068 448.65 225.86 443.401 270.682C440.778 293.079 432.934 314.929 421.041 332.024C409.148 349.119 393.23 361.428 374.463 364.828ZM248.589 413.665C272.142 396.836 284.722 388.322 300.861 382.285C316.957 376.265 336.604 372.705 374.21 365.891L374.641 365.812C393.741 362.351 409.865 349.839 421.862 332.595C433.86 315.35 441.755 293.34 444.394 270.798C449.67 225.742 433.947 178.336 387.674 162.729C364.748 154.996 345.454 144.434 327.933 133.939C323.532 131.303 319.241 128.67 315.03 126.086C302.492 118.393 290.671 111.139 278.826 105.573C262.984 98.1284 247.045 93.6721 229.173 95.1713C211.304 96.6702 191.556 104.118 168.084 120.383C121.158 152.901 103.316 183.277 100.938 216.9C98.7478 247.85 109.676 281.49 122.811 321.926C123.913 325.316 125.029 328.754 126.155 332.242C134.954 359.501 153.65 388.293 176.073 406.066C187.288 414.954 199.46 421.107 211.816 422.909C224.184 424.713 236.709 422.153 248.589 413.665ZM358.67 348.381L358.171 348.471C326.101 354.282 309.21 357.343 295.353 362.526C281.405 367.742 270.543 375.104 250.393 389.501C240.422 396.626 229.942 398.762 219.588 397.251C209.22 395.739 198.949 390.566 189.434 383.024C170.4 367.938 154.493 343.453 147.01 320.272C146.052 317.303 145.102 314.379 144.166 311.496C132.901 276.813 123.605 248.192 125.466 221.888C127.476 193.478 142.522 167.702 182.547 139.966C202.551 126.104 219.301 119.812 234.389 118.546C249.474 117.281 262.951 121.035 276.421 127.365C286.51 132.106 296.565 138.276 307.285 144.854C310.897 147.07 314.585 149.333 318.375 151.603C333.395 160.599 349.976 169.68 369.695 176.331C408.711 189.491 422.114 229.501 417.623 267.852C415.379 287.015 408.668 305.707 398.495 320.329C388.321 334.952 374.711 345.474 358.67 348.381ZM250.974 390.315C271.137 375.908 281.898 368.626 295.703 363.463C309.476 358.311 326.288 355.265 358.487 349.43L358.848 349.365C375.221 346.398 389.039 335.672 399.316 320.9C409.593 306.127 416.355 287.275 418.616 267.969C423.134 229.383 409.67 188.759 370.014 175.383C350.396 168.766 333.886 159.728 318.889 150.745C315.124 148.49 311.451 146.236 307.847 144.025C297.113 137.439 286.99 131.227 276.846 126.46C263.278 120.084 249.621 116.265 234.306 117.549C218.993 118.834 202.077 125.215 181.978 139.144C141.798 166.987 126.507 193.007 124.469 221.818C122.593 248.326 131.952 277.136 143.195 311.744C144.138 314.648 145.095 317.592 146.059 320.579C153.594 343.925 169.606 368.584 188.813 383.808C198.419 391.422 208.851 396.696 219.443 398.241C230.049 399.788 240.79 397.592 250.974 390.315ZM343.021 332.084L342.593 332.161C315.88 337.002 301.796 339.554 290.242 343.875C278.607 348.227 269.547 354.368 252.756 366.365C244.465 372.29 235.753 374.065 227.146 372.809C218.524 371.551 209.979 367.249 202.058 360.97C186.21 348.409 172.963 328.02 166.732 308.716C165.934 306.244 165.143 303.808 164.363 301.408C154.974 272.499 147.232 248.664 148.782 226.761C150.455 203.12 162.972 181.659 196.314 158.555C212.976 147.009 226.921 141.773 239.475 140.72C252.026 139.667 263.242 142.79 274.459 148.061C282.862 152.01 291.236 157.148 300.168 162.629C303.179 164.476 306.253 166.363 309.414 168.256C321.932 175.754 335.756 183.324 352.196 188.87C384.657 199.819 395.82 233.109 392.08 265.049C390.212 281.006 384.624 296.569 376.155 308.742C367.685 320.916 356.36 329.667 343.021 332.084ZM253.338 367.179C270.141 355.173 279.1 349.11 290.592 344.812C302.063 340.522 316.067 337.984 342.911 333.12L343.199 333.068C356.871 330.59 368.403 321.636 376.976 309.313C385.549 296.99 391.188 281.266 393.074 265.165C396.841 232.991 385.616 199.087 352.516 187.922C336.176 182.411 322.423 174.882 309.928 167.398C306.792 165.52 303.733 163.642 300.73 161.8C291.784 156.311 283.342 151.131 274.884 147.156C263.57 141.839 252.174 138.651 239.392 139.723C226.613 140.795 212.502 146.12 195.745 157.733C162.248 180.944 149.486 202.648 147.785 226.691C146.22 248.798 154.025 272.822 163.392 301.656C164.179 304.078 164.976 306.533 165.78 309.023C172.064 328.492 185.416 349.056 201.436 361.754C209.449 368.105 218.155 372.508 227.001 373.798C235.861 375.091 244.833 373.256 253.338 367.179Z" stroke="#212121"/>
</svg>
