<svg width="195" height="79" viewBox="0 0 195 79" fill="none" xmlns="http://www.w3.org/2000/svg">
<path fill-rule="evenodd" clip-rule="evenodd" d="M115.675 1.04102C145.869 1.83498 173.249 13.9233 193.747 33.2364C193.549 37.0835 192.724 40.6178 191.275 43.8394C189.688 47.5727 187.448 50.7461 184.555 53.3594C181.755 55.9727 178.348 57.9794 174.335 59.3794C170.415 60.7794 166.121 61.4794 161.455 61.4794H136.255V77.9994H115.675V1.04102ZM33.78 30.9237C40.0754 25.3248 46.9717 20.3868 54.3601 16.2187V59.3794H105.46V77.9994H33.78V30.9237ZM10.6108 58.9594H21.4108V77.9994H1.4707C3.95755 71.349 7.0248 64.9818 10.6108 58.9594ZM160.615 42.7194H136.255V19.3394H160.615C164.255 19.3394 167.241 20.4127 169.575 22.5594C171.908 24.7061 173.075 27.6461 173.075 31.3794C173.075 35.2061 171.908 38.0527 169.575 39.9194C167.241 41.7861 164.255 42.7194 160.615 42.7194Z" fill="#FDDD0A"/>
<path d="M115.675 1.04102L115.701 0.0413612L114.675 0.0143745V1.04102H115.675ZM193.747 33.2364L194.746 33.288L194.77 32.8259L194.433 32.5085L193.747 33.2364ZM191.275 43.8394L190.363 43.4291L190.358 43.4386L190.354 43.4483L191.275 43.8394ZM184.555 53.3594L183.884 52.6173L183.878 52.6228L183.872 52.6284L184.555 53.3594ZM174.335 59.3794L174.005 58.4352L173.998 58.4377L174.335 59.3794ZM136.255 61.4794V60.4794H135.255V61.4794H136.255ZM136.255 77.9994V78.9994H137.255V77.9994H136.255ZM115.675 77.9994H114.675V78.9994H115.675V77.9994ZM33.78 30.9237L33.1155 30.1765L32.78 30.4748V30.9237H33.78ZM54.3601 16.2187H55.3601V14.5064L53.8687 15.3477L54.3601 16.2187ZM54.3601 59.3794H53.3601V60.3794H54.3601V59.3794ZM105.46 59.3794H106.46V58.3794H105.46V59.3794ZM105.46 77.9994V78.9994H106.46V77.9994H105.46ZM33.78 77.9994H32.78V78.9994H33.78V77.9994ZM10.6108 58.9594V57.9594H10.0424L9.75161 58.4478L10.6108 58.9594ZM21.4108 58.9594H22.4108V57.9594H21.4108V58.9594ZM21.4108 77.9994V78.9994H22.4108V77.9994H21.4108ZM1.4707 77.9994L0.534047 77.6492L0.0291383 78.9994H1.4707V77.9994ZM136.255 42.7194H135.255V43.7194H136.255V42.7194ZM136.255 19.3394V18.3394H135.255V19.3394H136.255ZM115.648 2.04067C145.587 2.82793 172.736 14.8132 193.061 33.9642L194.433 32.5085C173.763 13.0334 146.15 0.842037 115.701 0.0413612L115.648 2.04067ZM192.749 33.1848C192.556 36.9192 191.757 40.3304 190.363 43.4291L192.187 44.2498C193.692 40.9052 194.541 37.2478 194.746 33.288L192.749 33.1848ZM190.354 43.4483C188.822 47.0534 186.665 50.1054 183.884 52.6173L185.225 54.1015C188.23 51.3868 190.554 48.0921 192.195 44.2306L190.354 43.4483ZM183.872 52.6284C181.185 55.137 177.902 57.0759 174.005 58.4352L174.664 60.3236C178.794 58.8829 182.325 56.8085 185.237 54.0905L183.872 52.6284ZM173.998 58.4377C170.198 59.7947 166.02 60.4794 161.455 60.4794V62.4794C166.222 62.4794 170.631 61.7641 174.671 60.3212L173.998 58.4377ZM161.455 60.4794H136.255V62.4794H161.455V60.4794ZM135.255 61.4794V77.9994H137.255V61.4794H135.255ZM136.255 76.9994H115.675V78.9994H136.255V76.9994ZM116.675 77.9994V1.04102H114.675V77.9994H116.675ZM34.4446 31.671C40.6872 26.1189 47.5255 21.2225 54.8514 17.0896L53.8687 15.3477C46.4179 19.551 39.4636 24.5306 33.1155 30.1765L34.4446 31.671ZM55.3601 59.3794V16.2187H53.3601V59.3794H55.3601ZM105.46 58.3794H54.3601V60.3794H105.46V58.3794ZM106.46 77.9994V59.3794H104.46V77.9994H106.46ZM33.78 78.9994H105.46V76.9994H33.78V78.9994ZM32.78 30.9237V77.9994H34.78V30.9237H32.78ZM10.6108 59.9594H21.4108V57.9594H10.6108V59.9594ZM20.4108 58.9594V77.9994H22.4108V58.9594H20.4108ZM21.4108 76.9994H1.4707V78.9994H21.4108V76.9994ZM2.40736 78.3497C4.87306 71.7558 7.9143 65.4425 11.47 59.471L9.75161 58.4478C6.13531 64.521 3.04204 70.9422 0.534047 77.6492L2.40736 78.3497ZM136.255 43.7194H160.615V41.7194H136.255V43.7194ZM135.255 19.3394V42.7194H137.255V19.3394H135.255ZM160.615 18.3394H136.255V20.3394H160.615V18.3394ZM170.252 21.8235C167.706 19.4819 164.466 18.3394 160.615 18.3394V20.3394C164.044 20.3394 166.776 21.3436 168.898 23.2953L170.252 21.8235ZM174.075 31.3794C174.075 27.4206 172.828 24.1933 170.252 21.8235L168.898 23.2953C170.988 25.2188 172.075 27.8716 172.075 31.3794H174.075ZM170.199 40.7003C172.834 38.5926 174.075 35.4172 174.075 31.3794H172.075C172.075 34.995 170.982 37.5129 168.95 39.1385L170.199 40.7003ZM160.615 43.7194C164.431 43.7194 167.652 42.7377 170.199 40.7003L168.95 39.1385C166.83 40.8344 164.079 41.7194 160.615 41.7194V43.7194Z" fill="#FDDD0A"/>
</svg>
