<svg width="27" height="30" viewBox="0 0 27 30" fill="none" xmlns="http://www.w3.org/2000/svg">
<path d="M1.32932 22.2288L2.43062 22.8647L14.6995 1.61493L13.5982 0.979076L1.32932 22.2288Z" fill="#FDDD0A"/>
<path d="M25.6149 20.5312H1.07712V21.8029H25.6149V20.5312Z" fill="#FDDD0A"/>
<path d="M1.56266 21.2456L13.8362 28.3319L14.472 27.2306L2.19852 20.1443L1.56266 21.2456Z" fill="#FDDD0A"/>
<path d="M12.2246 2.77682L24.4981 9.86313L25.134 8.76183L12.8605 1.67552L12.2246 2.77682Z" fill="#FDDD0A"/>
<path d="M1.56606 8.75699L2.20192 9.85829L14.4754 2.77197L13.8396 1.67068L1.56606 8.75699Z" fill="#FDDD0A"/>
<path d="M12.0029 1.61516L24.2718 22.8649L25.3731 22.229L13.1042 0.979306L12.0029 1.61516Z" fill="#FDDD0A"/>
<path d="M3.32176 7.91369H2.05006V22.0863H3.32176V7.91369Z" fill="#FDDD0A"/>
<path d="M24.6496 7.91369H23.3779V22.0863H24.6496V7.91369Z" fill="#FDDD0A"/>
<path d="M13.0642 26.8316L13.6197 27.7936L24.2943 21.6304L23.7389 20.6684L13.0642 26.8316Z" fill="#FDDD0A"/>
<path d="M26.335 22.5C25.5996 23.7794 23.9602 24.216 22.6808 23.4806C21.4014 22.7451 20.9648 21.1057 21.7002 19.8264C22.4357 18.547 24.0751 18.1103 25.3545 18.8458C26.6415 19.5889 27.0781 21.2206 26.335 22.5Z" fill="#FDDD0A"/>
<path d="M4.99183 10.1736C4.25639 11.453 2.61696 11.8897 1.33759 11.1542C0.0582278 10.4188 -0.378442 8.77937 0.357002 7.5C1.09245 6.22063 2.73187 5.78396 4.01124 6.51941C5.29061 7.26251 5.72728 8.89428 4.99183 10.1736Z" fill="#FDDD0A"/>
<path d="M0.364663 22.5C-0.370781 21.2206 0.0658886 19.5889 1.34526 18.8458C2.62462 18.1103 4.25639 18.547 4.99949 19.8264C5.73494 21.1057 5.29827 22.7375 4.0189 23.4806C2.73187 24.216 1.10011 23.7794 0.364663 22.5Z" fill="#FDDD0A"/>
<path d="M21.7079 10.1736C20.9724 8.89428 21.4091 7.26251 22.6885 6.51941C23.9678 5.78396 25.5996 6.22063 26.3427 7.5C27.0781 8.77937 26.6415 10.4111 25.3621 11.1542C24.0827 11.8897 22.4433 11.453 21.7079 10.1736Z" fill="#FDDD0A"/>
<path d="M13.3499 30C11.8713 30 10.6762 28.8049 10.6762 27.3264C10.6762 25.8478 11.8713 24.6527 13.3499 24.6527C14.8284 24.6527 16.0235 25.8478 16.0235 27.3264C16.0235 28.7972 14.8284 30 13.3499 30Z" fill="#FDDD0A"/>
<path d="M13.3499 5.34729C11.8713 5.34729 10.6762 4.1522 10.6762 2.67365C10.6762 1.1951 11.8713 0 13.3499 0C14.8284 0 16.0235 1.1951 16.0235 2.67365C16.0235 4.1522 14.8284 5.34729 13.3499 5.34729Z" fill="#FDDD0A"/>
</svg>
