<svg width="32" height="30" viewBox="0 0 32 30" fill="none" xmlns="http://www.w3.org/2000/svg">
<path d="M21.9521 20.9518C23.1212 20.831 24.0082 19.8257 23.9678 18.6192C23.9276 17.4129 22.9196 16.4477 21.7101 16.4477H21.6296C20.3796 16.4879 19.4121 17.5335 19.4524 18.7801C19.4928 19.3833 19.7346 19.9061 20.0975 20.268C18.7267 22.9625 16.6303 24.9329 13.4856 26.5817C11.3489 27.7077 9.13151 28.1099 6.91416 27.8285C5.09989 27.5871 3.68881 26.7829 2.80173 25.4557C1.51169 23.4852 1.39078 21.3538 2.47934 19.2225C3.24539 17.6943 4.45474 16.5683 5.2208 16.0053C5.05954 15.4825 4.8176 14.5978 4.69669 13.9545C-1.14921 18.177 -0.544407 23.8874 1.22952 26.5817C2.55991 28.5925 5.26114 29.8392 8.24454 29.8392C9.05082 29.8392 9.85709 29.7587 10.6635 29.5577C15.824 28.5523 19.7347 25.4959 21.9521 20.9518ZM29.0478 15.9652C25.9837 12.386 21.4683 10.4156 16.3078 10.4156H15.6628C15.2999 9.69173 14.5339 9.20908 13.6872 9.20908H13.6066C12.3569 9.24932 11.3893 10.2949 11.4295 11.5416C11.4699 12.748 12.4778 13.7131 13.6872 13.7131H13.7678C14.6548 13.6729 15.4208 13.1099 15.7433 12.3458H16.469C19.5331 12.3458 22.4358 13.2305 25.0565 14.9598C27.0723 16.2869 28.5237 18.0161 29.33 20.1072C30.0153 21.7962 29.975 23.445 29.2493 24.8526C28.1205 26.9839 26.2256 28.1501 23.726 28.1501C22.1133 28.1501 20.5814 27.6675 19.775 27.3056C19.3315 27.7077 18.5251 28.3511 17.9607 28.7534C19.6944 29.5576 21.4683 30 23.1616 30C27.0319 30 29.8944 27.8686 30.983 25.7373C32.1521 23.4048 32.0714 19.3833 29.0478 15.9652ZM8.56705 21.6352C8.6074 22.8417 9.61527 23.8068 10.8247 23.8068H10.9054C12.1553 23.7667 13.1228 22.721 13.0824 21.4744C13.0422 20.2679 12.0342 19.3029 10.8247 19.3029H10.7442C10.6635 19.3029 10.5425 19.3029 10.462 19.343C8.809 16.6084 8.12363 13.6327 8.36558 10.4155C8.52671 8.00258 9.33311 5.9114 10.7442 4.18213C11.9133 2.69419 14.171 1.97034 15.7031 1.93022C19.9766 1.84974 21.7907 7.15801 21.9117 9.28944C22.4358 9.41004 23.3228 9.69161 23.9276 9.89269C23.4437 3.37805 19.4121 0 15.5419 0C11.9133 0 8.56705 2.61396 7.23655 6.47453C5.38205 11.622 6.59153 16.5683 8.84922 20.4691C8.64774 20.7506 8.52671 21.193 8.56705 21.6354V21.6352Z" fill="#FDDD0A"/>
</svg>
