<svg width="31" height="30" viewBox="0 0 31 30" fill="none" xmlns="http://www.w3.org/2000/svg">
<path fill-rule="evenodd" clip-rule="evenodd" d="M15.3402 2.1021C18.7049 2.1021 21.7684 3.39145 24.0648 5.50244C22.9393 5.47224 21.816 6.14131 21.7696 7.67342C21.6749 10.7708 25.4732 11.4305 23.4266 17.6606L21.7336 22.814L17.1227 9.23168C17.0512 9.02143 17.1343 8.90179 17.3928 8.90179H18.6963C18.7641 8.90179 18.8195 8.84394 18.8195 8.7731V8.001C18.8195 7.93018 18.7639 7.86941 18.6963 7.87234C16.2277 7.98029 13.7736 7.98102 11.3343 7.87234C11.2663 7.86943 11.2111 7.93042 11.2111 8.00127V8.77337C11.2111 8.84414 11.2665 8.90206 11.3343 8.90206H12.645C12.9366 8.90206 13.0182 8.99922 13.0869 9.18715L14.9814 14.3684L12.1315 22.9739L7.44689 9.17554C7.38881 9.00246 7.45909 8.90199 7.62577 8.90199H9.11927C9.187 8.90199 9.24238 8.84414 9.24238 8.7733V8.0012C9.24238 7.93038 9.1868 7.86899 9.11927 7.87253C7.55231 7.95577 5.97936 7.97251 4.51415 7.98755C6.81343 4.44567 10.8029 2.10185 15.3394 2.10185L15.3394 2.10181L15.3402 2.1021ZM26.6842 8.8584C27.6753 10.6845 28.2381 12.7766 28.2381 14.9997C28.2381 19.8786 25.5273 24.125 21.5306 26.3169L25.5531 14.9236C26.1763 13.1603 26.7548 10.7773 26.6839 8.8584H26.6839H26.6842ZM19.6584 27.1555C18.3081 27.6358 16.8549 27.8978 15.3402 27.8978C14.0352 27.8978 12.7761 27.7032 11.5889 27.3431L15.5624 15.9562L19.6583 27.1561L19.6584 27.1555ZM9.82103 26.6595C5.45925 24.591 2.44212 20.1472 2.44212 15.0002C2.44212 13.0922 2.85718 11.281 3.60108 9.65141L9.82131 26.6598L9.82133 26.6598L9.82103 26.6595ZM15.3398 0.891741C23.1299 0.891741 29.4477 7.20955 29.4477 14.9997C29.4477 22.7898 23.1299 29.1076 15.3398 29.1076C7.54974 29.1076 1.23193 22.7898 1.23193 14.9997C1.23193 7.20955 7.54974 0.891741 15.3398 0.891741ZM15.3398 0C23.6224 0 30.3398 6.71739 30.3398 15C30.3398 23.2826 23.6224 30 15.3398 30C7.05723 30 0.339844 23.2826 0.339844 15C0.339844 6.71739 7.05723 0 15.3398 0Z" fill="#FDDD0A"/>
</svg>
