<svg width="23" height="14" viewBox="0 0 23 14" fill="none" xmlns="http://www.w3.org/2000/svg">
<path d="M6.48163 5.08454C6.48163 5.37264 6.51222 5.60623 6.56577 5.77753C6.62697 5.94883 6.70346 6.13571 6.81056 6.33815C6.8488 6.40045 6.8641 6.46274 6.8641 6.51724C6.8641 6.59511 6.81821 6.67297 6.71876 6.75084L6.23684 7.07787C6.16799 7.12458 6.09915 7.14794 6.03795 7.14794C5.96146 7.14794 5.88496 7.10901 5.80846 7.03893C5.70137 6.92214 5.60958 6.79755 5.53308 6.67297C5.45658 6.5406 5.38009 6.39266 5.29594 6.21357C4.69928 6.92992 3.94962 7.2881 3.04697 7.2881C2.40441 7.2881 1.89189 7.10122 1.51706 6.72748C1.14223 6.35373 0.950995 5.8554 0.950995 5.23248C0.950995 4.57063 1.18048 4.03337 1.6471 3.62848C2.11373 3.22358 2.73334 3.02114 3.52125 3.02114C3.78133 3.02114 4.04907 3.04449 4.3321 3.08343C4.61513 3.12236 4.90582 3.18465 5.2118 3.25473V2.68632C5.2118 2.09455 5.08941 1.68187 4.85227 1.44049C4.60748 1.19911 4.19441 1.08231 3.60539 1.08231C3.33766 1.08231 3.06227 1.11346 2.77924 1.18354C2.49621 1.25362 2.22082 1.33927 1.95309 1.44828C1.83069 1.50278 1.7389 1.53393 1.68535 1.5495C1.63181 1.56507 1.59356 1.57286 1.56296 1.57286C1.45587 1.57286 1.40232 1.49499 1.40232 1.33148V0.949944C1.40232 0.825362 1.41762 0.731924 1.45587 0.677419C1.49411 0.622914 1.56296 0.568409 1.67005 0.513904C1.93779 0.373749 2.25907 0.256952 2.6339 0.163515C3.00873 0.0622914 3.4065 0.0155729 3.82723 0.0155729C4.73753 0.0155729 5.40304 0.225806 5.83141 0.646274C6.25214 1.06674 6.46633 1.70523 6.46633 2.56174V5.08454H6.48163ZM3.3759 6.26808C3.62834 6.26808 3.88843 6.22136 4.16381 6.12792C4.43919 6.03448 4.68398 5.86318 4.89052 5.62959C5.01291 5.48165 5.10471 5.31813 5.1506 5.13126C5.1965 4.94438 5.2271 4.71858 5.2271 4.45384V4.12681C5.00526 4.0723 4.76812 4.02558 4.52334 3.99444C4.27855 3.96329 4.04142 3.94772 3.80428 3.94772C3.29176 3.94772 2.91693 4.04894 2.6645 4.25918C2.41206 4.46941 2.28967 4.7653 2.28967 5.15462C2.28967 5.52058 2.38146 5.7931 2.5727 5.97998C2.75629 6.17464 3.02403 6.26808 3.3759 6.26808ZM9.5185 7.10901C9.38081 7.10901 9.28901 7.08565 9.22782 7.03115C9.16662 6.98443 9.11307 6.87542 9.06718 6.72748L7.26953 0.708565C7.22363 0.552837 7.20068 0.451613 7.20068 0.397108C7.20068 0.272525 7.26188 0.202447 7.38427 0.202447H8.13393C8.27927 0.202447 8.37872 0.225806 8.43226 0.280311C8.49346 0.32703 8.53936 0.43604 8.58525 0.583982L9.87038 5.7386L11.0637 0.583982C11.102 0.428254 11.1479 0.32703 11.2091 0.280311C11.2702 0.233593 11.3773 0.202447 11.515 0.202447H12.127C12.2723 0.202447 12.3718 0.225806 12.433 0.280311C12.4942 0.32703 12.5477 0.43604 12.5783 0.583982L13.787 5.80089L15.1103 0.583982C15.1562 0.428254 15.2098 0.32703 15.2633 0.280311C15.3245 0.233593 15.424 0.202447 15.5617 0.202447H16.2731C16.3955 0.202447 16.4643 0.264739 16.4643 0.397108C16.4643 0.43604 16.4566 0.474972 16.449 0.521691C16.4414 0.568409 16.4261 0.630701 16.3955 0.716352L14.5519 6.73526C14.506 6.89099 14.4525 6.99221 14.3913 7.03893C14.3301 7.08565 14.2306 7.1168 14.1006 7.1168H13.4427C13.2974 7.1168 13.1979 7.09344 13.1367 7.03893C13.0755 6.98443 13.022 6.8832 12.9914 6.72748L11.8057 1.70523L10.6277 6.71969C10.5894 6.87542 10.5435 6.97664 10.4823 7.03115C10.4211 7.08565 10.3141 7.10901 10.1764 7.10901H9.5185ZM19.3482 7.31924C18.9504 7.31924 18.5526 7.27253 18.1702 7.17909C17.7877 7.08565 17.4893 6.98443 17.2905 6.86763C17.1681 6.79755 17.0839 6.71969 17.0533 6.64961C17.0227 6.57953 17.0074 6.50167 17.0074 6.43159V6.03448C17.0074 5.87097 17.0686 5.7931 17.1834 5.7931C17.2293 5.7931 17.2752 5.80089 17.3211 5.81646C17.3669 5.83204 17.4358 5.86318 17.5123 5.89433C17.7724 6.01112 18.0554 6.10456 18.3537 6.16685C18.6597 6.22914 18.9581 6.26029 19.264 6.26029C19.746 6.26029 20.1208 6.17464 20.3809 6.00334C20.641 5.83204 20.7786 5.58287 20.7786 5.26363C20.7786 5.04561 20.7098 4.86652 20.5721 4.71858C20.4344 4.57063 20.1743 4.43827 19.7995 4.31368L18.6903 3.96329C18.1319 3.78421 17.7188 3.51947 17.4664 3.16908C17.214 2.82647 17.0839 2.44494 17.0839 2.04004C17.0839 1.71301 17.1528 1.42492 17.2905 1.17575C17.4281 0.926585 17.6117 0.708565 17.8412 0.537264C18.0707 0.358176 18.3308 0.225806 18.6368 0.132369C18.9428 0.0389321 19.264 0 19.6006 0C19.7689 0 19.9448 0.00778643 20.1131 0.0311457C20.2891 0.054505 20.4497 0.0856507 20.6104 0.116796C20.7634 0.155729 20.9087 0.194661 21.0464 0.241379C21.1841 0.288098 21.2912 0.334817 21.3677 0.381535C21.4748 0.443827 21.5513 0.506118 21.5972 0.576196C21.643 0.638487 21.666 0.724138 21.666 0.833148V1.19911C21.666 1.36263 21.6048 1.44828 21.4901 1.44828C21.4289 1.44828 21.3294 1.41713 21.1994 1.35484C20.7633 1.15239 20.2738 1.05117 19.7307 1.05117C19.2946 1.05117 18.9504 1.12125 18.7133 1.26919C18.4761 1.41713 18.3537 1.64294 18.3537 1.96218C18.3537 2.1802 18.4302 2.36708 18.5832 2.51502C18.7362 2.66296 19.0193 2.8109 19.4247 2.94327L20.5109 3.29366C21.0617 3.47275 21.4595 3.72191 21.6966 4.04116C21.9337 4.3604 22.0485 4.72636 22.0485 5.13126C22.0485 5.46607 21.9796 5.76974 21.8496 6.03448C21.7119 6.29922 21.5283 6.53281 21.2912 6.71969C21.054 6.91435 20.771 7.05451 20.4421 7.15573C20.0978 7.26474 19.7383 7.31924 19.3482 7.31924Z" fill="#FDDD0A"/>
<path fill-rule="evenodd" clip-rule="evenodd" d="M20.7939 11.1034C18.2772 12.9956 14.6208 14 11.4768 14C7.07064 14 3.10052 12.3415 0.101893 9.5851C-0.135243 9.36708 0.0789447 9.07119 0.361978 9.24249C3.60539 11.158 7.60611 12.3181 11.7445 12.3181C14.5366 12.3181 17.6041 11.7264 20.4268 10.5117C20.8475 10.317 21.207 10.792 20.7939 11.1034Z" fill="#FDDD0A"/>
<path fill-rule="evenodd" clip-rule="evenodd" d="M21.8419 9.88877C21.5207 9.4683 19.7154 9.68632 18.8969 9.78755C18.6521 9.81869 18.6138 9.60067 18.8357 9.43716C20.2738 8.40935 22.6375 8.70523 22.9129 9.04784C23.1883 9.39823 22.8364 11.8042 21.4901 12.9566C21.2835 13.1357 21.0846 13.0423 21.1764 12.8087C21.4824 12.0378 22.1632 10.3015 21.8419 9.88877Z" fill="#FDDD0A"/>
</svg>
