<svg width="16" height="16" viewBox="0 0 16 16" fill="none" xmlns="http://www.w3.org/2000/svg">
<path d="M8.64837 7.38562H5.9817V4.80784H8.64837C9.09281 4.80784 9.43268 4.90458 9.66797 5.09543C9.90327 5.28627 10.0209 5.6183 10.0209 6.08889C10.0209 6.50719 9.8902 6.82614 9.62876 7.05098C9.36732 7.27582 9.04052 7.38562 8.64837 7.38562Z" fill="#FDDD0A"/>
<path d="M8.87059 11.4771H5.9817V8.55948H8.87059C9.36732 8.55948 9.74902 8.67974 10.0261 8.93072C10.3033 9.1817 10.4392 9.53464 10.4392 9.99739C10.4392 10.468 10.3007 10.834 10.0261 11.0902C9.75425 11.349 9.36732 11.4771 8.87059 11.4771Z" fill="#FDDD0A"/>
<path fill-rule="evenodd" clip-rule="evenodd" d="M13.3333 16C14.8 16 16 14.8 16 13.3333V2.66667C16 1.2 14.8 0 13.3333 0H2.66667C1.2 0 0 1.2 0 2.66667V13.3333C0 14.8 1.2 16 2.66667 16H13.3333ZM8.88366 3.47712H4.34771V12.8105H8.63529C9.2366 12.8105 9.75425 12.7425 10.1908 12.6065C10.6275 12.4706 10.983 12.2876 11.2627 12.0575C11.5425 11.8275 11.7464 11.5529 11.8771 11.234C12.0078 10.9176 12.0732 10.5752 12.0732 10.2092C12.0732 9.57124 11.9242 9.04314 11.6288 8.61961C11.3333 8.19869 10.8967 7.9268 10.3216 7.80392V7.77778C10.7503 7.59477 11.0797 7.33333 11.3098 6.99869C11.5399 6.66405 11.6549 6.26144 11.6549 5.79085C11.6549 5.01438 11.4013 4.4366 10.8967 4.05229C10.3922 3.66797 9.72026 3.47712 8.88366 3.47712Z" fill="#FDDD0A"/>
</svg>
