<svg width="11" height="15" viewBox="0 0 11 15" fill="none" xmlns="http://www.w3.org/2000/svg">
<path d="M4.25666 0H2.58878V2.02148H4.25666V1.34766H3.28626V0.673828H4.25666V0Z" fill="#FDDD0A"/>
<path d="M6.25813 0H4.59024V1.31836H5.56065V1.43555H4.59024V2.05078H6.25813V0.703125H5.28772V0.585938H6.25813V0Z" fill="#FDDD0A"/>
<path d="M6.59171 0H8.2596V0.585938H7.28919V0.703125H8.2596V2.05078H6.59171V1.43555H7.56212V1.31836H6.59171V0Z" fill="#FDDD0A"/>
<path fill-rule="evenodd" clip-rule="evenodd" d="M1.00107 13.7952L5.49327 15L9.99787 13.7935L11 2.94785H0L1.00107 13.7952ZM2.17208 6.49558L2.04689 5.16518H8.94483L8.69622 7.85792L8.66262 8.21516L8.31831 11.9424L5.49997 12.697V12.6972L5.49363 12.6989L2.67278 11.9424L2.47985 9.8535H3.86222L3.96027 10.9145L5.49394 11.3146L5.49521 11.3143V11.3142L7.03109 10.9137L7.19094 9.18829H2.41832L2.29489 7.85792H7.31036L7.43566 6.49558H2.17208Z" fill="#FDDD0A"/>
</svg>
