<svg width="16" height="16" viewBox="0 0 16 16" fill="none" xmlns="http://www.w3.org/2000/svg">
<path fill-rule="evenodd" clip-rule="evenodd" d="M8.43888 1.5239C8.02351 2.1628 7.78348 2.91812 7.78348 3.72763C7.78348 4.67777 8.11938 5.48921 8.58777 6.26856L0 14.8572V2.66676C0 2.03819 0.514232 1.5239 1.14274 1.5239H8.43888ZM3.23775 5.19247V4.38105H5.21087C5.23563 4.51819 5.24896 4.66105 5.24896 4.80962C5.24896 6.00581 4.44714 6.85724 3.23775 6.85724C2.07978 6.85724 1.14274 5.9201 1.14274 4.762C1.14274 3.6039 2.07978 2.66676 3.23775 2.66676C3.8034 2.66676 4.27573 2.87438 4.6395 3.21533L4.03957 3.81533C3.82054 3.60962 3.54628 3.50295 3.23775 3.50295C2.55401 3.50295 1.99788 4.082 1.99788 4.7639C1.99788 5.44581 2.55401 6.02485 3.23775 6.02485C3.85292 6.02485 4.27573 5.67438 4.36524 5.19247H3.23775Z" fill="#FDDD0A"/>
<path d="M9.58926 7.74315C9.59636 7.75315 9.60345 7.76316 9.61055 7.77317C10.4381 8.9407 11.2905 10.2157 11.6018 11.9839L8.47536 8.85716L9.58926 7.74315Z" fill="#FDDD0A"/>
<path d="M12.5407 12.9229C12.6589 12.8596 12.7439 12.7435 12.7563 12.6052C12.9487 10.606 13.6159 9.21024 14.4752 7.95875V14.8571C14.4752 14.9738 14.4575 15.0865 14.4246 15.1928L14.4243 15.1925C14.4571 15.0864 14.4748 14.9737 14.4748 14.8572L12.5407 12.9229Z" fill="#FDDD0A"/>
<path d="M13.1415 16L7.2374 10.0952L1.33326 16H13.1415Z" fill="#FDDD0A"/>
<path fill-rule="evenodd" clip-rule="evenodd" d="M8.38174 3.80953C8.38174 1.70476 10.0863 0 12.1909 0C14.2954 0 16 1.70476 16 3.80953C16 5.16928 15.2807 6.22044 14.4833 7.38576C13.5974 8.68046 12.6151 10.1161 12.4156 12.2724C12.4061 12.3867 12.307 12.4762 12.1909 12.4762C12.0747 12.4762 11.9776 12.3867 11.9661 12.2724C11.7667 10.1161 10.7843 8.68046 9.8984 7.38576C9.10101 6.22044 8.38174 5.16928 8.38174 3.80953ZM13.5227 3.80949C13.5227 4.5459 12.9258 5.14287 12.1895 5.14287C11.4532 5.14287 10.8563 4.5459 10.8563 3.80949C10.8563 3.07309 11.4532 2.47611 12.1895 2.47611C12.9258 2.47611 13.5227 3.07309 13.5227 3.80949Z" fill="#FDDD0A"/>
</svg>
