<svg width="11" height="15" viewBox="0 0 11 15" fill="none" xmlns="http://www.w3.org/2000/svg">
<path d="M1.02347 0H1.72329V0.667969H2.36345V0H3.0633V2.02277H2.36348V1.34543H1.72332V2.02277H1.0235L1.02347 0Z" fill="#FDDD0A"/>
<path d="M3.98358 0.670781H3.36749V0H5.29982V0.670781H4.68346V2.02277H3.98361L3.98358 0.670781Z" fill="#FDDD0A"/>
<path d="M5.6065 0H6.33621L6.78509 0.710742L7.23351 0H7.9635V2.02277H7.26656V1.02018L6.78509 1.73938H6.77305L6.29124 1.02018V2.02277H5.6065V0Z" fill="#FDDD0A"/>
<path d="M8.31178 0H9.01181V1.35416H9.99596V2.02277H8.31178V0Z" fill="#FDDD0A"/>
<path fill-rule="evenodd" clip-rule="evenodd" d="M9.99787 13.7935L11 2.94785H0L1.00107 13.7952L5.49327 15L9.99787 13.7935ZM3.55188 6.49558L3.67773 7.85792H8.69622L8.66262 8.21516L8.31831 11.9424L5.49997 12.697V12.6972L5.49363 12.6989L2.67278 11.9424L2.47985 9.8535H3.86223L3.96027 10.9145L5.49394 11.3146L5.49521 11.3143V11.3142L7.03109 10.9137L7.19094 9.18829H2.41832L2.0469 5.16518H8.94483L8.82153 6.49558H3.55188Z" fill="#FDDD0A"/>
</svg>
