<svg width="9" height="16" viewBox="0 0 9 16" fill="none" xmlns="http://www.w3.org/2000/svg">
<path d="M8.02791 12.6172H7.96918V12.5835H8.12727V12.6172H8.06895V12.7855H8.02791V12.6172ZM8.34323 12.626H8.34231L8.28413 12.7855H8.2575L8.19969 12.626H8.19897V12.7855H8.1603V12.5835H8.21721L8.27081 12.7266L8.32424 12.5835H8.38095V12.7855H8.3432L8.34323 12.626Z" fill="#FDDD0A"/>
<path d="M2.77092 8.48724C2.77092 8.48724 2.36235 8.73113 3.06169 8.81366C3.90893 8.91287 4.34194 8.89864 5.2756 8.71726C5.2756 8.71726 5.52107 8.87524 5.86388 9.01208C3.77086 9.93285 1.12697 8.95875 2.77092 8.48724Z" fill="#FDDD0A"/>
<path d="M2.51517 7.2857C2.51517 7.2857 2.05691 7.63389 2.75677 7.70819C3.66182 7.80403 4.37655 7.81187 5.61332 7.56742C5.61332 7.56742 5.78438 7.74543 6.05336 7.84278C3.52277 8.60234 0.704157 7.90268 2.51517 7.2857Z" fill="#FDDD0A"/>
<path d="M4.67127 5.24749C5.18699 5.85696 4.53577 6.4054 4.53577 6.4054C4.53577 6.4054 5.84527 5.71151 5.24387 4.8426C4.68219 4.03229 4.25145 3.62967 6.58328 2.24151C6.58328 2.24151 2.92308 3.17985 4.67127 5.24749Z" fill="#FDDD0A"/>
<path d="M7.43945 9.37597C7.43945 9.37597 7.74181 9.63169 7.10647 9.82952C5.89835 10.2052 2.07815 10.3186 1.01691 9.84449C0.635427 9.67414 1.35082 9.43774 1.57586 9.38813C1.81055 9.33589 1.94467 9.34562 1.94467 9.34562C1.52041 9.03885 -0.797526 9.94799 0.767268 10.2084C5.03469 10.9187 8.54636 9.88848 7.43945 9.37597Z" fill="#FDDD0A"/>
<path d="M2.9674 6.04077C2.9674 6.04077 1.0242 6.51452 2.27927 6.68656C2.80919 6.75939 3.86559 6.74291 4.84959 6.65828C5.65377 6.58865 6.46127 6.4406 6.46127 6.4406C6.46127 6.4406 6.17771 6.56525 5.97255 6.70904C3.99927 7.24175 0.187256 6.99393 1.28469 6.44903C2.21279 5.98853 2.9674 6.04077 2.9674 6.04077Z" fill="#FDDD0A"/>
<path d="M6.45326 8.04079C8.45919 6.97085 7.53173 5.94265 6.88437 6.08117C6.7257 6.11507 6.65495 6.14445 6.65495 6.14445C6.65495 6.14445 6.71386 6.04973 6.82636 6.00873C8.10704 5.54658 9.09197 7.37181 6.41294 8.09472C6.41294 8.09474 6.44398 8.06626 6.45326 8.04079Z" fill="#FDDD0A"/>
<path d="M5.24387 0C5.24387 0 6.35479 1.14069 4.19022 2.89476C2.45445 4.30182 3.79441 5.10409 4.1895 6.02071C3.1763 5.08238 2.43275 4.25635 2.93158 3.48757C3.66375 2.35906 5.6921 1.81192 5.24387 0Z" fill="#FDDD0A"/>
<path d="M3.16451 10.9401C5.08996 11.0666 8.0467 10.8699 8.11672 9.93471C8.11672 9.93471 7.98212 10.2892 6.52545 10.5708C4.88204 10.8882 2.85513 10.8512 1.65295 10.6477C1.65298 10.6477 1.89905 10.8568 3.16451 10.9401Z" fill="#FDDD0A"/>
<path d="M2.84896 14.5134C2.66732 14.6751 2.47549 14.7659 2.30333 14.7659C2.0576 14.7659 1.92484 14.6146 1.92484 14.3721C1.92484 14.1097 2.06708 13.9178 2.63776 13.9178H2.84893L2.84896 14.5134ZM3.35016 15.0938V13.2971C3.35016 12.8381 3.09512 12.5352 2.48021 12.5352C2.12123 12.5352 1.80677 12.6262 1.55119 12.7423L1.62496 13.0603C1.8262 12.9845 2.08668 12.9139 2.34235 12.9139C2.69657 12.9139 2.84896 13.0603 2.84896 13.363V13.5901H2.67217C1.81153 13.5901 1.4233 13.933 1.4233 14.4477C1.4233 14.8919 1.67914 15.1444 2.16086 15.1444C2.4705 15.1444 2.70165 15.0132 2.91772 14.8211L2.95694 15.0939L3.35016 15.0938Z" fill="#FDDD0A"/>
<path d="M5.02284 15.0938H4.39773L3.64542 12.5807H4.19131L4.65813 14.1248L4.7619 14.5892C4.99806 13.9178 5.16509 13.2366 5.24863 12.5807H5.77965C5.63738 13.4083 5.38136 14.3166 5.02284 15.0938Z" fill="#FDDD0A"/>
<path d="M7.42084 14.5134C7.23885 14.6751 7.04667 14.7659 6.87452 14.7659C6.62922 14.7659 6.49611 14.6146 6.49611 14.3721C6.49611 14.1097 6.6387 13.9178 7.20932 13.9178H7.42084V14.5134ZM7.92198 15.0938V13.2971C7.92198 12.8381 7.66631 12.5352 7.05212 12.5352C6.69288 12.5352 6.37831 12.6262 6.12284 12.7423L6.1965 13.0603C6.39782 12.9845 6.65879 12.9139 6.91425 12.9139C7.26822 12.9139 7.42084 13.0603 7.42084 13.363V13.5901H7.24375C6.38286 13.5901 5.9948 13.933 5.9948 14.4477C5.9948 14.8919 6.25044 15.1444 6.73207 15.1444C7.04189 15.1444 7.27295 15.0132 7.48939 14.8211L7.52876 15.0939L7.92198 15.0938Z" fill="#FDDD0A"/>
<path d="M0.873748 15.5206C0.730871 15.7348 0.5001 15.9042 0.247456 16L0 15.7011C0.1923 15.5998 0.357222 15.4362 0.433848 15.2839C0.500129 15.1484 0.527563 14.9737 0.527563 14.5561V11.687H1.06005V14.5168C1.06003 15.0751 1.01654 15.3007 0.873748 15.5206Z" fill="#FDDD0A"/>
</svg>
