<svg width="17" height="18" viewBox="0 0 17 18" fill="none" xmlns="http://www.w3.org/2000/svg">
<path d="M3.16346 2.77265C2.08092 4.33187 2.21565 6.36069 3.04272 8.01776L3.10323 8.13553L3.14196 8.21021L3.16611 8.25315L3.20925 8.33049C3.23487 8.3758 3.26123 8.42081 3.28817 8.46612L3.33323 8.5405C3.36312 8.58861 3.3936 8.63643 3.42481 8.6841L3.46383 8.74446C3.50698 8.80895 3.551 8.87315 3.5965 8.93647L3.60033 8.94134L3.62271 8.97159C3.66202 9.0259 3.70252 9.07962 3.7436 9.1329L3.7891 9.1909C3.82576 9.23709 3.86301 9.28284 3.90085 9.32874L3.94355 9.37981C3.99435 9.43972 4.04633 9.49964 4.09919 9.55809L4.10228 9.56133L4.10832 9.56797C4.16 9.6245 4.21286 9.67984 4.26661 9.73519L4.31726 9.7864C4.35878 9.82831 4.40104 9.86949 4.44359 9.91051L4.49528 9.95981C4.55226 10.0135 4.60968 10.0664 4.66844 10.1177L4.67109 10.1201L4.70127 10.1458C4.75295 10.1908 4.80552 10.2351 4.85853 10.2789L4.92361 10.331C4.9669 10.3657 5.01063 10.4 5.05466 10.4337L5.12489 10.487C5.17348 10.5228 5.22251 10.5581 5.27199 10.5928L5.32544 10.6309L5.34031 10.6415C5.38713 10.674 5.43528 10.7051 5.48314 10.7362L5.54498 10.7776C5.6186 10.8241 5.69325 10.8702 5.76864 10.9148L5.83048 10.9498C5.88599 10.9818 5.9418 11.0134 5.99834 11.0441L6.09125 11.0922L6.2114 11.1548L6.23908 11.1682L6.28826 11.192C6.35114 11.2221 6.4146 11.2518 6.47865 11.2804L6.51885 11.2984C6.59218 11.3306 6.66624 11.3614 6.74089 11.3911L6.79508 11.4123C6.86413 11.4392 6.93422 11.4653 7.0046 11.4901L7.03096 11.4992C7.10812 11.5264 7.18616 11.5513 7.26464 11.576L7.32103 11.5928C7.40084 11.617 7.47991 11.6457 7.56222 11.661C12.7972 12.6178 14.3178 8.50803 14.3178 8.50803C13.0406 10.1757 10.7738 10.6155 8.62591 10.1258C8.54448 10.1074 8.46556 10.0819 8.38619 10.0585L8.32641 10.0402C8.24896 10.0165 8.17195 9.99154 8.09553 9.96497L8.06388 9.95361C7.99541 9.92941 7.92782 9.90402 7.86039 9.8779L7.80326 9.85547C7.72949 9.82625 7.65601 9.79569 7.58357 9.76396L7.53969 9.74434C7.4774 9.71615 7.41571 9.68766 7.35431 9.658L7.30071 9.63217C7.25256 9.60871 7.205 9.58377 7.1573 9.55912L7.06174 9.50879C7.00357 9.4778 6.94659 9.44533 6.8899 9.41227L6.83189 9.37995C6.75635 9.33524 6.68185 9.28919 6.60808 9.24241L6.54771 9.20212C6.49426 9.16758 6.44096 9.13231 6.38854 9.096L6.33715 9.05984C6.2865 9.02413 6.23629 8.98768 6.18667 8.95093L6.11996 8.90031C6.07432 8.86533 6.02897 8.83006 5.98421 8.7939L5.92369 8.7452C5.86656 8.69827 5.81016 8.65074 5.75451 8.60219L5.73595 8.58669C5.67573 8.53371 5.61654 8.47925 5.55808 8.42465L5.50802 8.37624C5.46473 8.33506 5.42203 8.29344 5.38021 8.25065L5.33015 8.20047C5.27685 8.14586 5.22458 8.09052 5.17333 8.03429L5.16553 8.02588C5.11134 7.96655 5.05834 7.90589 5.00651 7.8445L4.96484 7.79491C4.92611 7.74827 4.88783 7.70075 4.85043 7.65308L4.80846 7.60069C4.76326 7.5421 4.71938 7.48365 4.67624 7.42433C3.48386 5.79397 3.05538 3.54539 4.00849 1.69883L3.16346 2.77265ZM6.52356 1.45886C5.74081 2.58787 5.78322 4.09957 6.39399 5.29352C6.49632 5.49364 6.61146 5.68801 6.74015 5.87278C6.85736 6.04147 6.98752 6.24189 7.14316 6.37722C7.19956 6.4395 7.2586 6.50031 7.31882 6.55993L7.36506 6.60583C7.42351 6.66265 7.483 6.71858 7.5444 6.77289L7.55176 6.77924L7.55353 6.78101C7.62156 6.84078 7.69179 6.89819 7.76306 6.95486L7.81062 6.99206C7.88218 7.04696 7.95506 7.10097 8.02986 7.15248L8.03619 7.15735L8.13632 7.22332L8.18373 7.25475C8.23718 7.28914 8.29122 7.32249 8.34629 7.35452L8.36926 7.3681C8.41667 7.3954 8.46467 7.42226 8.51282 7.44853L8.66434 7.52734L8.6795 7.53428C8.74856 7.56822 8.81806 7.60113 8.88918 7.63212L8.93541 7.65131C8.99225 7.67537 9.04953 7.69898 9.10725 7.72112L9.18087 7.74827C9.23329 7.76775 9.2857 7.78561 9.33871 7.80332L9.40998 7.8262C9.48522 7.84951 9.55973 7.87918 9.63806 7.89231C13.6799 8.56337 14.613 5.4442 14.613 5.4442C13.7719 6.65852 12.143 7.23778 10.4048 6.78559C10.3276 6.76522 10.2513 6.74308 10.1758 6.71932L10.107 6.69704C10.0533 6.67977 9.99984 6.66117 9.94698 6.64184L9.87468 6.61483C9.81667 6.5924 9.75924 6.56923 9.70226 6.54502L9.65588 6.5254C9.58446 6.49426 9.51423 6.46135 9.44502 6.42711L9.3393 6.37324L9.27834 6.3418C9.23329 6.3173 9.18852 6.29192 9.1445 6.26594L9.11255 6.24779C9.05777 6.21577 9.00388 6.18286 8.95058 6.14862L8.90169 6.116L8.79685 6.04634C8.72235 5.99483 8.64976 5.94097 8.57835 5.88621L8.52917 5.84725C7.76836 5.24526 7.16525 4.42233 6.87856 3.48931C6.57804 2.52161 6.64283 1.4354 7.16348 0.553733L6.52356 1.45886ZM9.34961 0.477284C8.88815 1.15794 8.8428 2.00344 9.16305 2.75523C9.50068 3.55322 10.1926 4.17912 11.0002 4.47605L11.1006 4.51074L11.1448 4.5249C11.1924 4.53996 11.2396 4.55737 11.2888 4.56652C13.5206 4.99879 14.1259 3.41877 14.287 3.18603C13.7568 3.95125 12.8656 4.13499 11.7722 3.8689C11.6859 3.84794 11.591 3.81665 11.5078 3.78699C11.401 3.74876 11.2959 3.70537 11.1935 3.65623C10.9995 3.56266 10.8144 3.44932 10.6427 3.31944C9.66427 2.57533 9.05659 1.15602 9.69504 0" fill="#FDDD0A"/>
<path d="M8.84721 13.9704H8.22496C8.19051 13.9704 8.1562 13.9981 8.14884 14.0319L7.7071 16.0804C7.69989 16.1142 7.66558 16.1419 7.63113 16.1419H7.19072C6.75503 16.1419 6.80538 15.8398 6.89461 15.426L6.89726 15.4135L6.90698 15.3612L6.90875 15.3515L6.94998 15.1314L6.97265 15.0156L7.17364 14.0321C7.18056 13.9981 7.15789 13.9702 7.12343 13.9702H6.48483C6.45038 13.9702 6.41622 13.998 6.40915 14.0319L6.13454 15.3379L6.13425 15.3388L6.12158 15.3996C5.96344 16.1232 6.00526 16.8134 6.86487 16.8351L6.8899 16.8356H8.2391C8.27355 16.8356 8.30786 16.8078 8.31507 16.774L8.89698 14.0321C8.9042 13.9981 8.88182 13.9705 8.84721 13.9704ZM2.18355 13.9632H1.50034C1.46574 13.9632 1.43128 13.9909 1.42362 14.0245L1.29405 14.5978C1.28654 14.6316 1.30848 14.6592 1.34308 14.6592H2.03159C2.0662 14.6592 2.1005 14.6314 2.10787 14.5976L2.23302 14.0247C2.24024 13.9909 2.21815 13.9632 2.18355 13.9632ZM1.98536 14.8551H1.2967C1.26225 14.8551 1.22764 14.8829 1.21999 14.9165L1.02666 15.7753L0.99971 15.8984L0.814035 16.7752C0.80682 16.809 0.791949 16.8636 0.780906 16.8964C0.780906 16.8964 0.652215 17.2801 0.435913 17.2757L0.408821 17.2751L0.221674 17.2717C0.187219 17.2712 0.152469 17.2982 0.144371 17.3317L0.00169158 17.9334C-0.00640683 17.9671 0.0153853 17.9948 0.0496931 17.9954C0.172347 17.9969 0.447104 18 0.613342 18C1.15358 18 1.4385 17.7 1.62093 16.8366L2.03498 14.9164C2.0422 14.8829 2.01981 14.8551 1.98536 14.8551ZM14.6655 14.6229L14.637 14.5046L14.6089 14.3836L14.5946 14.3225C14.5386 14.1045 14.3744 13.9789 14.0178 13.9789L12.9515 13.9776H12.3762C12.3417 13.9776 12.3076 14.0054 12.3004 14.0392L12.2449 14.3019L12.2365 14.3419L11.7316 16.7123C11.7242 16.7463 11.7219 16.7879 11.726 16.8047C11.7301 16.8217 11.7965 16.8356 11.831 16.8356H12.3498C12.3844 16.8356 12.4282 16.8294 12.447 16.8217C12.4659 16.814 12.4937 16.746 12.5006 16.7122L12.6851 15.7973L12.6853 15.7966L12.6976 15.7356L12.9083 14.7462C12.9157 14.7124 12.9497 14.6848 12.9842 14.6847L14.617 14.6839C14.6516 14.6842 14.6734 14.6566 14.6655 14.6229ZM16.7675 13.5543L16.6417 13.5548H16.1191C16.0845 13.5548 16.0402 13.5783 16.0209 13.6069L14.8652 15.3038C14.8458 15.3324 14.8235 15.3283 14.8159 15.2946L14.7308 14.9208C14.7231 14.887 14.6885 14.8594 14.6539 14.8594H13.9111C13.8765 14.8594 13.856 14.8866 13.8654 14.9198L14.1983 16.0888C14.2078 16.1221 14.2085 16.1768 14.2 16.2104L14.0549 16.7761C14.0462 16.8097 14.0674 16.837 14.102 16.837H14.8364C14.8708 16.837 14.9061 16.8096 14.9147 16.7761L15.0599 16.2104C15.0684 16.1766 15.0924 16.1267 15.1133 16.099L16.9895 13.6032C17.0104 13.5755 16.9991 13.5529 16.9646 13.5532L16.7675 13.5543ZM10.865 15.0182V15.0176C10.8608 15.0551 10.8262 15.0827 10.7916 15.0827H9.84965C9.81696 15.0827 9.80047 15.0606 9.80533 15.0331L9.80621 15.0309L9.80562 15.0312L9.80606 15.0281L9.81033 15.012C9.9003 14.7724 10.0835 14.615 10.4279 14.615C10.8157 14.6149 10.8914 14.8047 10.865 15.0182ZM10.5887 13.9285C9.37965 13.9285 9.09311 14.664 8.93232 15.4065C8.77168 16.1633 8.78537 16.8707 10.0366 16.8707H10.1883L10.226 16.8705H10.2348L10.385 16.8701H10.3877C10.7181 16.8688 11.0495 16.8663 11.1837 16.8652C11.218 16.8646 11.2516 16.837 11.2586 16.8032L11.3795 16.2108C11.3864 16.177 11.3639 16.1492 11.3293 16.1492H10.2045C9.75703 16.1492 9.62422 16.0301 9.67325 15.6797H11.4712L11.4711 15.6798L11.4723 15.6797C11.5008 15.6793 11.5273 15.6595 11.5378 15.6332L11.5421 15.6176L11.5419 15.6177C11.8089 14.6084 11.7323 13.9286 10.5887 13.9285ZM4.87414 15.0144L4.85705 15.0747L4.58554 16.0394C4.57626 16.0729 4.54019 16.1 4.50558 16.1H3.78703C3.24194 16.1 3.10912 15.6726 3.24194 15.0424C3.3746 14.3978 3.63478 13.9971 4.17134 13.9565C4.90461 13.901 5.05127 14.4179 4.87414 15.0144ZM5.36711 16.063C5.36711 16.063 5.70591 15.2383 5.78278 14.7622C5.88776 14.1248 5.56927 13.2 4.3392 13.2C3.11619 13.2 2.58494 14.0827 2.38233 15.0424C2.17972 16.0091 2.4452 16.8567 3.66129 16.8497L5.5173 16.8429C5.55175 16.8427 5.58709 16.8152 5.59592 16.7818L5.75215 16.1847C5.76084 16.1511 5.73978 16.1236 5.70518 16.1233L5.40568 16.1216C5.37638 16.1214 5.3596 16.1022 5.36313 16.077L5.36711 16.063ZM11.4218 15.5109C11.4218 15.5337 11.4034 15.5523 11.3805 15.5523C11.3579 15.5523 11.3393 15.5337 11.3393 15.5109C11.3393 15.4881 11.3577 15.4697 11.3805 15.4697C11.4034 15.4697 11.4218 15.4881 11.4218 15.5109Z" fill="#FDDD0A"/>
</svg>
