<svg width="44" height="10" viewBox="0 0 44 10" fill="none" xmlns="http://www.w3.org/2000/svg">
<path d="M31.1387 8.25499C30.9652 8.25499 30.7229 8.35924 30.6377 8.40415C30.6001 8.32235 30.4888 8.25499 30.3398 8.25499C30.1449 8.25499 29.9124 8.38009 29.9124 8.38009L29.9337 8.27584H29.49L29.1217 9.99195H29.5752L29.8322 8.73935C29.8322 8.73935 29.9828 8.72331 30.0254 8.72011C30.2906 8.70247 30.2579 8.88049 30.2039 9.12909L30.1646 9.31513L30.0205 9.99195H30.4822L30.6656 9.12267C30.7 8.9687 30.7131 8.90936 30.7393 8.76502C30.7393 8.76502 30.8768 8.72492 30.9243 8.72011C31.1895 8.68803 31.1567 8.88049 31.1027 9.12909L31.0651 9.31513L30.9193 9.99195H31.3827L31.5644 9.12428C31.6643 8.68322 31.6807 8.25499 31.1387 8.25499Z" fill="#FDDD0A"/>
<path d="M32.8375 8.25979C32.1384 8.25979 31.8928 8.6832 31.7946 9.12747C31.7012 9.57173 31.7569 9.99996 32.456 9.99996C33.1551 9.99996 33.4007 9.58135 33.5006 9.12747C33.5972 8.6832 33.535 8.25979 32.8375 8.25979ZM33.0471 9.12747C32.9881 9.40172 32.885 9.58135 32.5477 9.58135C32.2203 9.58135 32.1957 9.39851 32.2497 9.12747C32.3087 8.86123 32.4151 8.67999 32.7458 8.67999C33.0896 8.67839 33.106 8.86925 33.0471 9.12747Z" fill="#FDDD0A"/>
<path d="M34.8799 8.26781C34.6441 8.23253 34.3854 8.27904 34.3854 8.27904L34.5295 7.61665H34.0875L33.724 9.31512L33.5701 9.99996C33.5701 9.99996 34.153 9.99675 34.505 9.99996C34.9175 10.0032 35.2597 9.63429 35.3563 9.11785C35.4398 8.66717 35.3563 8.33999 34.8799 8.26781ZM34.8881 9.11945C34.8471 9.40013 34.7342 9.50277 34.482 9.53164C34.2479 9.55891 34.13 9.53164 34.13 9.53164L34.2938 8.73934C34.2938 8.73934 34.541 8.61745 34.7407 8.69283C34.9699 8.77944 34.9241 8.87407 34.8881 9.11945Z" fill="#FDDD0A"/>
<path d="M35.5898 8.6367L35.8599 8.64793L35.724 9.30551L35.58 9.99035H36.0384L36.4068 8.27584H35.6651L35.5898 8.6367Z" fill="#FDDD0A"/>
<path d="M36.2251 8.06409C36.3954 8.06409 36.5297 8.00956 36.5722 7.80587C36.6197 7.59737 36.5051 7.54765 36.3348 7.54765C36.1662 7.54765 36.0287 7.59737 35.9828 7.80587C35.9403 8.01437 36.0516 8.06409 36.2251 8.06409Z" fill="#FDDD0A"/>
<path d="M36.9364 7.61665L36.568 9.30229L36.424 9.99034H36.8824L37.3948 7.61665H36.9364Z" fill="#FDDD0A"/>
<path d="M38.3699 8.25016C37.5856 8.2213 37.417 8.70084 37.3171 9.12105C37.196 9.62466 37.3171 9.99675 38.0359 9.99996C38.3404 10.0016 38.6989 9.95665 38.6989 9.95665L38.8103 9.58777L38.1374 9.61343C37.9474 9.61343 37.8623 9.58135 37.7935 9.51399C37.71 9.4322 37.7281 9.38729 37.7428 9.28945L38.9003 9.29106C39.0722 8.67037 38.9887 8.27262 38.3699 8.25016ZM38.5614 8.97671L37.805 8.98152C37.8525 8.77462 38.0604 8.60622 38.2896 8.60622C38.5483 8.60622 38.622 8.78745 38.5614 8.97671Z" fill="#FDDD0A"/>
<path d="M35.7999 6.59343L35.8245 6.48116C35.8114 6.54371 35.759 6.66881 35.723 6.68324C35.759 6.66881 35.8114 6.5421 35.8245 6.47955L36.1683 4.79552V4.79391L36.4041 3.71613L36.5891 2.86289C36.6038 2.80194 36.6677 2.75062 36.7315 2.75062L39.5214 2.74902C39.5378 2.74902 39.5525 2.74581 39.5656 2.73939C39.5918 2.72817 39.6082 2.70571 39.6147 2.68005C39.618 2.66722 39.618 2.65118 39.6131 2.63675L39.559 2.42023L39.5066 2.19729L39.4788 2.08502C39.374 1.68567 39.0646 1.45471 38.395 1.45471L36.6709 1.46113H35.5904C35.5249 1.46113 35.461 1.50764 35.4479 1.57019L35.4005 1.78992L35.3448 2.04974C35.3317 2.10908 35.3153 2.18607 35.3039 2.23579L34.3805 6.47795C34.3805 6.47955 34.3805 6.48116 34.3788 6.48276L34.3559 6.59022C34.3526 6.60626 34.3526 6.62069 34.3559 6.63352C34.3624 6.67843 34.3985 6.71211 34.4492 6.71211H35.6624C35.7246 6.71211 35.7885 6.65597 35.7999 6.59343Z" fill="#FDDD0A"/>
<path d="M36.2187 4.56932C36.2154 4.58215 36.2138 4.59658 36.2105 4.61102L36.4053 3.71768L36.2187 4.56932Z" fill="#FDDD0A"/>
<path d="M36.1939 4.68162L36.1713 4.79388C36.181 4.74416 36.1976 4.67036 36.2105 4.61102L36.1939 4.68162Z" fill="#FDDD0A"/>
<path d="M43.9337 0.670382H43.5637C43.4982 0.670382 43.3918 0.668778 43.3279 0.668778H42.3456C42.2801 0.668778 42.1983 0.715289 42.1606 0.768216L39.988 3.88769C39.9503 3.94062 39.9094 3.9326 39.8947 3.87165L39.7342 3.18521C39.7195 3.12266 39.6556 3.07294 39.5901 3.07294H38.1936C38.1297 3.07294 38.0904 3.12266 38.1084 3.18521L38.7339 5.33275C38.7519 5.3937 38.7535 5.49474 38.7371 5.55569L38.4637 6.59818C38.4473 6.65913 38.4883 6.71366 38.5521 6.71366H39.9323C39.9978 6.71366 40.0633 6.65913 40.0797 6.59818L40.3515 5.55729C40.3678 5.49634 40.4137 5.40332 40.4513 5.352L43.9779 0.766612C44.0205 0.713686 43.9992 0.670382 43.9337 0.670382Z" fill="#FDDD0A"/>
<path d="M28.9582 1.43387H27.7892C27.7238 1.43387 27.6599 1.48679 27.6468 1.54934L26.8167 5.31035C26.8036 5.3729 26.7381 5.41942 26.6743 5.41942H25.8458C25.0272 5.41942 25.1206 4.8693 25.2892 4.10908C25.2908 4.10106 25.2925 4.09625 25.2941 4.08823L25.3121 3.9936C25.3137 3.98718 25.3154 3.98237 25.3154 3.97596L25.353 3.78189L25.394 3.57339C25.4054 3.51084 25.4234 3.41782 25.4365 3.36008L25.8131 1.55095C25.8262 1.4884 25.7836 1.43547 25.7181 1.43547H24.518C24.4526 1.43547 24.3887 1.4884 24.3756 1.55095L23.8582 3.9519V3.9535L23.8337 4.06417C23.5357 5.39375 23.6143 6.6656 25.2302 6.7057C25.2564 6.7057 25.2777 6.71211 25.2777 6.71211H27.8138C27.8793 6.71211 27.9431 6.65598 27.9562 6.59343L29.0499 1.55255C29.0663 1.49 29.0237 1.43387 28.9582 1.43387Z" fill="#FDDD0A"/>
<path d="M16.4324 1.43387H15.1488C15.0833 1.43387 15.0195 1.48038 15.0047 1.54293L14.8836 2.06738L14.7608 2.59184C14.7461 2.65279 14.7886 2.7009 14.8525 2.7009H16.1475C16.213 2.7009 16.2769 2.65118 16.2916 2.59024L16.4095 2.06418L16.5274 1.54293C16.5388 1.48038 16.4979 1.43387 16.4324 1.43387Z" fill="#FDDD0A"/>
<path d="M16.0613 3.07134H14.7663C14.7008 3.07134 14.6369 3.11946 14.6222 3.18041L14.2325 4.86925L14.2178 4.93661C14.2145 4.95265 14.2112 4.96869 14.208 4.98312L13.8576 6.59338C13.8445 6.65593 13.8167 6.75537 13.7954 6.81632C13.7954 6.81632 13.5531 7.5204 13.147 7.51399C13.1307 7.51399 13.1127 7.51399 13.0963 7.51399C12.8998 7.51078 12.7443 7.50757 12.7443 7.50757C12.6788 7.50757 12.6133 7.55569 12.5986 7.61824L12.3301 8.72328C12.3153 8.78423 12.3563 8.83555 12.4201 8.83716V8.84197C12.4201 8.84197 13.0013 8.8548 13.4123 8.8548H13.4794C14.4945 8.8548 15.0299 8.29987 15.3737 6.71367L16.1514 3.18682C16.1677 3.11946 16.1252 3.07134 16.0613 3.07134Z" fill="#FDDD0A"/>
<path d="M31.5662 6.76498H31.2994C31.2928 6.76498 31.2863 6.76498 31.2797 6.76658C31.5679 6.76658 31.8855 6.76658 32.1868 6.76498C32.0771 6.76498 31.9641 6.76658 31.8528 6.76658H31.5662V6.76498Z" fill="#FDDD0A"/>
<path d="M31.193 6.76501H31.2781C32.2097 6.76501 33.3476 6.75539 33.3476 6.75539C33.4115 6.75378 33.4753 6.70407 33.4884 6.64152L33.5834 6.18602L33.603 6.09781L33.716 5.55571C33.7291 5.49316 33.6865 5.44505 33.621 5.44505H31.5074C30.7411 5.44505 30.4677 5.2574 30.4939 4.73936C30.4939 4.68002 30.5627 4.57416 30.6282 4.57416H33.8781V4.57897H33.8846C33.9386 4.57737 33.991 4.54209 34.0107 4.49397C34.014 4.48435 34.0189 4.47472 34.0205 4.4651C34.5215 2.61106 34.3791 1.36167 32.2294 1.36167C29.9569 1.36167 29.4182 2.7121 29.117 4.07537C28.8157 5.4659 28.8419 6.76501 31.193 6.76501ZM30.7591 3.38892C30.7591 3.38732 30.7591 3.38572 30.7608 3.38251C30.7608 3.38251 30.764 3.36968 30.769 3.35204C30.9376 2.91098 31.2814 2.62229 31.9281 2.62229C32.6567 2.62229 32.8024 2.97032 32.7484 3.36326V3.36166C32.7484 3.43062 32.678 3.49157 32.6125 3.49157H30.8426C30.7821 3.49157 30.7509 3.44506 30.7591 3.39534C30.7591 3.39534 30.7591 3.39213 30.7591 3.38892Z" fill="#FDDD0A"/>
<path d="M20.485 0.0240441C18.1864 0.0240441 17.1877 1.64553 16.8078 3.40815C16.4263 5.1836 16.9257 6.74094 19.2113 6.7281L22.7002 6.71527C22.7641 6.71527 22.8312 6.66395 22.8476 6.603L23.1406 5.50598C23.157 5.44343 23.1177 5.39371 23.0522 5.39371L22.489 5.3905C22.4334 5.3905 22.4022 5.35522 22.4088 5.3087C22.4104 5.30068 22.4121 5.29106 22.4153 5.28304C22.4153 5.28304 23.0522 3.76902 23.1963 2.89332C23.3944 1.72251 22.7968 0.0240441 20.485 0.0240441ZM20.9484 5.23332C20.9304 5.29427 20.8632 5.33918 20.7978 5.33918H19.447C18.4221 5.33918 18.1733 4.55971 18.4221 3.40174C18.671 2.2181 19.1605 1.48354 20.1691 1.40976C21.546 1.30872 21.8227 2.2598 21.4903 3.35522L21.4592 3.46589L21.4379 3.53967L21.2022 4.35281L20.9484 5.23332Z" fill="#FDDD0A"/>
<path d="M11.7815 1.42742H10.29L10.5421 0.322372C10.583 0.144346 10.4651 0 10.2785 0H1.62079C1.43415 0 1.25078 0.144346 1.20985 0.322372L0.00811601 5.59741C-0.0328149 5.77544 0.0850661 5.91978 0.271711 5.91978H2.31826L1.71575 8.50036C1.67482 8.67839 1.79107 8.82274 1.97771 8.82274H4.84942C5.03607 8.82274 5.22108 8.67839 5.26201 8.50036L5.67295 6.73774H10.5667C10.7533 6.73774 10.9367 6.5934 10.9776 6.41537L12.0451 1.74819C12.086 1.57177 11.9681 1.42742 11.7815 1.42742Z" fill="#FDDD0A"/>
</svg>
