<svg width="16" height="16" viewBox="0 0 16 16" fill="none" xmlns="http://www.w3.org/2000/svg">
<path fill-rule="evenodd" clip-rule="evenodd" d="M15.4667 0.533333H0.533333V15.4667H15.4667V0.533333ZM16 0V16H0V0H16Z" fill="#FDDD0A"/>
<path d="M10.7481 12.5001C11.0704 13.0263 11.4897 13.4131 12.2313 13.4131C12.8543 13.4131 13.2522 13.1017 13.2522 12.6715C13.2522 12.1559 12.8434 11.9733 12.1576 11.6734L11.7818 11.5121C10.6968 11.0499 9.97606 10.4709 9.97606 9.24673C9.97606 8.11911 10.8352 7.2607 12.178 7.2607C13.1339 7.2607 13.8211 7.5934 14.3164 8.46451L13.1456 9.21626C12.8878 8.75403 12.6097 8.57194 12.178 8.57194C11.7376 8.57194 11.4585 8.8513 11.4585 9.21626C11.4585 9.6673 11.7378 9.84991 12.3829 10.1293L12.7588 10.2903C14.0362 10.8381 14.7575 11.3966 14.7575 12.6522C14.7575 14.0058 13.6942 14.7474 12.2661 14.7474C10.8698 14.7474 9.96768 14.082 9.52628 13.2099L10.7481 12.5001ZM5.43688 12.6304C5.67307 13.0494 5.88793 13.4037 6.4045 13.4037C6.89847 13.4037 7.21009 13.2104 7.21009 12.4589V7.34654H8.71358V12.4792C8.71358 14.0361 7.80082 14.7446 6.4685 14.7446C5.26469 14.7446 4.56755 14.1217 4.21301 13.3713L5.43688 12.6304Z" fill="#FDDD0A"/>
</svg>
