<svg width="22" height="15" viewBox="0 0 22 15" fill="none" xmlns="http://www.w3.org/2000/svg">
<path fill-rule="evenodd" clip-rule="evenodd" d="M0.499301 0.37451C0.122497 0.406539 -0.107721 0.794236 0.0507134 1.12996L4.82401 11.2445C4.93495 11.4796 5.20242 11.603 5.45857 11.5372L10.477 10.2495L13.0499 14.7275C13.1803 14.9546 13.4594 15.0565 13.7102 14.9686L21.2506 12.3279C21.5962 12.2069 21.7236 11.7938 21.5042 11.5062L18.9418 8.14755L21.5981 7.43477C21.983 7.3315 22.1282 6.87271 21.8703 6.57499L19.4176 3.74387C19.2921 3.59896 19.0972 3.53015 18.9059 3.56315L16.0025 4.06399C15.6078 4.13208 15.4201 4.57875 15.6518 4.89839L17.6448 7.64708L10.8866 9.14849L5.39642 0.257966C5.28878 0.0836553 5.08908 -0.0156243 4.88157 0.00201405L0.499301 0.37451ZM5.84549 10.365C5.72001 10.3949 5.59023 10.3348 5.53445 10.2209L1.19203 1.35412C1.10982 1.18624 1.22419 0.989724 1.41383 0.973024L4.6374 0.689144C4.74326 0.679821 4.84503 0.731389 4.89826 0.821319L9.96498 9.38205L5.84549 10.365ZM18.1568 8.28101L20.3634 11.2583C20.4712 11.4037 20.4043 11.6095 20.2306 11.6675L13.8979 13.782C13.7744 13.8232 13.6384 13.7733 13.5731 13.6629L11.3985 9.98261L18.1568 8.28101ZM19.2129 4.33532C19.151 4.25841 19.051 4.22077 18.9523 4.23724L16.742 4.60613C16.5437 4.63923 16.4488 4.86356 16.5654 5.02388L18.3274 7.44689L20.7265 6.81771C20.9158 6.76807 20.9915 6.54545 20.8704 6.39488L19.2129 4.33532Z" fill="#FDDD0A"/>
</svg>
