<svg width="23" height="16" viewBox="0 0 23 16" fill="none" xmlns="http://www.w3.org/2000/svg">
<path d="M11.0219 0H7.34815V3.69221H3.67377V7.38442H0V11.0772H11.0219V0Z" fill="#FDDD0A"/>
<path d="M11.9402 0V11.0766H22.9621C22.9615 4.95919 18.0271 0 11.9402 0Z" fill="#FDDD0A"/>
<path d="M22.1444 13.7681V13.3573H21.7461V15.9351H22.1444V14.1097C22.2612 13.9015 22.5962 13.6989 22.8457 13.6989C22.9041 13.6989 22.9521 13.7045 23 13.7094V13.2986C22.649 13.2986 22.3515 13.5019 22.1444 13.7681Z" fill="#FDDD0A"/>
<path d="M21.0508 13.6619V13.3573H19.1177V13.7094H20.5308L19.1177 15.6207V15.9351H21.0723V15.583H19.6279L21.0508 13.6619Z" fill="#FDDD0A"/>
<path d="M18.4432 13.3573H18.0449V15.9351H18.4432V13.3573Z" fill="#FDDD0A"/>
<path d="M18.2469 12.4498C18.0982 12.4498 17.9759 12.5728 17.9759 12.7223C17.9759 12.8718 18.0982 12.9891 18.2469 12.9891C18.3957 12.9891 18.5124 12.8718 18.5124 12.7223C18.5124 12.5728 18.395 12.4498 18.2469 12.4498Z" fill="#FDDD0A"/>
<path d="M16.4307 13.2937C16.0429 13.2937 15.6925 13.5124 15.5118 13.7311V13.3573H15.1135V15.9351H15.5118V14.051C15.6661 13.8429 15.9581 13.6507 16.2715 13.6507C16.617 13.6507 16.8505 13.7897 16.8505 14.2487V15.9351H17.2433V14.1258C17.2433 13.5655 16.9618 13.2937 16.4307 13.2937Z" fill="#FDDD0A"/>
<path d="M13.7593 13.7681V13.3573H13.361V15.9351H13.7593V14.1097C13.8761 13.9015 14.2104 13.6989 14.46 13.6989C14.5184 13.6989 14.5663 13.7045 14.6143 13.7094V13.2986C14.2639 13.2986 13.9664 13.5019 13.7593 13.7681Z" fill="#FDDD0A"/>
<path d="M1.73639 15.1185L0.631861 12.3751H0V15.9351H0.440704V12.941L1.64603 15.9351H1.82674L3.02715 12.941V15.9351H3.46786V12.3751H2.836L1.73639 15.1185Z" fill="#FDDD0A"/>
<path d="M11.4864 13.2937C10.7538 13.2937 10.2227 13.8966 10.2227 14.6441C10.2227 15.4502 10.7697 16 11.5344 16C11.9486 16 12.2941 15.8561 12.5541 15.5997L12.3629 15.3384C12.1558 15.5521 11.8638 15.6695 11.5663 15.6695C11.0144 15.6695 10.6794 15.2637 10.6474 14.7781H12.7188V14.6768C12.7188 13.9016 12.2621 13.2937 11.4864 13.2937ZM10.6419 14.4785C10.6634 14.0887 10.9339 13.6248 11.4809 13.6248C12.0648 13.6248 12.3199 14.0998 12.3254 14.4785H10.6419Z" fill="#FDDD0A"/>
<path d="M9.17654 13.7471C8.9694 13.4642 8.65593 13.2937 8.31111 13.2937C7.64175 13.2937 7.16909 13.8219 7.16909 14.6496C7.16909 15.4879 7.64175 16 8.31111 16C8.67252 16 8.98538 15.8134 9.17654 15.5515V15.9358H9.57483V12.3757H9.17654V13.7471ZM9.17654 15.2309C9.03824 15.4552 8.72538 15.6417 8.41191 15.6417C7.8913 15.6417 7.58336 15.2198 7.58336 14.649C7.58336 14.0776 7.8913 13.6507 8.41191 13.6507C8.72538 13.6507 9.03885 13.8429 9.17654 14.0671V15.2309Z" fill="#FDDD0A"/>
<path d="M5.40075 13.2937C4.62014 13.2937 4.13149 13.8966 4.13149 14.6441C4.13149 15.3915 4.62014 16 5.40075 16C6.18135 16 6.67 15.3915 6.67 14.6441C6.67 13.8966 6.18135 13.2937 5.40075 13.2937ZM5.40075 15.6417C4.85371 15.6417 4.5513 15.1722 4.5513 14.6435C4.5513 14.1202 4.85371 13.6507 5.40075 13.6507C5.94779 13.6507 6.2502 14.1202 6.2502 14.6435C6.2502 15.1722 5.94779 15.6417 5.40075 15.6417Z" fill="#FDDD0A"/>
</svg>
