<svg width="30" height="16" viewBox="0 0 30 16" fill="none" xmlns="http://www.w3.org/2000/svg">
<path fill-rule="evenodd" clip-rule="evenodd" d="M4.63844 13.182C1.98894 11.769 0.527389 9.91009 0.527389 8C0.527389 6.08994 1.98894 4.23107 4.63844 2.818C7.26316 1.41814 10.9257 0.536182 15 0.536182C19.0743 0.536182 22.7368 1.41814 25.3615 2.818C28.0111 4.23107 29.4726 6.08994 29.4726 8C29.4726 9.91009 28.0111 11.769 25.3615 13.182C22.7368 14.5819 19.0743 15.4638 15 15.4638C10.9257 15.4638 7.26316 14.5819 4.63844 13.182ZM15 16C6.71586 16 0 12.4182 0 8C0 3.58182 6.71586 0 15 0C23.2841 0 30 3.58182 30 8C30 12.4182 23.2841 16 15 16Z" fill="#FDDD0A"/>
<path d="M8.01357 6.05789H8.92546C9.6536 6.05789 9.90653 6.21988 9.99246 6.31642C10.135 6.47671 10.162 6.81466 10.0703 7.29371C9.96734 7.83002 9.77648 8.21027 9.50294 8.4238C9.22288 8.6424 8.76758 8.75318 8.1498 8.75318H7.49692L8.01357 6.05789ZM9.57775 4.13269H6.26531C6.10949 4.13269 5.97554 4.24468 5.94581 4.39974L4.40892 12.4169C4.39037 12.5137 4.41543 12.6137 4.47723 12.6898C4.53908 12.7659 4.6312 12.8099 4.72842 12.8099H6.45096C6.60683 12.8099 6.74079 12.6979 6.77052 12.5428L7.12794 10.6784H8.33502C9.01764 10.6784 9.59229 10.6029 10.0429 10.4541C10.5062 10.3015 10.9326 10.0427 11.3099 9.68493C11.622 9.39383 11.879 9.0671 12.0738 8.71369C12.2686 8.36016 12.4086 7.96594 12.4898 7.54195C12.6914 6.49112 12.5276 5.64964 12.0032 5.04105C11.4839 4.4383 10.6678 4.13269 9.57775 4.13269ZM7.10201 9.08322H8.1498C8.8443 9.08322 9.3616 8.9506 9.7015 8.6853C10.0415 8.41995 10.2707 7.9771 10.3899 7.35653C10.5039 6.7607 10.4519 6.34024 10.2341 6.09529C10.016 5.85035 9.57987 5.72786 8.92546 5.72786H7.74523L7.10201 9.08322ZM9.57775 4.46272C10.5742 4.46272 11.3012 4.72785 11.7581 5.25816C12.215 5.78847 12.3525 6.52869 12.1702 7.47902C12.0952 7.8705 11.9683 8.22842 11.7897 8.55268C11.6108 8.87716 11.3772 9.17386 11.0886 9.4429C10.7446 9.76925 10.3625 10.0018 9.94206 10.1403C9.5216 10.2792 8.98606 10.3484 8.33502 10.3484H6.85955L6.45096 12.4798H4.72842L6.26531 4.46272H9.57775Z" fill="#FDDD0A"/>
<path d="M15.3074 2.00121H13.5984C13.4425 2.00121 13.3086 2.1132 13.2788 2.26826L11.7419 10.2854C11.7234 10.3822 11.7484 10.4822 11.8103 10.5583C11.8721 10.6344 11.9643 10.6784 12.0615 10.6784H13.7705C13.9263 10.6784 14.0603 10.5664 14.09 10.4113L14.9192 6.08539H16.0167C16.5246 6.08539 16.6313 6.19541 16.6355 6.20014C16.6664 6.23374 16.7069 6.38941 16.64 6.73815L15.9601 10.2854C15.9416 10.3822 15.9666 10.4822 16.0285 10.5583C16.0903 10.6344 16.1825 10.6784 16.2797 10.6784H18.0158C18.1716 10.6784 18.3056 10.5664 18.3354 10.4113L19.0504 6.68056C19.2182 5.80481 19.0746 5.14787 18.6239 4.72785C18.1937 4.32735 17.4733 4.13269 16.4212 4.13269H15.2936L15.6269 2.39422C15.6454 2.29747 15.6204 2.19736 15.5586 2.12134C15.4967 2.04527 15.4046 2.00121 15.3074 2.00121ZM15.3074 2.33124L14.8988 4.46272H16.4212C17.3792 4.46272 18.0399 4.63225 18.4036 4.97086C18.7673 5.3097 18.8762 5.85871 18.7309 6.61763L18.0158 10.3483H16.2797L16.9595 6.80113C17.0369 6.39761 17.0085 6.12236 16.8741 5.9756C16.7398 5.82885 16.4539 5.75536 16.0167 5.75536H14.6508L13.7705 10.3483H12.0615L13.5984 2.33124H15.3074Z" fill="#FDDD0A"/>
<path d="M21.4585 6.05789H22.3704C23.0985 6.05789 23.3514 6.21988 23.4374 6.31642C23.58 6.47671 23.6069 6.81466 23.5152 7.29365C23.4122 7.83002 23.2213 8.21027 22.9478 8.4238C22.6678 8.6424 22.2125 8.75318 21.5947 8.75318H20.9419L21.4585 6.05789ZM23.0227 4.13269H19.7103C19.5545 4.13269 19.4205 4.24468 19.3908 4.39974L17.8539 12.4169C17.8353 12.5137 17.8604 12.6137 17.9222 12.6898C17.984 12.7659 18.0762 12.8099 18.1734 12.8099H19.8959C20.0517 12.8099 20.1857 12.6979 20.2155 12.5428L20.5728 10.6784H21.7799C22.4625 10.6784 23.0372 10.6029 23.4878 10.4541C23.9511 10.3015 24.3776 10.0426 24.7549 9.68481C25.067 9.39378 25.3239 9.0671 25.5187 8.71369C25.7135 8.36016 25.8535 7.96594 25.9347 7.54195C26.1363 6.49106 25.9725 5.64958 25.4481 5.041C24.9288 4.4383 24.1128 4.13269 23.0227 4.13269ZM20.547 9.08321H21.5947C22.2892 9.08321 22.8065 8.9506 23.1464 8.6853C23.4864 8.41995 23.7156 7.9771 23.8348 7.35653C23.9488 6.7607 23.8969 6.34024 23.679 6.09529C23.4609 5.85035 23.0248 5.72786 22.3704 5.72786H21.1901L20.547 9.08321ZM23.0227 4.46272C24.0191 4.46272 24.7461 4.72785 25.203 5.25816C25.6599 5.78847 25.7974 6.52869 25.6152 7.47902C25.5401 7.8705 25.4132 8.22842 25.2346 8.55268C25.0557 8.87716 24.8221 9.17386 24.5335 9.4429C24.1895 9.76925 23.8074 10.0018 23.387 10.1403C22.9665 10.2792 22.431 10.3484 21.7799 10.3484H20.3045L19.8959 12.4798H18.1734L19.7103 4.46272H23.0227Z" fill="#FDDD0A"/>
</svg>
