<svg width="18" height="16" viewBox="0 0 18 16" fill="none" xmlns="http://www.w3.org/2000/svg">
<path d="M18 8.00183C18 6.81163 16.5067 5.68368 14.2173 4.98421C14.7456 2.65507 14.5108 0.802014 13.4762 0.208743C13.2377 0.069581 12.9588 0.00366211 12.6543 0.00366211V0.820325C12.8231 0.820325 12.9588 0.853284 13.0726 0.915541C13.5715 1.20119 13.788 2.28885 13.6192 3.6878C13.5789 4.03204 13.5128 4.3946 13.4321 4.76448C12.713 4.58869 11.9278 4.45319 11.1023 4.3653C10.607 3.6878 10.0934 3.07256 9.57603 2.53422C10.7721 1.42458 11.8948 0.816663 12.658 0.816663V0C11.649 0 10.3282 0.717785 8.99266 1.96292C7.65715 0.725109 6.33632 0.0146487 5.32735 0.0146487V0.831311C6.08683 0.831311 7.21321 1.43557 8.4093 2.53788C7.89564 3.07622 7.38198 3.6878 6.89401 4.3653C6.06482 4.45319 5.27966 4.58869 4.56054 4.76814C4.47615 4.40192 4.41378 4.04669 4.36975 3.70611C4.19731 2.30716 4.41011 1.2195 4.90542 0.93019C5.01549 0.864271 5.15858 0.834974 5.32735 0.834974V0.0183108C5.01916 0.0183108 4.74032 0.0842297 4.49817 0.223392C3.46718 0.816663 3.23604 2.66606 3.76804 4.98787C1.48594 5.691 0 6.81529 0 8.00183C0 9.19203 1.49327 10.32 3.78271 11.0195C3.25438 13.3486 3.4892 15.2016 4.52385 15.7949C4.76233 15.9341 5.04117 16 5.34937 16C6.35834 16 7.67917 15.2822 9.01468 14.0371C10.3502 15.2749 11.671 15.9853 12.68 15.9853C12.9882 15.9853 13.267 15.9194 13.5092 15.7803C14.5402 15.187 14.7713 13.3376 14.2393 11.0158C16.5141 10.3163 18 9.18837 18 8.00183ZM13.223 5.55917C13.0872 6.03159 12.9185 6.51865 12.7277 7.00572C12.5773 6.71275 12.4195 6.41978 12.247 6.1268C12.0783 5.83383 11.8985 5.54818 11.7187 5.26986C12.2397 5.34676 12.7424 5.44198 13.223 5.55917ZM11.5426 9.45937C11.2564 9.95376 10.9629 10.4225 10.6584 10.8583C10.1117 10.9059 9.55768 10.9316 9 10.9316C8.44598 10.9316 7.89197 10.9059 7.34896 10.862C7.04444 10.4262 6.74725 9.96109 6.46107 9.47036C6.18223 8.99061 5.92907 8.50355 5.69792 8.01282C5.9254 7.52209 6.18223 7.03136 6.4574 6.55161C6.74358 6.05722 7.0371 5.58846 7.34162 5.15267C7.8883 5.10506 8.44232 5.07942 9 5.07942C9.55402 5.07942 10.108 5.10506 10.651 5.149C10.9556 5.5848 11.2528 6.0499 11.5389 6.54063C11.8178 7.02037 12.0709 7.50744 12.3021 7.99817C12.0709 8.4889 11.8178 8.97963 11.5426 9.45937ZM12.7277 8.98329C12.9258 9.47402 13.0946 9.96475 13.234 10.4408C12.7534 10.558 12.247 10.6569 11.7224 10.7338C11.9022 10.4518 12.0819 10.1625 12.2507 9.86587C12.4195 9.5729 12.5773 9.27626 12.7277 8.98329ZM9.00734 12.8908C8.66612 12.5393 8.32491 12.1474 7.98736 11.7189C8.31757 11.7336 8.65512 11.7446 8.99633 11.7446C9.34122 11.7446 9.68243 11.7372 10.0163 11.7189C9.6861 12.1474 9.34488 12.5393 9.00734 12.8908ZM6.27762 10.7338C5.75662 10.6569 5.25397 10.5617 4.77334 10.4445C4.90909 9.97208 5.07786 9.48501 5.26865 8.99794C5.41908 9.29091 5.57684 9.58389 5.74929 9.87686C5.92173 10.1698 6.09784 10.4555 6.27762 10.7338ZM8.98899 3.11284C9.33021 3.46441 9.67142 3.85626 10.009 4.28473C9.67876 4.27008 9.34122 4.2591 9 4.2591C8.65512 4.2591 8.3139 4.26642 7.98003 4.28473C8.31023 3.85626 8.65145 3.46441 8.98899 3.11284ZM6.27395 5.26986C6.09417 5.55184 5.91439 5.84115 5.74562 6.13779C5.57684 6.43076 5.41908 6.72373 5.26865 7.01671C5.07053 6.52598 4.90175 6.03525 4.76233 5.55917C5.24297 5.44564 5.74929 5.34676 6.27395 5.26986ZM2.95353 9.85489C1.65471 9.3019 0.814513 8.57679 0.814513 8.00183C0.814513 7.42687 1.65471 6.6981 2.95353 6.14877C3.26906 6.01327 3.61394 5.89242 3.96983 5.7789C4.17896 6.49668 4.45414 7.24376 4.79535 8.00916C4.45781 8.77089 4.1863 9.5143 3.98084 10.2284C3.61761 10.1149 3.27273 9.99039 2.95353 9.85489ZM4.92744 15.0881C4.42846 14.8025 4.21199 13.7148 4.38076 12.3159C4.42112 11.9716 4.48716 11.6091 4.56788 11.2392C5.287 11.415 6.07216 11.5505 6.89768 11.6384C7.39299 12.3159 7.90664 12.9311 8.42397 13.4694C7.22788 14.5791 6.10518 15.187 5.34203 15.187C5.17693 15.1833 5.03751 15.1504 4.92744 15.0881ZM13.6302 12.2975C13.8027 13.6965 13.5899 14.7842 13.0946 15.0735C12.9845 15.1394 12.8414 15.1687 12.6726 15.1687C11.9132 15.1687 10.7868 14.5644 9.59071 13.4621C10.1044 12.9238 10.618 12.3122 11.106 11.6347C11.9352 11.5468 12.7203 11.4113 13.4395 11.2319C13.5238 11.6017 13.5899 11.957 13.6302 12.2975ZM15.0428 9.85489C14.7273 9.99039 14.3824 10.1112 14.0265 10.2248C13.8174 9.50698 13.5422 8.7599 13.201 7.99451C13.5385 7.23278 13.81 6.48936 14.0155 5.77523C14.3787 5.88876 14.7236 6.01327 15.0465 6.14877C16.3453 6.70176 17.1855 7.42687 17.1855 8.00183C17.1818 8.57679 16.3416 9.30556 15.0428 9.85489Z" fill="#FDDD0A"/>
<path d="M8.99633 9.67544C9.92236 9.67544 10.6731 8.92614 10.6731 8.00183C10.6731 7.07752 9.92236 6.32822 8.99633 6.32822C8.0703 6.32822 7.31961 7.07752 7.31961 8.00183C7.31961 8.92614 8.0703 9.67544 8.99633 9.67544Z" fill="#FDDD0A"/>
</svg>
