<svg width="23" height="16" viewBox="0 0 23 16" fill="none" xmlns="http://www.w3.org/2000/svg">
<path d="M5.52958 14.5761H4.64211C4.61073 13.0417 4.5243 11.5991 4.38299 10.2474H4.3751L3.02392 14.5761H2.34824L1.00511 10.2474H0.997397C0.89776 11.5452 0.834994 12.9881 0.808927 14.5761H0C0.0521335 12.645 0.183153 10.8346 0.392545 9.14477H1.49249L2.77268 13.1356H2.78057L4.06864 9.14477H5.12109C5.35158 11.1241 5.48774 12.9347 5.52958 14.5761ZM9.37838 10.5689C9.01704 12.5774 8.54029 14.0368 7.94865 14.9478C7.48768 15.649 6.98263 16 6.43266 16C6.28603 16 6.10511 15.9547 5.89075 15.8647V15.3804C5.99553 15.3959 6.11849 15.4047 6.2598 15.4047C6.51669 15.4047 6.72317 15.3323 6.8806 15.1872C7.06889 15.0105 7.16304 14.8118 7.16304 14.5921C7.16304 14.4413 7.08964 14.1332 6.94319 13.6667L5.96929 10.5687H6.84115L7.54015 12.8857C7.69724 13.4118 7.76275 13.7791 7.73651 13.9883C8.11877 12.9426 8.38578 11.8024 8.53789 10.5685L9.37838 10.5689Z" fill="#FDDD0A"/>
<path d="M21.1916 14.5761H18.6706V9.14468H19.5187V13.9075H21.1916V14.5761ZM18.0107 14.7073L17.036 14.2146C17.1224 14.1418 17.2051 14.0631 17.2795 13.972C17.6938 13.4734 17.9005 12.7362 17.9005 11.7596C17.9005 9.96275 17.2121 9.06387 15.8349 9.06387C15.1595 9.06387 14.6327 9.29188 14.2559 9.74809C13.8419 10.247 13.6353 10.9816 13.6353 11.9529C13.6353 12.9076 13.8184 13.608 14.1849 14.0522C14.5202 14.4547 15.0256 14.6562 15.7014 14.6562C15.9535 14.6562 16.1849 14.6246 16.3956 14.5608L17.6647 15.3176L18.0107 14.7073ZM14.8531 13.4892C14.6384 13.1354 14.531 12.5673 14.531 11.7841C14.531 10.4165 14.9366 9.73193 15.7486 9.73193C16.173 9.73193 16.4841 9.89565 16.683 10.2224C16.8974 10.5767 17.0053 11.1397 17.0053 11.9121C17.0053 13.2909 16.5994 13.9804 15.7879 13.9804C15.3632 13.9806 15.0522 13.8174 14.8531 13.4892ZM13.2657 13.0706C13.2657 13.5312 13.1008 13.9091 12.7711 14.2051C12.4412 14.4998 11.9987 14.6476 11.4443 14.6476C10.9257 14.6476 10.4229 14.4779 9.93622 14.1403L10.1641 13.6739C10.5829 13.8887 10.9621 13.9955 11.3025 13.9955C11.622 13.9955 11.8717 13.923 12.0528 13.7791C12.2337 13.6347 12.3416 13.4321 12.3416 13.176C12.3416 12.8533 12.1219 12.5775 11.7189 12.3465C11.3472 12.1375 10.604 11.7004 10.604 11.7004C10.2012 11.3997 9.9995 11.0768 9.9995 10.5449C9.9995 10.1047 10.1499 9.74932 10.4509 9.47897C10.7522 9.20757 11.1409 9.0723 11.6175 9.0723C12.1097 9.0723 12.5571 9.20739 12.9601 9.47475L12.7557 9.94132C12.411 9.7913 12.0708 9.71629 11.7352 9.71629C11.4634 9.71629 11.2534 9.78322 11.1075 9.91761C10.9604 10.0515 10.8696 10.2227 10.8696 10.4328C10.8696 10.7539 11.094 11.0333 11.5079 11.2688C11.8845 11.4782 12.6463 11.9228 12.6463 11.9228C13.0594 12.223 13.2657 12.5429 13.2657 13.0706Z" fill="#FDDD0A"/>
<path d="M22.2562 7.32558C21.7435 7.31223 21.3465 7.36511 21.0133 7.50951C20.917 7.54885 20.7641 7.54885 20.7507 7.6734C20.8027 7.7261 20.8087 7.81112 20.8538 7.88385C20.9306 8.01507 21.0645 8.19161 21.1868 8.28366C21.3211 8.38906 21.4559 8.4934 21.5972 8.58528C21.8464 8.7432 22.1288 8.83507 22.3717 8.99247C22.5131 9.08399 22.6538 9.20239 22.7954 9.30094C22.865 9.35346 22.9096 9.43866 23 9.47151V9.45148C22.9547 9.39246 22.9419 9.30708 22.8974 9.24139L22.705 9.05132C22.5191 8.79555 22.2881 8.57228 22.039 8.38888C21.8338 8.24414 21.3852 8.04739 21.302 7.80533L21.289 7.79197C21.43 7.77845 21.5972 7.7261 21.7311 7.68587C21.9491 7.62703 22.1479 7.64038 22.3715 7.58153C22.4744 7.55518 22.5764 7.52215 22.6797 7.48965V7.43046C22.5637 7.31223 22.4811 7.15519 22.3591 7.04347C22.033 6.75485 21.6735 6.47256 21.302 6.23629C21.1031 6.10471 20.8473 6.02004 20.6355 5.90814C20.5591 5.86862 20.4305 5.84912 20.3856 5.78342C20.2707 5.63902 20.206 5.44896 20.1227 5.27803C19.9375 4.91739 19.7576 4.51723 19.5978 4.13586C19.4822 3.88009 19.4119 3.62467 19.2709 3.38805C18.6106 2.27258 17.8936 1.59697 16.7916 0.933839C16.5548 0.795767 16.273 0.736919 15.9721 0.664545L15.4914 0.638547C15.3888 0.592523 15.2861 0.467625 15.1966 0.408601C14.8309 0.172507 13.8896 -0.339204 13.6207 0.336403C13.4475 0.763444 13.8769 1.18328 14.0244 1.39988C14.1333 1.55025 14.2745 1.72135 14.3506 1.89209C14.3957 2.00364 14.4084 2.12204 14.4535 2.23991C14.556 2.5287 14.6519 2.84999 14.7867 3.11946C14.857 3.25683 14.9337 3.40123 15.0235 3.5256C15.075 3.59832 15.1645 3.63047 15.184 3.74905C15.0947 3.87974 15.0877 4.07701 15.0364 4.24108C14.8059 4.98256 14.8959 5.90112 15.2226 6.44603C15.3248 6.6101 15.5687 6.97127 15.8949 6.83284C16.1837 6.7148 16.1197 6.34081 16.2027 6.01284C16.2218 5.93361 16.2092 5.88162 16.2476 5.82962V5.84245C16.337 6.02601 16.4272 6.20291 16.51 6.38701C16.7088 6.7083 17.0549 7.04312 17.3431 7.26568C17.4966 7.38443 17.6182 7.5875 17.8105 7.66005V7.64038H17.7978C17.7588 7.58153 17.7019 7.55518 17.6508 7.50951C17.5352 7.39128 17.4073 7.24689 17.3176 7.11584C17.049 6.74817 16.8113 6.34116 16.6004 5.92114C16.4972 5.71737 16.4082 5.49463 16.325 5.29121C16.2862 5.21269 16.2862 5.09429 16.2219 5.05476C16.1255 5.19898 15.9851 5.32388 15.9148 5.5006C15.7928 5.78325 15.7802 6.13089 15.7349 6.49241L15.7097 6.50505C15.5056 6.45253 15.4346 6.23629 15.3571 6.05272C15.1652 5.5865 15.1329 4.83817 15.2995 4.30028C15.3441 4.16274 15.537 3.72955 15.46 3.5985C15.4214 3.4729 15.2931 3.4014 15.2228 3.3025C15.1401 3.17813 15.0496 3.02074 14.992 2.88267C14.8383 2.51535 14.761 2.10834 14.5955 1.7412C14.5181 1.5701 14.3839 1.39303 14.2751 1.23546C14.153 1.05839 14.0188 0.933664 13.9222 0.723744C13.8903 0.651546 13.8455 0.533499 13.8968 0.454977C13.9093 0.402277 13.9354 0.382603 13.9865 0.369428C14.0695 0.297581 14.3067 0.388926 14.3899 0.428451C14.6274 0.526823 14.826 0.618696 15.0242 0.756418C15.1139 0.822292 15.2101 0.947014 15.3252 0.979863H15.46C15.6646 1.02554 15.8952 0.992512 16.0878 1.05189C16.4272 1.16361 16.7347 1.3275 17.0104 1.5044C17.8496 2.04949 18.5415 2.82399 19.0087 3.74905C19.0853 3.89977 19.1179 4.03784 19.1879 4.19506C19.3229 4.51688 19.4897 4.84502 19.6237 5.15999C19.7583 5.46828 19.8865 5.78307 20.0788 6.03919C20.1747 6.17691 20.5598 6.24911 20.7325 6.32131C20.8603 6.38016 21.0592 6.4325 21.1745 6.5047C21.3924 6.64225 21.6095 6.80017 21.8145 6.95142C21.9165 7.03012 22.2372 7.19419 22.2562 7.32558ZM15.7213 1.6228C15.6329 1.62186 15.5447 1.63296 15.4591 1.65582V1.669H15.4715C15.5231 1.77387 15.6128 1.84659 15.6767 1.93812C15.7284 2.04334 15.7731 2.14768 15.8237 2.25273L15.8361 2.23973C15.9264 2.17421 15.9714 2.06916 15.9714 1.91159C15.9324 1.86521 15.9264 1.81989 15.894 1.77387C15.8563 1.70817 15.7731 1.6755 15.7213 1.6228Z" fill="#FDDD0A"/>
<path d="M22.8663 14.5753H22.999V13.9098H22.7999L22.6375 14.3639L22.4611 13.9098H22.2694V14.5753H22.3947V14.069H22.4017L22.5866 14.5753H22.6821L22.8663 14.069V14.5753ZM21.7971 14.5753H21.9375V14.0226H22.1214V13.9096H21.6056V14.0226H21.7968L21.7971 14.5753Z" fill="#FDDD0A"/>
</svg>
