<svg width="16" height="16" viewBox="0 0 16 16" fill="none" xmlns="http://www.w3.org/2000/svg">
<path d="M10.9857 8.26792L7.89484 11.0224C7.81236 11.096 7.7449 11.1897 7.69741 11.2965C7.64989 11.4034 7.62334 11.521 7.61958 11.641C7.61582 11.7609 7.63492 11.8804 7.6756 11.991C7.71628 12.1015 7.77757 12.2005 7.85523 12.2808C7.9329 12.3612 8.02503 12.4208 8.12511 12.4554C8.22519 12.49 8.33067 12.4986 8.434 12.4806C8.53734 12.4627 8.63587 12.4186 8.72261 12.3516C8.80935 12.2846 8.88212 12.1965 8.93586 12.0935L8.93816 12.0891L10.9857 8.26792Z" fill="#FDDD0A"/>
<path fill-rule="evenodd" clip-rule="evenodd" d="M14.9097 0C15.1987 0 15.4758 0.132809 15.6802 0.369249C15.8847 0.605689 15.9997 0.92642 16 1.26098L16 2.52942H0.000558196V1.26302C0.000481117 1.09724 0.0286051 0.933076 0.0833244 0.779889C0.138044 0.626701 0.218287 0.487492 0.319472 0.37021C0.420657 0.252928 0.540802 0.15987 0.673049 0.0963495C0.805295 0.0328288 0.947053 8.91968e-05 1.09023 0H14.9097ZM0 2.88093V14.739C0.000311101 15.0737 0.115395 15.3945 0.319951 15.631C0.524506 15.8675 0.80179 16.0002 1.09084 16H14.9103C15.0535 15.9999 15.1953 15.9672 15.3275 15.9036C15.4598 15.8401 15.5799 15.7471 15.6811 15.6298C15.7823 15.5125 15.8625 15.3733 15.9172 15.2201C15.972 15.0669 16.0001 14.9028 16 14.737L16 2.88093H0ZM1.8184 1.26304C1.8184 1.49567 1.65552 1.68427 1.45459 1.68427C1.25367 1.68427 1.09078 1.49567 1.09078 1.26304C1.09078 1.0304 1.25367 0.841804 1.45459 0.841804C1.65552 0.841804 1.8184 1.0304 1.8184 1.26304ZM7.9941 6.31578C7.23122 6.31578 6.47581 6.48976 5.771 6.82778C5.0662 7.16579 4.42579 7.66124 3.88636 8.28581C2.79692 9.54721 2.18488 11.258 2.18488 13.0419V13.0507C2.18488 13.0979 2.18409 13.1488 2.18331 13.1995C2.18174 13.3007 2.18019 13.4014 2.18488 13.472H4.72274C4.71589 13.3317 4.71589 13.191 4.72274 13.0507C4.72359 12.3766 4.87965 11.7149 5.17485 11.1338C5.47005 10.5527 5.89372 10.0733 6.4022 9.74485C6.91069 9.41643 7.4856 9.2509 8.06772 9.26534C8.39492 9.27345 8.71774 9.33825 9.02579 9.45619L7.66305 10.6706C7.53614 10.7838 7.43234 10.928 7.35903 11.0929C7.28571 11.2578 7.24469 11.4394 7.23888 11.6248C7.23306 11.8102 7.2626 11.9947 7.32538 12.1654C7.38817 12.336 7.48266 12.4885 7.60214 12.6121C7.72162 12.7357 7.86315 12.8272 8.01666 12.8803C8.17017 12.9333 8.33189 12.9465 8.49031 12.919C8.64873 12.8914 8.79996 12.8238 8.93325 12.7209C9.06653 12.618 9.1786 12.4824 9.26147 12.3236L10.3092 10.3683C10.5225 10.6144 10.7063 10.8944 10.8546 11.2011C11.1274 11.7655 11.2709 12.4013 11.2713 13.048C11.2781 13.1883 11.2781 13.3289 11.2713 13.4692H13.8174C13.822 13.4023 13.8205 13.3003 13.8189 13.198C13.8181 13.1467 13.8174 13.0952 13.8174 13.048C13.8173 12.0153 13.6118 10.9965 13.2169 10.0706C12.8465 9.20217 12.3188 8.43731 11.6705 7.82767L11.8862 7.42511H11.8868C11.9093 7.38944 11.9215 7.34635 11.9214 7.30213C11.9213 7.26014 11.9106 7.21982 11.8906 7.18545C11.8906 7.18534 11.8907 7.18556 11.8906 7.18545C11.8902 7.18474 11.8896 7.1837 11.8892 7.183C11.8882 7.18133 11.8872 7.17968 11.8862 7.17805C11.8807 7.16936 11.8746 7.16111 11.8679 7.1534C11.8339 7.11394 11.7877 7.0917 11.7395 7.09152C11.6986 7.09139 11.659 7.10772 11.6274 7.13772L11.2526 7.47171C10.2933 6.71836 9.15813 6.31362 7.99351 6.3151L7.9941 6.31578ZM2.9094 1.68427C3.11033 1.68427 3.27321 1.49567 3.27321 1.26304C3.27321 1.0304 3.11033 0.841804 2.9094 0.841804C2.70847 0.841804 2.54559 1.0304 2.54559 1.26304C2.54559 1.49567 2.70847 1.68427 2.9094 1.68427Z" fill="#FDDD0A"/>
</svg>
