<svg width="16" height="16" viewBox="0 0 16 16" fill="none" xmlns="http://www.w3.org/2000/svg">
<path fill-rule="evenodd" clip-rule="evenodd" d="M8 15.0857C11.9133 15.0857 15.0857 11.9133 15.0857 8C15.0857 4.08667 11.9133 0.914286 8 0.914286C4.08667 0.914286 0.914286 4.08667 0.914286 8C0.914286 11.9133 4.08667 15.0857 8 15.0857ZM8 16C12.4183 16 16 12.4183 16 8C16 3.58172 12.4183 0 8 0C3.58172 0 0 3.58172 0 8C0 12.4183 3.58172 16 8 16Z" fill="#FDDD0A"/>
<path d="M5.71429 5.02857C5.71429 4.64986 6.02129 4.34286 6.4 4.34286C6.77871 4.34286 7.08571 4.64986 7.08571 5.02857V7.08571H5.71429V5.02857Z" fill="#FDDD0A"/>
<path d="M11.2 7.77148H4.8C4.8 8.4572 5.02857 10.2857 7.31429 11.6572V12.5715C7.31429 12.9502 7.62129 13.2572 8 13.2572C8.37871 13.2572 8.68571 12.9502 8.68571 12.5715V11.6572C10.5143 10.5601 11.1238 8.60958 11.2 7.77148Z" fill="#FDDD0A"/>
<path d="M8.91429 5.02857C8.91429 4.64986 9.22129 4.34286 9.6 4.34286C9.97871 4.34286 10.2857 4.64986 10.2857 5.02857V7.08571H8.91429V5.02857Z" fill="#FDDD0A"/>
</svg>
