<svg width="22" height="12" viewBox="0 0 22 12" fill="none" xmlns="http://www.w3.org/2000/svg">
<path d="M18.6649 6.48216C18.9958 6.21166 19.2194 5.81013 19.3446 5.26929C19.3893 5.08085 19.4072 4.87595 19.4072 4.66294C19.4072 4.42528 19.3536 4.17124 19.2462 3.9172C19.1122 3.59756 18.9333 3.42542 18.7186 3.38447C18.3967 3.32714 18.0837 3.49102 17.7885 3.89255C17.5471 4.204 17.3951 4.53182 17.3145 4.86776C17.2699 5.05628 17.252 5.2611 17.252 5.466C17.252 5.70366 17.3056 5.9577 17.4129 6.21174C17.547 6.5313 17.7259 6.70344 17.9406 6.74439C18.1641 6.78534 18.4056 6.69525 18.6649 6.48216Z" fill="#FDDD0A"/>
<path d="M13.0576 6.48216C13.3885 6.21166 13.6121 5.81013 13.7373 5.26929C13.782 5.08085 13.8088 4.87595 13.7999 4.66294C13.7999 4.42528 13.7463 4.17124 13.6389 3.9172C13.5049 3.59756 13.3259 3.42542 13.1113 3.38447C12.7893 3.32714 12.4764 3.49102 12.1812 3.89255C11.9398 4.204 11.7877 4.53182 11.7072 4.86776C11.6625 5.05628 11.6447 5.2611 11.6447 5.466C11.6447 5.70366 11.6983 5.9577 11.8056 6.21174C11.9397 6.5313 12.1186 6.70344 12.3333 6.74439C12.5568 6.78534 12.7983 6.69525 13.0576 6.48216Z" fill="#FDDD0A"/>
<path fill-rule="evenodd" clip-rule="evenodd" d="M19.9494 0H2.04185C0.908421 0 -0.00887271 0.848897 6.47601e-05 1.87915V8.14287C6.47601e-05 9.18139 0.917617 10.022 2.05096 10.022H10.5323L14.4089 12L13.5274 10.022H19.9493C21.0826 10.022 22 9.18132 22 8.14287V1.87915C22 0.840628 21.0826 0 19.9494 0ZM1.81585 1.4587C1.56543 1.47508 1.37765 1.55706 1.25244 1.71274C1.12723 1.86024 1.07369 2.04876 1.10944 2.26177C1.6371 5.33481 2.129 7.40807 2.58507 8.48171C2.76391 8.87498 2.96964 9.0635 3.21113 9.04712C3.58676 9.02255 4.03389 8.54723 4.56154 7.62116C4.83869 7.0967 5.26795 6.31002 5.84931 5.2611C6.33211 6.80998 6.994 7.97363 7.8257 8.75213C8.05816 8.97341 8.29964 9.07169 8.53219 9.05531C8.73784 9.03893 8.8988 8.94065 9.00613 8.76032C9.09559 8.60456 9.13134 8.4243 9.11347 8.21948C9.05976 7.47375 9.14028 6.43302 9.36389 5.09715C9.59635 3.72049 9.88252 2.7289 10.2313 2.13884C10.3028 2.01592 10.3297 1.89307 10.3207 1.7455C10.3028 1.55706 10.2135 1.4013 10.0435 1.27845C9.87367 1.15545 9.68581 1.09812 9.48008 1.1145C9.22072 1.13096 9.02401 1.24569 8.88986 1.47508C8.33539 2.40115 7.94189 3.90074 7.70934 5.98227C7.36946 5.19558 7.08329 4.26959 6.85976 3.17965C6.76145 2.69614 6.51997 2.46675 6.12638 2.49132C5.85808 2.5077 5.63456 2.67157 5.45564 2.98302L3.49712 6.40026C3.1752 5.21196 2.87116 3.76151 2.59392 2.04876C2.53128 1.62258 2.27192 1.42594 1.81585 1.4587ZM19.0406 2.04868C19.6755 2.1716 20.1494 2.48305 20.4714 2.99932C20.7576 3.44188 20.9096 3.97453 20.9007 4.61372C20.9007 5.45773 20.6682 6.22804 20.2032 6.93283C19.6665 7.75235 18.969 8.16208 18.1016 8.16208C17.9494 8.16208 17.7885 8.1457 17.6186 8.11294C16.9837 7.98993 16.5097 7.67857 16.1877 7.1623C15.9016 6.71147 15.7585 6.17071 15.7585 5.53971C15.7585 4.69569 15.991 3.92531 16.456 3.22879C17.0016 2.40926 17.6991 1.99954 18.5576 1.99954C18.7097 1.99954 18.8707 2.01592 19.0406 2.04868ZM13.4422 2.04868C14.0682 2.1716 14.5511 2.48305 14.8731 2.99932C15.1592 3.44188 15.3023 3.97453 15.3023 4.61372C15.3023 5.45773 15.0698 6.22804 14.6048 6.93283C14.0681 7.75235 13.3706 8.16208 12.5032 8.16208C12.3511 8.16208 12.1901 8.1457 12.0202 8.11294C11.3853 7.98993 10.9114 7.67857 10.5894 7.1623C10.3032 6.71147 10.1601 6.17071 10.1601 5.53971C10.1601 4.69569 10.3926 3.92531 10.8577 3.22879C11.4032 2.40926 12.1007 1.99954 12.9592 1.99954C13.1114 1.99954 13.2723 2.01592 13.4422 2.04868Z" fill="#FDDD0A"/>
</svg>
