<svg width="17" height="16" viewBox="0 0 17 16" fill="none" xmlns="http://www.w3.org/2000/svg">
<path fill-rule="evenodd" clip-rule="evenodd" d="M8.50023 1.12112C10.4068 1.12112 12.1429 1.80877 13.4442 2.93463C12.8063 2.91853 12.1698 3.27536 12.1435 4.09249C12.0899 5.74441 14.2423 6.09629 13.0825 9.41901L12.1231 12.1675L9.51028 4.92356C9.4698 4.81143 9.51686 4.74762 9.66332 4.74762H10.402C10.4404 4.74762 10.4718 4.71677 10.4718 4.67899V4.2672C10.4718 4.22943 10.4403 4.19702 10.402 4.19858C9.00312 4.25615 7.61245 4.25654 6.23018 4.19858C6.19167 4.19703 6.1604 4.22955 6.1604 4.26734V4.67913C6.1604 4.71687 6.1918 4.74777 6.23018 4.74777H6.97292C7.13814 4.74777 7.18439 4.79958 7.22334 4.89981L8.29691 7.66313L6.68195 12.2527L4.02733 4.89362C3.99442 4.80131 4.03424 4.74773 4.1287 4.74773H4.97501C5.01339 4.74773 5.04477 4.71687 5.04477 4.67909V4.2673C5.04477 4.22954 5.01328 4.19679 4.97501 4.19868C4.08706 4.24308 3.19573 4.252 2.36544 4.26003C3.66837 2.37103 5.92908 1.12099 8.49978 1.12099L8.49977 1.12097L8.50023 1.12112ZM14.9285 4.72448C15.4901 5.69838 15.809 6.8142 15.809 7.99981C15.809 10.6019 14.2729 12.8667 12.0081 14.0357L14.2875 7.95924C14.6407 7.01883 14.9685 5.74791 14.9283 4.72448H14.9283H14.9285ZM10.9472 14.483C10.182 14.7391 9.35856 14.8788 8.50023 14.8788C7.76071 14.8788 7.0472 14.775 6.37449 14.583L8.62612 8.50998L10.9472 14.4833L10.9472 14.483ZM5.37267 14.2184C2.901 13.1152 1.19129 10.7452 1.19129 8.00012C1.19129 6.98252 1.42649 6.01653 1.84803 5.14742L5.37283 14.2185L5.37285 14.2185L5.37267 14.2184ZM8.5 0.475595C12.9144 0.475595 16.4945 3.84509 16.4945 7.99981C16.4945 12.1545 12.9144 15.524 8.5 15.524C4.08561 15.524 0.505517 12.1545 0.505517 7.99981C0.505517 3.84509 4.08561 0.475595 8.5 0.475595ZM8.5 0C13.1935 0 17 3.58261 17 8C17 12.4174 13.1935 16 8.5 16C3.80652 16 0 12.4174 0 8C0 3.58261 3.80652 0 8.5 0Z" fill="#FDDD0A"/>
</svg>
