<svg width="16" height="16" viewBox="0 0 16 16" fill="none" xmlns="http://www.w3.org/2000/svg">
<path d="M15.744 15.9942C14.7665 15.9699 13.8123 15.9699 12.8348 15.9942C12.6253 15.9942 12.5788 15.9455 12.5788 15.7264C12.5788 13.9251 12.5788 12.0994 12.5788 10.298C12.5788 9.88418 12.5555 9.47035 12.4392 9.08086C12.0901 7.81504 10.6936 7.35252 9.69289 8.20452C9.1576 8.64269 8.94814 9.25126 8.94814 9.98155C8.94814 11.6855 8.94814 13.3895 8.94814 15.0935C8.94814 15.3126 8.92486 15.5317 8.94814 15.7751C8.97141 15.9699 8.87832 16.0186 8.7154 15.9942C7.71464 15.9942 6.73716 15.9942 5.7364 15.9942C5.55021 15.9942 5.50366 15.9455 5.50366 15.7508C5.52694 14.2172 5.52694 12.6836 5.52694 11.1257C5.52694 9.22692 5.52694 7.32818 5.50366 5.45379C5.50366 5.2347 5.55021 5.18602 5.7364 5.18602C6.73716 5.18602 7.71464 5.18602 8.7154 5.18602C8.90159 5.18602 8.94814 5.2347 8.94814 5.42944C8.94814 5.81893 8.94814 6.20841 8.94814 6.67093C9.01796 6.5979 9.04123 6.57356 9.0645 6.54921C9.97217 5.16167 11.2522 4.77219 12.765 5.01562C14.5105 5.30773 15.6276 6.57356 15.9069 8.52098C15.9767 8.98349 16 9.446 16 9.90852C16 11.8559 16 13.779 16 15.7264C16 15.9212 15.9535 15.9942 15.744 15.9942Z" fill="white"/>
<path d="M3.64178 10.5899C3.64178 12.2939 3.64178 13.9979 3.64178 15.7019C3.64178 15.921 3.59523 15.994 3.38577 15.994C2.40828 15.9697 1.4308 15.994 0.45331 15.994C0.267122 15.994 0.220575 15.9454 0.220575 15.7506C0.220575 12.3183 0.220575 8.8616 0.220575 5.42927C0.220575 5.25887 0.267122 5.18584 0.45331 5.18584C1.45407 5.18584 2.45483 5.18584 3.45559 5.18584C3.66505 5.18584 3.68832 5.25887 3.68832 5.45361C3.64178 7.15761 3.64178 8.8616 3.64178 10.5899Z" fill="white"/>
<path d="M3.80469 2.36222C3.57196 3.33593 2.61775 3.89581 1.52389 3.70107C0.36022 3.50633 -0.291437 2.31353 0.127485 1.14508C0.406767 0.414792 1.0817 -0.0233788 1.94282 0.000964028C3.24613 -0.0233788 4.10725 1.07205 3.80469 2.36222Z" fill="white"/>
</svg>
