<svg width="20" height="15" viewBox="0 0 20 15" fill="none" xmlns="http://www.w3.org/2000/svg">
<path d="M17.5851 3.74396C17.5851 3.91304 17.5851 4.08213 17.5851 4.22705C17.5851 9.22705 13.6558 15 6.49346 15C4.2801 15 2.24084 14.372 0.5 13.3092C0.798429 13.3333 1.12173 13.3575 1.42016 13.3575C3.2356 13.3575 4.9267 12.7536 6.26963 11.7391C4.55366 11.715 3.11126 10.6039 2.63874 9.10628C2.88743 9.15459 3.11126 9.17874 3.38482 9.17874C3.73298 9.17874 4.08115 9.13043 4.40445 9.03382C2.61387 8.69565 1.27094 7.17391 1.27094 5.33816C1.27094 5.31401 1.27094 5.31401 1.27094 5.28986C1.79319 5.57971 2.39005 5.74879 3.03665 5.77295C1.99215 5.09662 1.29581 3.9372 1.29581 2.6087C1.29581 1.90821 1.49476 1.25604 1.81806 0.700483C3.73298 2.99517 6.6178 4.49275 9.85079 4.66184C9.77618 4.39614 9.75131 4.08213 9.75131 3.79227C9.75131 1.69082 11.4921 0 13.6558 0C14.7749 0 15.7945 0.458937 16.4908 1.18357C17.3861 1.01449 18.2068 0.700483 18.9777 0.2657C18.6793 1.15942 18.0576 1.88406 17.2618 2.36715C18.0576 2.27053 18.8037 2.07729 19.5 1.76329C19.0026 2.53623 18.356 3.21256 17.5851 3.74396Z" fill="white"/>
</svg>
