<svg width="177" height="368" viewBox="0 0 177 368" fill="none" xmlns="http://www.w3.org/2000/svg">
<path d="M-71.0997 307.703C-114.952 286.224 -146.657 261.684 -163.554 232.127C-180.436 202.597 -182.58 167.983 -167.152 126.241C-151.718 84.4821 -126.61 55.7106 -93.7386 43.317C-60.8661 30.9228 -20.1201 34.8664 26.6755 58.7695C73.4818 82.6781 98.9676 109.207 112.021 139.148C125.081 169.105 125.728 202.55 122.706 240.369C119.701 277.959 93.1923 305.505 56.4266 318.308C19.658 331.112 -27.3227 329.145 -71.0997 307.703Z" stroke="#212121"/>
<path d="M-67.07 298.51C-107.867 278.558 -137.379 255.81 -153.147 228.466C-168.898 201.149 -170.973 169.173 -156.741 130.647C-142.503 92.1059 -119.249 65.5908 -88.7475 54.2223C-58.244 42.8529 -20.3829 46.5915 23.1524 68.7889C66.6982 90.9916 90.4364 115.562 102.633 143.25C114.837 170.955 115.519 201.852 112.801 236.79C110.102 271.496 85.5508 296.875 51.4283 308.614C17.3029 320.355 -26.3476 318.425 -67.07 298.51Z" stroke="#212121"/>
<path d="M-62.9071 288.323C-100.132 270.122 -127.058 249.38 -141.447 224.459C-155.82 199.567 -157.727 170.432 -144.76 135.33C-131.788 100.212 -110.589 76.0634 -82.7812 65.7178C-54.9706 55.3712 -20.4395 58.7893 19.2815 79.036C59.0129 99.2881 80.671 121.688 91.8038 146.919C102.944 172.167 103.579 200.322 101.113 232.167C98.6642 263.78 76.291 286.892 45.1757 297.576C14.0575 308.261 -25.7559 306.487 -62.9071 288.323Z" stroke="#212121"/>
<path d="M-58.7441 278.137C-92.3981 261.688 -116.736 242.951 -129.748 220.455C-142.743 197.987 -144.48 171.694 -132.779 140.015C-121.072 108.32 -101.93 86.538 -76.815 77.2152C-51.6973 67.8914 -20.4962 70.989 15.4106 89.2852C51.3277 107.587 70.9056 127.815 80.9746 150.59C91.0508 173.382 91.6386 198.795 89.4238 227.546C87.2268 256.066 67.0314 276.911 38.9232 286.539C10.8121 296.169 -25.1642 294.551 -58.7441 278.137Z" stroke="#212121"/>
<path d="M-53.987 266.495C-83.5595 252.046 -104.941 235.603 -116.377 215.876C-127.797 196.178 -129.342 173.134 -119.088 145.367C-108.827 117.585 -92.0343 98.5068 -69.9971 90.353C-47.957 82.198 -20.5616 84.9293 10.9861 100.996C42.5441 117.068 59.7447 134.816 68.5979 154.784C77.4582 174.768 77.9919 197.047 76.0646 222.263C74.1549 247.247 56.4484 265.502 31.777 273.924C7.10269 282.348 -24.4885 280.907 -53.987 266.495Z" stroke="#212121"/>
<path d="M-49.8241 256.31C-75.8253 243.612 -94.6195 229.174 -104.678 211.872C-114.72 194.597 -116.096 174.395 -107.107 150.052C-98.1119 125.693 -83.3752 108.982 -64.0311 101.85C-44.6838 94.7183 -20.6183 97.129 7.11523 111.245C34.8591 125.367 49.9794 140.944 57.7688 158.455C65.5652 175.982 66.0516 195.519 64.3757 217.642C62.7175 239.532 47.189 255.521 25.5247 262.888C3.85754 270.256 -23.8968 268.971 -49.8241 256.31Z" stroke="#212121"/>
<path d="M-45.6612 246.122C-68.0911 235.176 -84.2983 222.744 -92.9787 207.865C-101.642 193.015 -102.849 175.655 -95.1259 154.735C-87.3968 133.799 -74.7162 119.454 -58.0653 113.346C-41.4108 107.236 -20.6751 109.327 3.24438 121.493C27.1741 133.664 40.2143 147.07 46.9397 162.125C53.6722 177.195 54.1112 193.99 52.6869 213.019C51.28 231.815 37.9298 245.537 19.2725 251.849C0.612548 258.162 -23.3049 257.033 -45.6612 246.122Z" stroke="#212121"/>
<path d="M-40.9043 234.48C-59.2528 225.535 -72.5034 215.395 -79.6088 203.286C-86.6973 191.205 -87.7105 177.094 -81.4341 160.087C-75.1516 143.064 -64.8211 131.424 -51.2481 126.484C-37.671 121.543 -20.7406 123.267 -1.17994 133.204C18.3909 143.146 29.0538 154.071 34.5633 166.319C40.0797 178.582 40.4645 192.242 39.3276 207.737C38.208 222.996 27.3477 234.128 12.1271 239.234C-3.09626 244.341 -22.6289 243.39 -40.9043 234.48Z" stroke="#212121"/>
<path d="M-36.1474 222.839C-50.4147 215.895 -60.7089 208.047 -66.2393 198.708C-71.7524 189.397 -72.5719 178.534 -67.7423 165.441C-62.9066 152.331 -54.9264 143.395 -44.4317 139.624C-33.9318 135.851 -20.8064 137.209 -5.60414 144.917C9.60814 152.63 17.8938 161.075 22.1872 170.516C26.4873 179.971 26.8178 190.497 25.9684 202.456C25.1357 214.178 16.7665 222.72 4.98229 226.62C-6.80444 230.521 -21.9527 229.748 -36.1474 222.839Z" stroke="#212121"/>
<path d="M-31.3908 211.196C-41.5773 206.253 -48.9153 200.697 -52.8706 194.126C-56.8078 187.585 -57.4328 179.971 -54.0504 170.793C-50.6619 161.597 -45.0329 155.366 -37.6168 152.763C-30.1938 150.158 -20.8727 151.149 -10.0281 156.628C0.826254 162.112 6.73477 168.078 9.81181 174.712C12.8951 181.36 13.1711 188.752 12.609 197.175C12.0631 205.357 6.18717 211.308 -2.16092 214.004C-10.5113 216.7 -21.2758 216.105 -31.3908 211.196Z" stroke="#212121"/>
</svg>
