<svg width="13" height="12" viewBox="0 0 13 12" fill="none" xmlns="http://www.w3.org/2000/svg">
<path d="M6.12914 0.0990999C6.20362 -0.0330328 6.39389 -0.0330335 6.46837 0.0990992L8.41796 3.55802C8.44575 3.60731 8.4936 3.64208 8.54907 3.65327L12.4412 4.43858C12.5898 4.46858 12.6486 4.64954 12.546 4.7612L9.85881 7.68424C9.82051 7.7259 9.80223 7.78215 9.80873 7.83836L10.2646 11.7826C10.282 11.9333 10.1281 12.0451 9.99014 11.982L6.37978 10.3296C6.32833 10.3061 6.26918 10.3061 6.21773 10.3296L2.60737 11.982C2.46946 12.0451 2.31552 11.9333 2.33293 11.7826L2.78878 7.83836C2.79528 7.78215 2.777 7.7259 2.7387 7.68424L0.0515338 4.7612C-0.0511177 4.64954 0.00768049 4.46858 0.15636 4.43858L4.04845 3.65327C4.10391 3.64208 4.15177 3.60731 4.17955 3.55802L6.12914 0.0990999Z" fill="#FDDD0A"/>
</svg>
