<svg width="175" height="403" viewBox="0 0 175 403" fill="none" xmlns="http://www.w3.org/2000/svg">
<path d="M322.922 250.217C302.336 295.969 277.945 329.285 247.556 347.472C217.191 365.645 180.76 368.758 135.974 353.943C91.1733 339.123 59.6177 313.99 44.9808 280.429C30.3449 246.87 32.5782 204.774 55.5823 155.926C78.5918 107.066 105.377 80.1065 136.354 65.8711C167.351 51.6268 202.615 50.0876 242.664 52.2163C282.492 54.3333 312.821 80.9506 328.073 118.511C343.325 156.074 343.473 204.543 322.922 250.217Z" stroke="#212121"/>
<path d="M312.941 246.518C293.822 289.082 271.217 320.092 243.11 337.056C215.027 354.006 181.375 356.98 140.041 343.314C98.6908 329.642 69.6037 306.361 56.1607 275.215C42.7183 244.071 44.8718 204.954 66.2306 159.51C87.5946 114.055 112.396 88.9475 141.037 75.6535C169.697 62.3509 202.272 60.8418 239.266 62.7315C276.037 64.6098 303.987 89.2658 317.991 124.13C331.996 158.996 332.026 204.033 312.941 246.518Z" stroke="#212121"/>
<path d="M301.998 242.493C284.557 281.331 263.947 309.622 238.331 325.103C212.741 340.569 182.08 343.295 144.417 330.844C106.739 318.387 80.2459 297.163 68.0097 268.766C55.774 240.371 57.747 204.694 77.2282 163.231C96.7147 121.758 119.324 98.8512 145.423 86.7176C171.542 74.5754 201.226 73.1866 234.945 74.8977C268.44 76.5975 293.895 99.0686 306.643 130.861C319.392 162.656 319.404 203.734 301.998 242.493Z" stroke="#212121"/>
<path d="M291.053 238.47C275.29 273.581 256.674 299.154 233.551 313.151C210.453 327.134 182.782 329.612 148.791 318.376C114.785 307.134 90.8861 287.967 79.8567 262.319C68.8277 236.672 70.6202 204.435 88.2239 166.955C105.833 129.463 126.25 108.757 149.808 97.7835C173.385 86.8018 200.178 85.5333 230.621 87.0659C260.84 88.5873 283.801 108.873 295.293 137.594C306.786 166.317 306.78 203.437 291.053 238.47Z" stroke="#212121"/>
<path d="M278.544 233.87C264.7 264.723 248.362 287.188 228.087 299.491C207.837 311.778 183.585 313.972 153.791 304.125C123.98 294.272 103.047 277.456 93.3962 254.949C83.7463 232.443 85.3325 204.138 100.79 171.208C116.254 138.267 134.165 120.075 154.819 110.428C175.491 100.773 198.98 99.6419 225.679 100.97C252.155 102.288 272.264 120.076 282.321 145.287C292.378 170.5 292.353 203.095 278.544 233.87Z" stroke="#212121"/>
<path d="M267.598 229.845C255.433 256.972 241.089 276.718 223.306 287.538C205.549 298.341 184.287 300.287 158.165 291.655C132.027 283.017 113.687 268.258 105.243 248.5C96.8 228.743 98.2057 203.878 111.786 174.929C125.372 145.97 141.092 129.979 159.204 121.492C177.334 112.997 197.932 111.987 221.356 113.137C244.555 114.276 262.17 129.879 270.97 152.017C279.772 174.159 279.73 202.796 267.598 229.845Z" stroke="#212121"/>
<path d="M256.653 225.822C246.166 249.222 233.816 266.251 218.525 275.586C203.26 284.906 184.989 286.604 162.539 279.187C140.073 271.764 124.328 259.062 117.091 242.053C109.854 225.044 111.079 203.619 122.782 178.653C134.49 153.675 148.018 139.884 163.589 132.558C179.178 125.224 196.884 124.333 217.032 125.305C236.955 126.266 252.075 139.683 259.62 158.75C267.166 177.82 267.106 202.499 256.653 225.822Z" stroke="#212121"/>
<path d="M244.144 221.222C235.575 240.364 225.504 254.286 213.061 261.926C200.644 269.55 185.791 270.964 167.538 264.936C149.269 258.902 136.488 248.551 130.63 234.684C124.772 220.816 125.791 203.322 135.348 182.906C144.911 162.478 155.934 151.202 168.601 145.203C181.285 139.195 195.687 138.442 212.091 139.21C228.269 139.966 240.538 150.886 246.648 166.442C252.759 182.002 252.679 202.157 244.144 221.222Z" stroke="#212121"/>
<path d="M231.637 216.623C224.986 231.507 217.193 242.321 207.598 248.266C198.029 254.195 186.595 255.324 172.539 250.684C158.467 246.039 148.652 238.041 144.172 227.315C139.693 216.588 140.505 203.025 147.917 187.159C155.334 171.281 163.853 162.52 173.615 157.847C183.394 153.166 194.492 152.551 207.153 153.114C219.585 153.667 229.003 162.087 233.678 174.134C238.353 186.183 238.254 201.815 231.637 216.623Z" stroke="#212121"/>
<path d="M219.128 212.023C214.395 222.649 208.88 230.358 202.131 234.607C195.411 238.839 187.395 239.684 177.538 236.433C167.665 233.178 160.814 227.531 157.713 219.948C154.611 212.362 155.217 202.729 160.484 191.411C165.756 180.083 171.77 173.837 178.629 170.49C185.503 167.136 193.297 166.659 202.213 167.019C210.897 167.369 217.464 173.287 220.705 181.823C223.946 190.363 223.828 201.472 219.128 212.023Z" stroke="#212121"/>
</svg>
