<svg width="109" height="109" viewBox="0 0 109 109" fill="none" xmlns="http://www.w3.org/2000/svg">
<path d="M22.186 14.8822L1 35.5988L8.918 64.004M22.186 14.8822L50.648 22.1437M22.186 14.8822L29.462 43.0739M50.648 22.1437L58.566 50.7625M50.648 22.1437L71.834 1M58.566 50.7625L29.462 43.0739M58.566 50.7625L37.38 71.9062M58.566 50.7625L87.242 58.4511M58.566 50.7625L79.11 29.6188M58.566 50.7625L66.056 79.5948M29.462 43.0739L8.918 64.004M8.918 64.004L37.38 71.9062M37.38 71.9062L45.084 100.311M87.242 58.4511L108 37.521M87.242 58.4511L94.732 87.0699M108 37.521L79.11 29.6188M108 37.521L100.296 9.11577L71.834 1M79.11 29.6188L71.834 1M94.732 87.0699L66.056 79.5948M94.732 87.0699L73.546 108L45.084 100.311M66.056 79.5948L45.084 100.311" stroke="#FDDD0A" stroke-width="1.5" stroke-linecap="round" stroke-linejoin="round"/>
</svg>
