<svg width="130" height="130" viewBox="0 0 130 130" fill="none" xmlns="http://www.w3.org/2000/svg">
<path d="M17.6068 103.656L42.3892 129L76.3693 119.528M17.6068 103.656L26.2934 69.608M17.6068 103.656L51.3313 94.952M26.2934 69.608L60.5289 60.136M26.2934 69.608L0.999996 44.264M60.5289 60.136L51.3313 94.952M60.5289 60.136L85.8224 85.48M60.5289 60.136L69.7265 25.832M60.5289 60.136L35.2355 35.56M60.5289 60.136L95.02 51.176M51.3313 94.952L76.3693 119.528M76.3693 119.528L85.8224 85.48M85.8224 85.48L119.802 76.264M69.7265 25.832L44.6886 1.00001M69.7265 25.832L103.962 16.872M44.6886 1.00001L35.2355 35.56M44.6886 1.00001L10.7086 10.216L0.999996 44.264M35.2355 35.56L0.999996 44.264M103.962 16.872L95.02 51.176M103.962 16.872L129 42.216L119.802 76.264M95.02 51.176L119.802 76.264" stroke="#FDDD0A" stroke-width="1.5" stroke-linecap="round" stroke-linejoin="round"/>
</svg>
