<svg width="129" height="128" viewBox="0 0 129 128" fill="none" xmlns="http://www.w3.org/2000/svg">
<path d="M54.4318 123.696C54.715 124.225 55.0772 124.648 55.5184 124.967C55.9487 125.284 56.5194 125.488 57.2302 125.578C57.6826 125.635 58.1008 125.617 58.4848 125.523C58.8566 125.439 59.1881 125.284 59.4794 125.059C59.7693 124.844 60.0068 124.567 60.1919 124.23C60.377 123.892 60.4975 123.502 60.5535 123.061C60.6081 122.63 60.5879 122.228 60.493 121.855C60.3872 121.48 60.2215 121.147 59.9958 120.856C59.7687 120.575 59.4863 120.343 59.1486 120.158C58.8002 119.971 58.4051 119.85 57.9635 119.794C57.2526 119.704 56.6492 119.759 56.1533 119.958C55.6466 120.157 55.1902 120.476 54.7841 120.917L53.3316 119.814C53.8945 119.086 54.5788 118.566 55.3847 118.252C56.1891 117.949 57.1138 117.864 58.1586 117.996C58.8694 118.087 59.5182 118.278 60.1048 118.571C60.6915 118.865 61.1803 119.239 61.5714 119.693C61.9611 120.158 62.2484 120.698 62.4331 121.313C62.6071 121.926 62.6484 122.593 62.5569 123.315C62.4654 124.036 62.2535 124.672 61.9213 125.22C61.5891 125.769 61.1769 126.215 60.6847 126.558C60.1805 126.909 59.6131 127.155 58.9826 127.294C58.3414 127.431 57.6707 127.456 56.9706 127.367C55.9258 127.235 55.0524 126.916 54.3503 126.411C53.6469 125.917 53.1134 125.247 52.7499 124.402L54.4318 123.696Z" fill="white"/>
<path d="M44.3845 119.549C44.5716 119.121 44.6694 118.707 44.6781 118.308C44.6768 117.905 44.6089 117.532 44.4746 117.188C44.326 116.851 44.1108 116.543 43.8292 116.266C43.5431 115.999 43.2062 115.78 42.8182 115.611C42.4302 115.441 42.0411 115.342 41.6506 115.314C41.2559 115.295 40.8891 115.348 40.5503 115.472C40.1972 115.602 39.8771 115.806 39.5899 116.083C39.2928 116.356 39.0507 116.707 38.8637 117.134C38.6766 117.562 38.5837 117.978 38.585 118.381C38.5764 118.78 38.6464 119.149 38.795 119.486C38.9294 119.829 39.1396 120.134 39.4256 120.402C39.7072 120.679 40.042 120.902 40.43 121.072C40.818 121.242 41.2093 121.336 41.6041 121.354C41.9945 121.383 42.3663 121.332 42.7193 121.202C43.0581 121.078 43.3761 120.879 43.6732 120.606C43.9604 120.329 44.1975 119.976 44.3845 119.549ZM36.9985 116.319C37.2812 115.672 37.6644 115.135 38.148 114.706C38.6273 114.288 39.1584 113.981 39.7415 113.785C40.3246 113.59 40.9454 113.512 41.6037 113.551C42.2521 113.586 42.8897 113.74 43.5164 114.014C44.1431 114.288 44.6943 114.654 45.1699 115.111C45.6356 115.563 45.9947 116.07 46.2472 116.63C46.4997 117.191 46.635 117.789 46.6532 118.425C46.667 119.071 46.5325 119.718 46.2497 120.364C45.967 121.011 45.586 121.543 45.1067 121.962C44.6231 122.39 44.0898 122.702 43.5067 122.897C42.9236 123.093 42.3078 123.173 41.6594 123.138C41.001 123.099 40.3585 122.943 39.7318 122.669C39.1051 122.395 38.5589 122.031 38.0932 121.579C37.6175 121.122 37.2535 120.613 37.001 120.052C36.7485 119.492 36.6153 118.888 36.6016 118.242C36.5834 117.607 36.7157 116.965 36.9985 116.319Z" fill="white"/>
<path d="M26.3134 114.657L26.0802 106.551L22.1848 111.191L20.6382 109.892L26.4289 102.995L27.9132 104.241L28.1358 112.359L32.0417 107.707L33.5758 108.995L27.7852 115.893L26.3134 114.657Z" fill="white"/>
<path d="M9.88494 96.2236L11.3894 95.1923L13.4612 98.2146L19.385 94.1537L20.536 95.8328L14.6123 99.8936L16.6841 102.916L15.1797 103.947L9.88494 96.2236Z" fill="white"/>
<path d="M10.8089 84.2758L9.54053 80.4756L6.20959 83.3043L6.43129 83.9685L10.8089 84.2758ZM4.07207 82.6099L11.4031 76.1283L12.0837 78.1675L10.9717 79.1567L12.7299 84.4244L14.2131 84.5475L14.904 86.6175L5.11874 85.7458L4.07207 82.6099Z" fill="white"/>
<path d="M4.35012 63.1953C3.87437 63.5601 3.51489 63.9859 3.27168 64.4727C3.02808 64.9486 2.91917 65.5446 2.94496 66.2607C2.96137 66.7164 3.04675 67.1262 3.20108 67.49C3.34418 67.8434 3.55062 68.1456 3.8204 68.3966C4.07933 68.648 4.39036 68.8378 4.75349 68.966C5.11662 69.0941 5.52062 69.1502 5.96547 69.1342C6.39947 69.1185 6.79296 69.0338 7.14594 68.8798C7.49852 68.715 7.80032 68.4977 8.05135 68.228C8.29152 67.9586 8.47569 67.6423 8.60384 67.2792C8.73161 66.9052 8.78748 66.4958 8.77146 66.0509C8.74567 65.3348 8.59418 64.7482 8.31697 64.291C8.03938 63.823 7.6502 63.4241 7.14944 63.0945L8.004 61.483C8.81286 61.921 9.43711 62.5124 9.87677 63.257C10.3056 64.0021 10.5389 64.9008 10.5768 65.9533C10.6026 66.6694 10.5181 67.3406 10.3234 67.9669C10.1287 68.5931 9.83861 69.1359 9.45317 69.5952C9.05689 70.0549 8.57049 70.4255 7.99396 70.707C7.41704 70.9777 6.7651 71.1261 6.03815 71.1523C5.31119 71.1785 4.65007 71.0719 4.05479 70.8326C3.45951 70.5933 2.95313 70.2585 2.53566 69.8281C2.10694 69.3872 1.77314 68.8669 1.53426 68.2671C1.29499 67.6565 1.16265 66.9985 1.13725 66.2932C1.09935 65.2408 1.27287 64.3274 1.65783 63.553C2.03193 62.7791 2.60661 62.1445 3.38186 61.6495L4.35012 63.1953Z" fill="white"/>
<path d="M4.12805 44.6852L5.90171 45.1107L5.04683 48.6739L12.0306 50.3494L11.5557 52.329L4.5719 50.6534L3.71702 54.2166L1.94336 53.791L4.12805 44.6852Z" fill="white"/>
<path d="M13.1912 26.8144L16.8084 29.6705C17.4986 30.2154 18.1718 30.4841 18.828 30.4765C19.4756 30.4622 20.0753 30.1057 20.627 29.407C21.1787 28.7082 21.3864 28.0422 21.2501 27.4089C21.1053 26.7689 20.6878 26.1764 19.9975 25.6314L16.3803 22.7754L17.6418 21.1776L21.2463 24.0236C21.8342 24.4879 22.2867 24.9835 22.6038 25.5105C22.9209 26.0375 23.1083 26.5798 23.1661 27.1373C23.2307 27.6862 23.1656 28.2504 22.9709 28.8299C22.783 29.4008 22.4703 29.9632 22.033 30.5171C21.5957 31.071 21.1178 31.5098 20.5993 31.8336C20.0875 32.1489 19.5538 32.343 18.9981 32.4161C18.4491 32.4807 17.8815 32.4199 17.2954 32.2337C16.7092 32.0475 16.1221 31.7223 15.5341 31.2581L11.9297 28.4121L13.1912 26.8144Z" fill="white"/>
<path d="M31.776 12.6496C31.1286 12.6606 30.5313 12.7693 29.9843 12.9756C29.4309 13.1731 28.8633 13.4811 28.2816 13.8996C27.9203 14.1596 27.6409 14.394 27.4435 14.6029C27.246 14.8118 27.1065 14.9991 27.0251 15.1647C26.9436 15.3303 26.9113 15.4806 26.9282 15.6156C26.9475 15.7355 26.9952 15.8483 27.0713 15.954C27.2235 16.1655 27.4162 16.2476 27.6495 16.2001C27.8765 16.1438 28.1437 16.0318 28.4511 15.8642L30.8263 14.5365C31.6805 14.0692 32.4559 13.8457 33.1527 13.866C33.8494 13.8864 34.4419 14.2359 34.9302 14.9145C35.2282 15.3287 35.388 15.7554 35.4097 16.1946C35.4338 16.6186 35.347 17.0556 35.1491 17.5055C34.9537 17.9404 34.6541 18.3699 34.2504 18.7941C33.8619 19.2207 33.3944 19.6306 32.8479 20.0237C32.0988 20.5627 31.3612 20.9596 30.6351 21.2145C29.9178 21.463 29.1129 21.5806 28.2206 21.5672L28.078 19.7237C28.834 19.7149 29.5234 19.6134 30.1462 19.4195C30.7715 19.2104 31.3882 18.8871 31.9964 18.4496C32.578 18.0311 33.0045 17.6106 33.2757 17.1882C33.5468 16.7657 33.5715 16.4002 33.3496 16.0918C33.2037 15.8891 33.0342 15.7836 32.8411 15.7754C32.6416 15.7584 32.375 15.8433 32.0412 16.0299L29.3825 17.5213C28.57 17.9721 27.8336 18.1942 27.1735 18.1876C26.5159 18.1659 25.943 17.8157 25.4547 17.1371C25.1758 16.7493 25.023 16.351 24.9963 15.9421C24.9785 15.527 25.0573 15.1159 25.2326 14.7089C25.4079 14.3019 25.6666 13.9085 26.0086 13.5287C26.353 13.1337 26.7588 12.7682 27.2259 12.4322C27.9134 11.9376 28.6107 11.5497 29.3178 11.2684C30.0248 10.987 30.817 10.8518 31.6942 10.8627L31.776 12.6496Z" fill="white"/>
<path d="M50.0421 4.47088C50.2845 4.41101 50.5229 4.40247 50.7571 4.44527C50.9913 4.48808 51.207 4.56901 51.4042 4.68807C51.6013 4.80713 51.7734 4.96035 51.9203 5.14773C52.0672 5.33511 52.1706 5.55001 52.2305 5.79244C52.2904 6.03487 52.2989 6.27321 52.2561 6.50744C52.2133 6.74168 52.1324 6.95738 52.0133 7.15453C51.8942 7.35168 51.741 7.52372 51.5536 7.67065C51.3663 7.81758 51.1514 7.92097 50.9089 7.98085C50.6665 8.04072 50.4282 8.04925 50.1939 8.00645C49.9597 7.96365 49.744 7.88272 49.5468 7.76366C49.3497 7.6446 49.1777 7.49138 49.0307 7.304C48.8838 7.11662 48.7804 6.90171 48.7205 6.65928C48.6607 6.41685 48.6521 6.17852 48.6949 5.94428C48.7377 5.71004 48.8187 5.49435 48.9377 5.2972C49.0568 5.10004 49.21 4.928 49.3974 4.78108C49.5848 4.63415 49.7997 4.53075 50.0421 4.47088Z" fill="#FDDD0A"/>
<path d="M76.3423 4.4034C76.0662 3.8713 75.7096 3.44303 75.2728 3.11861C74.8466 2.7957 74.2788 2.58446 73.5692 2.48489C73.1176 2.42153 72.6992 2.43409 72.314 2.52257C71.9411 2.60181 71.6075 2.75234 71.3133 2.97418C71.0206 3.18526 70.7794 3.45841 70.5898 3.7936C70.4003 4.1288 70.2746 4.51681 70.2127 4.95763C70.1524 5.38771 70.1672 5.78995 70.2572 6.16437C70.3579 6.5403 70.5192 6.87539 70.7411 7.16964C70.9644 7.45314 71.2437 7.68967 71.5789 7.87923C71.9248 8.07029 72.3182 8.19675 72.759 8.2586C73.4687 8.35817 74.0727 8.31137 74.5713 8.1182C75.0806 7.92653 75.5412 7.61292 75.9531 7.17737L77.3908 8.30002C76.8183 9.02003 76.1271 9.53152 75.3172 9.83449C74.5087 10.1267 73.583 10.1996 72.5401 10.0533C71.8305 9.95374 71.1843 9.75344 70.6017 9.45241C70.019 9.15139 69.5351 8.77104 69.1501 8.31137C68.7666 7.84095 68.4866 7.29733 68.31 6.68053C68.1442 6.06524 68.1118 5.3974 68.2129 4.67703C68.314 3.95666 68.5343 3.32428 68.8738 2.77989C69.2133 2.2355 69.6314 1.79532 70.128 1.45936C70.6369 1.11415 71.2075 0.876273 71.8398 0.745719C72.4828 0.616674 73.1537 0.601181 73.8526 0.69924C74.8955 0.845575 75.7646 1.17583 76.4599 1.69C77.1567 2.19342 77.6812 2.87 78.0334 3.71976L76.3423 4.4034Z" fill="white"/>
<path d="M86.3322 8.68303C86.1395 9.10825 86.0362 9.52034 86.0222 9.91931C86.0182 10.3228 86.081 10.6969 86.2108 11.0418C86.3549 11.3813 86.566 11.6915 86.8439 11.9725C87.1264 12.2435 87.4604 12.4665 87.8461 12.6413C88.2317 12.8161 88.6196 12.9203 89.0096 12.954C89.4041 12.9779 89.7715 12.9299 90.1119 12.81C90.4667 12.6847 90.7895 12.4853 91.0804 12.2118C91.3811 11.9429 91.6278 11.5958 91.8205 11.1705C92.0132 10.7453 92.1116 10.331 92.1157 9.92753C92.1296 9.52856 92.0645 9.15933 91.9204 8.81984C91.7906 8.47494 91.5845 8.16696 91.3021 7.89591C91.0242 7.61497 90.6923 7.3871 90.3067 7.2123C89.921 7.0375 89.5309 6.93819 89.1365 6.91435C88.7464 6.88063 88.3741 6.92641 88.0193 7.05169C87.6788 7.17157 87.3583 7.366 87.0576 7.63499C86.7667 7.90846 86.5249 8.25781 86.3322 8.68303ZM93.6747 12.0109C93.3833 12.6537 92.9931 13.186 92.5038 13.608C92.019 14.02 91.4838 14.3198 90.8982 14.5074C90.3125 14.6949 89.6908 14.7648 89.033 14.717C88.3851 14.6736 87.7497 14.5108 87.1267 14.2284C86.5037 13.9461 85.9574 13.5733 85.4879 13.1102C85.0282 12.6515 84.6759 12.1402 84.4309 11.5761C84.1859 11.0121 84.0585 10.412 84.0489 9.77588C84.0437 9.12984 84.1867 8.48543 84.4781 7.84265C84.7694 7.19988 85.1574 6.67246 85.6422 6.26041C86.1315 5.83846 86.6689 5.53372 87.2546 5.34619C87.8402 5.15866 88.457 5.08656 89.1049 5.12988C89.7627 5.17769 90.403 5.34278 91.026 5.62514C91.649 5.90751 92.1904 6.27802 92.65 6.73668C93.1196 7.19981 93.4768 7.71339 93.7218 8.27741C93.9669 8.84143 94.092 9.44646 94.0972 10.0925C94.1068 10.7287 93.966 11.3681 93.6747 12.0109Z" fill="white"/>
<path d="M104.338 13.8156L104.463 21.924L108.42 17.3363L109.949 18.6552L104.067 25.4751L102.6 24.2093L102.485 16.0887L98.5178 20.6887L97.0009 19.3804L102.883 12.5605L104.338 13.8156Z" fill="white"/>
<path d="M120.52 32.4653L119.002 33.4765L116.97 30.4269L110.993 34.4086L109.864 32.7144L115.842 28.7327L113.81 25.6831L115.328 24.6719L120.52 32.4653Z" fill="white"/>
<path d="M119.437 44.4009L120.655 48.2176L124.023 45.4335L123.81 44.7664L119.437 44.4009ZM126.151 46.1563L118.734 52.5398L118.081 50.4918L119.206 49.5174L117.518 44.2267L116.037 44.084L115.373 42.005L125.146 43.0067L126.151 46.1563Z" fill="white"/>
<path d="M125.614 65.5664C126.095 65.2079 126.46 64.787 126.71 64.3035C126.96 63.8308 127.076 63.2363 127.06 62.5199C127.05 62.064 126.97 61.6532 126.82 61.2873C126.682 60.9321 126.48 60.6272 126.213 60.3726C125.958 60.1178 125.649 59.9238 125.288 59.7909C124.926 59.6579 124.523 59.5965 124.078 59.6066C123.644 59.6164 123.249 59.696 122.894 59.8452C122.54 60.0053 122.235 60.2186 121.98 60.485C121.737 60.7511 121.548 61.0649 121.415 61.4263C121.283 61.7986 121.221 62.2072 121.231 62.6522C121.248 63.3686 121.391 63.9572 121.662 64.4181C121.934 64.8897 122.318 65.2937 122.814 65.6299L121.938 67.2299C121.135 66.7812 120.519 66.1816 120.089 65.4312C119.67 64.6805 119.449 63.7787 119.425 62.7258C119.409 62.0094 119.502 61.3394 119.705 60.7158C119.908 60.0922 120.205 59.5533 120.597 59.0992C120.999 58.6448 121.49 58.2807 122.071 58.0069C122.651 57.7439 123.305 57.6042 124.032 57.5877C124.76 57.5712 125.419 57.6865 126.011 57.9337C126.603 58.1809 127.105 58.5224 127.517 58.9584C127.94 59.4049 128.267 59.9296 128.497 60.5325C128.729 61.1463 128.852 61.8059 128.868 62.5114C128.892 63.5643 128.706 64.4753 128.311 65.2445C127.927 66.0134 127.344 66.6402 126.562 67.125L125.614 65.5664Z" fill="white"/>
<path d="M125.591 84.076L123.823 83.6269L124.725 80.0754L117.764 78.3072L118.266 76.3341L125.226 78.1024L126.129 74.5509L127.896 75L125.591 84.076Z" fill="white"/>
<path d="M116.29 101.827L112.711 98.923C112.028 98.3689 111.358 98.0912 110.702 98.0901C110.054 98.0958 109.45 98.4443 108.889 99.1357C108.328 99.827 108.111 100.49 108.239 101.125C108.376 101.767 108.785 102.365 109.468 102.919L113.047 105.823L111.764 107.404L108.198 104.51C107.616 104.038 107.171 103.537 106.861 103.006C106.55 102.474 106.37 101.93 106.32 101.371C106.263 100.822 106.335 100.258 106.538 99.6815C106.733 99.1131 107.053 98.5549 107.498 98.0069C107.942 97.4589 108.426 97.0265 108.949 96.7096C109.465 96.4012 110.001 96.2141 110.558 96.1485C111.108 96.0912 111.674 96.1596 112.258 96.3535C112.842 96.5474 113.424 96.8804 114.006 97.3524L117.572 100.246L116.29 101.827Z" fill="white"/>
<path d="M97.5186 115.741C98.1661 115.738 98.7648 115.638 99.3145 115.439C99.8705 115.248 100.442 114.948 101.029 114.537C101.394 114.282 101.677 114.052 101.877 113.845C102.077 113.639 102.219 113.454 102.303 113.289C102.386 113.125 102.421 112.975 102.405 112.84C102.388 112.719 102.342 112.606 102.267 112.499C102.118 112.286 101.926 112.201 101.692 112.246C101.464 112.299 101.196 112.407 100.886 112.571L98.4933 113.867C97.633 114.323 96.8547 114.536 96.1582 114.506C95.4618 114.477 94.874 114.119 94.3949 113.434C94.1024 113.016 93.9482 112.587 93.9324 112.148C93.9139 111.724 94.0066 111.288 94.2104 110.84C94.4116 110.408 94.7168 109.983 95.1261 109.564C95.5203 109.143 95.9932 108.739 96.5448 108.353C97.3011 107.824 98.0439 107.437 98.7734 107.192C99.4939 106.953 100.3 106.846 101.192 106.871L101.31 108.716C100.554 108.715 99.8637 108.808 99.2383 108.993C98.6103 109.194 97.9893 109.509 97.3754 109.938C96.7882 110.349 96.3562 110.764 96.0795 111.183C95.8027 111.602 95.7732 111.967 95.991 112.278C96.1341 112.483 96.3022 112.59 96.4952 112.601C96.6944 112.621 96.9622 112.539 97.2985 112.357L99.9767 110.901C100.795 110.461 101.534 110.249 102.194 110.264C102.852 110.295 103.42 110.653 103.899 111.338C104.173 111.729 104.32 112.13 104.341 112.539C104.354 112.954 104.27 113.364 104.089 113.769C103.908 114.173 103.644 114.563 103.297 114.939C102.948 115.329 102.537 115.689 102.065 116.019C101.371 116.504 100.669 116.883 99.9583 117.155C99.2475 117.427 98.4536 117.551 97.5766 117.529L97.5186 115.741Z" fill="white"/>
<path d="M79.1457 123.678C78.9025 123.734 78.664 123.74 78.4304 123.694C78.1967 123.648 77.9821 123.564 77.7866 123.442C77.591 123.321 77.421 123.165 77.2766 122.976C77.1322 122.787 77.0317 122.57 76.975 122.327C76.9184 122.084 76.913 121.845 76.9589 121.612C77.0048 121.378 77.0886 121.164 77.2103 120.968C77.332 120.772 77.4875 120.602 77.6768 120.458C77.8661 120.314 78.0824 120.213 78.3256 120.156C78.5688 120.1 78.8072 120.094 79.0409 120.14C79.2745 120.186 79.4891 120.27 79.6847 120.392C79.8802 120.513 80.0502 120.669 80.1946 120.858C80.339 121.048 80.4396 121.264 80.4962 121.507C80.5529 121.75 80.5582 121.989 80.5123 122.222C80.4664 122.456 80.3826 122.671 80.2609 122.866C80.1393 123.062 79.9838 123.232 79.7944 123.376C79.6051 123.52 79.3889 123.621 79.1457 123.678Z" fill="#FDDD0A"/>
<path fill-rule="evenodd" clip-rule="evenodd" d="M72.9211 54.7555H54.1227V53.127H75.7012V74.7055H74.0726V55.9071L54.6984 75.2813L53.5469 74.1297L72.9211 54.7555Z" fill="#FDDD0A"/>
</svg>
