<svg width="761" height="777" viewBox="0 0 761 777" fill="none" xmlns="http://www.w3.org/2000/svg">
<path d="M702.346 390.089L701.726 391.01C658.372 455.344 635.594 489.144 621.458 521.286C607.247 553.598 601.774 584.223 592.866 642.436C588.432 671.417 574.589 692.966 554.7 708.202C534.8 723.446 508.824 732.387 480.116 736.092C422.693 743.502 354.468 729.944 302.467 704.178C295.809 700.879 289.239 697.639 282.763 694.445C205.053 656.119 140.761 624.411 98.9558 577.5C53.7195 526.74 34.7752 458.115 53.9579 343.805C63.5473 286.662 80.6538 247.57 103.627 219.654C126.597 191.74 155.468 174.957 188.664 162.491C213.515 153.158 240.758 146.254 269.755 138.906C279.516 136.432 289.476 133.908 299.611 131.224C339.832 120.572 382.75 107.411 426.724 84.8939C514.278 40.0626 604.987 83.8752 662.958 155.272C691.934 190.96 712.691 233.501 720.743 275.209C728.795 316.918 724.136 357.754 702.346 390.089Z" stroke="#212121"/>
<path d="M688.86 389.993L688.264 390.878C646.726 452.517 624.9 484.905 611.355 515.703C597.737 546.667 592.493 576.013 583.958 631.79C579.709 659.553 566.449 680.195 547.396 694.791C528.333 709.394 503.447 717.961 475.943 721.51C420.927 728.61 355.561 715.62 305.738 690.934C299.36 687.773 293.065 684.669 286.86 681.608C212.399 644.885 150.801 614.505 110.748 569.561C67.4102 520.93 49.2586 455.184 67.638 345.661C76.8259 290.91 93.2155 253.458 115.224 226.713C137.231 199.971 164.889 183.892 196.695 171.948C220.505 163.006 246.607 156.392 274.39 149.351C283.743 146.981 293.287 144.562 302.998 141.99C341.536 131.784 382.661 119.173 424.797 97.597C508.675 54.6478 595.579 96.6192 651.121 165.025C678.884 199.218 698.77 239.976 706.484 279.935C714.199 319.895 709.735 359.016 688.86 389.993Z" stroke="#212121"/>
<path d="M676.34 389.903L675.767 390.753C635.914 449.892 614.972 480.968 601.975 510.52C588.908 540.23 583.877 568.389 575.687 621.905C571.612 648.537 558.892 668.337 540.616 682.338C522.329 696.346 498.456 704.564 472.07 707.97C419.289 714.781 356.577 702.318 308.778 678.635C302.658 675.603 296.619 672.624 290.666 669.688C219.223 634.453 160.127 605.307 121.7 562.188C80.1248 515.535 62.7093 452.462 80.3428 347.383C89.1577 294.855 104.882 258.925 125.995 233.268C147.106 207.614 173.64 192.189 204.154 180.73C226.998 172.151 252.039 165.805 278.696 159.05C287.67 156.775 296.827 154.455 306.144 151.987C343.121 142.194 382.58 130.094 423.009 109.392C503.474 68.1908 586.844 108.453 640.132 174.081C666.767 206.885 685.845 245.988 693.246 284.323C700.647 322.659 696.364 360.188 676.34 389.903Z" stroke="#212121"/>
<path d="M661.654 389.798L661.107 390.61C623.231 446.814 603.326 476.352 590.973 504.44C578.552 532.682 573.769 559.448 565.986 610.311C562.114 635.616 550.028 654.43 532.662 667.732C515.286 681.043 492.602 688.853 467.526 692.089C417.367 698.562 357.768 686.718 312.342 664.21C306.526 661.329 300.787 658.498 295.129 655.708C227.226 622.218 171.063 594.519 134.545 553.541C95.0367 509.208 78.4844 449.27 95.2432 349.404C103.621 299.483 118.564 265.338 138.627 240.957C158.688 216.579 183.903 201.921 212.902 191.03C234.612 182.877 258.41 176.846 283.745 170.426C292.274 168.264 300.978 166.059 309.834 163.713C344.979 154.406 382.484 142.905 420.911 123.228C497.373 84.0762 576.599 122.333 627.241 184.704C652.554 215.879 670.685 253.04 677.718 289.47C684.751 325.902 680.681 361.563 661.654 389.798Z" stroke="#212121"/>
<path d="M647.257 389.697L646.736 390.471C610.798 443.799 591.91 471.829 580.187 498.483C568.4 525.285 563.861 550.686 556.476 598.948C552.803 622.953 541.338 640.799 524.865 653.418C508.382 666.045 486.862 673.454 463.07 676.524C415.481 682.666 358.934 671.429 315.834 650.074C310.315 647.339 304.87 644.654 299.502 642.006C235.068 610.228 181.781 583.946 147.133 545.067C109.651 503.008 93.9451 446.143 109.846 351.386C117.795 304.02 131.973 271.625 151.007 248.495C170.039 225.367 193.961 211.46 221.475 201.128C242.073 193.392 264.653 187.67 288.693 181.578C296.786 179.527 305.045 177.434 313.45 175.208C346.798 166.376 382.388 155.462 418.854 136.79C491.392 99.6476 566.556 135.939 614.605 195.117C638.622 224.696 655.824 259.953 662.496 294.517C669.169 329.082 665.307 362.913 647.257 389.697Z" stroke="#212121"/>
<path d="M631.685 389.584L631.192 390.317C597.351 440.534 579.562 466.931 568.521 492.035C557.419 517.278 553.145 541.203 546.19 586.652C542.732 609.25 531.939 626.05 516.433 637.928C500.915 649.815 480.655 656.791 458.253 659.682C413.444 665.465 360.198 654.884 319.615 634.776C314.418 632.201 309.291 629.672 304.237 627.18C243.556 597.252 193.379 572.505 160.755 535.896C125.465 496.297 110.675 442.756 125.648 353.528C133.133 308.925 146.484 278.423 164.404 256.646C182.322 234.872 204.845 221.778 230.752 212.049C250.148 204.765 271.41 199.377 294.048 193.64C301.67 191.708 309.449 189.737 317.364 187.641C348.77 179.323 382.287 169.045 416.631 151.459C484.924 116.491 555.693 150.656 600.938 206.38C623.552 234.231 639.749 267.429 646.031 299.973C652.314 332.518 648.677 364.369 631.685 389.584Z" stroke="#212121"/>
<path d="M615.462 389.47L614.998 390.158C583.341 437.135 566.697 461.833 556.367 485.321C545.979 508.942 541.979 531.328 535.473 573.847C532.239 594.98 522.147 610.689 507.646 621.797C493.135 632.914 474.186 639.439 453.233 642.143C411.319 647.551 361.512 637.654 323.55 618.845C318.689 616.436 313.893 614.071 309.165 611.739C252.393 583.739 205.457 560.591 174.94 526.347C141.934 489.31 128.097 439.231 142.105 355.761C149.106 314.037 161.595 285.508 178.355 265.14C195.114 244.776 216.178 232.528 240.413 223.427C258.557 216.613 278.446 211.573 299.624 206.206C306.755 204.399 314.032 202.555 321.438 200.593C350.82 192.812 382.18 183.196 414.312 166.742C478.183 134.038 544.375 165.988 586.698 218.114C607.852 244.166 623.002 275.219 628.879 305.66C634.755 336.101 631.353 365.889 615.462 389.47Z" stroke="#212121"/>
<path d="M598.905 389.352L598.471 389.996C569.043 433.665 553.568 456.628 543.963 478.467C534.303 500.431 530.585 521.248 524.536 560.776C521.531 580.414 512.153 595.01 498.68 605.331C485.196 615.661 467.586 621.725 448.11 624.238C409.152 629.266 362.855 620.067 327.568 602.583C323.05 600.344 318.591 598.145 314.197 595.977C261.416 569.946 217.787 548.428 189.421 516.598C158.746 482.177 145.882 435.632 158.903 358.039C165.412 319.254 177.02 292.737 192.597 273.808C208.171 254.882 227.748 243.499 250.275 235.039C267.141 228.706 285.628 224.021 305.316 219.031C311.946 217.351 318.712 215.636 325.598 213.813C352.915 206.578 382.071 197.637 411.947 182.34C471.305 151.946 532.824 181.635 572.166 230.089C591.828 254.305 605.91 283.169 611.373 311.462C616.835 339.756 613.671 367.439 598.905 389.352Z" stroke="#212121"/>
<path d="M582.084 389.231L581.68 389.831C554.517 430.139 540.23 451.34 531.362 471.504C522.442 491.785 519.009 511.007 513.425 547.496C510.652 565.615 502.001 579.08 489.57 588.602C477.129 598.133 460.88 603.729 442.906 606.049C406.95 610.689 364.219 602.199 331.65 586.061C327.479 583.995 323.364 581.965 319.308 579.965C270.581 555.932 230.312 536.072 204.131 506.694C175.824 474.929 163.949 431.975 175.968 360.353C181.976 324.553 192.69 300.081 207.064 282.613C221.436 265.149 239.502 254.644 260.293 246.836C275.861 240.989 292.924 236.665 311.098 232.06C317.219 230.508 323.466 228.925 329.824 227.241C355.042 220.563 381.961 212.308 409.545 198.184C464.317 170.138 521.09 197.531 557.403 242.254C575.55 264.605 588.547 291.245 593.588 317.356C598.629 343.469 595.709 369.014 582.084 389.231Z" stroke="#212121"/>
<path d="M563.156 389.097L562.786 389.645C538.171 426.172 525.22 445.39 517.181 463.668C509.095 482.056 505.982 499.483 500.922 532.553C498.411 548.962 490.576 561.155 479.32 569.778C468.053 578.409 453.335 583.479 437.05 585.581C404.473 589.785 365.755 582.092 336.244 567.47C332.466 565.598 328.737 563.759 325.062 561.946C280.897 540.164 244.409 522.168 220.687 495.549C195.045 466.775 184.282 427.862 195.174 362.958C200.618 330.518 210.326 308.347 223.347 292.524C236.365 276.704 252.73 267.187 271.569 260.113C285.675 254.815 301.136 250.897 317.607 246.723C323.155 245.317 328.817 243.882 334.581 242.356C357.437 236.302 381.838 228.82 406.842 216.017C456.455 190.613 507.886 215.422 540.789 255.946C557.232 276.197 569.007 300.334 573.574 323.991C578.142 347.649 575.495 370.787 563.156 389.097Z" stroke="#212121"/>
<path d="M546.019 388.974L545.68 389.476C523.372 422.58 511.631 440.002 504.343 456.574C497.01 473.247 494.188 489.049 489.601 519.023C487.327 533.884 480.232 544.926 470.039 552.734C459.835 560.551 446.503 565.145 431.747 567.049C402.23 570.858 367.144 563.887 340.403 550.638C336.978 548.941 333.6 547.275 330.269 545.632C290.234 525.886 257.17 509.579 235.675 485.459C212.444 459.391 202.689 424.136 212.56 365.315C217.494 335.916 226.291 315.829 238.086 301.495C249.879 287.164 264.705 278.542 281.776 272.131C294.559 267.33 308.57 263.78 323.498 259.996C328.527 258.722 333.661 257.421 338.886 256.037C359.605 250.55 381.726 243.767 404.394 232.16C449.335 209.148 495.931 231.617 525.748 268.34C540.647 286.69 551.317 308.562 555.455 329.996C559.593 351.432 557.194 372.39 546.019 388.974Z" stroke="#212121"/>
<path d="M526.034 388.833L525.731 389.282C506.114 418.393 495.784 433.721 489.371 448.303C482.917 462.977 480.434 476.884 476.4 503.248C474.402 516.304 468.17 526.002 459.216 532.861C450.252 539.728 438.536 543.766 425.564 545.44C399.614 548.789 368.764 542.66 345.252 531.011C342.241 529.519 339.271 528.054 336.342 526.609C301.124 509.239 272.051 494.9 253.153 473.694C232.736 450.783 224.155 419.794 232.836 368.066C237.174 342.214 244.909 324.557 255.275 311.959C265.64 299.364 278.67 291.785 293.679 286.149C304.92 281.927 317.239 278.806 330.369 275.478C334.793 274.357 339.309 273.212 343.907 271.995C362.133 267.168 381.595 261.2 401.539 250.988C441.033 230.765 481.989 250.506 508.207 282.796C521.307 298.93 530.687 318.159 534.325 337.002C537.963 355.846 535.852 374.263 526.034 388.833Z" stroke="#212121"/>
<path d="M505.013 388.682L504.748 389.075C487.961 413.986 479.115 427.112 473.623 439.6C468.094 452.171 465.968 464.085 462.514 486.652C460.807 497.81 455.482 506.095 447.832 511.955C440.171 517.824 430.156 521.277 419.06 522.709C396.862 525.573 370.469 520.331 350.353 510.364C347.777 509.088 345.236 507.834 342.73 506.598C312.577 491.726 287.704 479.458 271.536 461.316C254.078 441.726 246.734 415.223 254.162 370.958C257.874 348.836 264.491 333.734 273.355 322.963C282.217 312.194 293.358 305.713 306.199 300.89C315.817 297.278 326.357 294.607 337.595 291.759C341.383 290.799 345.25 289.819 349.188 288.776C364.791 284.644 381.457 279.534 398.536 270.789C432.301 253.5 467.324 270.37 489.757 297.998C500.964 311.801 508.988 328.251 512.099 344.368C515.211 360.485 513.404 376.23 505.013 388.682Z" stroke="#212121"/>
<path d="M484.184 388.533L483.957 388.87C469.973 409.62 462.598 420.565 458.018 430.978C453.406 441.466 451.633 451.405 448.755 470.209C447.335 479.486 442.91 486.371 436.551 491.242C430.182 496.12 421.851 498.994 412.615 500.186C394.134 502.571 372.157 498.206 355.407 489.907C353.261 488.844 351.145 487.8 349.059 486.771C323.926 474.375 303.213 464.159 289.751 449.053C275.225 432.753 269.105 410.696 275.292 373.823C278.384 355.398 283.894 342.828 291.269 333.867C298.641 324.908 307.911 319.514 318.604 315.498C326.614 312.49 335.391 310.266 344.755 307.893C347.912 307.093 351.136 306.275 354.42 305.406C367.425 301.961 381.32 297.702 395.56 290.41C423.647 276.028 452.793 290.054 471.475 313.062C480.807 324.556 487.486 338.251 490.076 351.667C492.667 365.084 491.161 378.18 484.184 388.533Z" stroke="#212121"/>
</svg>
