<svg width="392" height="940" viewBox="0 0 392 940" fill="none" xmlns="http://www.w3.org/2000/svg">
<path d="M250.791 470.452L250.1 471.321C201.81 532.038 176.439 563.938 159.814 594.865C143.1 625.957 135.23 656.055 121.762 713.385C108.349 770.476 54.5497 810.967 -5.83491 821.779C-66.1984 832.587 -133.019 813.71 -172.437 752.205C-192.245 721.298 -218.042 694.838 -244.813 669.539C-251.8 662.935 -258.852 656.413 -265.881 649.911C-285.799 631.487 -305.537 613.231 -323.108 593.787C-346.872 567.491 -366.635 539.063 -377.457 505.206C-388.277 471.356 -390.171 432.041 -378.14 383.954C-366.103 335.842 -349.288 304.261 -327.575 282.598C-305.864 260.937 -279.211 249.147 -247.402 240.701C-226.608 235.179 -203.651 231.095 -178.451 226.612C-165.074 224.233 -151.064 221.74 -136.411 218.861C-94.1792 210.562 -46.6741 199.059 6.24912 177.782C59.0299 156.563 106.762 156.62 147.153 170.525C187.55 184.431 220.638 212.201 244.1 246.459C291.043 315.004 299.366 409.376 250.791 470.452Z" stroke="#212121"/>
<path d="M237.789 470.412L237.124 471.248C190.807 529.484 166.47 560.084 150.523 589.75C134.49 619.576 126.941 648.448 114.022 703.438C101.159 758.189 49.5638 797.023 -8.35079 807.392C-66.2442 817.758 -130.328 799.654 -168.132 740.667C-187.133 711.019 -211.879 685.638 -237.557 661.371C-244.26 655.037 -251.024 648.78 -257.767 642.543C-276.872 624.872 -295.803 607.362 -312.656 588.712C-335.449 563.491 -354.403 536.225 -364.782 503.754C-375.16 471.289 -376.977 433.584 -365.437 387.462C-353.892 341.316 -337.765 311.027 -316.942 290.252C-296.121 269.478 -270.558 258.171 -240.05 250.07C-220.105 244.774 -198.086 240.857 -173.916 236.557C-161.084 234.275 -147.646 231.884 -133.59 229.122C-93.0812 221.162 -47.5135 210.128 3.25126 189.719C53.8736 169.368 99.6522 169.423 138.39 182.758C177.134 196.095 208.868 222.728 231.37 255.585C276.394 321.328 284.374 411.838 237.789 470.412Z" stroke="#212121"/>
<path d="M223.984 470.368L223.348 471.167C179.125 526.771 155.886 555.989 140.658 584.317C125.348 612.799 118.139 640.369 105.804 692.874C93.5252 745.14 44.2702 782.215 -11.0215 792.115C-66.2922 802.011 -127.471 784.727 -163.561 728.414C-181.705 700.104 -205.335 675.868 -229.853 652.697C-236.253 646.648 -242.712 640.674 -249.151 634.718C-267.392 617.846 -285.466 601.128 -301.557 583.322C-323.319 559.241 -341.415 533.211 -351.324 502.211C-361.231 471.217 -362.966 435.219 -351.949 391.185C-340.926 347.126 -325.529 318.21 -305.651 298.377C-285.774 278.546 -261.371 267.751 -232.243 260.017C-213.2 254.96 -192.177 251.221 -169.1 247.115C-156.848 244.936 -144.016 242.653 -130.594 240.015C-91.9147 232.415 -48.4043 221.879 0.0687377 202.391C48.3993 182.961 92.1041 183.014 129.086 195.745C166.074 208.478 196.371 233.904 217.854 265.273C260.84 328.041 268.457 414.45 223.984 470.368Z" stroke="#212121"/>
<path d="M209.612 470.322L209.004 471.087C166.962 523.948 144.867 551.728 130.389 578.663C115.831 605.744 108.977 631.96 97.2494 681.878C85.5781 731.557 38.7594 766.8 -13.8019 776.211C-66.3421 785.619 -124.497 769.188 -158.802 715.66C-176.054 688.741 -198.522 665.697 -221.833 643.667C-227.918 637.917 -234.059 632.236 -240.18 626.575C-257.523 610.533 -274.706 594.639 -290.004 577.711C-310.692 554.818 -327.894 530.073 -337.313 500.604C-346.731 471.142 -348.381 436.922 -337.907 395.062C-327.428 353.176 -312.791 325.689 -293.896 306.837C-275.003 287.987 -251.806 277.725 -224.115 270.372C-206.011 265.565 -186.026 262.01 -164.086 258.107C-152.437 256.035 -140.237 253.864 -127.475 251.356C-90.7004 244.13 -49.3316 234.113 -3.24441 215.584C42.7004 197.114 84.2461 197.165 119.4 209.266C154.561 221.37 183.361 245.54 203.783 275.36C244.647 335.029 251.886 417.17 209.612 470.322Z" stroke="#212121"/>
<path d="M195.745 470.277L195.166 471.005C155.227 521.221 134.236 547.615 120.48 573.204C106.648 598.935 100.136 623.843 88.9949 671.266C77.91 718.449 33.4422 751.925 -16.4844 760.864C-66.3899 769.799 -121.626 754.193 -154.21 703.351C-170.601 677.775 -191.947 655.882 -214.093 634.953C-219.874 629.489 -225.709 624.093 -231.524 618.713C-247.999 603.474 -264.322 588.376 -278.854 572.296C-298.507 550.549 -314.847 527.043 -323.794 499.053C-332.739 471.069 -334.306 438.565 -324.357 398.801C-314.402 359.011 -300.499 332.903 -282.553 314.998C-264.608 297.095 -242.577 287.348 -216.272 280.363C-199.074 275.797 -180.09 272.42 -159.248 268.712C-148.181 266.743 -136.591 264.681 -124.465 262.298C-89.5282 255.433 -50.226 245.916 -6.441 228.314C37.2016 210.768 76.664 210.817 110.055 222.312C143.451 233.808 170.808 256.766 190.206 285.092C229.023 341.772 235.896 419.793 195.745 470.277Z" stroke="#212121"/>
<path d="M181.334 470.232L180.784 470.923C143.032 518.39 123.187 543.342 110.182 567.535C97.1048 591.862 90.9484 615.411 80.4168 660.24C69.9412 704.829 27.9164 736.469 -19.2725 744.918C-66.4401 753.363 -118.643 738.612 -149.438 690.562C-164.935 666.382 -185.116 645.684 -206.051 625.899C-211.516 620.734 -217.032 615.632 -222.53 610.547C-238.104 596.142 -253.532 581.871 -267.269 566.67C-285.846 546.114 -301.289 523.898 -309.745 497.443C-318.199 470.994 -319.681 440.273 -310.277 402.688C-300.867 365.078 -287.726 340.402 -270.766 323.481C-253.808 306.562 -232.986 297.349 -208.122 290.747C-191.866 286.431 -173.922 283.239 -154.22 279.734C-143.759 277.873 -132.802 275.923 -121.338 273.671C-88.3106 267.181 -51.156 258.184 -9.76327 241.543C31.4871 224.959 68.7846 225.006 100.342 235.87C131.907 246.735 157.762 268.434 176.097 295.206C212.787 348.78 219.28 422.521 181.334 470.232Z" stroke="#212121"/>
<path d="M167.786 470.187L167.263 470.845C131.566 515.727 112.799 539.323 100.501 562.202C88.1326 585.21 82.3103 607.482 72.3515 649.872C62.4489 692.023 22.7207 721.936 -21.8942 729.924C-66.488 737.909 -115.84 723.963 -144.953 678.537C-159.609 655.669 -178.694 636.095 -198.491 617.386C-203.66 612.501 -208.876 607.676 -214.074 602.868C-228.801 589.246 -243.389 575.752 -256.378 561.38C-273.943 541.943 -288.544 520.938 -296.538 495.927C-304.531 470.923 -305.932 441.877 -297.041 406.341C-288.144 370.779 -275.719 347.451 -259.686 331.454C-243.655 315.46 -223.971 306.75 -200.461 300.508C-185.09 296.426 -168.124 293.408 -149.495 290.094C-139.602 288.334 -129.24 286.491 -118.399 284.36C-87.1666 278.223 -52.0309 269.715 -12.8873 253.979C26.114 238.299 61.3763 238.344 91.2111 248.614C121.052 258.887 145.497 279.401 162.832 304.713C197.522 355.367 203.658 425.084 167.786 470.187Z" stroke="#212121"/>
<path d="M155.012 470.146L154.515 470.771C120.757 513.216 103.006 535.535 91.3733 557.175C79.674 578.939 74.1668 600.007 64.7482 640.097C55.3857 679.949 17.823 708.234 -24.365 715.788C-66.5319 723.338 -113.195 710.151 -140.723 667.199C-154.586 645.568 -172.638 627.054 -191.361 609.359C-196.25 604.739 -201.184 600.176 -206.101 595.627C-220.029 582.745 -233.825 569.984 -246.108 556.392C-262.719 538.011 -276.525 518.148 -284.084 494.499C-291.642 470.856 -292.968 443.391 -284.56 409.785C-276.145 376.155 -264.396 354.097 -249.238 338.973C-234.08 323.85 -215.469 315.615 -193.237 309.711C-178.7 305.852 -162.656 302.997 -145.038 299.863C-135.681 298.199 -125.881 296.455 -115.626 294.44C-86.0867 288.636 -52.8546 280.589 -15.8316 265.704C21.049 250.878 54.3923 250.92 82.6026 260.631C110.819 270.345 133.934 289.742 150.326 313.678C183.13 361.578 188.929 427.5 155.012 470.146Z" stroke="#212121"/>
<path d="M143.37 470.111L142.898 470.705C110.906 510.93 94.0809 532.085 83.0546 552.596C71.9648 573.226 66.7447 593.197 57.8183 631.192C48.9481 668.948 13.3589 695.75 -26.6174 702.907C-66.5726 710.061 -110.786 697.566 -136.868 656.869C-150.009 636.366 -167.119 618.817 -184.865 602.047C-189.499 597.667 -194.175 593.342 -198.835 589.032C-212.035 576.822 -225.109 564.73 -236.749 551.849C-252.491 534.43 -265.573 515.608 -272.736 493.199C-279.897 470.797 -281.153 444.772 -273.186 412.927C-265.212 381.057 -254.079 360.156 -239.716 345.827C-225.356 331.499 -207.722 323.695 -186.654 318.101C-172.878 314.443 -157.674 311.739 -140.977 308.768C-132.109 307.191 -122.82 305.538 -113.1 303.628C-85.1034 298.127 -53.606 290.5 -18.5156 276.393C16.4325 262.343 48.0269 262.384 74.7567 271.585C101.493 280.789 123.396 299.169 138.928 321.85C170.014 367.241 175.506 429.705 143.37 470.111Z" stroke="#212121"/>
<path d="M130.493 470.07L130.048 470.63C100.008 508.4 84.2083 528.266 73.8532 547.529C63.4375 566.905 58.535 585.661 50.1532 621.338C41.8275 656.777 8.42117 681.937 -29.1087 688.657C-66.6174 695.373 -108.121 683.643 -132.605 645.44C-144.946 626.184 -161.015 609.704 -177.679 593.956C-182.03 589.843 -186.421 585.782 -190.798 581.734C-203.192 570.269 -215.467 558.915 -226.397 546.821C-241.177 530.466 -253.458 512.796 -260.182 491.76C-266.905 470.729 -268.085 446.298 -260.604 416.399C-253.118 386.476 -242.665 366.856 -229.184 353.406C-215.705 339.957 -199.152 332.631 -179.371 327.379C-166.437 323.945 -152.162 321.405 -136.485 318.616C-128.157 317.135 -119.434 315.583 -110.306 313.789C-84.0153 308.623 -54.4369 301.461 -21.4842 288.213C11.3262 275.023 40.9862 275.062 66.0783 283.7C91.1767 292.339 111.739 309.594 126.321 330.887C155.506 373.502 160.659 432.142 130.493 470.07Z" stroke="#212121"/>
<path d="M116.173 470.024L115.755 470.549C87.8892 505.586 73.2288 524.019 63.6202 541.893C53.9542 559.875 49.405 577.281 41.6287 610.381C33.9085 643.242 2.92988 666.577 -31.8793 672.809C-66.6672 679.038 -105.157 668.159 -127.863 632.73C-139.315 614.861 -154.226 599.569 -169.687 584.958C-173.725 581.141 -177.8 577.373 -181.86 573.617C-193.359 562.981 -204.745 552.449 -214.884 541.229C-228.595 526.058 -239.985 509.669 -246.222 490.159C-252.456 470.654 -253.551 447.994 -246.612 420.261C-239.667 392.504 -229.973 374.307 -217.471 361.835C-204.972 349.364 -189.621 342.569 -171.273 337.697C-159.274 334.511 -146.033 332.156 -131.489 329.568C-123.763 328.194 -115.669 326.754 -107.198 325.09C-82.8054 320.296 -55.3611 313.651 -24.7857 301.359C5.64735 289.124 33.156 289.161 56.4269 297.172C79.7041 305.185 98.7749 321.188 112.3 340.937C139.371 380.465 144.146 434.852 116.173 470.024Z" stroke="#212121"/>
<path d="M102.162 469.978L101.773 470.466C76.0323 502.831 62.4865 519.863 53.6081 536.379C44.6756 552.995 40.4719 569.08 33.2881 599.659C26.1604 629.998 -2.44318 651.548 -34.5905 657.304C-66.7166 663.056 -102.258 653.009 -123.224 620.294C-133.807 603.782 -147.585 589.652 -161.868 576.153C-165.6 572.627 -169.364 569.145 -173.116 565.675C-183.738 555.85 -194.256 546.121 -203.621 535.758C-216.285 521.744 -226.805 506.608 -232.564 488.591C-238.321 470.58 -239.333 449.653 -232.924 424.039C-226.509 398.399 -217.555 381.596 -206.013 370.08C-194.472 358.565 -180.298 352.291 -163.35 347.791C-152.267 344.848 -140.037 342.672 -126.602 340.282C-119.464 339.012 -111.986 337.682 -104.158 336.144C-81.6222 331.716 -56.2658 325.576 -28.0163 314.219C0.0908596 302.919 25.4948 302.954 46.9838 310.351C68.4792 317.751 86.0912 332.529 98.5823 350.769C123.585 387.277 127.991 437.501 102.162 469.978Z" stroke="#212121"/>
<path d="M88.099 469.933L87.7388 470.386C64.1317 500.068 51.7049 515.693 43.5594 530.845C35.3632 546.092 31.5064 560.852 24.9172 588.899C18.3841 616.707 -7.83556 636.465 -37.3112 641.742C-66.7657 647.016 -99.3476 637.804 -118.568 607.814C-128.278 592.664 -140.919 579.7 -154.021 567.318C-157.444 564.083 -160.897 560.889 -164.338 557.706C-174.082 548.694 -183.727 539.772 -192.316 530.268C-203.93 517.416 -213.575 503.538 -218.855 487.019C-224.133 470.507 -225.061 451.32 -219.185 427.831C-213.302 404.318 -205.091 388.913 -194.511 378.357C-183.932 367.803 -170.939 362.05 -155.398 357.923C-145.233 355.224 -134.018 353.229 -121.696 351.037C-115.149 349.873 -108.288 348.652 -101.107 347.241C-80.4342 343.179 -57.1734 337.546 -31.2583 327.128C-5.48568 316.767 17.8057 316.8 37.5064 323.581C57.2133 330.365 73.361 343.914 84.8142 360.638C107.741 394.115 111.776 440.163 88.099 469.933Z" stroke="#212121"/>
<path d="M74.0366 469.888L73.7047 470.306C52.2313 497.305 40.9233 511.523 33.5108 525.312C26.0508 539.19 22.5409 552.623 16.5463 578.139C10.6079 603.416 -13.2279 621.381 -40.0319 626.181C-66.8148 630.976 -96.4372 622.6 -113.912 595.333C-122.749 581.545 -134.253 569.748 -146.173 558.483C-149.288 555.539 -152.431 552.632 -155.562 549.736C-164.425 541.537 -173.198 533.423 -181.011 524.778C-191.575 513.088 -200.345 500.467 -205.146 485.447C-209.945 470.434 -210.79 452.986 -205.445 431.624C-200.094 410.237 -192.628 396.231 -183.009 386.635C-173.393 377.04 -161.58 371.809 -147.445 368.056C-138.199 365.601 -127.999 363.786 -116.791 361.792C-110.833 360.733 -104.591 359.622 -98.0553 358.338C-79.2461 354.642 -58.0809 349.517 -34.5003 340.037C-11.0622 330.614 10.1167 330.645 28.0289 336.811C45.9475 342.979 60.6309 355.299 71.0462 370.508C91.8967 400.953 95.5616 442.824 74.0366 469.888Z" stroke="#212121"/>
<path d="M61.2105 469.849L60.9048 470.233C41.3773 494.786 31.0898 507.72 24.3458 520.266C17.5573 532.894 14.3637 545.118 8.91148 568.326C3.51539 591.295 -18.1461 607.625 -42.5133 611.988C-66.8594 616.347 -93.7826 608.733 -109.665 583.951C-117.706 571.405 -128.172 560.672 -139.015 550.425C-141.85 547.746 -144.708 545.102 -147.556 542.468C-155.618 535.011 -163.595 527.633 -170.7 519.771C-180.305 509.141 -188.278 497.668 -192.642 484.015C-197.004 470.368 -197.773 454.507 -192.913 435.084C-188.048 415.637 -181.259 402.905 -172.519 394.185C-163.78 385.466 -153.045 380.711 -140.192 377.298C-131.784 375.066 -122.51 373.416 -112.316 371.603C-106.897 370.639 -101.219 369.629 -95.272 368.46C-78.1624 365.098 -58.9086 360.436 -37.4572 351.812C-16.1483 343.245 3.10374 343.274 19.3848 348.879C35.6722 354.486 49.0201 365.684 58.4887 379.51C77.4458 407.191 80.7727 445.252 61.2105 469.849Z" stroke="#212121"/>
<path d="M46.5195 469.801L46.2438 470.148C28.945 491.898 19.8264 503.363 13.8481 514.485C7.82871 525.682 4.99746 536.521 0.166459 557.084C-4.60842 577.409 -23.7796 591.867 -45.3557 595.731C-66.9108 599.59 -90.7423 592.849 -104.801 570.912C-111.93 559.789 -121.208 550.274 -130.817 541.194C-133.33 538.82 -135.863 536.476 -138.387 534.141C-145.53 527.535 -152.596 520.999 -158.889 514.035C-167.398 504.619 -174.457 494.459 -178.321 482.372C-182.182 470.291 -182.864 456.247 -178.56 439.046C-174.25 421.819 -168.239 410.549 -160.504 402.831C-152.77 395.115 -143.268 390.906 -131.884 387.883C-124.436 385.905 -116.222 384.444 -107.191 382.838C-102.389 381.983 -97.3562 381.088 -92.0842 380.052C-76.9214 377.073 -59.8568 372.941 -40.8442 365.297C-21.9741 357.711 -4.92897 357.738 9.4838 362.699C23.9029 367.663 35.7211 377.577 44.1053 389.82C60.8938 414.334 63.8334 448.032 46.5195 469.801Z" stroke="#212121"/>
<path d="M30.7679 469.751L30.524 470.057C15.6151 488.803 7.74978 498.692 2.59253 508.286C-2.6022 517.95 -5.04493 527.303 -9.20986 545.032C-13.3187 562.521 -29.8196 574.972 -48.4031 578.299C-66.9655 581.623 -87.4821 575.817 -99.5854 556.932C-105.736 547.335 -113.741 539.127 -122.026 531.297C-124.194 529.248 -126.379 527.227 -128.556 525.214C-134.714 519.518 -140.802 513.887 -146.226 507.885C-153.558 499.771 -159.638 491.02 -162.965 480.611C-166.29 470.208 -166.878 458.114 -163.17 443.294C-159.456 428.449 -154.278 418.745 -147.62 412.103C-140.964 405.462 -132.785 401.837 -122.976 399.232C-116.557 397.528 -109.48 396.269 -101.696 394.884C-97.5554 394.148 -93.2145 393.375 -88.6659 392.482C-75.5905 389.912 -60.8732 386.349 -44.4756 379.757C-28.2204 373.222 -13.5415 373.246 -1.13201 377.518C11.2838 381.792 21.4618 390.33 28.6835 400.875C43.1466 421.994 45.6711 451.012 30.7679 469.751Z" stroke="#212121"/>
<path d="M15.2634 469.702L15.0513 469.968C2.4945 485.756 -4.13725 494.095 -8.4864 502.185C-12.8694 510.339 -14.9297 518.231 -18.4391 533.168C-21.8923 547.867 -35.7648 558.342 -51.4028 561.142C-67.0196 563.938 -84.2732 559.054 -94.4517 543.172C-99.6401 535.076 -106.392 528.154 -113.374 521.556C-115.202 519.828 -117.044 518.124 -118.879 516.427C-124.067 511.628 -129.194 506.886 -133.762 501.832C-139.936 494.999 -145.051 487.634 -147.85 478.878C-150.647 470.128 -151.143 459.951 -148.022 447.476C-144.894 434.975 -140.536 426.812 -134.939 421.229C-129.344 415.647 -122.467 412.596 -114.208 410.404C-108.802 408.968 -102.844 407.908 -96.2875 406.742C-92.7976 406.121 -89.138 405.47 -85.3014 404.716C-74.2806 402.551 -61.8737 399.547 -48.05 393.989C-34.3686 388.489 -22.019 388.511 -11.5812 392.104C-1.13715 395.699 7.42644 402.882 13.5037 411.756C25.6781 429.533 27.7939 453.946 15.2634 469.702Z" stroke="#212121"/>
</svg>
