<svg width="161" height="161" viewBox="0 0 161 161" fill="none" xmlns="http://www.w3.org/2000/svg">
<path d="M32.482 21.6287L1 52.4132L12.766 94.6228M32.482 21.6287L74.776 32.4192M32.482 21.6287L43.294 63.521M74.776 32.4192L86.542 74.9461M74.776 32.4192L106.258 1M86.542 74.9461L43.294 63.521M86.542 74.9461L55.06 106.365M86.542 74.9461L129.154 86.3713M86.542 74.9461L117.07 43.5269M86.542 74.9461L97.672 117.79M43.294 63.521L12.766 94.6228M12.766 94.6228L55.06 106.365M55.06 106.365L66.508 148.575M129.154 86.3713L160 55.2695M129.154 86.3713L140.284 128.898M160 55.2695L117.07 43.5269M160 55.2695L148.552 13.0599L106.258 1M117.07 43.5269L106.258 1M140.284 128.898L97.672 117.79M140.284 128.898L108.802 160L66.508 148.575M97.672 117.79L66.508 148.575" stroke="#FDDD0A" stroke-width="1.5" stroke-linecap="round" stroke-linejoin="round"/>
</svg>
