<svg width="761" height="777" viewBox="0 0 761 777" fill="none" xmlns="http://www.w3.org/2000/svg">
<path d="M702.346 390.089L701.726 391.01C658.372 455.344 635.594 489.145 621.458 521.286C607.247 553.598 601.774 584.223 592.866 642.436C588.432 671.417 574.589 692.966 554.7 708.202C534.8 723.446 508.824 732.387 480.116 736.092C422.694 743.502 354.468 729.944 302.467 704.178C295.809 700.88 289.24 697.639 282.763 694.445C205.053 656.119 140.761 624.411 98.956 577.5C53.7197 526.74 34.7754 458.115 53.958 343.805C63.5474 286.662 80.6538 247.57 103.627 219.654C126.597 191.74 155.468 174.957 188.664 162.491C213.515 153.158 240.758 146.254 269.755 138.906C279.516 136.432 289.476 133.908 299.611 131.224C339.832 120.572 382.75 107.411 426.724 84.894C514.278 40.0627 604.987 83.8753 662.958 155.272C691.934 190.961 712.691 233.502 720.743 275.21C728.795 316.918 724.137 357.754 702.346 390.089Z" stroke="#212121"/>
<path d="M688.862 389.992L688.266 390.878C646.728 452.517 624.902 484.905 611.357 515.703C597.739 546.667 592.495 576.013 583.96 631.79C579.711 659.553 566.451 680.195 547.398 694.791C528.334 709.394 503.449 717.961 475.945 721.51C420.929 728.61 355.563 715.62 305.74 690.934C299.361 687.773 293.067 684.669 286.862 681.608C212.401 644.885 150.803 614.505 110.75 569.56C67.4121 520.93 49.2605 455.184 67.6399 345.661C76.8278 290.91 93.2174 253.458 115.226 226.713C137.232 199.971 164.891 183.892 196.697 171.948C220.507 163.006 246.609 156.392 274.392 149.351C283.745 146.981 293.289 144.562 302.999 141.99C341.538 131.784 382.663 119.172 424.799 97.5969C508.677 54.6478 595.581 96.6192 651.123 165.025C678.885 199.218 698.772 239.976 706.486 279.935C714.2 319.895 709.737 359.016 688.862 389.992Z" stroke="#212121"/>
<path d="M676.34 389.904L675.767 390.754C635.914 449.893 614.972 480.969 601.975 510.521C588.908 540.231 583.876 568.39 575.687 621.906C571.612 648.538 558.892 668.338 540.616 682.339C522.329 696.347 498.456 704.565 472.069 707.97C419.289 714.782 356.577 702.319 308.778 678.636C302.658 675.604 296.619 672.625 290.666 669.689C219.223 634.454 160.127 605.308 121.7 562.189C80.1248 515.536 62.7092 452.463 80.3428 347.384C89.1577 294.856 104.882 258.926 125.995 233.269C147.106 207.615 173.64 192.19 204.154 180.731C226.998 172.152 252.039 165.806 278.696 159.051C287.67 156.776 296.827 154.456 306.144 151.988C343.121 142.195 382.58 130.095 423.009 109.393C503.474 68.1917 586.844 108.454 640.132 174.082C666.767 206.886 685.845 245.989 693.246 284.324C700.647 322.66 696.364 360.189 676.34 389.904Z" stroke="#212121"/>
<path d="M661.654 389.799L661.107 390.61C623.231 446.815 603.326 476.352 590.973 504.441C578.552 532.682 573.769 559.449 565.986 610.311C562.114 635.616 550.028 654.43 532.663 667.732C515.287 681.043 492.602 688.853 467.526 692.089C417.367 698.562 357.768 686.718 312.342 664.211C306.526 661.329 300.787 658.498 295.13 655.708C227.226 622.218 171.063 594.519 134.545 553.541C95.0368 509.208 78.4846 449.27 95.2433 349.404C103.621 299.483 118.564 265.338 138.627 240.957C158.688 216.579 183.903 201.921 212.902 191.03C234.612 182.877 258.41 176.846 283.745 170.426C292.275 168.265 300.978 166.059 309.834 163.713C344.979 154.406 382.484 142.905 420.911 123.228C497.373 84.0763 576.599 122.333 627.241 184.704C652.554 215.879 670.685 253.04 677.718 289.471C684.751 325.902 680.681 361.564 661.654 389.799Z" stroke="#212121"/>
<path d="M647.257 389.696L646.736 390.47C610.799 443.799 591.91 471.828 580.187 498.482C568.4 525.284 563.861 550.685 556.476 598.947C552.803 622.953 541.338 640.799 524.865 653.417C508.382 666.044 486.862 673.453 463.071 676.524C415.481 682.665 358.934 671.428 315.834 650.073C310.316 647.338 304.87 644.653 299.502 642.005C235.068 610.227 181.781 583.945 147.133 545.066C109.651 503.007 93.9452 446.142 109.847 351.385C117.795 304.019 131.973 271.624 151.008 248.494C170.039 225.366 193.961 211.459 221.475 201.127C242.073 193.391 264.653 187.669 288.693 181.577C296.786 179.526 305.045 177.433 313.45 175.207C346.798 166.375 382.388 155.461 418.854 136.789C491.392 99.6467 566.556 135.938 614.605 195.116C638.622 224.695 655.824 259.952 662.496 294.516C669.169 329.081 665.307 362.912 647.257 389.696Z" stroke="#212121"/>
<path d="M631.685 389.585L631.192 390.317C597.351 440.535 579.562 466.932 568.521 492.036C557.419 517.279 553.145 541.204 546.19 586.653C542.732 609.251 531.939 626.05 516.433 637.929C500.915 649.816 480.655 656.792 458.253 659.683C413.444 665.466 360.198 654.885 319.615 634.777C314.418 632.202 309.291 629.673 304.236 627.18C243.556 597.253 193.379 572.506 160.755 535.897C125.465 496.298 110.675 442.757 125.648 353.529C133.133 308.926 146.484 278.424 164.404 256.647C182.322 234.873 204.844 221.779 230.752 212.05C250.148 204.766 271.41 199.377 294.048 193.641C301.67 191.709 309.449 189.738 317.364 187.641C348.77 179.324 382.287 169.046 416.631 151.46C484.924 116.492 555.693 150.656 600.938 206.38C623.552 234.232 639.748 267.43 646.031 299.974C652.314 332.519 648.677 364.37 631.685 389.585Z" stroke="#212121"/>
<path d="M615.462 389.469L614.999 390.157C583.341 437.134 566.697 461.832 556.367 485.32C545.979 508.941 541.979 531.327 535.473 573.846C532.239 594.98 522.147 610.688 507.646 621.796C493.135 632.913 474.186 639.438 453.233 642.142C411.319 647.55 361.512 637.653 323.55 618.844C318.689 616.435 313.893 614.07 309.165 611.738C252.394 583.738 205.457 560.59 174.94 526.346C141.934 489.309 128.097 439.23 142.105 355.76C149.106 314.036 161.595 285.507 178.355 265.139C195.114 244.775 216.178 232.527 240.413 223.426C258.557 216.612 278.446 211.572 299.624 206.205C306.755 204.398 314.032 202.554 321.438 200.593C350.82 192.811 382.18 183.195 414.312 166.741C478.183 134.037 544.375 165.987 586.698 218.113C607.852 244.165 623.002 275.218 628.879 305.659C634.755 336.1 631.353 365.889 615.462 389.469Z" stroke="#212121"/>
<path d="M598.905 389.352L598.471 389.996C569.043 433.665 553.568 456.628 543.963 478.467C534.303 500.431 530.585 521.248 524.536 560.775C521.531 580.414 512.153 595.01 498.68 605.331C485.195 615.66 467.586 621.725 448.11 624.238C409.152 629.266 362.855 620.066 327.568 602.582C323.05 600.344 318.591 598.145 314.196 595.977C261.415 569.946 217.787 548.428 189.421 516.598C158.745 482.177 145.882 435.632 158.903 358.039C165.412 319.254 177.02 292.737 192.596 273.808C208.171 254.882 227.748 243.499 250.275 235.039C267.141 228.706 285.628 224.021 305.316 219.031C311.946 217.351 318.712 215.636 325.598 213.813C352.915 206.578 382.071 197.637 411.947 182.339C471.305 151.946 532.824 181.635 572.166 230.089C591.828 254.305 605.91 283.169 611.373 311.462C616.835 339.756 613.671 367.439 598.905 389.352Z" stroke="#212121"/>
<path d="M582.084 389.232L581.68 389.831C554.517 430.139 540.23 451.341 531.362 471.504C522.442 491.786 519.008 511.007 513.425 547.497C510.652 565.615 502 579.081 489.57 588.603C477.129 598.133 460.88 603.73 442.905 606.05C406.95 610.69 364.218 602.199 331.649 586.062C327.479 583.996 323.364 581.966 319.308 579.966C270.581 555.933 230.312 536.073 204.131 506.695C175.824 474.93 163.949 431.976 175.968 360.354C181.976 324.554 192.69 300.082 207.064 282.614C221.436 265.15 239.502 254.645 260.293 246.837C275.861 240.99 292.924 236.666 311.098 232.06C317.219 230.509 323.466 228.926 329.824 227.242C355.042 220.564 381.961 212.309 409.545 198.185C464.318 170.139 521.09 197.532 557.403 242.255C575.55 264.605 588.547 291.245 593.588 317.357C598.629 343.47 595.709 369.014 582.084 389.232Z" stroke="#212121"/>
<path d="M563.156 389.097L562.786 389.645C538.171 426.172 525.22 445.39 517.181 463.668C509.095 482.056 505.982 499.483 500.922 532.553C498.411 548.962 490.576 561.155 479.32 569.778C468.053 578.409 453.335 583.479 437.05 585.581C404.473 589.785 365.755 582.092 336.244 567.47C332.466 565.598 328.737 563.759 325.062 561.946C280.897 540.164 244.409 522.168 220.687 495.549C195.045 466.775 184.282 427.862 195.174 362.958C200.618 330.518 210.326 308.347 223.347 292.524C236.365 276.704 252.73 267.187 271.569 260.113C285.675 254.815 301.136 250.897 317.607 246.723C323.155 245.317 328.817 243.882 334.581 242.356C357.437 236.302 381.838 228.82 406.842 216.017C456.455 190.613 507.886 215.422 540.789 255.946C557.232 276.197 569.007 300.334 573.574 323.991C578.142 347.649 575.495 370.787 563.156 389.097Z" stroke="#212121"/>
<path d="M546.019 388.975L545.68 389.477C523.372 422.581 511.631 440.003 504.343 456.575C497.01 473.248 494.188 489.05 489.601 519.024C487.327 533.885 480.232 544.927 470.039 552.735C459.835 560.552 446.503 565.146 431.747 567.05C402.23 570.859 367.144 563.888 340.403 550.639C336.978 548.942 333.6 547.276 330.269 545.633C290.234 525.887 257.17 509.58 235.675 485.46C212.444 459.392 202.689 424.137 212.56 365.316C217.494 335.917 226.291 315.83 238.086 301.496C249.879 287.165 264.705 278.543 281.776 272.132C294.559 267.331 308.57 263.78 323.498 259.997C328.528 258.723 333.661 257.422 338.886 256.038C359.605 250.551 381.726 243.768 404.394 232.161C449.335 209.149 495.931 231.618 525.748 268.341C540.647 286.691 551.317 308.563 555.455 329.997C559.593 351.433 557.194 372.391 546.019 388.975Z" stroke="#212121"/>
<path d="M526.034 388.832L525.731 389.281C506.114 418.392 495.784 433.72 489.371 448.302C482.917 462.976 480.434 476.883 476.4 503.247C474.402 516.303 468.17 526.001 459.216 532.86C450.252 539.727 438.536 543.765 425.564 545.439C399.614 548.788 368.764 542.659 345.252 531.01C342.241 529.518 339.271 528.053 336.342 526.608C301.124 509.238 272.051 494.899 253.153 473.693C232.736 450.782 224.155 419.793 232.836 368.065C237.174 342.213 244.909 324.556 255.275 311.958C265.64 299.363 278.67 291.784 293.679 286.148C304.92 281.926 317.239 278.805 330.369 275.477C334.793 274.356 339.309 273.211 343.907 271.994C362.133 267.167 381.595 261.199 401.539 250.987C441.033 230.764 481.989 250.505 508.207 282.795C521.307 298.929 530.687 318.158 534.325 337.001C537.963 355.844 535.852 374.262 526.034 388.832Z" stroke="#212121"/>
<path d="M505.013 388.683L504.748 389.076C487.961 413.987 479.115 427.113 473.623 439.601C468.094 452.172 465.968 464.086 462.514 486.653C460.807 497.811 455.482 506.096 447.832 511.956C440.171 517.825 430.156 521.278 419.06 522.71C396.862 525.575 370.469 520.332 350.353 510.365C347.777 509.089 345.236 507.835 342.73 506.599C312.578 491.728 287.704 479.46 271.536 461.317C254.078 441.727 246.734 415.224 254.162 370.959C257.874 348.837 264.491 333.735 273.355 322.964C282.217 312.195 293.358 305.714 306.199 300.891C315.817 297.279 326.357 294.608 337.595 291.76C341.383 290.8 345.25 289.82 349.188 288.777C364.791 284.645 381.457 279.535 398.536 270.79C432.301 253.501 467.324 270.371 489.757 297.999C500.964 311.802 508.988 328.252 512.099 344.369C515.211 360.486 513.404 376.231 505.013 388.683Z" stroke="#212121"/>
<path d="M484.184 388.534L483.957 388.871C469.973 409.621 462.598 420.566 458.018 430.979C453.406 441.467 451.632 451.406 448.755 470.21C447.335 479.486 442.91 486.372 436.551 491.242C430.182 496.121 421.851 498.995 412.615 500.187C394.134 502.572 372.157 498.207 355.406 489.908C353.261 488.845 351.145 487.801 349.059 486.772C323.926 474.376 303.213 464.16 289.751 449.054C275.225 432.754 269.105 410.697 275.292 373.824C278.384 355.399 283.894 342.829 291.269 333.868C298.641 324.909 307.911 319.514 318.604 315.499C326.614 312.491 335.391 310.267 344.755 307.894C347.912 307.093 351.136 306.276 354.42 305.407C367.425 301.962 381.32 297.702 395.56 290.411C423.647 276.029 452.793 290.055 471.475 313.063C480.807 324.557 487.486 338.252 490.076 351.668C492.667 365.084 491.161 378.181 484.184 388.534Z" stroke="#212121"/>
<path d="M340.607 428.656L365.389 454L399.369 444.528M340.607 428.656L349.293 394.608M340.607 428.656L374.331 419.952M349.293 394.608L383.529 385.136M349.293 394.608L324 369.264M383.529 385.136L374.331 419.952M383.529 385.136L408.822 410.48M383.529 385.136L392.727 350.832M383.529 385.136L358.236 360.56M383.529 385.136L418.02 376.176M374.331 419.952L399.369 444.528M399.369 444.528L408.822 410.48M408.822 410.48L442.802 401.264M392.727 350.832L367.689 326M392.727 350.832L426.962 341.872M367.689 326L358.236 360.56M367.689 326L333.709 335.216L324 369.264M358.236 360.56L324 369.264M426.962 341.872L418.02 376.176M426.962 341.872L452 367.216L442.802 401.264M418.02 376.176L442.802 401.264" stroke="#FDDD0A" stroke-width="1.5" stroke-linecap="round" stroke-linejoin="round"/>
</svg>
