<svg width="134" height="52" viewBox="0 0 134 52" fill="none" xmlns="http://www.w3.org/2000/svg">
<g clip-path="url(#clip0_115_689)">
<path fill-rule="evenodd" clip-rule="evenodd" d="M109.494 45.6105L108.263 47.9755L107.033 45.6105H106.19L107.883 48.6453V50.5903H108.624V48.5403H108.699L110.336 45.6077L109.494 45.6105ZM93.522 49.264C93.3608 49.4877 93.147 49.6683 92.8994 49.7901C92.6518 49.9119 92.3782 49.971 92.1025 49.9621C91.6165 49.9467 91.1557 49.7429 90.8175 49.3938C90.4791 49.0448 90.29 48.5779 90.29 48.0919C90.29 47.6059 90.4791 47.1391 90.8175 46.7899C91.1557 46.4409 91.6165 46.2371 92.1025 46.2217C92.4033 46.2111 92.7015 46.2816 92.9655 46.4259C93.1874 46.5477 93.3781 46.719 93.523 46.9264L94.1694 46.5566C93.9378 46.2268 93.6291 45.9585 93.2702 45.775C92.9113 45.5915 92.513 45.4984 92.11 45.5037C91.767 45.4946 91.4259 45.5556 91.1073 45.6828C90.7887 45.8099 90.4994 46.0007 90.257 46.2433C90.0147 46.4859 89.8243 46.7755 89.6974 47.094C89.5707 47.4127 89.5103 47.7538 89.5197 48.0966C89.5122 48.4389 89.5741 48.7789 89.7018 49.0966C89.8295 49.4142 90.0202 49.7027 90.2624 49.9446C90.5047 50.1865 90.7934 50.3767 91.1114 50.504C91.4292 50.6313 91.7695 50.6927 92.1119 50.6849C92.5159 50.692 92.9155 50.6 93.2757 50.4169C93.6359 50.2338 93.9456 49.9653 94.1779 49.6349L93.522 49.264ZM76.3146 45.6086V49.1325L73.8455 45.6086H73.272V50.5998H74.014V47.0636L76.485 50.5998H77.0585V45.6086H76.3146ZM58.2944 49.8846V48.424H60.2818V47.7286H58.2944V46.3191H60.471V45.6086H57.5373V50.5998H60.5089V49.8893L58.2944 49.8846ZM42.641 48.0455V48.6822H44.3009L44.2442 48.8658C44.0265 49.5658 43.416 49.9679 42.5699 49.9679C41.4343 49.9679 40.6337 49.2035 40.6337 48.109C40.6248 47.8608 40.6671 47.6136 40.7575 47.3824C40.848 47.1512 40.9849 46.941 41.1597 46.7648C41.3346 46.5885 41.5437 46.4499 41.7742 46.3574C42.0046 46.2649 42.2516 46.2207 42.4999 46.2273C42.7788 46.2175 43.056 46.2743 43.3085 46.3931C43.561 46.5119 43.7815 46.6893 43.9517 46.9104L44.5943 46.5395C44.3685 46.2305 44.0757 45.9767 43.7378 45.7968C43.3559 45.5922 42.9274 45.4901 42.4943 45.5008H42.4479C42.102 45.5002 41.7594 45.5686 41.4403 45.7019C41.1212 45.8353 40.8319 46.0309 40.5893 46.2774C40.3468 46.5239 40.1558 46.8162 40.0277 47.1374C39.8995 47.4586 39.8368 47.8021 39.8432 48.1478C39.8494 48.4934 39.9246 48.8344 40.0644 49.1506C40.2041 49.4669 40.4056 49.7522 40.657 49.9896C40.9083 50.2271 41.2046 50.4122 41.5283 50.5338C41.8521 50.6554 42.1969 50.7114 42.5425 50.6982C44.0094 50.6982 44.9909 49.7389 44.9909 48.3114V48.0455H42.641ZM26.2323 45.6086H25.1515L23.4102 50.5998H24.2288L24.5439 49.6538H26.8455L27.1607 50.5998H27.9831L26.2323 45.6086ZM24.7796 48.9594L25.7004 46.216L26.6175 48.9594H24.7796Z" fill="#FDDD0A"/>
<path d="M42.1426 0.0342583V36.1083H51.178V0L42.1426 0.0342583Z" fill="#FDDD0A"/>
<path d="M98.3329 0H87.7979L77.2617 21.3024L66.7307 0H56.1895L73.8667 36.1083H80.6567L98.3329 0Z" fill="#FDDD0A"/>
<path fill-rule="evenodd" clip-rule="evenodd" d="M115.153 0.000623611C110.937 0.021221 106.861 1.5026 103.616 4.19219C100.371 6.88177 98.1605 10.613 97.3604 14.7497C96.5603 18.8864 97.2206 23.1724 99.2284 26.877C101.236 30.5816 104.468 33.4752 108.371 35.0647C112.275 36.6542 116.609 36.8408 120.635 35.5932C124.661 34.3454 128.129 31.7404 130.448 28.2223C132.768 24.7042 133.795 20.4909 133.354 16.3006C132.913 12.1105 131.032 8.20292 128.03 5.24423C126.337 3.56305 124.327 2.23404 122.116 1.33402C119.907 0.43399 117.54 -0.0192046 115.153 0.000623611ZM115.153 27.0771C112.771 27.0758 110.489 26.1293 108.806 24.4458C107.124 22.7623 106.179 20.4797 106.179 18.0999C106.18 15.7201 107.126 13.438 108.81 11.7555C110.494 10.0731 112.777 9.12788 115.158 9.12788C117.539 9.12788 119.821 10.0731 121.506 11.7555C123.189 13.438 124.135 15.7201 124.136 18.0999C124.137 20.4797 123.192 22.7623 121.509 24.4458C119.826 26.1293 117.544 27.0758 115.163 27.0771H115.153Z" fill="#FDDD0A"/>
<path fill-rule="evenodd" clip-rule="evenodd" d="M36.1186 13.0389C36.1186 18.7487 32.3278 23.605 27.051 25.3688L32.4472 36.1083H21.9516L12.3512 17.0513H12.3782L12.3273 16.9475H23.4711C25.7008 16.9475 27.509 15.1962 27.509 13.0358C27.509 10.8755 25.7008 9.12414 23.4711 9.12414H7.50218L3.00938 0H22.664C30.0949 0 36.1186 5.83846 36.1186 13.0389ZM5.01276 26.0789C3.85227 26.0797 2.72797 26.4827 1.83139 27.2192C0.934809 27.9557 0.321434 28.9801 0.0957655 30.118C-0.129903 31.2558 0.0460962 32.4368 0.593777 33.4595C1.14146 34.4821 2.02694 35.2835 3.09935 35.7267C4.17176 36.1699 5.36476 36.2279 6.47509 35.8905C7.58541 35.5531 8.54437 34.8415 9.18858 33.8765C9.83279 32.9116 10.1224 31.7534 10.0081 30.599C9.89371 29.4447 9.3825 28.3656 8.56151 27.5458C8.09563 27.0799 7.54235 26.7105 6.93339 26.4588C6.32442 26.2071 5.67174 26.078 5.01276 26.0789Z" fill="#FDDD0A"/>
</g>
<defs>
<clipPath id="clip0_115_689">
<rect width="133.487" height="52" fill="white"/>
</clipPath>
</defs>
</svg>
