<svg width="113" height="32" viewBox="0 0 113 32" fill="none" xmlns="http://www.w3.org/2000/svg">
<path d="M29.2949 0H34.478V31.9998H29.2949V0Z" fill="white"/>
<path d="M52.5076 21.8581C52.5076 26.8158 48.4513 27.2665 47.0992 27.2665C43.9443 27.2665 43.4936 24.337 43.4936 22.7595V10.3652H38.3105V22.5342C38.3105 25.4637 39.2119 28.1679 41.0148 29.7454C42.5922 31.3228 44.6204 31.9989 47.0992 31.9989C48.902 31.9989 51.1555 31.5482 52.5076 30.1961V31.9989H57.6907V10.3652H52.5076V21.8581Z" fill="white"/>
<path d="M67.8304 2.47852H62.6474V10.3658H58.8164V15.3235H62.6474V31.9994H67.8304V15.3235H71.6614V10.3658H67.8304V2.47852Z" fill="white"/>
<path d="M87.8863 25.4652C86.7596 26.3666 85.1821 27.0427 83.6047 27.0427C79.9991 27.0427 77.5202 24.3385 77.5202 20.7328C77.5202 17.1272 79.9991 14.6484 83.6047 14.6484C85.1821 14.6484 86.7596 15.0991 87.8863 16.2258L88.5624 16.9019L92.168 13.5216L91.2666 12.8456C89.2385 11.0428 86.5342 9.91602 83.6047 9.91602C77.2949 9.91602 72.5625 14.6484 72.5625 20.9582C72.5625 27.268 77.2949 32.0004 83.6047 32.0004C86.5342 32.0004 89.2385 30.8736 91.2666 29.0708L92.168 28.3948L88.5624 24.7892L87.8863 25.4652Z" fill="white"/>
<path d="M110.421 12.1689C108.844 10.5915 107.266 9.91543 104.787 9.91543C102.984 9.91543 101.182 10.3661 99.8295 11.7182V0H94.6465V31.9998H99.8295V20.0562C99.8295 15.0985 103.21 14.6478 104.562 14.6478C107.717 14.6478 107.491 17.5774 107.491 19.1548V31.7744H112.675V19.3802C112.675 16.4506 111.998 13.7464 110.421 12.1689Z" fill="white"/>
<path d="M22.0844 24.1123C20.2816 25.9151 17.5774 27.0419 14.6478 27.0419C9.01403 27.0419 4.95771 22.5349 4.95771 16.4504C4.95771 10.3659 9.01402 5.85893 14.8731 5.85893C17.5773 5.85893 20.2816 6.98568 22.3097 9.01384L22.9858 9.68989L26.366 6.30963L25.69 5.63358C22.7604 2.70402 18.9295 1.12657 14.8731 1.12657C6.30982 0.901216 0 7.66174 0 16.4504C0 25.2391 6.30982 31.9996 14.6478 31.9996C18.7041 31.9996 22.7604 30.4222 25.4646 27.4926L26.1407 26.8165L22.7604 23.4363L22.0844 24.1123Z" fill="white"/>
<path d="M83.3791 24.5647C85.3704 24.5647 86.9847 22.9505 86.9847 20.9591C86.9847 18.9678 85.3704 17.3535 83.3791 17.3535C81.3877 17.3535 79.7734 18.9678 79.7734 20.9591C79.7734 22.9505 81.3877 24.5647 83.3791 24.5647Z" fill="#EF4335"/>
</svg>
