<svg width="496" height="860" viewBox="0 0 496 860" fill="none" xmlns="http://www.w3.org/2000/svg">
<path d="M740.463 488.11L739.691 488.908C685.708 544.624 657.345 573.897 637.782 603.054C618.115 632.367 607.347 661.554 588.349 717.296C578.892 745.047 561.478 763.829 539.222 775.333C516.953 786.844 489.81 791.082 460.898 789.685C403.066 786.891 338.285 761.557 291.619 727.055C285.645 722.638 279.747 718.294 273.932 714.012C204.164 662.628 146.444 620.117 113.531 566.591C77.9172 508.672 71.3248 437.787 110.293 328.626C129.774 274.056 153.482 238.578 181.003 215.132C208.52 191.688 239.89 180.239 274.761 173.799C300.865 168.978 328.897 166.968 358.734 164.829C368.778 164.109 379.027 163.374 389.475 162.512C430.942 159.092 475.505 153.677 522.751 139.236C616.82 110.486 698.42 169.554 742.944 250.026C765.2 290.25 778.159 335.776 778.758 378.25C779.356 420.725 767.596 460.107 740.463 488.11Z" stroke="#212121"/>
<path d="M727.206 485.646L726.463 486.413C674.741 539.796 647.564 567.845 628.818 595.784C609.972 623.873 599.654 651.841 581.451 705.251C572.391 731.836 555.71 749.827 534.389 760.848C513.056 771.875 487.053 775.936 459.353 774.597C403.946 771.92 341.878 747.648 297.168 714.592C291.444 710.36 285.793 706.198 280.222 702.095C213.372 652.86 158.07 612.13 126.537 560.847C92.4171 505.359 86.0994 437.446 123.436 332.856C142.1 280.572 164.816 246.581 191.181 224.12C217.543 201.66 247.597 190.691 281.007 184.521C306.017 179.902 332.875 177.976 361.463 175.926C371.087 175.236 380.907 174.532 390.919 173.706C430.652 170.43 473.352 165.24 518.623 151.404C608.743 123.86 686.92 180.447 729.58 257.548C750.903 296.086 763.318 339.704 763.892 380.397C764.466 421.091 753.198 458.819 727.206 485.646Z" stroke="#212121"/>
<path d="M714.893 483.359L714.18 484.095C664.556 535.312 638.48 562.226 620.493 589.034C602.41 615.986 592.509 642.823 575.044 694.067C566.353 719.569 550.352 736.827 529.9 747.398C509.437 757.976 484.491 761.872 457.917 760.588C404.761 758.02 345.214 734.733 302.319 703.019C296.828 698.959 291.406 694.966 286.061 691.03C221.921 643.79 168.864 604.714 138.612 555.514C105.88 502.283 99.817 437.131 135.638 336.785C153.545 286.623 175.338 254.014 200.631 232.466C225.921 210.92 254.752 200.397 286.805 194.477C310.8 190.046 336.567 188.198 363.996 186.231C373.23 185.569 382.652 184.894 392.258 184.102C430.38 180.958 471.351 175.978 514.789 162.702C601.241 136.279 676.241 190.563 717.168 264.533C737.625 301.506 749.536 343.353 750.087 382.392C750.637 421.432 739.827 457.625 714.893 483.359Z" stroke="#212121"/>
<path d="M700.454 480.675L699.773 481.378C652.612 530.054 627.826 555.635 610.73 581.116C593.541 606.736 584.13 632.245 567.531 680.949C559.273 705.18 544.069 721.578 524.637 731.622C505.192 741.673 481.488 745.376 456.234 744.155C405.718 741.715 349.127 719.584 308.362 689.445C303.143 685.586 297.991 681.792 292.911 678.051C231.948 633.152 181.526 596.015 152.775 549.258C121.671 498.674 115.908 436.76 149.952 341.392C166.97 293.719 187.68 262.731 211.715 242.254C235.747 221.78 263.145 211.78 293.607 206.154C316.411 201.943 340.899 200.187 366.968 198.318C375.744 197.688 384.7 197.046 393.831 196.293C430.064 193.305 469.006 188.573 510.293 175.954C592.444 150.845 663.716 202.427 702.612 272.725C722.053 307.863 733.373 347.631 733.896 384.731C734.419 421.831 724.146 456.223 700.454 480.675Z" stroke="#212121"/>
<path d="M686.3 478.045L685.651 478.715C640.903 524.9 617.384 549.174 601.16 573.354C584.847 597.668 575.916 621.877 560.166 668.09C552.332 691.077 537.91 706.631 519.477 716.159C501.032 725.694 478.544 729.206 454.584 728.049C406.656 725.733 352.962 704.736 314.285 676.14C309.333 672.479 304.444 668.878 299.625 665.329C241.776 622.724 193.936 587.489 166.658 543.127C137.149 495.136 131.678 436.396 163.981 345.908C180.128 300.674 199.778 271.274 222.579 251.848C245.379 232.425 271.371 222.937 300.273 217.599C321.91 213.603 345.144 211.937 369.88 210.164C378.208 209.567 386.706 208.957 395.371 208.243C429.753 205.407 466.706 200.916 505.886 188.942C583.821 165.122 651.439 214.055 688.344 280.755C706.79 314.093 717.529 351.824 718.025 387.023C718.522 422.222 708.775 454.848 686.3 478.045Z" stroke="#212121"/>
<path d="M670.99 475.2L670.376 475.834C628.238 519.324 606.088 542.186 590.808 564.959C575.444 587.859 567.032 610.661 552.2 654.18C544.825 675.82 531.249 690.462 513.897 699.431C496.532 708.407 475.361 711.715 452.8 710.625C407.672 708.444 357.114 688.673 320.694 661.747C316.031 658.299 311.428 654.909 306.89 651.567C252.412 611.443 207.364 578.265 181.679 536.494C153.896 491.311 148.742 436.004 179.16 350.794C194.365 308.2 212.867 280.519 234.335 262.229C255.8 243.942 280.273 235.009 307.487 229.983C327.861 226.22 349.739 224.651 373.033 222.981C380.876 222.419 388.879 221.845 397.04 221.172C429.418 218.502 464.221 214.272 501.119 202.995C574.494 180.569 638.159 226.636 672.91 289.443C690.278 320.834 700.391 356.362 700.858 389.504C701.325 422.646 692.148 453.363 670.99 475.2Z" stroke="#212121"/>
<path d="M655.04 472.235L654.463 472.83C615.045 513.515 594.32 534.904 580.024 556.212C565.647 577.64 557.777 598.976 543.901 639.69C537.004 659.926 524.309 673.617 508.082 682.005C491.844 690.399 472.043 693.493 450.941 692.473C408.729 690.434 361.435 671.94 327.368 646.753C323.007 643.528 318.7 640.356 314.456 637.23C263.487 599.691 221.348 568.656 197.322 529.583C171.337 487.323 166.514 435.593 194.969 355.882C209.193 316.037 226.5 290.146 246.578 273.04C266.654 255.937 289.543 247.581 314.999 242.879C334.058 239.359 354.523 237.892 376.315 236.33C383.652 235.803 391.14 235.267 398.776 234.637C429.068 232.139 461.629 228.182 496.153 217.63C564.777 196.656 624.325 239.739 656.831 298.49C673.078 327.854 682.537 361.086 682.974 392.086C683.411 423.086 674.827 451.813 655.04 472.235Z" stroke="#212121"/>
<path d="M638.76 469.211L638.219 469.768C601.577 507.587 582.308 527.475 569.016 547.286C555.647 567.212 548.329 587.051 535.429 624.901C529.02 643.706 517.224 656.427 502.147 664.22C487.057 672.02 468.656 674.896 449.042 673.949C409.806 672.053 365.846 654.862 334.179 631.45C330.125 628.453 326.122 625.505 322.177 622.599C274.79 587.699 235.621 558.85 213.289 522.531C189.139 483.256 184.653 435.175 211.104 361.077C224.326 324.039 240.413 299.974 259.073 284.076C277.731 268.181 299.003 260.415 322.665 256.045C340.382 252.773 359.405 251.409 379.663 249.956C386.485 249.467 393.447 248.968 400.547 248.382C428.71 246.06 458.984 242.381 491.083 232.57C554.857 213.078 610.203 253.115 640.419 307.727C655.521 335.021 664.313 365.91 664.719 394.723C665.125 423.537 657.147 450.233 638.76 469.211Z" stroke="#212121"/>
<path d="M622.223 466.137L621.72 466.656C587.897 501.564 570.107 519.925 557.834 538.217C545.49 556.616 538.732 574.936 526.824 609.876C520.912 627.226 510.029 638.962 496.119 646.152C482.197 653.348 465.217 656.003 447.115 655.128C410.903 653.379 370.328 637.512 341.101 615.904C337.359 613.137 333.664 610.416 330.023 607.734C286.276 575.514 250.123 548.887 229.511 515.366C207.225 479.122 203.082 434.75 227.498 366.353C239.702 332.166 254.549 309.957 271.769 295.287C288.986 280.619 308.616 273.451 330.456 269.418C346.809 266.398 364.366 265.139 383.067 263.798C389.365 263.346 395.793 262.886 402.348 262.345C428.347 260.201 456.298 256.804 485.934 247.747C544.782 229.76 595.859 266.702 623.749 317.109C637.687 342.301 645.801 370.81 646.176 397.401C646.55 423.993 639.187 448.627 622.223 466.137Z" stroke="#212121"/>
<path d="M603.612 462.677L603.152 463.152C572.502 494.785 556.376 511.429 545.251 528.011C534.059 544.692 527.933 561.301 517.141 592.967C511.786 608.679 501.931 619.306 489.335 625.817C476.727 632.334 461.347 634.74 444.946 633.947C412.138 632.362 375.373 617.986 348.891 598.407C345.5 595.9 342.152 593.435 338.853 591.004C299.202 561.801 266.443 537.674 247.768 507.302C227.58 474.47 223.822 434.271 245.948 372.291C257.006 341.311 270.458 321.191 286.057 307.902C301.652 294.616 319.435 288.122 339.224 284.468C354.041 281.731 369.95 280.59 386.898 279.375C392.607 278.966 398.433 278.548 404.375 278.058C427.94 276.115 453.276 273.036 480.14 264.826C533.444 248.534 579.716 281.993 604.988 327.667C617.617 350.493 624.968 376.323 625.308 400.415C625.647 424.507 618.976 446.819 603.612 462.677Z" stroke="#212121"/>
<path d="M586.763 459.547L586.341 459.983C558.564 488.651 543.945 503.74 533.858 518.773C523.71 533.899 518.155 548.959 508.374 577.661C503.524 591.892 494.599 601.515 483.193 607.411C471.774 613.313 457.842 615.493 442.981 614.775C413.254 613.339 379.938 600.312 355.941 582.57C352.868 580.298 349.835 578.064 346.845 575.862C310.902 549.389 281.217 527.526 264.294 500.004C246.005 470.261 242.596 433.84 262.648 377.668C272.671 349.593 284.86 331.364 298.99 319.326C313.118 307.29 329.228 301.406 347.16 298.095C360.588 295.615 375.004 294.581 390.365 293.48C395.54 293.109 400.822 292.73 406.209 292.286C427.57 290.524 450.538 287.733 474.893 280.29C523.179 265.532 565.101 295.838 588.002 337.228C599.446 357.911 606.107 381.317 606.415 403.145C606.722 424.974 600.678 445.185 586.763 459.547Z" stroke="#212121"/>
<path d="M567.114 455.895L566.737 456.283C542.31 481.494 529.448 494.77 520.573 507.997C511.641 521.309 506.754 534.564 498.15 559.809C493.889 572.311 486.05 580.763 476.03 585.942C465.999 591.128 453.756 593.044 440.692 592.413C414.557 591.15 385.264 579.697 364.164 564.097C361.463 562.1 358.795 560.135 356.167 558.199C324.548 534.911 298.447 515.687 283.568 491.49C267.494 465.349 264.492 433.334 282.126 383.937C290.939 359.249 301.656 343.225 314.074 332.645C326.49 322.067 340.649 316.895 356.415 313.983C368.223 311.803 380.899 310.894 394.409 309.925C398.962 309.599 403.609 309.265 408.349 308.874C427.139 307.325 447.347 304.87 468.775 298.32C511.208 285.351 548.058 311.98 568.195 348.375C578.257 366.56 584.112 387.138 584.383 406.326C584.653 425.516 579.34 443.276 567.114 455.895Z" stroke="#212121"/>
<path d="M546.445 452.055L546.116 452.395C525.213 473.969 514.198 485.338 506.598 496.666C498.946 508.07 494.759 519.425 487.395 541.034C483.754 551.718 477.056 558.939 468.495 563.364C459.922 567.795 449.456 569.435 438.281 568.895C415.925 567.815 390.864 558.017 372.812 544.671C370.5 542.961 368.219 541.281 365.97 539.624C338.899 519.686 316.568 503.239 303.839 482.538C290.094 460.185 287.521 432.804 302.611 390.532C310.152 369.407 319.32 355.702 329.938 346.656C340.554 337.612 352.661 333.189 366.149 330.698C376.252 328.832 387.097 328.054 398.661 327.225C402.559 326.946 406.538 326.66 410.598 326.326C426.684 324.999 443.989 322.897 462.339 317.288C498.616 306.201 530.13 328.962 547.359 360.101C555.967 375.659 560.976 393.262 561.208 409.675C561.439 426.089 556.894 441.271 546.445 452.055Z" stroke="#212121"/>
<path d="M525.969 448.249L525.686 448.541C508.274 466.512 499.091 475.99 492.753 485.437C486.369 494.951 482.877 504.423 476.741 522.43C473.713 531.312 468.147 537.313 461.032 540.991C453.905 544.675 445.198 546.04 435.896 545.591C417.284 544.692 396.415 536.533 381.384 525.42C379.458 523.997 377.558 522.597 375.686 521.218C353.121 504.598 334.526 490.902 323.927 473.666C312.491 455.067 310.341 432.278 322.911 397.066C329.193 379.471 336.825 368.064 345.66 360.538C354.491 353.014 364.565 349.332 375.797 347.258C384.211 345.704 393.242 345.056 402.877 344.366C406.126 344.133 409.443 343.895 412.829 343.615C426.237 342.51 440.664 340.757 455.964 336.081C486.141 326.858 512.369 345.787 526.717 371.719C533.885 384.673 538.054 399.33 538.247 412.992C538.44 426.655 534.656 439.283 525.969 448.249Z" stroke="#212121"/>
</svg>
