<svg width="457" height="940" viewBox="0 0 457 940" fill="none" xmlns="http://www.w3.org/2000/svg">
<path d="M315.792 470.452L315.101 471.321C266.811 532.038 241.44 563.938 224.815 594.865C208.101 625.957 200.231 656.055 186.763 713.385C173.35 770.476 119.551 810.967 59.1661 821.779C-1.19747 832.587 -68.0179 813.71 -107.436 752.205C-127.244 721.298 -153.041 694.838 -179.812 669.539C-186.799 662.935 -193.851 656.413 -200.88 649.911C-220.798 631.487 -240.536 613.231 -258.107 593.787C-281.871 567.491 -301.634 539.063 -312.456 505.206C-323.276 471.356 -325.17 432.041 -313.139 383.954C-301.102 335.842 -284.287 304.261 -262.574 282.598C-240.863 260.937 -214.21 249.147 -182.401 240.701C-161.607 235.179 -138.65 231.095 -113.45 226.612C-100.073 224.233 -86.0632 221.74 -71.41 218.861C-29.1783 210.562 18.3269 199.059 71.2501 177.782C124.031 156.563 171.763 156.62 212.154 170.525C252.551 184.431 285.639 212.201 309.101 246.459C356.044 315.004 364.367 409.376 315.792 470.452Z" stroke="#212121"/>
<path d="M302.789 470.412L302.124 471.248C255.807 529.484 231.47 560.084 215.523 589.75C199.49 619.576 191.941 648.448 179.022 703.438C166.159 758.189 114.564 797.023 56.6492 807.392C-1.24419 817.758 -65.3284 799.654 -103.132 740.667C-122.133 711.019 -146.879 685.638 -172.557 661.371C-179.26 655.037 -186.024 648.78 -192.767 642.543C-211.872 624.872 -230.803 607.362 -247.656 588.712C-270.449 563.491 -289.403 536.225 -299.782 503.754C-310.16 471.289 -311.977 433.584 -300.437 387.462C-288.892 341.316 -272.765 311.027 -251.942 290.252C-231.121 269.478 -205.558 258.171 -175.05 250.07C-155.105 244.774 -133.086 240.857 -108.916 236.557C-96.0842 234.275 -82.6461 231.884 -68.5901 229.122C-28.0812 221.162 17.4865 210.128 68.2513 189.719C118.874 169.368 164.652 169.423 203.39 182.758C242.134 196.095 273.868 222.728 296.37 255.585C341.394 321.328 349.374 411.838 302.789 470.412Z" stroke="#212121"/>
<path d="M288.985 470.368L288.349 471.167C244.126 526.771 220.887 555.989 205.659 584.317C190.349 612.799 183.14 640.369 170.805 692.874C158.526 745.14 109.271 782.215 53.9794 792.115C-1.29119 802.011 -62.4701 784.727 -98.5601 728.414C-116.704 700.104 -140.334 675.868 -164.852 652.697C-171.252 646.648 -177.711 640.674 -184.15 634.718C-202.391 617.846 -220.465 601.128 -236.556 583.322C-258.318 559.241 -276.414 533.211 -286.323 502.211C-296.23 471.217 -297.965 435.219 -286.948 391.185C-275.925 347.126 -260.528 318.21 -240.65 298.377C-220.773 278.546 -196.37 267.751 -167.242 260.017C-148.199 254.96 -127.176 251.221 -104.099 247.115C-91.8467 244.936 -79.0153 242.653 -65.5932 240.015C-26.9137 232.415 16.5967 221.879 65.0697 202.391C113.4 182.961 157.105 183.014 194.087 195.745C231.075 208.478 261.372 233.904 282.855 265.273C325.841 328.041 333.458 414.45 288.985 470.368Z" stroke="#212121"/>
<path d="M274.613 470.322L274.005 471.087C231.963 523.948 209.868 551.728 195.39 578.663C180.832 605.744 173.978 631.96 162.25 681.878C150.579 731.557 103.76 766.8 51.199 776.211C-1.34115 785.619 -59.4955 769.188 -93.8013 715.66C-111.053 688.741 -133.521 665.697 -156.832 643.667C-162.917 637.917 -169.058 632.236 -175.179 626.575C-192.522 610.533 -209.705 594.639 -225.003 577.711C-245.691 554.818 -262.893 530.073 -272.312 500.604C-281.73 471.142 -283.38 436.922 -272.906 395.062C-262.427 353.176 -247.79 325.689 -228.895 306.837C-210.002 287.987 -186.805 277.725 -159.114 270.372C-141.01 265.565 -121.025 262.01 -99.0851 258.107C-87.4363 256.035 -75.2364 253.864 -62.4744 251.356C-25.6994 244.13 15.6694 234.113 61.7566 215.584C107.701 197.114 149.247 197.165 184.401 209.266C219.562 221.37 248.362 245.54 268.784 275.36C309.648 335.029 316.887 417.17 274.613 470.322Z" stroke="#212121"/>
<path d="M260.744 470.277L260.165 471.005C220.226 521.221 199.235 547.615 185.479 573.204C171.647 598.935 165.135 623.843 153.994 671.266C142.909 718.449 98.4413 751.925 48.5146 760.864C-1.39092 769.799 -56.6268 754.193 -89.211 703.351C-105.602 677.775 -126.948 655.882 -149.094 634.953C-154.875 629.489 -160.71 624.093 -166.525 618.713C-183 603.474 -199.323 588.376 -213.855 572.296C-233.508 550.549 -249.848 527.043 -258.795 499.053C-267.74 471.069 -269.307 438.565 -259.358 398.801C-249.403 359.011 -235.5 332.903 -217.554 314.998C-199.609 297.095 -177.578 287.348 -151.273 280.363C-134.075 275.797 -115.091 272.42 -94.2485 268.712C-83.182 266.743 -71.5915 264.681 -59.4664 262.298C-24.5291 255.433 14.773 245.916 58.558 228.314C102.201 210.768 141.663 210.817 175.054 222.312C208.45 233.808 235.807 256.766 255.205 285.092C294.022 341.772 300.895 419.793 260.744 470.277Z" stroke="#212121"/>
<path d="M246.334 470.232L245.784 470.923C208.032 518.39 188.187 543.342 175.182 567.535C162.105 591.862 155.948 615.411 145.417 660.24C134.941 704.829 92.9164 736.469 45.7275 744.918C-1.44014 753.363 -53.6433 738.612 -84.4384 690.562C-99.9352 666.382 -120.116 645.684 -141.051 625.899C-146.516 620.734 -152.032 615.632 -157.53 610.547C-173.104 596.142 -188.532 581.871 -202.269 566.67C-220.846 546.114 -236.289 523.898 -244.745 497.443C-253.199 470.994 -254.681 440.273 -245.277 402.688C-235.867 365.078 -222.726 340.402 -205.766 323.481C-188.808 306.562 -167.986 297.349 -143.122 290.747C-126.866 286.431 -108.922 283.239 -89.2204 279.734C-78.7588 277.873 -67.8016 275.923 -56.3383 273.671C-23.3106 267.181 13.844 258.184 55.2367 241.543C96.4871 224.959 133.785 225.006 165.342 235.87C196.907 246.735 222.762 268.434 241.097 295.206C277.787 348.78 284.28 422.521 246.334 470.232Z" stroke="#212121"/>
<path d="M232.786 470.187L232.264 470.845C196.567 515.727 177.8 539.323 165.502 562.202C153.134 585.21 147.311 607.482 137.352 649.872C127.45 692.023 87.7217 721.936 43.1068 729.924C-1.487 737.909 -50.8389 723.963 -79.9522 678.537C-94.608 655.669 -113.693 636.095 -133.49 617.386C-138.659 612.501 -143.875 607.676 -149.073 602.868C-163.8 589.246 -178.388 575.752 -191.377 561.38C-208.942 541.943 -223.543 520.938 -231.537 495.927C-239.53 470.923 -240.931 441.877 -232.04 406.341C-223.143 370.779 -210.718 347.451 -194.685 331.454C-178.654 315.46 -158.97 306.75 -135.46 300.508C-120.089 296.426 -103.123 293.408 -84.4938 290.094C-74.601 288.334 -64.2391 286.491 -53.398 284.36C-22.1656 278.223 12.9701 269.715 52.1137 253.979C91.115 238.299 126.377 238.344 156.212 248.614C186.053 258.887 210.498 279.401 227.833 304.713C262.523 355.367 268.659 425.084 232.786 470.187Z" stroke="#212121"/>
<path d="M220.012 470.146L219.515 470.771C185.757 513.216 168.006 535.535 156.373 557.175C144.674 578.939 139.167 600.007 129.748 640.097C120.386 679.949 82.823 708.234 40.635 715.788C-1.53185 723.338 -48.1955 710.151 -75.7229 667.199C-89.5857 645.568 -107.638 627.054 -126.361 609.359C-131.25 604.739 -136.184 600.176 -141.101 595.627C-155.029 582.745 -168.825 569.984 -181.108 556.392C-197.719 538.011 -211.525 518.148 -219.084 494.499C-226.642 470.856 -227.968 443.391 -219.56 409.785C-211.145 376.155 -199.396 354.097 -184.238 338.973C-169.08 323.85 -150.469 315.615 -128.237 309.711C-113.7 305.852 -97.6562 302.997 -80.0379 299.863C-70.6813 298.199 -60.8808 296.455 -50.6263 294.44C-21.0867 288.636 12.1454 280.589 49.1684 265.704C86.049 250.878 119.392 250.92 147.603 260.631C175.819 270.345 198.934 289.742 215.326 313.678C248.13 361.578 253.929 427.5 220.012 470.146Z" stroke="#212121"/>
<path d="M208.37 470.111L207.898 470.705C175.906 510.93 159.081 532.085 148.055 552.596C136.965 573.226 131.745 593.197 122.818 631.192C113.948 668.948 78.3589 695.75 38.3826 702.907C-1.5726 710.061 -45.7863 697.566 -71.8685 656.869C-85.0087 636.366 -102.119 618.817 -119.865 602.047C-124.499 597.667 -129.175 593.342 -133.835 589.032C-147.035 576.822 -160.109 564.73 -171.749 551.849C-187.491 534.43 -200.573 515.608 -207.736 493.199C-214.897 470.797 -216.153 444.772 -208.186 412.927C-200.212 381.057 -189.079 360.156 -174.716 345.827C-160.356 331.499 -142.722 323.695 -121.654 318.101C-107.878 314.443 -92.6739 311.739 -75.977 308.768C-67.1091 307.191 -57.8201 305.538 -48.1003 303.628C-20.1034 298.127 11.394 290.5 46.4844 276.393C81.4325 262.343 113.027 262.384 139.757 271.585C166.493 280.789 188.396 299.169 203.928 321.85C235.014 367.241 240.506 429.705 208.37 470.111Z" stroke="#212121"/>
<path d="M195.492 470.07L195.047 470.63C165.007 508.4 149.207 528.266 138.852 547.529C128.437 566.905 123.534 585.661 115.152 621.338C106.827 656.777 73.4202 681.937 35.8904 688.657C-1.61834 695.373 -43.122 683.643 -67.6056 645.44C-79.9465 626.184 -96.0159 609.704 -112.68 593.956C-117.031 589.843 -121.422 585.782 -125.798 581.734C-138.193 570.269 -150.468 558.915 -161.398 546.821C-176.178 530.466 -188.459 512.796 -195.183 491.76C-201.905 470.729 -203.086 446.298 -195.605 416.399C-188.119 386.476 -177.666 366.856 -164.185 353.406C-150.706 339.957 -134.153 332.631 -114.372 327.379C-101.438 323.945 -87.1632 321.405 -71.4856 318.616C-63.1583 317.135 -54.4352 315.583 -45.3067 313.789C-19.0163 308.623 10.5621 301.461 43.5148 288.213C76.3252 275.023 105.985 275.062 131.077 283.7C156.176 292.339 176.738 309.594 191.32 330.887C220.505 373.502 225.658 432.142 195.492 470.07Z" stroke="#212121"/>
<path d="M181.172 470.024L180.754 470.549C152.888 505.586 138.228 524.019 128.619 541.893C118.953 559.875 114.404 577.281 106.628 610.381C98.9076 643.242 67.9289 666.577 33.1198 672.809C-1.66822 679.038 -40.1581 668.159 -62.8639 632.73C-74.3159 614.861 -89.2272 599.569 -104.688 584.958C-108.726 581.141 -112.801 577.373 -116.861 573.617C-128.36 562.981 -139.746 552.449 -149.885 541.229C-163.596 526.058 -174.986 509.669 -181.223 490.159C-187.457 470.654 -188.552 447.994 -181.613 420.261C-174.668 392.504 -164.974 374.307 -152.472 361.835C-139.973 349.364 -124.622 342.569 -106.274 337.697C-94.2749 334.511 -81.034 332.156 -66.4899 329.568C-58.7638 328.194 -50.6699 326.754 -42.1991 325.09C-17.8063 320.296 9.63797 313.651 40.2134 301.359C70.6464 289.124 98.1551 289.161 121.426 297.172C144.703 305.185 163.774 321.188 177.299 340.937C204.37 380.465 209.145 434.852 181.172 470.024Z" stroke="#212121"/>
<path d="M167.162 469.978L166.773 470.466C141.032 502.831 127.486 519.863 118.608 536.379C109.676 552.995 105.472 569.08 98.2881 599.659C91.1604 629.998 62.5568 651.548 30.4095 657.304C-1.71663 663.056 -37.258 653.009 -58.2244 620.294C-68.8067 603.782 -82.5851 589.652 -96.8684 576.153C-100.6 572.627 -104.364 569.145 -108.116 565.675C-118.738 555.85 -129.256 546.121 -138.621 535.758C-151.285 521.744 -161.805 506.608 -167.564 488.591C-173.321 470.58 -174.333 449.653 -167.924 424.039C-161.509 398.399 -152.555 381.596 -141.013 370.08C-129.472 358.565 -115.298 352.291 -98.35 347.791C-87.2666 344.848 -75.0369 342.672 -61.6018 340.282C-54.4639 339.012 -46.9857 337.682 -39.1584 336.144C-16.6222 331.716 8.73422 325.576 36.9837 314.219C65.0909 302.919 90.4948 302.954 111.984 310.351C133.479 317.751 151.091 332.529 163.582 350.769C188.585 387.277 192.991 437.501 167.162 469.978Z" stroke="#212121"/>
<path d="M153.099 469.933L152.739 470.386C129.132 500.068 116.705 515.693 108.559 530.845C100.363 546.092 96.5064 560.852 89.9172 588.899C83.3841 616.707 57.1644 636.465 27.6888 641.742C-1.7657 647.016 -34.3476 637.804 -53.5682 607.814C-63.2777 592.664 -75.9189 579.7 -89.0207 567.318C-92.4441 564.083 -95.8974 560.889 -99.3385 557.706C-109.082 548.694 -118.727 539.772 -127.316 530.268C-138.93 517.416 -148.575 503.538 -153.855 487.019C-159.133 470.507 -160.061 451.32 -154.185 427.831C-148.302 404.318 -140.091 388.913 -129.511 378.357C-118.932 367.803 -105.939 362.05 -90.3975 357.923C-80.2329 355.224 -69.0182 353.229 -56.6961 351.037C-50.1486 349.873 -43.2884 348.652 -36.1068 347.241C-15.4342 343.179 7.82664 337.546 33.7417 327.128C59.5143 316.767 82.8057 316.8 102.506 323.581C122.213 330.365 138.361 343.914 149.814 360.638C172.741 394.115 176.776 440.163 153.099 469.933Z" stroke="#212121"/>
<path d="M139.037 469.888L138.705 470.306C117.231 497.305 105.923 511.523 98.5108 525.312C91.0508 539.19 87.5409 552.623 81.5463 578.139C75.6079 603.416 51.7721 621.381 24.9681 626.181C-1.81476 630.976 -31.4372 622.6 -48.912 595.333C-57.7486 581.545 -69.2527 569.748 -81.1731 558.483C-84.2884 555.539 -87.4307 552.632 -90.5617 549.736C-99.4253 541.537 -108.198 533.423 -116.011 524.778C-126.575 513.088 -135.345 500.467 -140.146 485.447C-144.945 470.434 -145.79 452.986 -140.445 431.624C-135.094 410.237 -127.628 396.231 -118.009 386.635C-108.393 377.04 -96.5804 371.809 -82.4451 368.056C-73.1992 365.601 -62.9995 363.786 -51.7905 361.792C-45.8333 360.733 -39.591 359.622 -33.0553 358.338C-14.2461 354.642 6.91911 349.517 30.4997 340.037C53.9378 330.614 75.1167 330.645 93.0289 336.811C110.948 342.979 125.631 355.299 136.046 370.508C156.897 400.953 160.562 442.824 139.037 469.888Z" stroke="#212121"/>
<path d="M126.211 469.849L125.906 470.233C106.378 494.786 96.0908 507.72 89.3468 520.266C82.5583 532.894 79.3647 545.118 73.9125 568.326C68.5164 591.295 46.8548 607.625 22.4876 611.988C-1.85843 616.347 -28.7816 608.733 -44.6642 583.951C-52.7046 571.405 -63.1715 560.672 -74.0143 550.425C-76.8486 547.746 -79.7072 545.102 -82.5553 542.468C-90.6168 535.011 -98.5939 527.633 -105.699 519.771C-115.305 509.141 -123.277 497.668 -127.641 484.015C-132.003 470.368 -132.772 454.507 -127.912 435.084C-123.047 415.637 -116.258 402.905 -107.518 394.185C-98.7792 385.466 -88.0436 380.711 -75.1907 377.298C-66.7828 375.066 -57.5089 373.416 -47.3152 371.603C-41.8964 370.639 -36.2177 369.629 -30.271 368.46C-13.1615 365.098 6.09242 360.436 27.5437 351.812C48.8527 343.245 68.1047 343.274 84.3858 348.879C100.673 354.486 114.021 365.684 123.49 379.51C142.447 407.191 145.774 445.252 126.211 469.849Z" stroke="#212121"/>
<path d="M111.52 469.801L111.244 470.148C93.945 491.898 84.8264 503.363 78.8481 514.485C72.8287 525.682 69.9975 536.521 65.1665 557.084C60.3916 577.409 41.2204 591.867 19.6443 595.731C-1.91076 599.59 -25.7423 592.849 -39.801 570.912C-46.9296 559.789 -56.2085 550.274 -65.817 541.194C-68.3296 538.82 -70.8632 536.476 -73.3873 534.141C-80.53 527.535 -87.5957 520.999 -93.8894 514.035C-102.398 504.619 -109.457 494.459 -113.321 482.372C-117.182 470.291 -117.864 456.247 -113.56 439.046C-109.25 421.819 -103.239 410.549 -95.5036 402.831C-87.77 395.115 -78.268 390.906 -66.8839 387.883C-59.4359 385.905 -51.2223 384.444 -42.1913 382.838C-37.3893 381.983 -32.3562 381.088 -27.0842 380.052C-11.9214 377.073 5.14324 372.941 24.1558 365.297C43.0259 357.711 60.071 357.738 74.4838 362.699C88.9029 367.663 100.721 377.577 109.105 389.82C125.894 414.334 128.833 448.032 111.52 469.801Z" stroke="#212121"/>
<path d="M95.7679 469.751L95.524 470.057C80.6151 488.803 72.7498 498.692 67.5925 508.286C62.3978 517.95 59.9551 527.303 55.7901 545.032C51.6813 562.521 35.1804 574.972 16.5969 578.299C-1.96555 581.623 -22.4821 575.817 -34.5854 556.932C-40.7361 547.335 -48.7413 539.127 -57.0264 531.297C-59.1941 529.248 -61.3794 527.227 -63.556 525.214C-69.7136 519.518 -75.8021 513.887 -81.226 507.885C-88.5585 499.771 -94.6376 491.02 -97.9646 480.611C-101.29 470.208 -101.878 458.114 -98.1699 443.294C-94.4558 428.449 -89.2776 418.745 -82.6202 412.103C-75.9645 405.462 -67.785 401.837 -57.976 399.232C-51.557 397.528 -44.4803 396.269 -36.6962 394.884C-32.5554 394.148 -28.2145 393.375 -23.6659 392.482C-10.5905 389.912 4.12683 386.349 20.5244 379.757C36.7796 373.222 51.4585 373.246 63.868 377.518C76.2838 381.792 86.4618 390.33 93.6835 400.875C108.147 421.994 110.671 451.012 95.7679 469.751Z" stroke="#212121"/>
<path d="M80.2634 469.702L80.0513 469.968C67.4945 485.756 60.8628 494.095 56.5136 502.185C52.1306 510.339 50.0703 518.231 46.5609 533.168C43.1077 547.867 29.2352 558.342 13.5972 561.142C-2.01959 563.938 -19.2732 559.054 -29.4517 543.172C-34.6401 535.076 -41.3915 528.154 -48.374 521.556C-50.202 519.828 -52.0443 518.124 -53.879 516.427C-59.0669 511.628 -64.1936 506.886 -68.7616 501.832C-74.9362 494.999 -80.051 487.634 -82.8499 478.878C-85.6469 470.128 -86.1429 459.951 -83.0216 447.476C-79.8939 434.975 -75.5357 426.812 -69.9392 421.229C-64.3444 415.647 -57.4668 412.596 -49.208 410.404C-43.802 408.968 -37.8444 407.908 -31.2875 406.742C-27.7976 406.121 -24.138 405.47 -20.3014 404.716C-9.28059 402.551 3.12627 399.547 16.95 393.989C30.6314 388.489 42.981 388.511 53.4188 392.104C63.8629 395.699 72.4264 402.882 78.5037 411.756C90.6781 429.533 92.7939 453.946 80.2634 469.702Z" stroke="#212121"/>
</svg>
