<svg width="407" height="863" viewBox="0 0 407 863" fill="none" xmlns="http://www.w3.org/2000/svg">
<path d="M735.156 463.49L734.383 464.287C680.4 520.003 652.038 549.276 632.475 578.434C612.808 607.747 602.039 636.933 583.042 692.676C564.124 748.186 506.631 783.235 445.479 788.105C384.349 792.972 319.689 767.666 286.46 702.609C269.761 669.917 246.669 641.067 222.494 613.277C216.184 606.023 209.802 598.844 203.441 591.687C185.415 571.408 167.553 551.313 151.962 530.248C130.877 501.759 113.982 471.539 106.514 436.787C99.0482 402.043 100.998 362.731 117.663 316.047C134.337 269.339 154.152 239.549 177.875 220.107C201.596 200.668 229.273 191.534 261.753 186.232C282.987 182.765 306.233 180.94 331.75 178.937C345.296 177.874 359.481 176.76 374.346 175.324C417.186 171.185 465.586 164.371 520.333 148.359C574.932 132.39 622.43 137.104 661.272 154.882C700.12 172.663 730.341 203.529 750.349 239.912C790.381 312.711 789.458 407.444 735.156 463.49Z" stroke="#212121"/>
<path d="M722.222 462.18L721.479 462.948C669.701 516.387 642.495 544.467 623.73 572.436C604.863 600.555 594.534 628.553 576.312 682.02C558.169 735.255 503.031 768.87 444.381 773.54C385.753 778.209 323.741 753.939 291.872 691.546C275.854 660.185 253.702 632.511 230.514 605.855C224.461 598.897 218.339 592.01 212.237 585.145C194.948 565.694 177.815 546.421 162.862 526.216C142.638 498.891 126.434 469.907 119.272 436.578C112.112 403.255 113.982 365.552 129.966 320.777C145.958 275.977 164.963 247.406 187.713 228.761C210.462 210.118 237.005 201.359 268.159 196.273C288.525 192.948 310.821 191.198 335.296 189.276C348.289 188.256 361.896 187.188 376.154 185.81C417.247 181.84 463.673 175.304 516.187 159.945C568.553 144.63 614.108 149.151 651.36 166.201C688.618 183.255 717.603 212.857 736.792 247.752C775.187 317.574 774.3 408.431 722.222 462.18Z" stroke="#212121"/>
<path d="M708.486 460.789L707.775 461.523C658.338 512.547 632.36 539.359 614.441 566.066C596.425 592.918 586.561 619.654 569.162 670.705C551.843 721.524 499.206 753.617 443.212 758.075C387.24 762.532 328.039 739.361 297.615 679.797C282.319 649.851 261.167 623.425 239.026 597.973C233.247 591.329 227.401 584.753 221.574 578.198C205.066 559.626 188.709 541.225 174.432 521.934C155.123 495.845 139.653 468.173 132.816 436.354C125.98 404.542 127.764 368.546 143.025 325.797C158.294 283.024 176.438 255.748 198.157 237.949C219.873 220.152 245.213 211.789 274.957 206.933C294.402 203.759 315.689 202.088 339.057 200.253C351.464 199.279 364.456 198.259 378.072 196.944C417.308 193.153 461.639 186.912 511.782 172.246C561.778 157.624 605.269 161.941 640.832 178.218C676.402 194.499 704.073 222.76 722.394 256.075C759.051 322.737 758.202 409.477 708.486 460.789Z" stroke="#212121"/>
<path d="M694.188 459.342L693.508 460.044C646.509 508.551 621.81 534.043 604.772 559.437C587.642 584.969 578.263 610.391 561.722 658.927C545.259 707.23 495.226 737.738 441.997 741.976C388.79 746.213 332.516 724.187 303.596 667.567C289.052 639.094 268.94 613.968 247.89 589.769C242.395 583.452 236.837 577.2 231.297 570.968C215.602 553.311 200.052 535.817 186.478 517.477C168.122 492.675 153.416 466.369 146.916 436.123C140.418 405.882 142.115 371.665 156.622 331.025C171.138 290.362 188.387 264.434 209.03 247.515C229.673 230.598 253.759 222.648 282.036 218.032C300.522 215.014 320.759 213.426 342.975 211.682C354.771 210.756 367.124 209.786 380.07 208.535C417.374 204.931 459.523 198.997 507.198 185.054C554.726 171.153 596.068 175.257 629.874 190.73C663.686 206.206 689.991 233.071 707.407 264.741C742.255 328.112 741.445 410.567 694.188 459.342Z" stroke="#212121"/>
<path d="M680.39 457.944L679.743 458.613C635.096 504.693 611.63 528.913 595.443 553.038C579.167 577.297 570.256 601.451 554.542 647.56C538.906 693.437 491.385 722.415 440.824 726.441C390.285 730.465 336.835 709.544 309.367 655.766C295.549 628.713 276.441 604.841 256.442 581.852C251.221 575.85 245.941 569.91 240.678 563.989C225.768 547.216 210.997 530.597 198.102 513.176C180.665 489.615 166.697 464.628 160.523 435.898C154.351 407.175 155.962 374.673 169.742 336.069C183.532 297.441 199.916 272.813 219.523 256.745C239.128 240.677 262.006 233.126 288.867 228.741C306.428 225.874 325.651 224.365 346.756 222.708C357.962 221.829 369.698 220.907 381.998 219.719C417.438 216.295 457.481 210.658 502.775 197.411C547.921 184.206 587.19 188.105 619.3 202.802C651.416 217.502 676.402 243.019 692.945 273.102C726.047 333.299 725.275 411.619 680.39 457.944Z" stroke="#212121"/>
<path d="M666.052 456.493L665.437 457.128C623.234 500.685 601.049 523.582 585.746 546.39C570.358 569.326 561.934 592.162 547.079 635.75C532.303 679.104 487.392 706.493 439.604 710.298C391.837 714.101 341.322 694.328 315.362 643.503C302.298 617.926 284.233 595.358 265.328 573.626C260.392 567.952 255.401 562.336 250.425 556.739C236.331 540.883 222.368 525.175 210.18 508.707C193.697 486.436 180.495 462.819 174.66 435.666C168.827 408.519 170.349 377.799 183.374 341.311C196.409 304.798 211.894 281.522 230.424 266.337C248.952 251.152 270.574 244.015 295.963 239.87C312.563 237.16 330.733 235.734 350.682 234.168C361.276 233.336 372.371 232.465 383.999 231.342C417.502 228.105 455.357 222.776 498.176 210.252C540.848 197.772 577.963 201.457 608.31 215.348C638.664 229.241 662.279 253.358 677.915 281.791C709.203 338.689 708.471 412.712 666.052 456.493Z" stroke="#212121"/>
<path d="M652.572 455.128L651.988 455.731C612.083 496.917 591.104 518.57 576.632 540.14C562.078 561.831 554.111 583.429 540.064 624.645C526.096 665.629 483.639 691.523 438.458 695.121C393.298 698.717 345.542 680.023 320.999 631.973C308.644 607.785 291.56 586.442 273.683 565.891C269.015 560.525 264.295 555.215 259.59 549.922C246.262 534.928 233.06 520.076 221.536 504.505C205.951 483.447 193.469 461.118 187.952 435.447C182.437 409.781 183.876 380.738 196.192 346.238C208.516 311.714 223.157 289.709 240.674 275.353C258.19 260.999 278.63 254.251 302.636 250.332C318.331 247.77 335.511 246.421 354.375 244.94C364.392 244.154 374.885 243.33 385.882 242.268C417.564 239.207 453.362 234.167 493.854 222.324C534.199 210.525 569.289 214.009 597.979 227.141C626.676 240.276 649.003 263.077 663.786 289.96C693.369 343.756 692.674 413.739 652.572 455.128Z" stroke="#212121"/>
<path d="M639.864 453.842L639.309 454.415C601.57 493.364 581.727 513.845 568.038 534.247C554.272 554.766 546.735 575.196 533.451 614.176C520.245 652.925 480.102 677.41 437.378 680.812C394.676 684.212 349.521 666.536 326.316 621.103C314.629 598.223 298.469 578.036 281.561 558.599C277.146 553.524 272.682 548.501 268.232 543.495C255.627 529.315 243.142 515.269 232.243 500.543C217.505 480.63 205.702 459.515 200.486 435.241C195.271 410.973 196.631 383.51 208.278 350.885C219.933 318.236 233.778 297.429 250.34 283.856C266.9 270.284 286.226 263.904 308.928 260.198C323.772 257.774 340.018 256.499 357.858 255.099C367.332 254.355 377.256 253.576 387.658 252.571C417.623 249.676 451.482 244.909 489.78 233.708C527.931 222.55 561.111 225.845 588.24 238.262C615.374 250.682 636.486 272.242 650.465 297.663C678.44 348.534 677.78 414.708 639.864 453.842Z" stroke="#212121"/>
<path d="M628.281 452.669L627.753 453.214C591.989 490.126 573.18 509.538 560.206 528.876C547.156 548.326 540.013 567.692 527.422 604.635C514.911 641.346 476.877 664.547 436.393 667.771C395.93 670.993 353.146 654.244 331.159 611.197C320.082 589.509 304.765 570.375 288.74 551.953C284.555 547.143 280.323 542.382 276.106 537.638C264.16 524.199 252.329 510.888 242 496.933C228.033 478.061 216.85 458.053 211.907 435.053C206.966 412.058 208.254 386.035 219.29 355.119C230.335 324.179 243.455 304.464 259.146 291.604C274.836 278.746 293.148 272.7 314.661 269.188C328.728 266.891 344.123 265.683 361.03 264.355C370.01 263.651 379.415 262.912 389.275 261.96C417.675 259.216 449.767 254.698 486.066 244.081C522.218 233.508 553.658 236.631 579.362 248.396C605.073 260.164 625.078 280.594 638.324 304.682C664.833 352.888 664.205 415.591 628.281 452.669Z" stroke="#212121"/>
<path d="M615.469 451.372L614.971 451.886C581.39 486.545 563.727 504.775 551.542 522.936C539.286 541.203 532.577 559.391 520.755 594.081C509.011 628.539 473.31 650.32 435.303 653.346C397.318 656.37 357.157 640.647 336.517 600.238C326.114 579.87 311.729 561.901 296.681 544.602C292.751 540.085 288.777 535.614 284.817 531.159C273.6 518.54 262.491 506.042 252.794 492.939C239.68 475.22 229.181 456.437 224.541 434.845C219.902 413.259 221.111 388.828 231.473 359.803C241.843 330.753 254.16 312.246 268.889 300.175C283.616 288.106 300.805 282.429 321.003 279.132C334.211 276.976 348.665 275.841 364.54 274.595C372.972 273.933 381.805 273.24 391.065 272.345C417.734 269.768 447.87 265.526 481.958 255.556C515.899 245.629 545.413 248.562 569.543 259.606C593.679 270.654 612.46 289.832 624.895 312.446C649.783 357.705 649.19 416.568 615.469 451.372Z" stroke="#212121"/>
<path d="M601.223 449.929L600.756 450.411C569.605 482.562 553.216 499.477 541.91 516.329C530.535 533.282 524.31 550.161 513.341 582.344C502.452 614.296 469.345 634.497 434.094 637.304C398.864 640.109 361.619 625.527 342.478 588.052C332.824 569.151 319.476 552.477 305.514 536.427C301.867 532.235 298.18 528.087 294.505 523.953C284.099 512.246 273.795 500.653 264.798 488.498C252.633 472.061 242.896 454.639 238.593 434.614C234.291 414.594 235.412 391.935 245.023 365.012C254.643 338.064 266.067 320.9 279.725 309.707C293.382 298.515 309.322 293.25 328.058 290.191C340.31 288.191 353.718 287.139 368.445 285.983C376.268 285.368 384.464 284.725 393.057 283.895C417.801 281.504 445.763 277.568 477.391 268.317C508.873 259.11 536.247 261.831 558.625 272.073C581.01 282.319 598.428 300.106 609.962 321.081C633.047 363.061 632.494 417.654 601.223 449.929Z" stroke="#212121"/>
<path d="M587.283 448.518L586.848 448.966C558.073 478.665 542.93 494.294 532.483 509.865C521.972 525.531 516.219 541.129 506.086 570.861C496.033 600.36 465.463 619.016 432.908 621.609C400.374 624.199 365.982 610.733 348.307 576.129C339.386 558.663 327.052 543.256 314.154 528.429C310.784 524.555 307.377 520.722 303.982 516.903C294.369 506.088 284.851 495.38 276.541 484.152C265.304 468.97 256.312 452.88 252.338 434.387C248.366 415.9 249.4 394.974 258.277 370.107C267.163 345.216 277.713 329.367 290.324 319.031C302.934 308.698 317.652 303.836 334.958 301.011C346.276 299.163 358.659 298.191 372.263 297.123C379.491 296.556 387.063 295.961 395.003 295.194C417.864 292.986 443.698 289.349 472.921 280.802C501.997 272.298 527.276 274.811 547.941 284.27C568.612 293.731 584.698 310.157 595.35 329.528C616.672 368.301 616.157 418.716 587.283 448.518Z" stroke="#212121"/>
<path d="M573.291 447.101L572.888 447.517C546.498 474.754 532.606 489.092 523.021 503.377C513.377 517.752 508.099 532.065 498.805 559.335C489.59 586.374 461.568 603.479 431.718 605.856C401.889 608.231 370.361 595.884 354.158 564.162C345.973 548.137 334.657 534.001 322.826 520.401C319.734 516.847 316.609 513.331 313.495 509.828C304.677 499.908 295.949 490.088 288.328 479.791C278.023 465.868 269.778 451.115 266.135 434.16C262.493 417.211 263.44 398.025 271.581 375.222C279.729 352.395 289.403 337.865 300.963 328.391C312.521 318.919 326.014 314.461 341.883 311.87C352.263 310.176 363.619 309.285 376.096 308.305C382.726 307.785 389.672 307.239 396.957 306.536C417.928 304.509 441.627 301.173 468.435 293.333C495.095 285.535 518.272 287.84 537.217 296.512C556.169 305.186 570.917 320.245 580.685 338.007C600.236 373.561 599.76 419.783 573.291 447.101Z" stroke="#212121"/>
<path d="M559.302 445.685L558.931 446.068C534.926 470.844 522.284 483.891 513.562 496.891C504.784 509.974 499.98 523.001 491.525 547.811C483.149 572.388 457.674 587.942 430.53 590.104C403.407 592.263 374.743 581.037 360.011 552.196C352.562 537.612 342.264 524.748 331.499 512.374C328.686 509.14 325.842 505.94 323.009 502.753C314.987 493.729 307.048 484.797 300.116 475.431C290.743 462.766 283.246 449.35 279.933 433.934C276.622 418.523 277.483 401.076 284.886 380.338C292.298 359.575 301.095 346.363 311.604 337.752C322.11 329.141 334.377 325.087 348.811 322.731C358.252 321.19 368.58 320.379 379.93 319.488C385.963 319.015 392.283 318.518 398.913 317.878C417.993 316.034 439.558 312.999 463.95 305.865C488.196 298.773 509.271 300.87 526.496 308.754C543.727 316.641 557.139 330.335 566.021 346.487C583.802 378.821 583.364 420.85 559.302 445.685Z" stroke="#212121"/>
<path d="M546.54 444.393L546.198 444.745C524.368 467.276 512.868 479.146 504.932 490.973C496.944 502.879 492.573 514.733 484.883 537.298C477.272 559.631 454.12 573.77 429.444 575.735C404.789 577.698 378.737 567.494 365.348 541.281C358.569 528.01 349.2 516.307 339.408 505.051C336.849 502.109 334.262 499.199 331.684 496.299C324.389 488.091 317.169 479.97 310.866 471.452C302.342 459.936 295.527 447.74 292.516 433.726C289.506 419.719 290.288 403.859 297.02 385.003C303.759 366.122 311.757 354.114 321.307 346.288C330.854 338.463 342.003 334.778 355.127 332.636C363.713 331.234 373.104 330.497 383.426 329.687C388.912 329.256 394.663 328.805 400.695 328.222C418.051 326.545 437.668 323.784 459.858 317.294C481.901 310.847 501.058 312.753 516.715 319.92C532.378 327.089 544.57 339.536 552.644 354.22C568.81 383.618 568.408 421.822 546.54 444.393Z" stroke="#212121"/>
<path d="M531.923 442.913L531.615 443.232C512.277 463.191 502.083 473.711 495.048 484.196C487.965 494.753 484.09 505.264 477.276 525.258C470.541 545.02 450.051 557.539 428.201 559.279C406.372 561.017 383.312 551.983 371.46 528.78C365.451 517.014 357.144 506.64 348.467 496.665C346.199 494.057 343.906 491.477 341.621 488.908C335.157 481.635 328.763 474.442 323.179 466.897C315.629 456.696 309.595 445.896 306.929 433.489C304.264 421.089 304.956 407.046 310.917 390.346C316.888 373.623 323.97 362.992 332.421 356.066C340.87 349.142 350.738 345.879 362.362 343.981C369.968 342.739 378.285 342.087 387.429 341.369C392.292 340.987 397.388 340.587 402.736 340.07C418.117 338.584 435.504 336.137 455.171 330.385C474.691 324.676 491.653 326.365 505.513 332.709C519.379 339.056 530.173 350.076 537.323 363.078C551.64 389.113 551.278 422.937 531.923 442.913Z" stroke="#212121"/>
<path d="M516.252 441.326L515.98 441.608C499.313 458.809 490.521 467.884 484.452 476.929C478.339 486.04 474.996 495.111 469.121 512.348C463.326 529.353 445.689 540.135 426.869 541.633C408.071 543.13 388.219 535.351 378.016 515.375C372.831 505.223 365.664 496.273 358.183 487.673C356.225 485.422 354.247 483.197 352.278 480.981C346.705 474.712 341.195 468.513 336.382 462.011C329.877 453.221 324.68 443.918 322.384 433.234C320.09 422.557 320.685 410.463 325.821 396.075C330.965 381.664 337.066 372.511 344.339 366.55C351.611 360.59 360.105 357.78 370.122 356.145C376.676 355.075 383.842 354.513 391.724 353.894C395.917 353.565 400.312 353.22 404.927 352.774C418.19 351.493 433.185 349.382 450.147 344.421C466.963 339.503 481.569 340.959 493.503 346.421C505.442 351.886 514.739 361.376 520.897 372.575C533.231 395.004 532.913 424.131 516.252 441.326Z" stroke="#212121"/>
<path d="M500.827 439.765L500.59 440.01C486.553 454.497 479.139 462.149 474.021 469.777C468.864 477.464 466.043 485.117 461.093 499.641C456.223 513.933 441.394 523.004 425.558 524.265C409.743 525.525 393.048 518.98 384.467 502.181C380.094 493.618 374.05 486.07 367.744 478.822C366.094 476.924 364.426 475.049 362.766 473.181C358.071 467.899 353.431 462.679 349.378 457.203C343.9 449.801 339.528 441.972 337.596 432.984C335.666 424.003 336.166 413.826 340.489 401.715C344.821 389.579 349.955 381.881 356.07 376.87C362.182 371.86 369.325 369.495 377.758 368.119C383.278 367.217 389.311 366.744 395.95 366.223C399.484 365.946 403.19 365.655 407.082 365.279C418.261 364.199 430.902 362.419 445.202 358.237C459.355 354.098 471.643 355.324 481.681 359.919C491.724 364.516 499.546 372.5 504.729 381.924C515.111 400.804 514.835 425.307 500.827 439.765Z" stroke="#212121"/>
</svg>
