<svg width="30" height="30" viewBox="0 0 30 30" fill="none" xmlns="http://www.w3.org/2000/svg">
<path d="M16.2157 13.848H11.2157V9.01471H16.2157C17.049 9.01471 17.6863 9.19608 18.1274 9.55392C18.5686 9.91177 18.7892 10.5343 18.7892 11.4167C18.7892 12.201 18.5441 12.799 18.0539 13.2206C17.5637 13.6422 16.951 13.848 16.2157 13.848Z" fill="#FDDD0A"/>
<path d="M16.6324 21.5196H11.2157V16.049H16.6324C17.5637 16.049 18.2794 16.2745 18.799 16.7451C19.3186 17.2157 19.5735 17.8775 19.5735 18.7451C19.5735 19.6275 19.3137 20.3137 18.799 20.7941C18.2892 21.2794 17.5637 21.5196 16.6324 21.5196Z" fill="#FDDD0A"/>
<path fill-rule="evenodd" clip-rule="evenodd" d="M25 30C27.75 30 30 27.75 30 25V5C30 2.25 27.75 0 25 0H5C2.25 0 0 2.25 0 5V25C0 27.75 2.25 30 5 30H25ZM16.6569 6.51961H8.15196V24.0196H16.1912C17.3186 24.0196 18.2892 23.8922 19.1078 23.6373C19.9265 23.3824 20.5931 23.0392 21.1176 22.6078C21.6422 22.1765 22.0245 21.6618 22.2696 21.0637C22.5147 20.4706 22.6373 19.8284 22.6373 19.1422C22.6373 17.9461 22.3578 16.9559 21.8039 16.1618C21.25 15.3726 20.4314 14.8627 19.3529 14.6324V14.5833C20.1569 14.2402 20.7745 13.75 21.2059 13.1226C21.6373 12.4951 21.8529 11.7402 21.8529 10.8578C21.8529 9.40196 21.3775 8.31863 20.4314 7.59804C19.4853 6.87745 18.2255 6.51961 16.6569 6.51961Z" fill="#FDDD0A"/>
</svg>
