<svg width="35" height="30" viewBox="0 0 35 30" fill="none" xmlns="http://www.w3.org/2000/svg">
<path d="M23.2766 8.28269L26.319 5.03877L26.5218 3.67287C20.9777 -1.70228 12.1646 -1.09279 7.16688 4.9446C5.77864 6.62145 4.74874 8.712 4.19954 10.8708L5.28919 10.7071L11.3739 9.63723L11.8436 9.12498C14.5502 5.95555 19.1266 5.52916 22.2518 8.22584L23.2766 8.28269Z" fill="#FDDD0A"/>
<path d="M30.653 10.7754C29.9537 8.02957 28.518 5.56108 26.5218 3.67287L22.2518 8.22584C24.0548 9.7967 25.082 12.1631 25.038 14.6452V15.4534C27.1367 15.4534 28.8383 17.2676 28.8383 19.5054C28.8383 21.7433 27.1367 23.512 25.038 23.512H17.4267L16.6794 24.377V29.2371L17.4267 29.9997H25.038C30.4971 30.045 34.9572 25.4087 34.9997 19.5879C35.0254 16.0597 33.3939 12.7521 30.653 10.7754Z" fill="#FDDD0A"/>
<path d="M9.82603 29.9998L17.4267 29.9997V23.512L9.82603 23.5119C9.28449 23.5118 8.76003 23.3877 8.26757 23.1478L7.18927 23.5005L4.12554 26.7445L3.85867 27.8486C5.57681 29.2318 7.67312 30.0097 9.82603 29.9998Z" fill="#FDDD0A"/>
<path d="M9.82602 8.95425C4.3667 8.98894 -0.0323597 13.7359 0.000179356 19.5567C0.018363 22.8072 1.44216 25.867 3.85867 27.8486L8.26757 23.1478C6.35474 22.2263 5.50475 19.8261 6.36895 17.7867C7.23301 15.7473 9.48422 14.8411 11.3968 15.7624C12.2397 16.1683 12.9146 16.8882 13.2954 17.7867L17.7043 13.0859C15.8284 10.4712 12.9135 8.94244 9.82602 8.95425Z" fill="#FDDD0A"/>
</svg>
