<svg width="17" height="30" viewBox="0 0 17 30" fill="none" xmlns="http://www.w3.org/2000/svg">
<path d="M15.4734 23.6573H15.3602V23.5941H15.6649V23.6573H15.5525V23.9728H15.4734V23.6573ZM16.0811 23.6738H16.0794L15.9672 23.9728H15.9159L15.8045 23.6738H15.8031V23.9728H15.7285V23.5941H15.8382L15.9416 23.8623L16.0445 23.5941H16.1538V23.9728H16.0811L16.0811 23.6738Z" fill="#FDDD0A"/>
<path d="M5.34081 15.9136C5.34081 15.9136 4.5533 16.3709 5.90125 16.5256C7.53426 16.7116 8.36887 16.685 10.1684 16.3449C10.1684 16.3449 10.6416 16.6411 11.3023 16.8976C7.26814 18.6241 2.17217 16.7977 5.34081 15.9136Z" fill="#FDDD0A"/>
<path d="M4.84785 13.6607C4.84785 13.6607 3.96459 14.3135 5.31354 14.4529C7.05796 14.6326 8.43557 14.6473 10.8194 14.1889C10.8194 14.1889 11.1491 14.5227 11.6675 14.7052C6.78996 16.1294 1.35723 14.8175 4.84785 13.6607Z" fill="#FDDD0A"/>
<path d="M9.00363 9.83905C9.99765 10.9818 8.74246 12.0101 8.74246 12.0101C8.74246 12.0101 11.2664 10.7091 10.1073 9.07988C9.02468 7.56054 8.19446 6.80564 12.6889 4.20284C12.6889 4.20284 5.63408 5.96222 9.00363 9.83905Z" fill="#FDDD0A"/>
<path d="M14.3392 17.5799C14.3392 17.5799 14.9219 18.0594 13.6973 18.4304C11.3688 19.1347 4.00552 19.3474 1.96005 18.4584C1.22475 18.139 2.60364 17.6958 3.03739 17.6027C3.48974 17.5048 3.74824 17.523 3.74824 17.523C2.93052 16.9478 -1.53719 18.6525 1.47887 19.1407C9.70409 20.4726 16.4727 18.5409 14.3392 17.5799Z" fill="#FDDD0A"/>
<path d="M5.71951 11.3264C5.71951 11.3264 1.9741 12.2147 4.39317 12.5373C5.41457 12.6738 7.45072 12.643 9.34733 12.4843C10.8974 12.3537 12.4538 12.0761 12.4538 12.0761C12.4538 12.0761 11.9072 12.3098 11.5118 12.5794C7.70839 13.5783 0.360927 13.1136 2.47617 12.0919C4.26503 11.2285 5.71951 11.3264 5.71951 11.3264Z" fill="#FDDD0A"/>
<path d="M12.4383 15.0765C16.3047 13.0703 14.517 11.1425 13.2693 11.4022C12.9634 11.4658 12.8271 11.5208 12.8271 11.5208C12.8271 11.5208 12.9406 11.3432 13.1575 11.2664C15.6259 10.3998 17.5243 13.8221 12.3606 15.1776C12.3606 15.1776 12.4204 15.1242 12.4383 15.0765Z" fill="#FDDD0A"/>
<path d="M10.1073 0C10.1073 0 12.2485 2.1388 8.07642 5.42767C4.73082 8.06591 7.31352 9.57017 8.07503 11.2888C6.12215 9.52946 4.689 7.98067 5.65047 6.5392C7.06168 4.42325 10.9712 3.39736 10.1073 0Z" fill="#FDDD0A"/>
<path d="M6.09943 20.5126C9.81063 20.7499 15.5096 20.381 15.6446 18.6276C15.6446 18.6276 15.3851 19.2923 12.5775 19.8202C9.40988 20.4154 5.50311 20.3459 3.18597 19.9644C3.18602 19.9644 3.66032 20.3565 6.09943 20.5126Z" fill="#FDDD0A"/>
<path d="M5.49122 27.2126C5.14113 27.5158 4.77137 27.6861 4.43955 27.6861C3.96592 27.6861 3.71003 27.4025 3.71003 26.9476C3.71003 26.4556 3.98419 26.0959 5.08414 26.0959H5.49117L5.49122 27.2126ZM6.45725 28.301V24.9321C6.45725 24.0714 5.96568 23.5036 4.78048 23.5036C4.08856 23.5036 3.48246 23.6742 2.98984 23.8917L3.13203 24.4881C3.5199 24.3459 4.02197 24.2136 4.51475 24.2136C5.1975 24.2136 5.49122 24.4881 5.49122 25.0556V25.4814H5.15046C3.49163 25.4814 2.74333 26.1243 2.74333 27.0894C2.74333 27.9223 3.23646 28.3957 4.16494 28.3957C4.76176 28.3957 5.20728 28.1497 5.62375 27.7897L5.69935 28.301L6.45725 28.301Z" fill="#FDDD0A"/>
<path d="M9.68127 28.301H8.4764L7.02636 23.5889H8.07854L8.9783 26.484L9.17831 27.3547C9.6335 26.0958 9.95543 24.8186 10.1165 23.5889H11.14C10.8657 25.1405 10.3723 26.8437 9.68127 28.301Z" fill="#FDDD0A"/>
<path d="M14.3033 27.2126C13.9525 27.5158 13.5821 27.6861 13.2503 27.6861C12.7775 27.6861 12.5209 27.4025 12.5209 26.9476C12.5209 26.4556 12.7957 26.0959 13.8956 26.0959H14.3033V27.2126ZM15.2692 28.301V24.9321C15.2692 24.0714 14.7764 23.5036 13.5926 23.5036C12.9002 23.5036 12.2938 23.6742 11.8014 23.8917L11.9434 24.4881C12.3315 24.3459 12.8345 24.2136 13.3269 24.2136C14.0091 24.2136 14.3033 24.4881 14.3033 25.0556V25.4814H13.962C12.3026 25.4814 11.5547 26.1243 11.5547 27.0894C11.5547 27.9223 12.0474 28.3957 12.9757 28.3957C13.5729 28.3957 14.0182 28.1497 14.4354 27.7897L14.5113 28.301L15.2692 28.301Z" fill="#FDDD0A"/>
<path d="M1.6841 29.1012C1.40872 29.5027 0.963916 29.8203 0.476959 30L0 29.4396C0.370647 29.2496 0.688528 28.9429 0.83622 28.6573C0.963972 28.4032 1.01685 28.0757 1.01685 27.2927V21.9131H2.0432V27.2189C2.04314 28.2659 1.95933 28.6888 1.6841 29.1012Z" fill="#FDDD0A"/>
</svg>
