<svg width="45" height="30" viewBox="0 0 45 30" fill="none" xmlns="http://www.w3.org/2000/svg">
<path d="M10.6203 27.3301H8.91576C8.85549 24.4531 8.68948 21.7484 8.41808 19.2139H8.40293L5.80781 27.3301H4.51009L1.93045 19.2139H1.91563C1.72426 21.6472 1.60371 24.3527 1.55365 27.3301H0C0.100129 23.7094 0.351769 20.315 0.753932 17.1464H2.86652L5.32528 24.6293H5.34043L7.81434 17.1464H9.8357C10.2784 20.8578 10.5399 24.2525 10.6203 27.3301ZM18.0124 19.8166C17.3184 23.5826 16.4027 26.319 15.2664 28.0271C14.381 29.3419 13.411 30 12.3547 30C12.0731 30 11.7256 29.915 11.3139 29.7464V28.8383C11.5152 28.8673 11.7513 28.8838 12.0227 28.8838C12.5161 28.8838 12.9127 28.7481 13.2151 28.476C13.5767 28.1447 13.7575 27.7722 13.7575 27.3601C13.7575 27.0775 13.6166 26.4998 13.3353 25.625L11.4648 19.8163H13.1393L14.4818 24.1607C14.7835 25.1471 14.9093 25.8358 14.8589 26.2281C15.5931 24.2674 16.1059 22.1294 16.3981 19.816L18.0124 19.8166Z" fill="#FDDD0A"/>
<path d="M40.7011 27.3302H35.8593V17.1463H37.4881V26.0766H40.7011V27.3302ZM34.5919 27.5762L32.7197 26.6523C32.8857 26.5159 33.0445 26.3684 33.1875 26.1974C33.9832 25.2627 34.3801 23.8803 34.3801 22.0493C34.3801 18.6802 33.058 16.9948 30.4128 16.9948C29.1158 16.9948 28.1039 17.4223 27.3803 18.2777C26.5852 19.2131 26.1883 20.5905 26.1883 22.4116C26.1883 24.2018 26.5401 25.515 27.2439 26.348C27.8879 27.1026 28.8585 27.4803 30.1566 27.4803C30.6407 27.4803 31.0851 27.4211 31.4899 27.3015L33.9272 28.7204L34.5919 27.5762ZM28.5272 25.2923C28.1148 24.629 27.9086 23.5638 27.9086 22.0951C27.9086 19.5309 28.6876 18.2474 30.2471 18.2474C31.0623 18.2474 31.6598 18.5543 32.0419 19.167C32.4536 19.8313 32.6608 20.887 32.6608 22.3352C32.6608 24.9205 31.8812 26.2132 30.3226 26.2132C29.5071 26.2136 28.9096 25.9076 28.5272 25.2923ZM25.4785 24.5074C25.4785 25.371 25.1616 26.0795 24.5286 26.6345C23.8949 27.1872 23.0451 27.4642 21.9802 27.4642C20.9842 27.4642 20.0185 27.146 19.0838 26.513L19.5215 25.6385C20.3258 26.0413 21.0541 26.2416 21.7079 26.2416C22.3215 26.2416 22.801 26.1055 23.1489 25.8358C23.4963 25.565 23.7035 25.1853 23.7035 24.705C23.7035 24.1 23.2816 23.5829 22.5076 23.1497C21.7938 22.7578 20.3663 21.9383 20.3663 21.9383C19.5926 21.3744 19.2053 20.769 19.2053 19.7717C19.2053 18.9463 19.4942 18.28 20.0722 17.7731C20.6509 17.2642 21.3976 17.0106 22.3129 17.0106C23.2582 17.0106 24.1175 17.2639 24.8916 17.7652L24.499 18.64C23.8369 18.3587 23.1834 18.218 22.5389 18.218C22.0168 18.218 21.6137 18.3435 21.3334 18.5955C21.0508 18.8465 20.8765 19.1676 20.8765 19.5616C20.8765 20.1637 21.3073 20.6874 22.1024 21.129C22.8257 21.5217 24.2888 22.3553 24.2888 22.3553C25.0823 22.9182 25.4785 23.518 25.4785 24.5074Z" fill="#FDDD0A"/>
<path d="M42.7459 13.7355C41.7611 13.7104 40.9986 13.8096 40.3586 14.0803C40.1738 14.1541 39.88 14.1541 39.8543 14.3876C39.9541 14.4864 39.9657 14.6459 40.0523 14.7822C40.1998 15.0283 40.4571 15.3593 40.6919 15.5319C40.9498 15.7295 41.2087 15.9251 41.4801 16.0974C41.9587 16.3935 42.5012 16.5658 42.9676 16.8609C43.2393 17.0325 43.5094 17.2545 43.7815 17.4393C43.9152 17.5377 44.0008 17.6975 44.1744 17.7591V17.7215C44.0874 17.6109 44.0627 17.4508 43.9774 17.3276L43.6079 16.9712C43.2508 16.4917 42.8072 16.073 42.3286 15.7292C41.9347 15.4578 41.073 15.0889 40.9133 14.635L40.8882 14.61C41.159 14.5846 41.4801 14.4864 41.7374 14.411C42.156 14.3007 42.5377 14.3257 42.9672 14.2154C43.1649 14.166 43.3608 14.104 43.5591 14.0431V13.9321C43.3365 13.7104 43.1777 13.416 42.9435 13.2065C42.3171 12.6653 41.6267 12.136 40.9133 11.693C40.5312 11.4463 40.0398 11.2876 39.633 11.0778C39.4864 11.0037 39.2394 10.9671 39.1531 10.8439C38.9324 10.5732 38.8082 10.2168 38.6482 9.89631C38.2924 9.22011 37.9469 8.4698 37.64 7.75474C37.418 7.27517 37.2829 6.79627 37.0122 6.3526C35.7441 4.26109 34.367 2.99433 32.2504 1.75095C31.7956 1.49206 31.2544 1.38172 30.6763 1.24602L29.7531 1.19728C29.5561 1.11098 29.3589 0.876796 29.1869 0.766127C28.4847 0.323452 26.6768 -0.636008 26.1603 0.630756C25.8276 1.43146 26.6524 2.21866 26.9357 2.62477C27.1448 2.90671 27.4159 3.22752 27.5621 3.54767C27.6487 3.75682 27.6731 3.97882 27.7597 4.19983C27.9567 4.74131 28.1408 5.34374 28.3997 5.84899C28.5348 6.10656 28.682 6.3773 28.8546 6.6105C28.9534 6.74686 29.1253 6.80713 29.1629 7.02946C28.9913 7.27451 28.9778 7.6444 28.8793 7.95203C28.4366 9.34231 28.6095 11.0646 29.237 12.0863C29.4333 12.3939 29.9017 13.0711 30.5281 12.8116C31.0828 12.5902 30.9599 11.889 31.1194 11.2741C31.1559 11.1255 31.1319 11.028 31.2057 10.9305V10.9546C31.3773 11.2988 31.5505 11.6305 31.7096 11.9756C32.0913 12.5781 32.756 13.2058 33.3097 13.6232C33.6045 13.8458 33.838 14.2266 34.2072 14.3626V14.3257H34.1829C34.1081 14.2154 33.9987 14.166 33.9006 14.0803C33.6786 13.8587 33.4329 13.5879 33.2606 13.3422C32.7448 12.6528 32.2883 11.8897 31.8832 11.1021C31.6849 10.7201 31.5139 10.3024 31.3542 9.92102C31.2798 9.77379 31.2798 9.55179 31.1562 9.47768C30.9711 9.7481 30.7014 9.98228 30.5663 10.3136C30.3321 10.8436 30.3078 11.4954 30.2208 12.1733L30.1724 12.197C29.7805 12.0985 29.6441 11.693 29.4952 11.3488C29.1266 10.4747 29.0647 9.07156 29.3845 8.06303C29.4702 7.80513 29.8407 6.9929 29.6928 6.74719C29.6187 6.51169 29.3724 6.37763 29.2373 6.1922C29.0786 5.959 28.9046 5.66388 28.794 5.405C28.4989 4.71628 28.3503 3.95313 28.0325 3.26474C27.8839 2.94393 27.626 2.61193 27.4172 2.31648C27.1827 1.98447 26.9248 1.75062 26.7393 1.35702C26.6781 1.22165 26.5921 1.00031 26.6906 0.853081C26.7146 0.75427 26.7647 0.71738 26.8629 0.692677C27.0223 0.557964 27.4778 0.729237 27.6375 0.803346C28.0937 0.987794 28.4751 1.16006 28.8559 1.41828C29.0282 1.5418 29.2129 1.77565 29.434 1.83724H29.6928C30.0858 1.92288 30.5288 1.86096 30.8987 1.97229C31.5505 2.18177 32.1411 2.48907 32.6707 2.82075C34.2823 3.84279 35.6113 5.29499 36.5086 7.02946C36.6558 7.31206 36.7184 7.57095 36.8528 7.86573C37.112 8.46914 37.4325 9.08441 37.6897 9.67497C37.9482 10.253 38.1946 10.8433 38.5639 11.3235C38.748 11.5817 39.4877 11.7171 39.8194 11.8525C40.0648 11.9628 40.4469 12.0609 40.6682 12.1963C41.0868 12.4542 41.5038 12.7503 41.8974 13.0339C42.0934 13.1815 42.7093 13.4891 42.7459 13.7355ZM30.1948 3.04275C30.0249 3.04098 29.8556 3.0618 29.6912 3.10467V3.12937H29.7149C29.814 3.326 29.9863 3.46236 30.1092 3.63397C30.2083 3.83126 30.2943 4.02691 30.3914 4.22387L30.4152 4.1995C30.5887 4.07664 30.675 3.87968 30.675 3.58423C30.6003 3.49728 30.5887 3.4123 30.5265 3.326C30.454 3.20282 30.2943 3.14156 30.1948 3.04275Z" fill="#FDDD0A"/>
<path d="M43.9176 27.3286H44.1725V26.0809H43.7901L43.4782 26.9324L43.1393 26.0809H42.7711V27.3286H43.0119V26.3793H43.0254L43.3804 27.3286H43.5639L43.9176 26.3793V27.3286ZM41.8641 27.3286H42.1338V26.2924H42.4869V26.0806H41.4962V26.2924H41.8634L41.8641 27.3286Z" fill="#FDDD0A"/>
</svg>
