<svg width="351" height="679" viewBox="0 0 351 679" fill="none" xmlns="http://www.w3.org/2000/svg">
<path d="M338.821 288.916L338.358 289.926C306.004 360.435 289.005 397.481 280.266 431.488C271.479 465.676 271.042 496.783 271.687 555.671C272.008 584.987 261.84 608.494 244.683 626.752C227.517 645.02 203.334 658.053 175.606 666.362C120.143 682.981 50.6227 680.659 -4.867 663.661C-11.9713 661.485 -18.9792 659.353 -25.8878 657.251C-108.782 632.025 -177.363 611.156 -226.218 571.641C-279.083 528.883 -308.899 464.236 -308.496 348.329C-308.295 290.387 -297.75 249.039 -279.605 217.769C-261.462 186.501 -235.693 165.261 -204.956 147.579C-181.946 134.343 -156.182 123.115 -128.76 111.164C-119.528 107.141 -110.109 103.036 -100.544 98.7452C-62.5811 81.7151 -22.3633 61.7721 17.3801 32.4263C96.5106 -26.0021 193.121 2.53 261.897 63.5879C296.275 94.1079 323.651 132.723 338.356 172.574C353.062 212.427 355.083 253.477 338.821 288.916Z" stroke="#212121"/>
<path d="M325.499 291.007L325.054 291.978C294.055 359.534 277.766 395.031 269.392 427.617C260.972 460.378 260.554 490.187 261.171 546.61C261.479 574.694 251.739 597.213 235.303 614.703C218.859 632.203 195.691 644.689 169.125 652.649C115.988 668.571 49.3799 666.347 -3.78473 650.062C-10.5914 647.977 -17.3057 645.934 -23.9247 643.92C-103.353 619.749 -169.06 599.754 -215.868 561.896C-266.514 520.932 -295.081 458.997 -294.695 347.943C-294.502 292.427 -284.399 252.813 -267.016 222.855C-249.635 192.9 -224.947 172.552 -195.498 155.61C-173.452 142.928 -148.768 132.171 -122.492 120.72C-113.647 116.865 -104.622 112.932 -95.4563 108.82C-59.0811 92.5026 -20.5445 73.3932 17.5379 45.274C93.3463 -10.7015 185.904 16.6306 251.798 75.1306C284.735 104.372 310.964 141.368 325.053 179.549C339.141 217.73 341.077 257.057 325.499 291.007Z" stroke="#212121"/>
<path d="M313.128 292.948L312.7 293.88C282.958 358.696 267.33 392.756 259.294 424.023C251.216 455.459 250.814 484.061 251.406 538.196C251.701 565.136 242.358 586.737 226.593 603.514C210.818 620.301 188.593 632.279 163.107 639.916C112.128 655.191 48.2253 653.057 -2.78027 637.434C-9.31049 635.433 -15.7521 633.473 -22.1024 631.541C-98.3113 608.35 -161.35 589.167 -206.257 552.846C-254.844 513.548 -282.251 454.131 -281.881 347.584C-281.696 294.322 -272.003 256.318 -255.327 227.579C-238.653 198.842 -214.969 179.321 -186.716 163.067C-165.565 150.9 -141.883 140.579 -116.673 129.593C-108.187 125.895 -99.5269 122.121 -90.7324 118.176C-55.8317 102.519 -18.8561 84.184 17.6839 57.2036C90.4075 3.50596 179.201 29.7237 242.42 85.8486C274.019 113.902 299.183 149.395 312.699 186.025C326.215 222.654 328.071 260.381 313.128 292.948Z" stroke="#212121"/>
<path d="M298.619 295.225L298.211 296.114C269.945 357.714 255.09 390.087 247.452 419.807C239.773 449.688 239.392 476.875 239.954 528.327C240.235 553.925 231.357 574.449 216.378 590.39C201.389 606.341 180.27 617.724 156.049 624.981C107.603 639.498 46.8724 637.47 -1.60086 622.622C-7.80695 620.721 -13.9288 618.858 -19.9638 617.021C-92.3972 594.98 -152.307 576.749 -194.984 542.231C-241.154 504.887 -267.202 448.424 -266.85 347.163C-266.674 296.543 -257.462 260.428 -241.615 233.118C-225.77 205.811 -203.265 187.26 -176.414 171.814C-156.313 160.25 -133.807 150.442 -109.847 140C-101.781 136.485 -93.5499 132.898 -85.1906 129.148C-52.0192 114.267 -16.8745 96.8402 17.8564 71.1956C86.9619 20.1694 171.341 45.0801 231.422 98.4192C261.452 125.08 285.366 158.811 298.21 193.62C311.055 228.43 312.818 264.28 298.619 295.225Z" stroke="#212121"/>
<path d="M284.397 297.457L284.008 298.305C257.189 356.753 243.092 387.473 235.845 415.675C228.557 444.032 228.195 469.834 228.729 518.654C228.995 542.938 220.574 562.406 206.364 577.527C192.146 592.659 172.111 603.458 149.131 610.343C103.167 624.116 45.5458 622.193 -0.445465 608.105C-6.33406 606.301 -12.1427 604.533 -17.8688 602.791C-86.6012 581.875 -143.443 564.578 -183.935 531.828C-227.737 496.4 -252.452 442.831 -252.118 346.751C-251.951 298.722 -243.21 264.458 -228.177 238.548C-213.145 212.642 -191.793 195.042 -166.318 180.387C-147.245 169.415 -125.891 160.109 -103.157 150.202C-95.5025 146.866 -87.692 143.462 -79.7594 139.904C-48.283 125.783 -14.9328 109.246 18.0249 84.9108C83.584 36.5032 163.636 60.1328 220.641 110.741C249.134 136.037 271.823 168.04 284.009 201.065C296.195 234.092 297.867 268.101 284.397 297.457Z" stroke="#212121"/>
<path d="M269.012 299.871L268.644 300.674C243.389 355.711 230.113 384.643 223.287 411.204C216.423 437.913 216.083 462.214 216.586 508.189C216.836 531.05 208.908 549.376 195.532 563.611C182.147 577.855 163.284 588.023 141.648 594.506C98.368 607.474 44.1112 605.663 0.805267 592.398C-4.7395 590.7 -10.209 589.035 -15.6007 587.395C-80.3295 567.697 -133.853 551.409 -171.98 520.572C-213.221 487.216 -236.493 436.78 -236.178 346.304C-236.021 301.078 -227.791 268.816 -213.637 244.423C-199.484 220.032 -179.382 203.461 -155.394 189.662C-137.434 179.33 -117.327 170.568 -95.9179 161.238C-88.7096 158.096 -81.3537 154.891 -73.8827 151.539C-44.2401 138.241 -12.8314 122.667 18.2079 99.7481C79.9304 54.1735 155.301 76.4172 208.979 124.072C235.808 147.89 257.171 178.024 268.645 209.12C280.12 240.216 281.693 272.235 269.012 299.871Z" stroke="#212121"/>
<path d="M252.985 302.387L252.639 303.14C229.014 354.627 216.593 381.696 210.206 406.548C203.783 431.54 203.465 454.279 203.936 497.29C204.17 518.668 196.757 535.805 184.248 549.116C171.73 562.437 154.09 571.947 133.851 578.011C93.3686 590.141 42.616 588.447 2.10701 576.039C-3.07974 574.45 -8.19598 572.893 -13.2395 571.359C-73.798 552.93 -123.865 537.694 -159.529 508.849C-198.101 477.651 -219.871 430.477 -219.577 345.84C-219.43 303.533 -211.731 273.357 -198.493 250.542C-185.256 227.731 -166.455 212.231 -144.016 199.323C-127.216 189.659 -108.407 181.462 -88.3789 172.734C-81.635 169.795 -74.7528 166.795 -67.7625 163.659C-40.03 151.219 -10.6436 136.647 18.3976 115.204C76.1236 72.5799 146.618 93.38 196.83 137.957C221.926 160.237 241.909 188.424 252.641 217.51C263.374 246.596 264.844 276.542 252.985 302.387Z" stroke="#212121"/>
<path d="M236.628 304.954L236.304 305.66C214.342 353.521 202.794 378.689 196.855 401.795C190.883 425.035 190.587 446.179 191.025 486.164C191.242 506.03 184.354 521.953 172.731 534.321C161.099 546.699 144.705 555.538 125.894 561.174C88.2662 572.449 41.0902 570.875 3.43608 559.341C-1.38522 557.864 -6.14095 556.417 -10.829 554.99C-67.1311 537.857 -113.67 523.695 -146.82 496.883C-182.668 467.888 -202.906 424.044 -202.632 345.366C-202.495 306.039 -195.338 277.991 -183.035 256.788C-170.734 235.588 -153.26 221.183 -132.403 209.184C-116.786 200.2 -99.3029 192.581 -80.6837 184.467C-74.4138 181.734 -68.015 178.946 -61.5154 176.03C-35.7325 164.464 -8.41022 150.916 18.5915 130.979C72.2386 91.3666 137.756 110.693 184.431 152.13C207.758 172.839 226.331 199.039 236.307 226.073C246.283 253.108 247.647 280.938 236.628 304.954Z" stroke="#212121"/>
<path d="M220.01 307.561L219.708 308.218C199.437 352.396 188.775 375.632 183.292 396.966C177.777 418.426 177.504 437.95 177.908 474.861C178.109 493.19 171.754 507.879 161.031 519.29C150.299 530.711 135.172 538.867 117.811 544.069C83.0828 554.475 39.5402 553.022 4.78633 542.377C0.336349 541.014 -4.05302 539.678 -8.37988 538.361C-60.3579 522.544 -103.313 509.472 -133.909 484.726C-166.99 457.969 -185.67 417.507 -185.417 344.884C-185.291 308.583 -178.685 282.699 -167.332 263.132C-155.98 243.569 -139.856 230.275 -120.605 219.201C-106.191 210.909 -90.0537 203.876 -72.8661 196.386C-67.0776 193.863 -61.17 191.289 -55.1689 188.597C-31.3666 177.919 -6.14122 165.411 18.7885 147.004C68.2918 110.451 128.753 128.281 171.834 166.527C193.364 185.641 210.506 209.823 219.713 234.772C228.919 259.723 230.177 285.403 220.01 307.561Z" stroke="#212121"/>
<path d="M201.31 310.496L201.035 311.097C182.665 351.13 173 372.193 168.03 391.533C163.03 410.988 162.783 428.689 163.149 462.142C163.33 478.741 157.576 492.043 147.866 502.376C138.147 512.719 124.445 520.107 108.716 524.82C77.251 534.248 37.7975 532.932 6.30756 523.287C2.27544 522.051 -1.70171 520.841 -5.62213 519.648C-52.7338 505.311 -91.6557 493.467 -119.378 471.045C-149.345 446.807 -166.271 410.152 -166.043 344.342C-165.928 311.448 -159.942 287.997 -149.658 270.273C-139.375 252.552 -124.769 240.509 -107.326 230.475C-94.2647 222.961 -79.643 216.589 -64.0664 209.801C-58.8199 207.514 -53.465 205.181 -48.0249 202.74C-26.4516 193.062 -3.58607 181.725 19.012 165.039C63.8518 131.93 118.623 148.075 157.659 182.731C177.167 200.049 192.699 221.959 201.04 244.563C209.381 267.168 210.519 290.428 201.31 310.496Z" stroke="#212121"/>
<path d="M184.378 313.153L184.126 313.704C167.478 349.985 158.716 369.08 154.21 386.613C149.676 404.255 149.452 420.305 149.784 450.626C149.949 465.66 144.737 477.705 135.944 487.062C127.142 496.429 114.73 503.123 100.479 507.393C71.9685 515.936 36.2168 514.744 7.68161 506.003C4.02769 504.884 0.423676 503.787 -3.12889 502.706C-45.835 489.71 -81.1053 478.977 -106.225 458.659C-133.373 436.702 -148.713 403.493 -148.506 343.85C-148.402 314.04 -142.977 292.793 -133.661 276.737C-124.346 260.684 -111.114 249.773 -95.3077 240.68C-83.4712 233.871 -70.2213 228.097 -56.1032 221.944C-51.3473 219.872 -46.4928 217.756 -41.5606 215.543C-22.0051 206.771 -1.27597 196.493 19.2112 181.365C59.8291 151.374 109.45 165.994 144.824 197.399C162.501 213.092 176.574 232.945 184.132 253.426C191.689 273.907 192.718 294.977 184.378 313.153Z" stroke="#212121"/>
<path d="M164.636 316.252L164.41 316.744C149.77 348.649 142.061 365.449 138.096 380.877C134.106 396.403 133.91 410.529 134.202 437.198C134.346 450.405 129.768 460.985 122.045 469.205C114.312 477.434 103.405 483.317 90.876 487.071C65.8115 494.582 34.3769 493.534 9.28757 485.849C6.07469 484.865 2.90578 483.9 -0.217804 482.95C-37.7862 471.517 -68.798 462.079 -90.8838 444.216C-114.744 424.918 -128.233 395.728 -128.051 343.278C-127.96 317.065 -123.189 298.387 -115.001 284.276C-106.815 270.168 -95.1858 260.577 -81.2886 252.583C-70.8804 246.595 -59.2303 241.518 -46.8131 236.107C-42.6292 234.283 -38.3583 232.422 -34.0185 230.475C-16.8161 222.758 1.42155 213.716 19.447 200.406C55.1415 174.05 98.7548 186.891 129.859 214.505C145.401 228.303 157.774 245.758 164.417 263.762C171.061 281.767 171.963 300.283 164.636 316.252Z" stroke="#212121"/>
<path d="M143.868 319.51L143.67 319.941C131.142 347.243 124.541 361.63 121.145 374.843C117.727 388.144 117.559 400.245 117.809 423.073C117.932 434.36 114.021 443.398 107.422 450.421C100.813 457.454 91.4896 462.484 80.7726 465.696C59.3323 472.12 32.4384 471.224 10.9734 464.649C8.22459 463.807 5.51345 462.982 2.84119 462.169C-29.3234 452.38 -55.8563 444.306 -74.7506 429.024C-95.1528 412.522 -106.695 387.56 -106.539 342.676C-106.461 320.245 -102.38 304.27 -95.3787 292.205C-88.3796 280.142 -78.4357 271.941 -66.5463 265.101C-57.6406 259.978 -47.6731 255.634 -37.045 251.002C-33.4628 249.441 -29.8057 247.847 -26.0888 246.18C-11.3616 239.574 4.25558 231.83 19.6917 220.433C50.2077 197.9 87.5026 208.871 114.116 232.498C127.412 244.302 137.996 259.234 143.678 274.633C149.361 290.034 150.13 305.863 143.868 319.51Z" stroke="#212121"/>
<path d="M123.29 322.739L123.121 323.108C112.685 345.851 107.181 357.846 104.35 368.864C101.498 379.96 101.359 390.055 101.567 409.077C101.67 418.461 98.4184 425.973 92.9337 431.809C87.4397 437.656 79.6845 441.842 70.763 444.515C52.9137 449.864 30.519 449.118 12.6453 443.644C10.3561 442.942 8.0985 442.255 5.87335 441.578C-20.9367 433.419 -43.0315 426.695 -58.7635 413.971C-75.7393 400.24 -85.3533 379.467 -85.2233 342.079C-85.1584 323.396 -81.7585 310.099 -75.9339 300.061C-70.111 290.026 -61.8375 283.2 -51.9374 277.505C-44.5203 273.238 -36.2202 269.621 -27.3647 265.762C-24.3789 264.461 -21.3298 263.132 -18.2302 261.741C-5.95554 256.235 7.06509 249.78 19.9356 240.276C45.3204 221.533 76.3546 230.65 98.5177 250.326C109.589 260.155 118.4 272.587 123.13 285.405C127.861 298.225 128.497 311.392 123.29 322.739Z" stroke="#212121"/>
</svg>
