<svg width="125" height="30" viewBox="0 0 125 30" fill="none" xmlns="http://www.w3.org/2000/svg">
<path d="M53.4531 10.8002L53.4533 10.7991L52.6531 13.578L53.4531 10.8002Z" fill="#FDDD0A"/>
<path d="M76.9639 4.4377H73.2978C73.0944 4.4377 72.8924 4.59761 72.849 4.79235L70.246 16.5921C70.2029 16.7868 70.0012 16.9462 69.7978 16.9462H67.2029C64.6358 16.9462 64.9327 15.2067 65.4585 12.8229C65.4637 12.7989 65.469 12.7755 65.4742 12.751L65.5319 12.4506C65.5354 12.4311 65.5395 12.4117 65.5427 12.394L65.7854 11.1268C65.8236 10.9292 65.8816 10.6402 65.9195 10.4586L67.1033 4.79358C67.1441 4.59827 67.0106 4.43779 66.8072 4.43779H63.0442C62.8408 4.43779 62.6394 4.59827 62.5977 4.79302L60.9797 12.3149L60.9785 12.3206L60.9033 12.6701C59.9714 16.839 60.2185 20.8144 65.2835 20.9389C65.3662 20.9412 65.4303 20.9418 65.4303 20.9418H73.3807C73.5842 20.9418 73.7856 20.7819 73.8281 20.5866L77.2575 4.79299C77.2997 4.59767 77.1673 4.4377 76.9639 4.4377Z" fill="#FDDD0A"/>
<path d="M91.5888 16.9873C91.7925 16.9873 91.9257 17.1472 91.8849 17.3425L91.5288 19.0472" fill="#FDDD0A"/>
<path d="M90.727 21.1118L90.7287 21.1114C89.6498 21.1199 86.4078 21.1439 83.971 21.1439C86.9366 21.1439 90.727 21.1118 90.727 21.1118Z" fill="#FDDD0A"/>
<path d="M81.7839 14.7916C81.7809 14.6049 81.9978 14.2834 82.2016 14.2834L81.7437 14.276C81.5374 16.309 81.7839 14.7916 81.7839 14.7916Z" fill="#FDDD0A"/>
<path d="M91.5888 16.9873C91.7925 16.9873 91.9257 17.1472 91.8849 17.3425L91.5288 19.0472L91.4708 19.3254" fill="#FDDD0A"/>
<path d="M90.7287 21.1114C89.938 21.1177 87.9865 21.1317 86.0394 21.1391C87.9855 21.1323 89.9378 21.1177 90.7287 21.1114Z" fill="#FDDD0A"/>
<path d="M91.1734 20.753L91.4708 19.3254L91.1731 20.7548L91.1734 20.753Z" fill="#FDDD0A"/>
<path d="M30.8829 14.8344L31.4524 12.3609L30.8013 15.1883L30.1765 18.0683L30.7241 15.5436C30.7664 15.3483 30.8381 15.0291 30.8829 14.8344Z" fill="#FDDD0A"/>
<path d="M37.6989 4.39604H33.6728C33.4691 4.39604 33.266 4.55538 33.2205 4.74954L32.457 8.05216C32.4121 8.24633 32.5418 8.40566 32.7455 8.40566H36.8028C37.0063 8.40566 37.2085 8.24633 37.2522 8.05158L37.9901 4.75069C38.0335 4.55594 37.9026 4.39604 37.6989 4.39604Z" fill="#FDDD0A"/>
<path d="M25.127 27.6234C25.127 27.6234 27.1565 27.6491 28.4466 27.6491C27.4666 27.6491 25.848 27.6314 25.1253 27.6228L25.127 27.6234Z" fill="#FDDD0A"/>
<path d="M36.5314 9.5335H32.4736C32.2702 9.5335 32.0666 9.69271 32.0217 9.88746L31.4524 12.3609L30.8829 14.8344C30.8381 15.0291 30.7664 15.3483 30.7241 15.5436L30.1765 18.0683L29.6287 20.5931C29.5862 20.7879 29.4988 21.1025 29.4335 21.2916C29.4335 21.2916 28.6755 23.5017 27.4011 23.4765C27.3469 23.4754 27.2941 23.4749 27.2419 23.4736C26.6244 23.4622 26.1392 23.4536 26.1392 23.4536C25.9361 23.4507 25.7308 23.6061 25.6833 23.7997L24.8423 27.2656C24.7951 27.4592 24.9231 27.6194 25.1253 27.6228C25.848 27.6314 27.4666 27.6491 28.4466 27.6491C31.63 27.6491 33.3076 25.9207 34.3834 20.9478L36.8227 9.88818C36.8655 9.69344 36.7349 9.5335 36.5314 9.5335Z" fill="#FDDD0A"/>
<path d="M94.1743 20.9415C93.9709 20.9415 93.8389 20.7816 93.8817 20.5863L96.9342 6.5769" fill="#FDDD0A"/>
<path d="M93.9261 20.764C93.9013 20.6664 93.9158 20.4271 93.959 20.2318L95.4077 13.582L93.8817 20.5863C93.8389 20.7816 93.9709 20.9415 94.1743 20.9415L94.5448 20.9416C94.3411 20.9416 93.9506 20.8617 93.9261 20.764Z" fill="#FDDD0A"/>
<path d="M98.1756 20.8616C98.0648 20.9056 97.8072 20.9415 97.6035 20.9415H97.9742C98.1776 20.9415 98.3775 20.7816 98.4177 20.5857L98.4912 20.2305C98.4507 20.4258 98.2866 20.8176 98.1756 20.8616Z" fill="#FDDD0A"/>
<path d="M99.035 17.5961L99.58 14.957L99.579 14.9622L99.035 17.5961Z" fill="#FDDD0A"/>
<path d="M111.079 7.51537L111.247 8.19612C111.294 8.39086 111.165 8.54906 110.962 8.54962" fill="#FDDD0A"/>
<path d="M99.58 14.957C99.6205 14.7617 99.6869 14.4455 99.7291 14.2519L100.311 11.5804L99.6512 14.6064L99.58 14.957Z" fill="#FDDD0A"/>
<path d="M96.9843 6.34736C96.9438 6.53582 96.8919 6.77396 96.8575 6.93159L95.4089 13.5819L96.9342 6.5769L96.9843 6.34736Z" fill="#FDDD0A"/>
<path d="M111.246 8.19594L111.078 7.51519L110.912 6.81803L110.828 6.46495C110.498 5.21026 109.53 4.48612 107.43 4.48612L101.147 4.47929H97.7576C97.5542 4.47929 97.3528 4.63862 97.3108 4.83393L96.9843 6.34736L96.9342 6.5769L95.4089 13.5819L93.959 20.2318C93.9158 20.4271 93.9013 20.6664 93.9261 20.764C93.9506 20.8617 94.3411 20.9416 94.5448 20.9416L97.6035 20.9415C97.8072 20.9415 98.0648 20.9056 98.1756 20.8616C98.2866 20.8176 98.4507 20.4258 98.4912 20.2305L99.035 17.5961L99.579 14.9622L99.58 14.957L99.6512 14.6064L100.311 11.5804L100.894 8.90743C100.937 8.71326 101.137 8.5545 101.34 8.55394L110.962 8.54962C111.165 8.54906 111.294 8.39086 111.247 8.19612L111.246 8.19594Z" fill="#FDDD0A"/>
<path d="M123.632 2.04075C123.428 2.04216 123.095 2.0434 122.892 2.0434H119.812C119.608 2.0434 119.348 2.17817 119.233 2.34293L112.423 12.1177C112.308 12.2827 112.177 12.2582 112.132 12.064L111.631 9.91042C111.586 9.71568 111.382 9.55692 111.178 9.55692H106.801C106.597 9.55692 106.476 9.7134 106.532 9.90529L108.493 16.6384C108.549 16.8303 108.553 17.1455 108.503 17.3386L107.648 20.5973C107.597 20.7909 107.723 20.9491 107.926 20.9491H112.253C112.456 20.9491 112.664 20.7909 112.715 20.5973L113.57 17.3386C113.621 17.1455 113.762 16.8566 113.885 16.6972L124.94 2.32085C125.063 2.16152 124.996 2.03187 124.793 2.03332L123.632 2.04075Z" fill="#FDDD0A"/>
<path d="M88.8529 10.4735L88.8527 10.4695C88.827 10.6859 88.6233 10.8447 88.4199 10.8447H82.8698C82.678 10.8447 82.5804 10.7168 82.6086 10.5591C82.6103 10.5546 82.611 10.5506 82.6139 10.5466L82.6104 10.5482C82.6116 10.5419 82.6116 10.5362 82.6134 10.53C82.6134 10.53 82.6239 10.4917 82.6387 10.4374C83.1688 9.05655 84.2486 8.15023 86.2778 8.15023C88.5623 8.15023 89.0081 9.24394 88.8529 10.4735ZM87.2247 4.19653C80.1006 4.19653 78.4125 8.43349 77.4654 12.7097C76.5183 17.0683 76.5992 21.1439 83.971 21.1439L84.2334 21.1437C84.2567 21.1432 84.2807 21.1432 84.304 21.1432H84.5109L84.7797 21.1432C84.8085 21.1427 84.8373 21.1427 84.8667 21.1427C84.9401 21.1427 85.0141 21.1419 85.0884 21.1419L85.14 21.1423C85.4317 21.1418 85.7278 21.1404 86.0245 21.1393L86.0394 21.1391C87.9864 21.1317 89.9389 21.1176 90.7298 21.1114C90.9321 21.1084 91.1299 20.9486 91.1716 20.755L91.4708 19.3254L91.5288 19.0472L91.8849 17.3425C91.9257 17.1472 91.7925 16.9873 91.5888 16.9873L84.9605 16.9875C82.3246 16.9875 81.5418 16.3011 81.8302 14.2834H92.4246L92.4237 14.2846C92.4264 14.2846 92.4286 14.2834 92.4309 14.2834C92.5994 14.2805 92.755 14.1669 92.8168 14.0156C92.8285 13.9865 92.8384 13.9562 92.8424 13.9248L92.8412 13.926C94.4144 8.11215 93.9637 4.19653 87.2247 4.19653Z" fill="#FDDD0A"/>
<path d="M53.5533 10.4512L53.4533 10.7991L53.4531 10.8002L52.6531 13.578L51.8532 16.3553C51.7979 16.5472 51.5863 16.7042 51.3823 16.7042H47.148C43.9363 16.7042 43.1542 14.2429 43.9363 10.6125C44.7182 6.8993 46.2514 4.59099 49.4125 4.35731C53.7322 4.03806 54.5964 7.01497 53.5533 10.4512ZM56.4571 16.4905C56.4571 16.4905 58.4534 11.7413 58.9068 8.99789C59.5251 5.32561 57.6486 0 50.4006 0C43.1939 0 40.0645 5.08468 38.8703 10.6122C37.6764 16.1796 39.2407 21.0625 46.4065 21.0225L57.3421 20.9831C57.5455 20.9814 57.7545 20.8231 57.8064 20.6307L58.7267 17.1909C58.778 16.9979 58.6532 16.8396 58.4498 16.8384L56.687 16.8281C56.5139 16.8269 56.414 16.7169 56.435 16.5713C56.4388 16.545 56.4454 16.5185 56.4571 16.4905Z" fill="#FDDD0A"/>
<path d="M1.42728 7.13668C-0.562583 9.93902 -0.31487 13.5849 1.20522 16.5624C1.24136 16.6338 1.27924 16.704 1.31654 16.7743C1.34044 16.8188 1.36288 16.8645 1.38765 16.9085C1.40164 16.9347 1.41737 16.9605 1.43195 16.9856C1.45788 17.033 1.4844 17.0781 1.51121 17.1244C1.55842 17.206 1.6068 17.2871 1.65634 17.3682C1.68374 17.4128 1.71084 17.4573 1.73911 17.5019C1.7939 17.5887 1.85014 17.6743 1.90755 17.76C1.93146 17.7965 1.95476 17.8331 1.97924 17.8685C2.05851 17.9844 2.13953 18.0998 2.22316 18.2134C2.22524 18.2163 2.22752 18.2197 2.23014 18.2225C2.24327 18.2408 2.25784 18.2585 2.27123 18.2768C2.34351 18.3745 2.41811 18.471 2.49359 18.5663C2.52129 18.6012 2.54926 18.636 2.57723 18.6709C2.64455 18.7537 2.71304 18.8359 2.78269 18.9181C2.80862 18.949 2.83485 18.9798 2.86108 19.0101C2.95463 19.118 3.04992 19.2254 3.14725 19.3304C3.14904 19.3321 3.15134 19.3344 3.15307 19.3362C3.15716 19.3407 3.16065 19.3436 3.16414 19.3481C3.25915 19.4498 3.35648 19.5492 3.45499 19.6485C3.48559 19.6794 3.51678 19.7102 3.54825 19.7405C3.6246 19.8159 3.70212 19.8901 3.78052 19.9638C3.81228 19.9935 3.84376 20.0237 3.87552 20.0523C3.98014 20.1488 4.08593 20.2436 4.19376 20.3361C4.19555 20.3378 4.19695 20.3391 4.19871 20.3401C4.21707 20.3561 4.23601 20.371 4.25408 20.3864C4.34909 20.4669 4.44584 20.5469 4.54317 20.6257C4.5828 20.6571 4.62302 20.6879 4.66295 20.7193C4.74251 20.7816 4.82294 20.8433 4.90395 20.9038C4.94679 20.9358 4.98963 20.9678 5.03276 20.9997C5.12223 21.0643 5.21228 21.1277 5.3032 21.1899C5.33642 21.2133 5.36848 21.2362 5.4017 21.2584C5.41101 21.2647 5.41949 21.271 5.4288 21.2773C5.51507 21.3356 5.60336 21.3915 5.69139 21.4475C5.72927 21.472 5.76687 21.4977 5.80504 21.5217C5.94026 21.6057 6.07754 21.6885 6.21624 21.7684C6.25384 21.7896 6.29201 21.8101 6.3299 21.8313C6.4319 21.8889 6.53448 21.9455 6.63851 22.0009C6.69476 22.0306 6.75246 22.0586 6.80929 22.0871C6.88273 22.1248 6.95558 22.1631 7.03019 22.1996C7.04708 22.2076 7.06458 22.2156 7.08119 22.2236C7.11121 22.2379 7.14151 22.2516 7.17153 22.2664C7.28722 22.3207 7.4038 22.3738 7.52154 22.4252C7.54661 22.436 7.57079 22.4469 7.59557 22.4577C7.73049 22.5154 7.86658 22.5708 8.00385 22.6239C8.03678 22.637 8.07001 22.6496 8.10323 22.6622C8.23029 22.7102 8.35911 22.7576 8.4885 22.8021C8.50483 22.8078 8.52056 22.813 8.53688 22.8186C8.67881 22.8672 8.82219 22.9123 8.96644 22.9563C9.00082 22.966 9.0355 22.9768 9.07018 22.9865C9.21706 23.0299 9.3622 23.0819 9.51373 23.1093C19.1372 24.8289 21.9326 17.4429 21.9326 17.4429C19.5848 20.4399 15.4174 21.2303 11.469 20.3503C11.3195 20.3171 11.1744 20.2715 11.0283 20.2292C10.9913 20.2183 10.9549 20.2075 10.9185 20.1966C10.776 20.1538 10.6346 20.1087 10.4942 20.0613C10.4749 20.0545 10.4554 20.0476 10.4359 20.0407C10.31 19.9973 10.1855 19.9516 10.0617 19.9048C10.0267 19.8911 9.99174 19.878 9.95678 19.8643C9.82097 19.8117 9.68605 19.7569 9.55286 19.6998C9.52546 19.6884 9.49923 19.6764 9.47213 19.665C9.3576 19.6141 9.24424 19.5627 9.13145 19.5096C9.09882 19.4942 9.06617 19.4794 9.03295 19.4634C8.94438 19.421 8.85676 19.3759 8.76939 19.3319C8.7109 19.3017 8.65145 19.2732 8.59344 19.2416C8.48672 19.1857 8.38192 19.1275 8.27759 19.068C8.24226 19.0486 8.20645 19.0299 8.17087 19.0098C8.03217 18.9298 7.89513 18.847 7.75953 18.763C7.72205 18.7396 7.68552 18.7146 7.64852 18.6905C7.55016 18.6283 7.45228 18.5649 7.35583 18.4998C7.32384 18.4786 7.29304 18.4559 7.26153 18.4348C7.16842 18.3703 7.07627 18.305 6.98483 18.2388C6.94329 18.2086 6.90247 18.1782 6.86212 18.148C6.77832 18.0851 6.69501 18.0217 6.6124 17.9567C6.5751 17.9276 6.5378 17.8984 6.50108 17.8693C6.39616 17.7848 6.29242 17.6997 6.19012 17.6123C6.17935 17.6032 6.16768 17.5941 6.15603 17.5843C6.04529 17.489 5.93658 17.3913 5.82905 17.2931C5.79787 17.264 5.76756 17.2354 5.73696 17.2063C5.6574 17.132 5.57901 17.0572 5.50207 16.9807C5.47118 16.9504 5.44029 16.9207 5.40998 16.8905C5.31206 16.7923 5.21589 16.6929 5.12175 16.5918C5.1171 16.5867 5.11215 16.5821 5.10749 16.577C5.00782 16.4702 4.91048 16.3611 4.81518 16.2509C4.78925 16.2206 4.76418 16.1915 4.73853 16.1618C4.66743 16.0778 4.5969 15.9927 4.52812 15.9071C4.50234 15.8762 4.47656 15.8446 4.45101 15.8128C4.36817 15.7075 4.28724 15.6025 4.20798 15.4958C2.01583 12.566 1.22831 8.52509 2.9804 5.20649" fill="#FDDD0A"/>
<path d="M7.60423 4.77572C6.16518 6.8048 6.24327 9.52099 7.36584 11.667C7.55411 12.0267 7.76568 12.3757 8.00231 12.708C8.21797 13.0107 8.45694 13.3711 8.74311 13.6144C8.84686 13.7263 8.95527 13.8354 9.06601 13.9427C9.09397 13.9707 9.12254 13.9976 9.1511 14.025C9.25864 14.1272 9.36792 14.2277 9.48099 14.3254C9.48564 14.3288 9.48973 14.3334 9.49439 14.3368L9.49758 14.3397C9.6226 14.4471 9.75169 14.5505 9.88285 14.6521C9.91201 14.6738 9.94085 14.6967 9.97028 14.7189C10.1017 14.8177 10.2358 14.9148 10.3733 15.0073C10.3774 15.0103 10.3809 15.013 10.385 15.0159C10.4456 15.057 10.5074 15.0953 10.5689 15.1347C10.5983 15.1535 10.6263 15.1735 10.656 15.1912C10.7542 15.2529 10.8536 15.3129 10.9547 15.3705C10.969 15.3791 10.983 15.3865 10.997 15.3945C11.0841 15.4436 11.1724 15.4922 11.261 15.539C11.2919 15.5561 11.3234 15.571 11.3549 15.587C11.4161 15.6184 11.4773 15.6504 11.5396 15.6806C11.5489 15.6852 11.5586 15.6892 11.5676 15.6932C11.6944 15.7543 11.8223 15.8131 11.9529 15.8691C11.9808 15.8811 12.0097 15.8919 12.0379 15.9034C12.1423 15.9468 12.2478 15.989 12.3538 16.029C12.3987 16.0456 12.4442 16.0616 12.4891 16.0776C12.5852 16.1124 12.6817 16.1444 12.779 16.1763C12.823 16.1901 12.8662 16.2043 12.9102 16.2175C13.0486 16.2597 13.1853 16.3128 13.3295 16.3363C20.7597 17.5424 22.4751 11.9372 22.4751 11.9372C20.9288 14.1193 17.9343 15.1604 14.7388 14.3477C14.5969 14.3112 14.457 14.2712 14.318 14.2284C14.2754 14.2158 14.2338 14.2021 14.1915 14.1884C14.0927 14.157 13.9945 14.1239 13.8972 14.089C13.8526 14.073 13.808 14.057 13.7643 14.0405C13.6576 14.0005 13.5521 13.9588 13.4475 13.9154C13.4189 13.9034 13.3901 13.8926 13.3621 13.88C13.231 13.824 13.1019 13.7652 12.9745 13.7035C12.9089 13.6721 12.8445 13.639 12.7801 13.6064C12.7428 13.5876 12.7052 13.5688 12.6679 13.5499C12.5852 13.5059 12.503 13.4602 12.422 13.414C12.4027 13.4031 12.3826 13.3928 12.3631 13.3814C12.2626 13.3238 12.1635 13.2644 12.0652 13.2033C12.0349 13.1844 12.0058 13.1639 11.9755 13.1444C11.9108 13.1033 11.8461 13.0616 11.7826 13.0194C11.6456 12.9268 11.5124 12.8298 11.381 12.7315C11.3507 12.7081 11.3204 12.6853 11.2906 12.6619C9.89189 11.5798 8.7832 10.1012 8.25607 8.42443C7.70363 6.68548 7.82276 4.73344 8.77985 3.14934" fill="#FDDD0A"/>
<path d="M12.7994 3.01177C11.951 4.23504 11.8677 5.75422 12.4564 7.10534C13.0771 8.53935 14.3492 9.6644 15.8338 10.1977C15.895 10.22 15.9562 10.24 16.0182 10.2606C16.0453 10.2686 16.0721 10.2777 16.0995 10.2857C16.187 10.3125 16.2738 10.3439 16.3642 10.3605C20.4668 11.1372 21.5796 8.2977 21.8759 7.87978C20.9011 9.25496 19.2629 9.58504 17.253 9.10705C17.0942 9.06916 16.9197 9.01302 16.7667 8.95992C16.5704 8.89138 16.377 8.81325 16.1892 8.72483C15.8323 8.55688 15.4921 8.3529 15.1767 8.11945C13.378 6.78238 12.2608 4.2315 13.4344 2.15407" fill="#FDDD0A"/>
<path d="M59.0061 26.8375L57.8235 29.4765H56.5179L56.6248 27.0786L55.6637 29.4765H54.3995L54.3663 26.8375L54.5059 26.1859H55.4011L55.2286 28.7924L56.2224 26.1859H57.4705L57.3802 28.8249L58.3658 26.1859H59.1457L59.0061 26.8375Z" fill="#FDDD0A"/>
<path d="M61.0664 27.6187C61.1815 27.1036 61.1486 27.0071 60.8775 27.0071H60.4669L60.204 28.2143L59.8016 29.477H59.038L59.662 26.6129L59.7526 26.1943H60.4506L60.5409 26.3873C60.5409 26.3873 60.9434 26.1543 61.3371 26.1543C62.175 26.1543 62.1094 26.7734 61.9284 27.6186L61.0664 27.6187Z" fill="#FDDD0A"/>
<path d="M63.5468 25.7754C63.2105 25.7754 62.9969 25.6789 63.0788 25.2768C63.1692 24.8742 63.432 24.7777 63.7602 24.7777C64.0892 24.7777 64.3107 24.8742 64.2203 25.2768C64.1381 25.6709 63.8755 25.7754 63.5468 25.7754ZM63.1858 29.4767H62.4298L62.5779 28.1895L62.8407 26.9988L62.3153 26.8857L62.4631 26.1861H63.8998L63.1858 29.4767Z" fill="#FDDD0A"/>
<path d="M66.4618 26.8843L65.5176 26.9973L65.2463 28.2526C65.1723 28.5987 65.1722 28.6952 65.4847 28.6952H66.1168L65.9853 29.3548C65.9853 29.3548 65.4109 29.5238 65.1641 29.5238C64.1951 29.5238 64.2033 29.0007 64.3761 28.22L64.6389 26.9893L64.1132 26.8768L64.2691 26.1767H64.8196L65.1317 25.3475H65.879L65.698 26.1767H66.6177L66.4618 26.8843Z" fill="#FDDD0A"/>
<path d="M68.4242 26.9264C67.981 26.9264 67.7508 27.152 67.6607 27.554L68.9252 27.4495C68.9826 27.176 68.9252 26.9264 68.4242 26.9264ZM67.5377 28.1491C67.4797 28.5517 67.6359 28.6882 68.1614 28.6882H69.4833L69.3521 29.2998C69.3521 29.2998 68.5557 29.5169 67.9644 29.5169C66.4944 29.5169 66.4778 28.7048 66.6669 27.8356C66.8558 26.9824 67.1924 26.1383 68.6128 26.1383C69.9845 26.1383 70.0504 26.9504 69.7135 28.1491L67.5377 28.1491Z" fill="#FDDD0A"/>
<path d="M72.7263 29.476H71.9712L72.1189 28.1888L72.6528 25.7427L72.1268 25.6222L72.283 24.9221H73.7203L72.7263 29.476Z" fill="#FDDD0A"/>
<path d="M75.455 26.9264C75.0112 26.9264 74.7816 27.152 74.6909 27.554L75.9557 27.4495C76.0128 27.176 75.9557 26.9264 75.455 26.9264ZM74.5679 28.1491C74.5105 28.5517 74.6667 28.6882 75.1919 28.6882H76.5141L76.3826 29.2998C76.3826 29.2998 75.5859 29.5169 74.9946 29.5169C73.5246 29.5169 73.5086 28.7048 73.6974 27.8356C73.8865 26.9824 74.2231 26.1383 75.6436 26.1383C77.015 26.1383 77.0806 26.9504 76.7443 28.1491L74.5679 28.1491Z" fill="#FDDD0A"/>
<path d="M80.2083 26.9661C80.2083 26.9661 79.2474 26.9741 78.9849 26.9741C78.4262 26.9741 78.3688 27.1426 78.328 27.3196L78.2948 27.4807L80.0687 27.6098C80.0687 27.6098 80.0768 28.1648 80.0028 28.4784C79.8961 29.0015 79.3459 29.532 78.3525 29.532C77.8594 29.532 77.0629 29.3476 77.0629 29.3476L77.2025 28.712H78.4262C78.9682 28.712 79.0423 28.5669 79.0755 28.4224L79.1163 28.2134L77.3753 28.0843C77.3753 28.0843 77.3097 27.6577 77.3998 27.2317C77.5315 26.6521 78.073 26.1535 79.0667 26.1535C79.5595 26.1535 80.356 26.3299 80.356 26.3299L80.2083 26.9661Z" fill="#FDDD0A"/>
<path d="M83.51 26.9661C83.51 26.9661 82.5495 26.9741 82.2866 26.9741C81.7282 26.9741 81.6708 27.1426 81.6297 27.3196L81.5965 27.4807L83.3707 27.6098C83.3707 27.6098 83.3788 28.1648 83.3048 28.4784C83.1981 29.0015 82.6479 29.532 81.6542 29.532C81.1616 29.532 80.3649 29.3476 80.3649 29.3476L80.5045 28.712H81.7282C82.2699 28.712 82.3439 28.5669 82.3772 28.4224L82.418 28.2134L80.677 28.0843C80.677 28.0843 80.6114 27.6577 80.7014 27.2317C80.8332 26.6521 81.3746 26.1535 82.3687 26.1535C82.8612 26.1535 83.6577 26.3299 83.6577 26.3299L83.51 26.9661Z" fill="#FDDD0A"/>
<path d="M84.5437 30.0001H83.8872L83.9116 29.5169C83.6732 29.5015 83.5503 29.3325 83.6077 29.0504C83.698 28.6483 83.9527 28.5518 84.2893 28.5518C84.6177 28.5518 84.8389 28.6483 84.7492 29.0504L84.5437 30.0001Z" fill="#FDDD0A"/>
<path d="M88.9365 26.9989C88.444 26.9989 88.2718 27.2884 88.1566 27.8195C88.0415 28.3506 88.0745 28.6642 88.567 28.6642H89.2486L89.6266 26.9989H88.9365ZM90.0617 29.0502L89.9711 29.4768L89.2818 29.4688L89.183 29.2598C89.183 29.2598 88.5751 29.5168 88.1651 29.5168C87.1136 29.5168 87.0644 28.6722 87.2532 27.8195C87.442 26.9503 87.8527 26.1297 88.8957 26.1297C89.2736 26.1297 89.7825 26.3147 89.7825 26.3147L90.2013 24.923H90.957L90.0617 29.0502Z" fill="#FDDD0A"/>
<path d="M92.7801 26.9661C92.1399 26.9661 91.9341 27.3196 91.8193 27.8347C91.7126 28.3578 91.7622 28.7119 92.394 28.7119C93.0512 28.7119 93.2484 28.3658 93.363 27.8347C93.4784 27.3356 93.4452 26.9661 92.7801 26.9661ZM92.2221 29.5247C90.8669 29.5247 90.76 28.696 90.9407 27.8348C91.1298 26.9742 91.606 26.1535 92.9611 26.1535C94.3075 26.1535 94.4311 26.9742 94.2417 27.8348C94.0531 28.712 93.5766 29.5247 92.2221 29.5247Z" fill="#FDDD0A"/>
<path d="M99.9088 29.476L100.057 28.2048L100.131 27.8427C100.238 27.3602 100.303 27.0061 99.7855 27.0061H99.3834C99.4 27.2557 99.3504 27.5372 99.2849 27.8347L98.9319 29.476H98.1681L98.3159 28.2048L98.3896 27.8427C98.4965 27.3602 98.5618 27.0061 98.0451 27.0061H97.7164L97.1743 29.476H96.2954L97.01 26.1855H97.6998L97.8064 26.3865C97.8064 26.3865 98.2748 26.145 98.6525 26.145C98.9398 26.145 99.1534 26.274 99.2274 26.4345C99.3915 26.346 99.8598 26.145 100.197 26.145C101.247 26.145 101.215 26.9816 101.026 27.8348L100.673 29.4761L99.9088 29.476Z" fill="#FDDD0A"/>
<path d="M103.399 26.9661C102.758 26.9661 102.553 27.3196 102.438 27.8347C102.332 28.3578 102.381 28.7119 103.013 28.7119C103.67 28.7119 103.867 28.3658 103.982 27.8347C104.097 27.3356 104.064 26.9661 103.399 26.9661ZM102.841 29.5247C101.485 29.5247 101.379 28.696 101.56 27.8348C101.748 26.9742 102.225 26.1535 103.58 26.1535C104.927 26.1535 105.05 26.9742 104.861 27.8348C104.672 28.712 104.196 29.5247 102.841 29.5247Z" fill="#FDDD0A"/>
<path d="M107.142 27.6187C107.257 27.1036 107.225 27.0071 106.954 27.0071H106.543L106.28 28.2143L105.878 29.477H105.114L105.738 26.6129L105.829 26.1943H106.527L106.617 26.3873C106.617 26.3873 107.019 26.1543 107.414 26.1543C108.251 26.1543 108.185 26.7734 108.005 27.6186L107.142 27.6187Z" fill="#FDDD0A"/>
<path d="M110.084 26.9264C109.641 26.9264 109.411 27.152 109.32 27.554L110.584 27.4495C110.642 27.176 110.584 26.9264 110.084 26.9264ZM109.197 28.1491C109.14 28.5517 109.295 28.6882 109.821 28.6882H111.143L111.012 29.2998C111.012 29.2998 110.215 29.5169 109.624 29.5169C108.154 29.5169 108.138 28.7048 108.326 27.8356C108.515 26.9824 108.852 26.1383 110.273 26.1383C111.644 26.1383 111.71 26.9504 111.373 28.1491L109.197 28.1491Z" fill="#FDDD0A"/>
<path d="M112.111 29.5251C111.766 29.5251 111.553 29.4286 111.643 29.0346C111.724 28.6314 111.979 28.5354 112.325 28.5354C112.644 28.5354 112.866 28.6314 112.784 29.0346C112.693 29.4206 112.431 29.5251 112.111 29.5251Z" fill="#FDDD0A"/>
</svg>
