<svg width="57" height="31" viewBox="0 0 57 31" fill="none" xmlns="http://www.w3.org/2000/svg">
<path fill-rule="evenodd" clip-rule="evenodd" d="M8.7951 25.2617C3.77129 22.6263 1 19.1594 1 15.5971C1 12.0347 3.77129 8.56787 8.7951 5.93243C13.7719 3.32165 20.7165 1.67676 28.4419 1.67676C36.1674 1.67676 43.112 3.32165 48.0888 5.93243C53.1127 8.56787 55.884 12.0347 55.884 15.5971C55.884 19.1594 53.1127 22.6263 48.0888 25.2617C43.112 27.8725 36.1674 29.5174 28.4419 29.5174C20.7165 29.5174 13.7719 27.8725 8.7951 25.2617ZM28.4419 30.5174C12.7342 30.5174 0 23.8372 0 15.5971C0 7.35698 12.7342 0.676758 28.4419 0.676758C44.1497 0.676758 56.884 7.35698 56.884 15.5971C56.884 23.8372 44.1497 30.5174 28.4419 30.5174Z" fill="#FDDD0A"/>
<path d="M15.1948 11.975H16.9239C18.3045 11.975 18.7841 12.2771 18.947 12.4571C19.2174 12.7561 19.2684 13.3864 19.0947 14.2798C18.8994 15.28 18.5375 15.9892 18.0188 16.3875C17.4878 16.7952 16.6245 17.0018 15.4531 17.0018H14.2151L15.1948 11.975ZM18.1607 8.38437H11.8799C11.5844 8.38437 11.3304 8.59324 11.2741 8.88243L8.3599 23.8347C8.32472 24.0152 8.37225 24.2018 8.48942 24.3437C8.60669 24.4856 8.78137 24.5676 8.96571 24.5676H12.2319C12.5274 24.5676 12.7814 24.3588 12.8378 24.0696L13.5155 20.5923H15.8043C17.0986 20.5923 18.1883 20.4516 19.0426 20.1741C19.9212 19.8894 20.7296 19.4067 21.4451 18.7395C22.0368 18.1966 22.5242 17.5872 22.8935 16.9281C23.2629 16.2688 23.5283 15.5335 23.6823 14.7428C24.0645 12.7829 23.754 11.2135 22.7597 10.0785C21.775 8.95435 20.2276 8.38437 18.1607 8.38437ZM13.4663 17.6173H15.4531C16.77 17.6173 17.7508 17.37 18.3953 16.8752C19.0399 16.3803 19.4747 15.5544 19.7006 14.397C19.9167 13.2857 19.8183 12.5015 19.4052 12.0447C18.9917 11.5879 18.1647 11.3594 16.9239 11.3594H14.686L13.4663 17.6173ZM18.1607 8.9999C20.0501 8.9999 21.4285 9.49437 22.2949 10.4834C23.1612 11.4725 23.4221 12.853 23.0764 14.6254C22.9341 15.3555 22.6935 16.0231 22.3548 16.6278C22.0156 17.233 21.5727 17.7864 21.0255 18.2881C20.3733 18.8968 19.6487 19.3305 18.8515 19.5888C18.0542 19.8479 17.0388 19.9768 15.8043 19.9768H13.0066L12.2319 23.9521H8.96571L11.8799 8.9999H18.1607Z" fill="#FDDD0A"/>
<path d="M29.0248 4.40908H25.7843C25.4888 4.40908 25.2348 4.61795 25.1784 4.90715L22.2643 19.8595C22.2291 20.0399 22.2766 20.2265 22.3939 20.3684C22.5112 20.5103 22.6858 20.5923 22.8702 20.5923H26.1106C26.4061 20.5923 26.6602 20.3835 26.7166 20.0943L28.2887 12.0262H30.3697C31.3329 12.0262 31.5351 12.2314 31.5432 12.2402C31.6016 12.3029 31.6785 12.5932 31.5516 13.2437L30.2625 19.8595C30.2274 20.0399 30.2749 20.2265 30.3922 20.3684C30.5094 20.5103 30.6841 20.5923 30.8685 20.5923H34.1603C34.4558 20.5923 34.7099 20.3835 34.7663 20.0943L36.122 13.1362C36.4402 11.5029 36.168 10.2777 35.3133 9.49437C34.4978 8.74743 33.1316 8.38437 31.1368 8.38437H28.9988L29.6307 5.14208C29.6658 4.96162 29.6184 4.77491 29.5011 4.63314C29.3838 4.49126 29.2091 4.40908 29.0248 4.40908ZM29.0248 5.02461L28.2501 8.9999H31.1368C32.9533 8.9999 34.2061 9.31607 34.8957 9.94761C35.5852 10.5795 35.7918 11.6035 35.5162 13.0189L34.1603 19.9768H30.8685L32.1575 13.3611C32.3042 12.6085 32.2503 12.0952 31.9956 11.8215C31.7408 11.5478 31.1988 11.4107 30.3697 11.4107H27.7798L26.1106 19.9768H22.8702L25.7843 5.02461H29.0248Z" fill="#FDDD0A"/>
<path d="M40.6881 11.975H42.4172C43.7978 11.975 44.2774 12.2771 44.4404 12.4571C44.7108 12.7561 44.7618 13.3864 44.588 14.2797C44.3927 15.28 44.0307 15.9892 43.5122 16.3875C42.9811 16.7952 42.1178 17.0018 40.9464 17.0018H39.7086L40.6881 11.975ZM43.654 8.38437H37.3733C37.0778 8.38437 36.8238 8.59324 36.7675 8.88243L33.8533 23.8347C33.8181 24.0152 33.8657 24.2018 33.9828 24.3437C34.1001 24.4856 34.2748 24.5676 34.4591 24.5676H37.7253C38.0208 24.5676 38.2749 24.3588 38.3312 24.0696L39.0088 20.5923H41.2976C42.592 20.5923 43.6816 20.4516 44.5359 20.1741C45.4146 19.8894 46.2231 19.4066 46.9386 18.7393C47.5303 18.1965 48.0175 17.5872 48.3868 16.9281C48.7562 16.2688 49.0217 15.5335 49.1757 14.7428C49.5578 12.7828 49.2474 11.2134 48.253 10.0784C47.2683 8.95435 45.721 8.38437 43.654 8.38437ZM38.9598 17.6173H40.9464C42.2633 17.6173 43.2442 17.37 43.8887 16.8752C44.5334 16.3803 44.968 15.5544 45.1939 14.397C45.4101 13.2857 45.3117 12.5015 44.8986 12.0447C44.485 11.5879 43.658 11.3594 42.4172 11.3594H40.1793L38.9598 17.6173ZM43.654 8.9999C45.5435 8.9999 46.9218 9.49437 47.7882 10.4834C48.6546 11.4725 48.9154 12.853 48.5697 14.6254C48.4275 15.3555 48.1869 16.0231 47.8481 16.6278C47.5089 17.233 47.0661 17.7864 46.5188 18.2881C45.8666 18.8968 45.1421 19.3305 44.3448 19.5888C43.5475 19.8479 42.5321 19.9768 41.2976 19.9768H38.4999L37.7253 23.9521H34.4591L37.3733 8.9999H43.654Z" fill="#FDDD0A"/>
</svg>
