<svg width="30" height="30" viewBox="0 0 30 30" fill="none" xmlns="http://www.w3.org/2000/svg">
<path fill-rule="evenodd" clip-rule="evenodd" d="M29 1H1V29H29V1ZM30 0V30H0V0H30Z" fill="#FDDD0A"/>
<path d="M20.1527 23.4376C20.757 24.4243 21.5432 25.1495 22.9337 25.1495C24.1018 25.1495 24.848 24.5657 24.848 23.759C24.848 22.7924 24.0813 22.45 22.7956 21.8876L22.0908 21.5852C20.0565 20.7186 18.7051 19.6329 18.7051 17.3376C18.7051 15.2233 20.3161 13.6138 22.8337 13.6138C24.6261 13.6138 25.9146 14.2376 26.8432 15.871L24.648 17.2805C24.1646 16.4138 23.6432 16.0724 22.8337 16.0724C22.008 16.0724 21.4846 16.5962 21.4846 17.2805C21.4846 18.1262 22.0084 18.4686 23.218 18.9924L23.9227 19.2943C26.318 20.3214 27.6703 21.3686 27.6703 23.7229C27.6703 26.261 25.6765 27.6514 22.9989 27.6514C20.3808 27.6514 18.6894 26.4038 17.8618 24.7686L20.1527 23.4376ZM10.1942 23.6819C10.637 24.4676 11.0399 25.1319 12.0084 25.1319C12.9346 25.1319 13.5189 24.7695 13.5189 23.3605V13.7748H16.338V23.3986C16.338 26.3176 14.6265 27.6462 12.1284 27.6462C9.8713 27.6462 8.56416 26.4781 7.89939 25.0712L10.1942 23.6819Z" fill="#FDDD0A"/>
</svg>
