<svg width="30" height="30" viewBox="0 0 30 30" fill="none" xmlns="http://www.w3.org/2000/svg">
<path fill-rule="evenodd" clip-rule="evenodd" d="M29.9842 7.40406C29.9919 7.70566 29.9963 8.00734 29.9975 8.30904H29.9969C29.9987 8.66787 29.9987 9.0261 29.9987 9.38434V20.6156C29.9987 20.6753 29.9987 20.735 29.9988 20.7947C29.9988 21.0937 29.9989 21.3923 29.9969 21.6909C29.9951 21.9928 29.9914 22.2946 29.9836 22.5959C29.966 23.2535 29.9272 23.9167 29.8102 24.5665C29.6914 25.2259 29.498 25.84 29.1925 26.44C28.5889 27.6262 27.6249 28.5905 26.4388 29.1944C25.8486 29.492 25.2174 29.7 24.5658 29.8114C23.9161 29.9284 23.2523 29.9666 22.5947 29.9848C22.2928 29.9927 21.9915 29.9963 21.6897 29.9981C21.3911 30.0001 21.0922 30 20.7938 30C20.7342 30 20.6746 29.9999 20.615 29.9999H9.38434C9.32451 29.9999 9.26471 30 9.20492 30C8.90607 30 8.60765 30.0001 8.30964 29.9981C8.00778 29.9963 7.70592 29.9927 7.40406 29.9848C6.747 29.9672 6.08327 29.9284 5.43348 29.8114C4.77339 29.6926 4.15997 29.4993 3.5605 29.1944C2.37418 28.5907 1.40985 27.6264 0.806173 26.44C0.508367 25.8493 0.300391 25.2174 0.189117 24.5652C0.0721313 23.9161 0.0339441 23.2529 0.0157598 22.5953C0.00787988 22.294 0.00424301 21.9922 0.00181843 21.6903C0 21.3321 0 20.9738 0 20.615V9.38434C0 9.0261 0 8.66787 0.00181843 8.30904C0.00363687 8.00778 0.00727374 7.70653 0.0157598 7.40345C0.033338 6.747 0.0721313 6.08388 0.189117 5.43348C0.307315 4.77339 0.500676 4.15997 0.806173 3.55989C1.10632 2.97072 1.49743 2.43253 1.96512 1.96512C2.5515 1.37933 3.24745 0.914674 4.01329 0.597659C4.47039 0.410745 4.94635 0.27377 5.43288 0.189117C5.92082 0.101226 6.41604 0.0575838 6.91005 0.0339441C7.07492 0.0260642 7.2398 0.0200028 7.40406 0.0157598C7.70592 0.00787988 8.00778 0.00424301 8.30964 0.00181843C8.66787 0 9.0255 0 9.38434 0H20.615C20.9738 0 21.3321 0 21.6903 0.00181843C21.9922 0.00363687 22.2934 0.00727374 22.5959 0.0157598C23.2529 0.033338 23.9161 0.0721313 24.5671 0.189117C25.2186 0.300566 25.8499 0.508538 26.44 0.806173C27.6258 1.41026 28.5896 2.37451 29.1932 3.5605C29.4911 4.15081 29.6993 4.7823 29.8108 5.43409C29.9278 6.08388 29.966 6.747 29.9842 7.40406ZM23.7694 18.5159L23.7712 18.5177L23.7718 18.5183C26.3491 21.6897 25.6478 25.0895 25.3175 24.4476C23.9706 21.8267 21.4606 22.4958 20.1895 23.1553C20.0846 23.2178 19.9767 23.2778 19.8682 23.3353C19.8614 23.3399 19.8539 23.3442 19.8466 23.3485C19.8402 23.3522 19.8339 23.3559 19.8282 23.3596L19.83 23.3566C17.1854 24.7616 13.6346 24.8659 10.0632 23.3311C7.1569 22.0725 4.69881 19.9649 3.01133 17.2848C3.83206 17.8917 4.7108 18.416 5.63472 18.8499C9.40858 20.6168 13.1988 20.4895 15.881 18.8481C12.0635 15.9119 8.87639 12.0883 6.43302 8.98972C5.96325 8.43388 5.53532 7.85683 5.17587 7.25675C8.10173 9.9347 12.7242 13.2982 14.3826 14.2286C10.8621 10.5093 7.76047 5.92929 7.90595 6.07598C13.4497 11.6628 18.5656 14.8208 18.5656 14.8208C18.7188 14.9038 18.8689 14.9926 19.0154 15.0869C19.1202 14.8178 19.2148 14.5408 19.2936 14.2517C20.1792 11.0161 19.1833 7.31615 16.9296 4.26118C22.0716 7.34888 25.1108 13.2139 23.8657 18.1746C23.8428 18.264 23.8174 18.3512 23.7919 18.4385C23.7844 18.4642 23.7768 18.49 23.7694 18.5159Z" fill="#FDDD0A"/>
</svg>
