<svg width="42" height="30" viewBox="0 0 42 30" fill="none" xmlns="http://www.w3.org/2000/svg">
<path fill-rule="evenodd" clip-rule="evenodd" d="M0.944254 0.727142C0.23166 0.789329 -0.203716 1.54208 0.0959068 2.1939L9.12295 21.8321C9.33274 22.2885 9.83857 22.5281 10.323 22.4005L19.8135 19.9003L24.6793 28.5947C24.926 29.0356 25.4538 29.2334 25.9281 29.0629L40.1882 23.9357C40.8416 23.7008 41.0827 22.8987 40.6678 22.3403L35.8219 15.8192L40.8453 14.4352C41.5732 14.2347 41.8478 13.3439 41.3601 12.7659L36.7217 7.26904C36.4842 6.98769 36.1158 6.85408 35.754 6.91815L30.2632 7.89059C29.5167 8.02278 29.1618 8.89002 29.6 9.51064L33.369 14.8475L20.5881 17.7626L10.2055 0.500862C10.0019 0.162424 9.62423 -0.0303358 9.2318 0.00391044L0.944254 0.727142ZM11.0547 20.1245C10.8174 20.1826 10.572 20.0659 10.4665 19.8448L2.25432 2.62914C2.09884 2.30319 2.31513 1.92163 2.67376 1.88921L8.77004 1.33803C8.97023 1.31993 9.1627 1.42005 9.26336 1.59466L18.8453 18.216L11.0547 20.1245ZM34.3372 16.0783L38.5103 21.8589C38.7141 22.1412 38.5877 22.5408 38.2591 22.6534L26.283 26.7589C26.0495 26.8389 25.7923 26.742 25.6689 26.5277L21.5564 19.3821L34.3372 16.0783ZM36.3346 8.41739C36.2175 8.26806 36.0284 8.19498 35.8418 8.22696L31.6617 8.94318C31.2866 9.00745 31.1072 9.44301 31.3277 9.75429L34.66 14.4588L39.197 13.2372C39.555 13.1408 39.6982 12.7085 39.4691 12.4162L36.3346 8.41739Z" fill="#FDDD0A"/>
</svg>
