<svg width="49" height="30" viewBox="0 0 49 30" fill="none" xmlns="http://www.w3.org/2000/svg">
<path d="M24.2108 30C24.0491 30 23.8886 29.9576 23.7468 29.876L22.27 29.0017C22.0495 28.8783 22.1571 28.8347 22.2298 28.8095C22.5239 28.7066 22.5836 28.6833 22.8975 28.505C22.9305 28.4862 22.9737 28.4929 23.0075 28.5128L24.142 29.186C24.183 29.2082 24.2411 29.2082 24.2791 29.186L28.7028 26.6326C28.7437 26.6093 28.7703 26.5617 28.7703 26.513V21.4084C28.7703 21.3574 28.7437 21.312 28.7019 21.2866L24.28 18.7353C24.239 18.711 24.1848 18.711 24.1438 18.7353L19.7228 21.2866C19.6799 21.3109 19.6527 21.3585 19.6527 21.4073V26.5119C19.6527 26.5606 19.6793 26.6071 19.7214 26.6304L20.9327 27.3302C21.5905 27.6591 21.9924 27.2715 21.9924 26.8817V21.8435C21.9924 21.7716 22.0489 21.7162 22.1209 21.7162H22.6812C22.7509 21.7162 22.8085 21.7716 22.8085 21.8435V26.884C22.8085 27.7609 22.3302 28.2648 21.4986 28.2648C21.2428 28.2648 21.0413 28.2648 20.4788 27.9879L19.3183 27.3191C19.0315 27.153 18.8543 26.843 18.8543 26.5119V21.4073C18.8543 21.0751 19.0315 20.765 19.3183 20.6011L23.7464 18.0466C24.0265 17.8883 24.3986 17.8883 24.6765 18.0466L29.0991 20.6023C29.3847 20.7672 29.563 21.0762 29.563 21.4084V26.513C29.563 26.8441 29.3847 27.153 29.0991 27.3191L24.6765 29.8737C24.5348 29.9556 24.3742 29.9977 24.2103 29.9977" fill="#FDDD0A"/>
<path d="M25.5772 26.4826C23.6416 26.4826 23.2358 25.5941 23.2358 24.8488C23.2358 24.778 23.2929 24.7215 23.3639 24.7215H23.9353C23.9984 24.7215 24.0516 24.7675 24.0615 24.8298C24.1479 25.412 24.4048 25.7057 25.5752 25.7057C26.5075 25.7057 26.904 25.4951 26.904 25.0007C26.904 24.7161 26.791 24.5046 25.3427 24.3629C24.1313 24.2433 23.3828 23.9764 23.3828 23.0075C23.3828 22.115 24.1357 21.5835 25.3969 21.5835C26.8132 21.5835 27.5152 22.0752 27.6038 23.1315C27.6071 23.1681 27.5938 23.2035 27.5694 23.2301C27.5451 23.2556 27.5108 23.2711 27.4753 23.2711H26.9006C26.8408 23.2711 26.7888 23.229 26.7766 23.1714C26.6382 22.5591 26.3038 22.3631 25.3947 22.3631C24.3771 22.3631 24.2586 22.7174 24.2586 22.9832C24.2586 23.3054 24.3981 23.3995 25.7712 23.5811C27.131 23.7616 27.7765 24.0163 27.7765 24.9719C27.7765 25.9352 26.9726 26.4878 25.5708 26.4878L25.5772 26.4826ZM30.9589 21.0742H31.1073C31.2291 21.0742 31.2523 20.9889 31.2523 20.9391C31.2523 20.8084 31.1626 20.8084 31.1128 20.8084H30.96L30.9589 21.0742ZM30.7784 20.6556H31.1073C31.2202 20.6556 31.4417 20.6556 31.4417 20.9081C31.4417 21.0841 31.3287 21.1207 31.2612 21.1428C31.3929 21.1517 31.4018 21.2381 31.4195 21.3599C31.4284 21.4363 31.4428 21.568 31.4693 21.6123H31.2667C31.2612 21.568 31.2302 21.3244 31.2302 21.3111C31.2169 21.2569 31.1981 21.2303 31.1305 21.2303H30.9633V21.6134H30.7784V20.6556ZM30.3831 21.1318C30.3831 21.5282 30.7031 21.8493 31.0962 21.8493C31.4926 21.8493 31.8126 21.5215 31.8126 21.1318C31.8126 20.7342 31.4882 20.4187 31.0951 20.4187C30.7075 20.4187 30.382 20.7298 30.382 21.1307L30.3831 21.1318ZM31.9499 21.134C31.9499 21.6035 31.5657 21.9866 31.0973 21.9866C30.6322 21.9866 30.2447 21.6079 30.2447 21.134C30.2447 20.6512 30.6411 20.2814 31.0973 20.2814C31.5568 20.2814 31.9488 20.6523 31.9488 21.134" fill="#FDDD0A"/>
<path fill-rule="evenodd" clip-rule="evenodd" d="M10.5122 10.0266C10.5122 9.82281 10.4048 9.63568 10.229 9.53436L5.53892 6.83588C5.45975 6.78937 5.37106 6.76501 5.28115 6.76169H5.23265C5.14273 6.76501 5.05404 6.78937 4.97354 6.83588L0.28369 9.53436C0.108958 9.63624 0 9.82337 0 10.0271L0.0102979 17.2954C0.0102979 17.3962 0.0623409 17.4903 0.150925 17.5401C0.237294 17.5933 0.345809 17.5933 0.432178 17.5401L3.22035 15.9434C3.39641 15.8387 3.50382 15.6535 3.50382 15.4518V12.0562C3.50382 11.8536 3.61123 11.6665 3.78674 11.5657L4.97376 10.8821C5.0619 10.8311 5.15868 10.8059 5.25723 10.8059C5.35423 10.8059 5.45322 10.8309 5.53892 10.8819L6.72539 11.5654C6.90101 11.6661 7.00886 11.8533 7.00886 12.0559V15.4512C7.00886 15.6527 7.11771 15.8388 7.29288 15.9428L10.0793 17.5385C10.1668 17.5905 10.2756 17.5905 10.3628 17.5385C10.4487 17.4886 10.5032 17.3945 10.5032 17.2938L10.5122 10.0266ZM32.6436 13.8109C32.6436 13.8615 32.6167 13.9083 32.5727 13.9333L30.9618 14.8619C30.9181 14.887 30.864 14.887 30.8204 14.8619L29.2093 13.9333C29.165 13.9082 29.1384 13.8614 29.1384 13.8109V11.951C29.1384 11.9003 29.165 11.8536 29.2082 11.8281L30.8182 10.898C30.8625 10.8725 30.9167 10.8725 30.961 10.898L32.5722 11.8281C32.6165 11.8536 32.643 11.9003 32.643 11.951L32.6436 13.8109ZM33.0787 0.0358525C32.9908 -0.0130901 32.8839 -0.0117613 32.7971 0.0388422C32.7107 0.0897779 32.6573 0.182791 32.6573 0.283555V7.48099C32.6573 7.55186 32.6197 7.61719 32.5583 7.65262C32.4974 7.68805 32.4216 7.68805 32.3601 7.65262L31.1853 6.97595C31.0103 6.87474 30.7948 6.87474 30.6192 6.97595L25.9276 9.68363C25.7523 9.78439 25.6441 9.97152 25.6441 10.1731V15.59C25.6441 15.7926 25.7523 15.9786 25.9276 16.0805L30.6192 18.79C30.7944 18.8908 31.0101 18.8908 31.1858 18.79L35.8774 16.0794C36.0524 15.9775 36.1609 15.7915 36.1609 15.5888V2.08867C36.1609 1.88316 36.0491 1.69414 35.8697 1.59371L33.0787 0.0358525ZM48.7019 11.9021C48.8762 11.8009 48.9835 11.614 48.9835 11.4125V10.0996C48.9835 9.89767 48.8761 9.71131 48.7015 9.60966L44.0398 6.90342C43.8637 6.80155 43.6478 6.80155 43.4717 6.90342L38.7812 9.61077C38.6052 9.71264 38.4977 9.89866 38.4977 10.1013V15.516C38.4977 15.7197 38.6074 15.908 38.7834 16.0087L43.444 18.6651C43.6157 18.7637 43.8261 18.7648 43.9999 18.6685L46.8191 17.1016C46.9077 17.0518 46.9641 16.9577 46.9641 16.8558C46.9641 16.7539 46.9099 16.6587 46.8213 16.6089L42.102 13.9004C42.0134 13.8506 41.9592 13.7565 41.9592 13.6557V11.9571C41.9592 11.8557 42.0123 11.7622 42.1009 11.7118L43.5692 10.8647C43.6567 10.8137 43.7641 10.8137 43.8515 10.8647L45.3209 11.7118C45.4084 11.7616 45.4627 11.8557 45.4627 11.9565V13.2919C45.4627 13.3926 45.5169 13.4868 45.6044 13.5377C45.6919 13.5875 45.8004 13.5875 45.8879 13.5366L48.7019 11.9021Z" fill="#FDDD0A"/>
<path fill-rule="evenodd" clip-rule="evenodd" d="M43.6872 11.6488C43.7204 11.6292 43.762 11.6292 43.7957 11.6488L44.6959 12.1681C44.7296 12.1876 44.7502 12.2234 44.7502 12.2622V13.3019C44.7502 13.3407 44.7296 13.3766 44.6959 13.3961L43.7957 13.9154C43.762 13.935 43.7204 13.935 43.6872 13.9154L42.7875 13.3961C42.7532 13.3766 42.7321 13.3407 42.7321 13.3019V12.2622C42.7321 12.2234 42.7521 12.1876 42.7864 12.1681L43.6872 11.6488Z" fill="#FDDD0A"/>
<path d="M22.9982 9.61543L18.2249 6.9469C18.0727 6.86184 17.8872 6.86247 17.7356 6.94856L13.0415 9.61482C12.8856 9.70336 12.7893 9.86882 12.7893 10.0481V15.4138C12.7893 15.5889 12.8811 15.7511 13.0312 15.8411L17.7254 18.6576C17.8822 18.7517 18.0778 18.7523 18.2352 18.6594L23.0084 15.8406C23.1602 15.751 23.2533 15.5878 23.2533 15.4115V10.0504C23.2533 9.86987 23.1557 9.7035 22.9982 9.61543Z" fill="#FDDD0A"/>
</svg>
