<svg width="50" height="30" viewBox="0 0 50 30" fill="none" xmlns="http://www.w3.org/2000/svg">
<path d="M14.0905 10.8954C14.0905 11.5128 14.157 12.0134 14.2734 12.3804C14.4065 12.7475 14.5727 13.1479 14.8056 13.5818C14.8887 13.7152 14.922 13.8487 14.922 13.9655C14.922 14.1324 14.8222 14.2992 14.606 14.4661L13.5583 15.1669C13.4087 15.267 13.259 15.317 13.126 15.317C12.9597 15.317 12.7934 15.2336 12.6271 15.0834C12.3943 14.8331 12.1947 14.5662 12.0284 14.2992C11.8621 14.0156 11.6958 13.6986 11.5129 13.3148C10.2158 14.8498 8.58613 15.6174 6.62386 15.6174C5.22698 15.6174 4.11281 15.2169 3.29796 14.416C2.48312 13.6151 2.06738 12.5473 2.06738 11.2125C2.06738 9.79422 2.56626 8.64294 3.58066 7.77531C4.59506 6.90768 5.94205 6.47386 7.65488 6.47386C8.22029 6.47386 8.80232 6.52392 9.41761 6.60734C10.0329 6.69077 10.6648 6.82425 11.33 6.97442V5.7564C11.33 4.48832 11.0639 3.604 10.5484 3.08676C10.0163 2.56952 9.11828 2.31924 7.83781 2.31924C7.25578 2.31924 6.65712 2.38598 6.04182 2.53615C5.42653 2.68632 4.82787 2.86986 4.24584 3.10345C3.97977 3.22025 3.78022 3.28699 3.66381 3.32036C3.5474 3.35373 3.46426 3.37041 3.39774 3.37041C3.16493 3.37041 3.04852 3.20356 3.04852 2.85317V2.0356C3.04852 1.76863 3.08178 1.56841 3.16493 1.45161C3.24807 1.33482 3.39774 1.21802 3.63055 1.10122C4.21258 0.80089 4.91102 0.550612 5.72586 0.350389C6.54071 0.133482 7.40544 0.0333704 8.32006 0.0333704C10.299 0.0333704 11.7457 0.483871 12.677 1.38487C13.5916 2.28587 14.0572 3.65406 14.0572 5.48943V10.8954H14.0905ZM7.33892 13.4316C7.8877 13.4316 8.4531 13.3315 9.05176 13.1313C9.65042 12.931 10.1826 12.564 10.6316 12.0634C10.8976 11.7464 11.0972 11.396 11.197 10.9956C11.2967 10.5951 11.3633 10.1112 11.3633 9.54394V8.84316C10.881 8.72636 10.3655 8.62625 9.83335 8.55951C9.3012 8.49277 8.78569 8.4594 8.27018 8.4594C7.156 8.4594 6.34116 8.67631 5.79238 9.12681C5.24361 9.57731 4.97754 10.2113 4.97754 11.0456C4.97754 11.8298 5.17709 12.4138 5.59283 12.8142C5.99194 13.2314 6.57397 13.4316 7.33892 13.4316ZM20.6924 15.2336C20.3931 15.2336 20.1935 15.1835 20.0605 15.0667C19.9274 14.9666 19.811 14.733 19.7113 14.416L15.8033 1.51835C15.7035 1.18465 15.6537 0.967742 15.6537 0.850946C15.6537 0.583982 15.7867 0.433815 16.0528 0.433815H17.6825C17.9984 0.433815 18.2146 0.483871 18.331 0.600667C18.464 0.700779 18.5638 0.934372 18.6636 1.25139L21.4573 12.297L24.0515 1.25139C24.1347 0.917686 24.2345 0.700779 24.3675 0.600667C24.5005 0.500556 24.7334 0.433815 25.0327 0.433815H26.363C26.679 0.433815 26.8952 0.483871 27.0282 0.600667C27.1613 0.700779 27.2777 0.934372 27.3442 1.25139L29.9716 12.4305L32.8485 1.25139C32.9483 0.917686 33.0647 0.700779 33.1811 0.600667C33.3142 0.500556 33.5303 0.433815 33.8297 0.433815H35.3762C35.6423 0.433815 35.792 0.567297 35.792 0.850946C35.792 0.934372 35.7753 1.0178 35.7587 1.11791C35.7421 1.21802 35.7088 1.3515 35.6423 1.53504L31.6346 14.4327C31.5348 14.7664 31.4184 14.9833 31.2854 15.0834C31.1523 15.1835 30.9361 15.2503 30.6535 15.2503H29.2233C28.9074 15.2503 28.6912 15.2002 28.5581 15.0834C28.4251 14.9666 28.3087 14.7497 28.2422 14.416L25.6646 3.65406L23.1037 14.3993C23.0205 14.733 22.9207 14.9499 22.7877 15.0667C22.6547 15.1835 22.4219 15.2336 22.1225 15.2336H20.6924ZM42.0613 15.6841C41.1965 15.6841 40.3318 15.584 39.5003 15.3838C38.6689 15.1835 38.0203 14.9666 37.5879 14.7164C37.3219 14.5662 37.1389 14.3993 37.0724 14.2492C37.0059 14.099 36.9726 13.9321 36.9726 13.782V12.931C36.9726 12.5806 37.1057 12.4138 37.3551 12.4138C37.4549 12.4138 37.5547 12.4305 37.6545 12.4639C37.7542 12.4972 37.9039 12.564 38.0702 12.6307C38.6356 12.881 39.2509 13.0812 39.8994 13.2147C40.5646 13.3482 41.2132 13.4149 41.8783 13.4149C42.926 13.4149 43.7408 13.2314 44.3062 12.8643C44.8717 12.4972 45.171 11.9633 45.171 11.2792C45.171 10.812 45.0213 10.4283 44.722 10.1112C44.4227 9.79422 43.8573 9.51057 43.0424 9.24361L40.6311 8.49277C39.4172 8.10901 38.5192 7.54171 37.9704 6.79088C37.4216 6.05673 37.1389 5.23916 37.1389 4.37152C37.1389 3.67075 37.2886 3.05339 37.5879 2.51947C37.8873 1.98554 38.2864 1.51835 38.7853 1.15128C39.2841 0.76752 39.8495 0.483871 40.5147 0.283649C41.1799 0.083426 41.8783 0 42.61 0C42.9759 0 43.3584 0.0166852 43.7242 0.0667408C44.1067 0.116796 44.4559 0.183537 44.8051 0.250278C45.1377 0.333704 45.4537 0.41713 45.753 0.517241C46.0523 0.617353 46.2852 0.717464 46.4515 0.817575C46.6843 0.951057 46.8506 1.08454 46.9503 1.23471C47.0501 1.36819 47.1 1.55172 47.1 1.78532V2.56952C47.1 2.91991 46.967 3.10345 46.7175 3.10345C46.5845 3.10345 46.3683 3.03671 46.0856 2.90323C45.1377 2.46941 44.0734 2.2525 42.8927 2.2525C41.9449 2.2525 41.1965 2.40267 40.681 2.71969C40.1655 3.03671 39.8994 3.52058 39.8994 4.20467C39.8994 4.67186 40.0657 5.0723 40.3983 5.38932C40.7309 5.70634 41.3462 6.02336 42.2276 6.30701L44.5889 7.05784C45.7863 7.4416 46.651 7.97553 47.1665 8.65962C47.682 9.34372 47.9315 10.1279 47.9315 10.9956C47.9315 11.713 47.7818 12.3637 47.4991 12.931C47.1998 13.4983 46.8007 13.9989 46.2852 14.3993C45.7696 14.8165 45.1544 15.1168 44.4393 15.3337C43.691 15.5673 42.9094 15.6841 42.0613 15.6841Z" fill="#FDDD0A"/>
<path fill-rule="evenodd" clip-rule="evenodd" d="M45.2042 23.7931C39.7331 27.8476 31.7843 30 24.9495 30C15.371 30 6.74026 26.4461 0.221507 20.5395C-0.294006 20.0723 0.171619 19.4383 0.78691 19.8053C7.83781 23.9099 16.535 26.396 25.5316 26.396C31.6013 26.396 38.2698 25.1279 44.406 22.525C45.3206 22.1079 46.1022 23.1257 45.2042 23.7931Z" fill="#FDDD0A"/>
<path fill-rule="evenodd" clip-rule="evenodd" d="M47.4825 21.1902C46.784 20.2892 42.8595 20.7564 41.0801 20.9733C40.548 21.0401 40.4648 20.5729 40.9471 20.2225C44.0734 18.02 49.2119 18.6541 49.8106 19.3882C50.4093 20.1391 49.6443 25.2948 46.7175 27.7642C46.2685 28.148 45.8362 27.9477 46.0357 27.4472C46.7009 25.7953 48.1809 22.0745 47.4825 21.1902Z" fill="#FDDD0A"/>
</svg>
