<svg width="189" height="203" viewBox="0 0 189 203" fill="none" xmlns="http://www.w3.org/2000/svg">
<path d="M62.4966 143.54C63.4609 128.113 73.2558 99.1804 78.9 86.6574C87.5154 63.3752 86.0931 62.0523 86.1926 58.0838C82.5944 54.6973 80.9894 50.1467 80.6366 48.2947C87.501 10.5001 64.001 2.00012 64.0839 1.46574C64.1669 0.931363 102.447 19.7211 101.388 51.205C103.858 48.2947 111.125 42.58 120.437 43.0033C129.75 43.4266 137.017 48.6474 139.486 51.205C138.164 28.7165 158.006 2.25945 177.055 1.20117C169.697 4.46421 156.092 18.4512 160.537 48.2947C160.364 49.8474 158.866 53.5438 155.245 58.0838C154.716 67.3438 160.286 81.2199 162.918 87.1865C190.962 151.742 175.203 168.939 165.15 178.728C157.107 186.559 144.634 190.81 139.403 191.956C138.329 193.714 137.291 195.319 136.312 196.719C134.036 199.97 131.02 202.275 127.581 200.687C124.829 199.417 125.023 195.925 125.464 194.338H115.321C115.769 197.065 115.476 199.596 113.294 200.687C108.638 203.015 103.064 195.308 100.86 191.163C71.2276 184.548 61.1737 164.706 62.4966 143.54Z" fill="white"/>
<path d="M100.86 191.163C71.2276 184.548 61.1737 164.706 62.4966 143.54C63.4609 128.113 73.2558 99.1804 78.9 86.6574C87.5154 63.3752 86.0931 62.0523 86.1926 58.0838C82.5944 54.6973 80.9894 50.1467 80.6366 48.2947C87.501 10.5001 64.001 2.00012 64.0839 1.46574C64.1669 0.931363 102.447 19.7211 101.388 51.205C103.858 48.2947 111.125 42.58 120.437 43.0033C129.75 43.4266 137.017 48.6474 139.486 51.205C138.164 28.7165 158.006 2.25945 177.055 1.20117C169.697 4.46421 156.092 18.4512 160.537 48.2947C160.364 49.8474 158.866 53.5438 155.245 58.0838C154.716 67.3438 160.286 81.2199 162.918 87.1865C190.962 151.742 175.203 168.939 165.15 178.728C157.107 186.559 144.634 190.81 139.403 191.956M100.86 191.163L86.5724 162.854M100.86 191.163C103.064 195.308 108.638 203.015 113.294 200.687C115.476 199.596 115.769 197.065 115.321 194.338M107.473 154.387C105.145 164.759 109.678 179.169 112.236 185.078C112.547 186.166 114.685 190.451 115.321 194.338M115.321 194.338H125.464M125.464 194.338C128.11 185.871 136.047 170.526 133.93 154.387M125.464 194.338C125.023 195.925 124.829 199.417 127.581 200.687C131.02 202.275 134.036 199.97 136.312 196.719C137.291 195.319 138.329 193.714 139.403 191.956M139.403 191.956C144.423 183.748 150.255 172.224 154.832 162.854" stroke="#242424" stroke-width="2"/>
<path d="M48.2085 130.046C51.3833 138.301 58.9724 142.353 62.5 143.5C62.3237 144.47 62.3367 148.196 62.7598 154.122C63.1829 160.049 66.8167 167.88 68.5807 171.055C64.3475 178.727 51.9127 178.992 43.9756 177.669C37.6259 176.611 39.037 173.524 40.5362 172.113C25.9319 174.441 13.8146 158.267 9.58148 149.889L15.4019 150.683C1.22093 133.962 0.145009 115.848 1.37967 108.881L7.72949 119.464C3.49634 108.669 5.96568 97.1515 7.72949 92.742C7.30618 97.6101 9.66967 100.238 10.9043 100.944C12.1743 77.6615 17.0775 70.0771 19.3703 69.1952C17.6771 71.9468 17.6065 77.2205 17.7829 79.5135C22.0161 70.4123 34.8918 64.2566 40.8005 62.3164C43.1288 72.8992 39.8305 82.9529 37.8903 86.6569C43.3933 85.8103 46.1802 80.3072 46.8858 77.6615C48.5791 90.1492 40.1833 103.678 35.7737 108.881C41.0651 105.494 45.3865 99.709 46.8858 97.2397C39.2662 121.792 44.5927 134.809 48.2085 138.248C47.3618 136.343 47.8557 131.987 48.2085 130.046Z" fill="#FDDD0A" stroke="#242424" stroke-width="2" stroke-linecap="round" stroke-linejoin="round"/>
<path d="M140.808 134.81C141.866 122.957 128.02 120.876 120.965 121.317C109.059 120.523 98.741 124.492 100.064 134.81C101.122 143.065 105.443 151.478 107.472 154.653C104.826 169.204 112.763 185.079 115.409 194.074H125.198C127.844 184.99 134.458 177.141 133.929 154.653C133.891 153.066 139.485 149.626 140.808 134.81Z" fill="#FDDD0A" stroke="#242424" stroke-width="2"/>
<path d="M97.6836 80.0423C98.2462 79.7701 98.9694 79.4777 99.8002 79.2145M111.177 80.3069C110.442 79.7187 109.637 79.287 108.796 78.982M97.6836 76.6029C98.2127 77.2857 99.3768 78.7638 99.8002 79.2145M99.8002 79.2145C100.598 78.9615 101.496 78.7355 102.446 78.5803M101.123 74.4863L102.446 78.5803M102.446 78.5803C103.463 78.4139 104.541 78.3287 105.621 78.3785M105.885 74.4863L105.621 78.3785M105.621 78.3785C106.696 78.4281 107.773 78.6116 108.796 78.982M110.118 76.0738C110.118 76.2854 109.236 78.1008 108.796 78.982" stroke="#242424" stroke-width="2" stroke-linecap="round"/>
<path d="M143.453 80.0423C142.891 79.7701 142.167 79.4777 141.337 79.2145M129.96 80.3069C130.695 79.7187 131.5 79.287 132.341 78.982M143.453 76.6029C142.924 77.2857 141.76 78.7638 141.337 79.2145M141.337 79.2145C140.538 78.9615 139.641 78.7355 138.691 78.5803M140.014 74.4863L138.691 78.5803M138.691 78.5803C137.673 78.4139 136.596 78.3287 135.516 78.3785M135.251 74.4863L135.516 78.3785M135.516 78.3785C134.441 78.4281 133.363 78.6116 132.341 78.982M131.018 76.0738C131.018 76.2854 131.9 78.1008 132.341 78.982" stroke="#242424" stroke-width="2" stroke-linecap="round"/>
<path d="M115.674 82.4242C115.674 83.9057 118.849 88.1565 120.436 90.0967C122.2 88.3329 125.463 84.3408 125.463 82.4242C125.463 80.8367 122.112 82.7769 120.436 84.0116C118.937 82.9533 115.674 80.5722 115.674 82.4242Z" fill="#FDDD0A"/>
<path d="M109.324 89.5676C110.559 92.9188 114.51 97.7163 120.436 90.0967M120.436 90.0967C125.728 97.928 129.873 93.007 131.284 89.5676M120.436 90.0967C118.849 88.1565 115.674 83.9057 115.674 82.4242C115.674 80.5722 118.937 82.9533 120.436 84.0116C122.112 82.7769 125.463 80.8367 125.463 82.4242C125.463 84.3408 122.2 88.3329 120.436 90.0967Z" stroke="#242424" stroke-width="2"/>
<path d="M160.65 47.765C160.227 51.3632 157.123 55.614 155.623 57.2896C152.978 64.9621 162.767 85.5986 162.767 86.6569C197.69 55.9667 187.372 22.3663 178.641 2.78809C178.051 1.46524 177.318 1.20067 176.524 1.46524C157.475 12.8947 158.004 37.094 160.65 47.765Z" fill="#FDDD0A"/>
<path d="M149.803 65.4913C150.42 63.992 152.448 60.2528 155.623 57.2896M155.623 57.2896C157.123 55.614 160.227 51.3632 160.65 47.765C158.004 37.094 157.475 12.8947 176.524 1.46524C177.318 1.20067 178.051 1.46524 178.641 2.78809C187.372 22.3663 197.69 55.9667 162.767 86.6569C162.767 85.5986 152.978 64.9621 155.623 57.2896Z" stroke="#242424" stroke-width="2" stroke-linecap="round" stroke-linejoin="round"/>
<path d="M80.7854 47.765C81.2087 51.3632 84.313 55.614 85.8123 57.2896C88.458 64.9621 78.6689 86.6569 78.6689 86.6569C43.7456 55.9667 54.0638 22.3663 62.7946 2.78809C63.3846 1.46524 64.1175 1.20067 64.9112 1.46524C83.9603 12.8947 83.4311 37.094 80.7854 47.765Z" fill="#FDDD0A"/>
<path d="M91.6328 65.4912C91.0155 63.992 88.9871 60.2528 85.8123 57.2896M85.8123 57.2896C84.313 55.614 81.2087 51.3632 80.7854 47.765C83.4311 37.094 83.9603 12.8947 64.9112 1.46524C64.1175 1.20067 63.3846 1.46524 62.7946 2.78809C54.0638 22.3663 43.7456 55.9667 78.6689 86.6569C78.6689 86.6569 88.458 64.9621 85.8123 57.2896Z" stroke="#242424" stroke-width="2" stroke-linecap="round" stroke-linejoin="round"/>
</svg>
