<svg width="487" height="945" viewBox="0 0 487 945" fill="none" xmlns="http://www.w3.org/2000/svg">
<path d="M-258.348 303.581L-257.34 303.115C-186.926 270.555 -149.93 253.448 -121.186 233.282C-92.2886 213.009 -71.7395 189.652 -33.9574 144.479C-15.1479 121.989 7.85706 110.732 32.7625 108.006C57.6815 105.279 84.5314 111.091 111.005 122.798C163.957 146.213 215.284 193.16 246.41 242.142C250.395 248.413 254.335 254.588 258.219 260.676C304.825 333.722 343.384 394.155 354.832 455.938C367.221 522.792 347.866 591.302 272.229 679.13C234.419 723.036 199.532 747.607 165.419 759.58C131.309 771.552 97.9204 770.947 63.0679 764.409C36.9778 759.514 10.0997 751.303 -18.5088 742.563C-28.1391 739.621 -37.9655 736.619 -48.0239 733.664C-87.944 721.934 -131.471 710.952 -180.749 707.425C-278.862 700.403 -333.743 615.929 -346.33 524.827C-352.622 479.289 -348.332 432.149 -333.608 392.304C-318.883 352.459 -293.74 319.947 -258.348 303.581Z" stroke="#212121"/>
<path d="M-246.865 310.651L-245.896 310.203C-178.43 279.006 -142.981 262.614 -115.438 243.291C-87.7472 223.865 -68.0562 201.482 -31.8551 158.199C-13.836 136.655 8.20143 125.871 32.0596 123.26C55.9312 120.648 81.654 126.215 107.017 137.431C157.75 159.865 206.927 204.845 236.748 251.774C240.566 257.783 244.341 263.699 248.063 269.532C292.72 339.523 329.662 397.424 340.631 456.618C352.5 520.667 333.959 586.304 261.489 670.454C225.262 712.521 191.838 736.062 159.157 747.532C126.478 759.002 94.4907 758.422 61.0986 752.158C36.1013 747.468 10.3494 739.601 -17.0618 731.227C-26.2894 728.408 -35.705 725.532 -45.3432 722.7C-83.5936 711.46 -125.301 700.938 -172.519 697.558C-266.513 690.831 -319.094 609.904 -331.154 522.618C-337.182 478.988 -333.071 433.824 -318.965 395.65C-304.857 357.475 -280.769 326.328 -246.865 310.651Z" stroke="#212121"/>
<path d="M-236.202 317.215L-235.271 316.785C-170.542 286.854 -136.528 271.126 -110.101 252.585C-83.53 233.945 -64.6358 212.468 -29.9027 170.94C-12.6177 150.274 8.52149 139.929 31.4071 137.425C54.3063 134.919 78.9824 140.259 103.315 151.019C151.987 172.542 199.167 215.695 227.777 260.719C231.44 266.483 235.062 272.159 238.632 277.755C281.479 344.91 316.922 400.459 327.445 457.249C338.831 518.693 321.045 581.663 251.517 662.399C216.76 702.758 184.694 725.341 153.342 736.345C121.993 747.348 91.3062 746.792 59.2702 740.783C35.2877 736.283 10.5814 728.736 -15.7181 720.701C-24.5717 717.997 -33.6058 715.237 -42.8537 712.519C-79.5538 701.736 -119.572 691.639 -164.877 688.397C-255.047 681.943 -305.491 604.309 -317.061 520.566C-322.844 478.709 -318.901 435.379 -305.367 398.757C-291.833 362.134 -268.725 332.255 -236.202 317.215Z" stroke="#212121"/>
<path d="M-223.694 324.914L-222.806 324.504C-161.289 296.058 -128.959 281.108 -103.84 263.485C-78.5832 245.767 -60.6235 225.352 -27.6123 185.883C-11.1882 166.245 8.89723 156.417 30.6422 154.037C52.4008 151.656 75.8493 156.731 98.9734 166.956C145.228 187.41 190.065 228.421 217.255 271.209C220.736 276.687 224.178 282.081 227.571 287.399C268.296 351.227 301.979 404.019 311.98 457.989C322.799 516.377 305.899 576.218 239.82 652.949C206.788 691.306 176.315 712.766 146.522 723.223C116.733 733.679 87.5716 733.151 57.1262 727.44C34.3339 723.164 10.8542 715.991 -14.1413 708.355C-22.5563 705.784 -31.1432 703.161 -39.9334 700.578C-74.8149 690.328 -112.851 680.732 -155.914 677.65C-241.597 671.517 -289.536 597.746 -300.532 518.16C-306.028 478.38 -302.28 437.203 -289.419 402.4C-276.557 367.596 -254.598 339.204 -223.694 324.914Z" stroke="#212121"/>
<path d="M-211.435 332.461L-210.588 332.069C-152.219 305.079 -121.541 290.893 -97.7032 274.17C-73.7345 257.355 -56.6909 237.981 -25.3674 200.53C-9.78713 181.901 9.26552 172.579 29.8926 170.321C50.5331 168.062 72.7784 172.876 94.7177 182.578C138.602 201.983 181.144 240.894 206.942 281.491C210.245 286.689 213.511 291.808 216.73 296.854C255.374 357.42 287.332 407.509 296.821 458.715C307.086 514.109 291.054 570.883 228.356 643.688C197.014 680.082 168.102 700.442 139.838 710.362C111.577 720.282 83.9111 719.781 55.0247 714.362C33.3989 710.305 11.1213 703.5 -12.5961 696.254C-20.5812 693.814 -28.7295 691.325 -37.071 688.874C-70.1702 679.149 -106.264 670.042 -147.128 667.117C-228.415 661.299 -273.897 591.314 -284.33 515.802C-289.545 478.06 -285.989 438.991 -273.787 405.972C-261.584 372.951 -240.751 346.017 -211.435 332.461Z" stroke="#212121"/>
<path d="M-198.173 340.626L-197.371 340.255C-142.408 314.84 -113.515 301.48 -91.0647 285.73C-68.4893 269.892 -52.4368 251.644 -22.9391 216.376C-8.27184 198.839 9.66349 190.063 29.081 187.938C48.512 185.812 69.4555 190.343 90.113 199.478C131.434 217.75 171.492 254.389 195.784 292.616C198.894 297.51 201.969 302.33 205.001 307.081C241.393 364.12 271.486 411.285 280.42 459.5C290.085 511.654 274.993 565.111 215.952 633.668C186.439 667.938 159.216 687.108 132.606 696.448C105.998 705.787 79.9503 705.317 52.7505 700.214C32.3869 696.394 11.4099 689.985 -10.9247 683.162C-18.4447 680.865 -26.1186 678.521 -33.9748 676.212C-65.1456 667.053 -99.1385 658.477 -137.624 655.722C-214.153 650.245 -256.978 584.355 -266.803 513.251C-271.713 477.712 -268.364 440.926 -256.875 409.836C-245.386 378.745 -225.771 353.388 -198.173 340.626Z" stroke="#212121"/>
<path d="M-184.358 349.13L-183.605 348.782C-132.188 325.007 -105.155 312.506 -84.1497 297.77C-63.0255 282.95 -48.0053 265.875 -20.4094 232.881C-6.69308 216.481 10.0784 208.275 28.236 206.288C46.4071 204.299 65.9947 208.537 85.3171 217.081C123.968 234.173 161.439 268.445 184.162 304.203C187.071 308.782 189.948 313.29 192.783 317.734C226.831 371.098 254.981 415.217 263.338 460.318C272.377 509.097 258.263 559.099 203.033 623.232C175.425 655.29 149.962 673.22 125.073 681.955C100.187 690.69 75.8251 690.25 50.3822 685.477C31.3332 681.903 11.7109 675.909 -9.18346 669.526C-16.219 667.376 -23.3987 665.183 -30.7494 663.023C-59.9116 654.454 -91.7158 646.43 -127.724 643.853C-199.298 638.73 -239.356 577.106 -248.545 510.593C-253.138 477.351 -250.006 442.941 -239.26 413.861C-228.513 384.779 -210.168 361.065 -184.358 349.13Z" stroke="#212121"/>
<path d="M-170.258 357.81L-169.553 357.484C-121.757 335.382 -96.623 323.76 -77.0923 310.058C-57.4495 296.278 -43.4828 280.4 -17.8282 249.727C-5.08244 234.488 10.5012 226.863 27.3729 225.017C44.2581 223.169 62.4617 227.106 80.4214 235.048C116.347 250.934 151.178 282.791 172.299 316.029C175.003 320.285 177.677 324.476 180.313 328.607C211.968 378.22 238.133 419.23 245.902 461.152C254.302 506.487 241.188 552.961 189.846 612.579C164.182 642.379 140.514 659.044 117.384 667.162C94.2562 675.279 71.614 674.871 47.9642 670.435C30.257 667.113 12.0175 661.541 -7.40674 655.606C-13.9478 653.608 -20.6232 651.569 -27.4579 649.561C-54.5701 641.594 -84.1402 634.133 -117.619 631.737C-184.136 626.976 -221.369 569.707 -229.911 507.88C-234.181 476.98 -231.269 444.997 -221.28 417.968C-211.292 390.938 -194.242 368.9 -170.258 357.81Z" stroke="#212121"/>
<path d="M-155.934 366.628L-155.278 366.325C-111.16 345.924 -87.9547 335.194 -69.9223 322.543C-51.7843 309.818 -38.888 295.157 -15.2055 266.842C-3.44573 252.782 10.9311 245.748 26.4964 244.044C42.0752 242.339 58.8729 245.972 75.4482 253.302C108.605 267.963 140.753 297.367 160.248 328.044C162.744 331.972 165.212 335.84 167.644 339.653C196.868 385.456 221.018 423.308 228.188 462C235.941 503.835 223.84 546.727 176.449 601.757C152.761 629.263 130.917 644.642 109.573 652.134C88.231 659.625 67.3362 659.249 45.5081 655.154C29.1641 652.088 12.3293 646.945 -5.60145 641.467C-11.6402 639.622 -17.8033 637.739 -24.1138 635.885C-49.1432 628.53 -76.4438 621.642 -107.354 619.43C-168.733 615.037 -203.096 562.191 -210.981 505.125C-214.921 476.605 -212.233 447.086 -203.015 422.141C-193.796 397.195 -178.063 376.86 -155.934 366.628Z" stroke="#212121"/>
<path d="M-139.814 376.552L-139.214 376.275C-99.2342 357.788 -78.1996 348.062 -61.8531 336.594C-45.4087 325.057 -33.717 311.765 -12.2537 286.103C-1.60367 273.369 11.4151 267 25.5102 265.458C39.6188 263.913 54.8343 267.203 69.8516 273.844C99.8923 287.128 129.022 313.77 146.685 341.566C148.947 345.126 151.183 348.63 153.387 352.085C179.875 393.6 201.758 427.897 208.254 462.955C215.277 500.852 204.318 539.711 161.373 589.579C139.908 614.504 120.117 628.436 100.782 635.222C81.4504 642.008 62.5222 641.667 42.7442 637.957C27.9342 635.179 12.6803 630.519 -3.56982 625.554C-9.04323 623.882 -14.6296 622.176 -20.3502 620.495C-43.0358 613.829 -67.7823 607.585 -95.8014 605.58C-151.398 601.6 -182.532 553.733 -189.676 502.024C-193.246 476.184 -190.811 449.438 -182.459 426.838C-174.107 404.237 -159.855 385.819 -139.814 376.552Z" stroke="#212121"/>
<path d="M-125.219 385.536L-124.669 385.282C-88.4371 368.528 -69.3679 359.71 -54.5477 349.313C-39.6365 338.852 -29.0353 326.799 -9.58121 303.539C0.0642736 292.007 11.8535 286.239 24.6177 284.842C37.3954 283.444 51.1784 286.423 64.7853 292.44C92.0051 304.477 118.402 328.619 134.408 353.807C136.458 357.032 138.484 360.208 140.481 363.339C164.492 400.971 184.321 432.051 190.208 463.819C196.57 498.151 186.646 533.359 147.725 578.553C128.272 601.141 110.34 613.764 92.8246 619.911C75.3123 626.058 58.1644 625.751 40.2423 622.388C26.8212 619.871 12.9984 615.648 -1.73018 611.148C-6.69179 609.633 -11.7562 608.085 -16.9426 606.561C-37.5063 600.519 -59.9406 594.859 -85.3425 593.04C-135.704 589.436 -163.914 546.075 -170.389 499.217C-173.624 475.801 -171.417 451.567 -163.85 431.09C-156.282 410.612 -143.37 393.929 -125.219 385.536Z" stroke="#212121"/>
<path d="M-108.201 396.013L-107.709 395.785C-75.8468 381.052 -59.0692 373.294 -46.0291 364.146C-32.9058 354.939 -23.5763 344.331 -6.46534 323.873C2.00862 313.741 12.364 308.676 23.5761 307.449C34.8016 306.22 46.9142 308.837 58.8763 314.127C82.8065 324.709 106.016 345.935 120.089 368.082C121.891 370.918 123.673 373.71 125.429 376.463C146.551 409.568 163.987 436.896 169.162 464.826C174.754 495 166.035 525.951 131.808 565.695C114.702 585.558 98.9377 596.653 83.5439 602.056C68.1533 607.458 53.0817 607.188 37.324 604.232C25.5224 602.018 13.3685 598.305 0.41439 594.348C-3.95036 593.014 -8.40597 591.653 -12.9696 590.312C-31.0588 584.997 -50.7966 580.017 -73.1462 578.417C-117.404 575.249 -142.204 537.145 -147.897 495.942C-150.741 475.355 -148.8 454.048 -142.148 436.047C-135.496 418.045 -124.148 403.387 -108.201 396.013Z" stroke="#212121"/>
<path d="M-90.2991 407.033L-89.8693 406.835C-62.6033 394.227 -48.2361 387.583 -37.0683 379.748C-25.8257 371.861 -17.8338 362.773 -3.18726 345.261C4.05445 336.603 12.9018 332.276 22.4813 331.227C32.0742 330.178 42.4298 332.414 52.6618 336.938C73.1319 345.99 92.9891 364.15 105.029 383.097C106.571 385.524 108.096 387.913 109.598 390.268C127.682 418.611 142.599 441.992 147.027 465.886C151.808 491.687 144.357 518.16 115.067 552.171C100.43 569.168 86.945 578.656 73.7829 583.276C60.6241 587.895 47.7363 587.665 34.2551 585.136C24.1571 583.242 13.7587 580.065 2.67091 576.678C-1.06609 575.536 -4.8814 574.371 -8.78991 573.222C-24.2764 568.672 -41.178 564.407 -60.3171 563.037C-98.1536 560.329 -119.368 527.752 -124.238 492.499C-126.672 474.887 -125.011 456.66 -119.322 441.263C-113.631 425.866 -103.928 413.336 -90.2991 407.033Z" stroke="#212121"/>
<path d="M-72.5619 417.952L-72.1933 417.782C-49.4815 407.279 -37.5027 401.74 -28.19 395.207C-18.8108 388.627 -12.1443 381.045 0.0603468 366.453C6.08111 359.255 13.4341 355.659 21.396 354.787C29.3713 353.915 37.9859 355.773 46.5037 359.54C63.5453 367.076 80.0809 382.197 90.1068 397.974C91.3908 399.995 92.6601 401.984 93.9111 403.945C108.984 427.571 121.406 447.041 125.093 466.936C129.071 488.404 122.877 510.44 98.4787 538.771C86.2872 552.927 75.0614 560.823 64.1107 564.667C53.1633 568.509 42.4393 568.32 31.2138 566.214C22.8037 564.636 14.1447 561.991 4.9063 559.168C1.79131 558.217 -1.38955 557.245 -4.64896 556.287C-17.5565 552.495 -31.6478 548.939 -47.6059 547.796C-79.0803 545.544 -96.7409 518.445 -100.797 489.087C-102.823 474.421 -101.44 459.246 -96.7041 446.43C-91.9676 433.613 -83.8938 423.192 -72.5619 417.952Z" stroke="#212121"/>
</svg>
