<svg width="371" height="813" viewBox="0 0 371 813" fill="none" xmlns="http://www.w3.org/2000/svg">
<path d="M446.741 86.2699L447.596 86.9784C507.329 136.479 538.713 162.487 569.3 179.731C600.049 197.066 629.983 205.539 687.03 220.158C715.431 227.436 735.506 243.341 748.701 264.639C761.904 285.948 768.233 312.681 769.082 341.614C770.78 399.488 750.544 466.039 719.764 515.239C715.824 521.538 711.95 527.755 708.131 533.884C662.311 607.425 624.403 668.267 573.59 705.231C518.606 745.228 448.445 757.296 336.591 726.908C280.675 711.716 243.466 690.83 217.957 665.21C192.451 639.592 178.604 609.204 169.48 574.938C162.65 549.286 158.473 521.494 154.027 491.913C152.53 481.955 151.003 471.794 149.334 461.444C142.71 420.367 133.855 376.358 115.796 330.374C79.8388 238.817 132.403 152.883 209.181 102.254C247.559 76.9468 291.943 60.4974 334.243 56.6077C376.543 52.718 416.718 61.39 446.741 86.2699Z" stroke="#212121"/>
<path d="M445.313 99.6798L446.135 100.361C503.367 147.789 533.439 172.709 562.747 189.232C592.212 205.844 620.897 213.963 675.557 227.97C702.764 234.942 721.994 250.179 734.635 270.581C747.282 290.994 753.347 316.605 754.16 344.325C755.787 399.773 736.399 463.536 706.909 510.674C703.133 516.709 699.422 522.666 695.763 528.538C651.859 599.004 615.539 657.297 566.855 692.711C514.179 731.03 446.961 742.593 339.79 713.478C286.216 698.923 250.567 678.911 226.129 654.367C201.694 629.824 188.428 600.712 179.686 567.881C173.142 543.304 169.14 516.676 164.88 488.333C163.446 478.791 161.982 469.055 160.383 459.138C154.036 419.779 145.552 377.61 128.247 333.547C93.7994 245.834 144.156 163.505 217.717 114.997C254.487 90.7499 297.011 74.99 337.537 71.2634C378.064 67.5368 416.552 75.8454 445.313 99.6798Z" stroke="#212121"/>
<path d="M443.986 112.131L444.775 112.786C499.685 158.29 528.539 182.201 556.661 198.055C584.934 213.995 612.458 221.785 664.902 235.224C691.001 241.912 709.447 256.528 721.572 276.098C733.704 295.68 739.522 320.248 740.303 346.842C741.863 400.037 723.263 461.211 694.97 506.434C691.348 512.224 687.787 517.939 684.277 523.573C642.152 591.183 607.307 647.109 560.601 681.085C510.067 717.845 445.581 728.941 342.76 701.006C291.36 687.042 257.16 667.844 233.716 644.297C210.275 620.754 197.548 592.825 189.161 561.328C182.883 537.748 179.043 512.202 174.956 485.008C173.58 475.853 172.176 466.512 170.641 456.996C164.552 419.232 156.411 378.771 139.807 336.493C106.762 252.349 155.067 173.367 225.642 126.828C260.918 103.567 301.715 88.447 340.594 84.8718C379.474 81.2966 416.396 89.2679 443.986 112.131Z" stroke="#212121"/>
<path d="M442.43 126.736L443.183 127.36C495.369 170.606 522.794 193.333 549.524 208.403C576.399 223.554 602.562 230.959 652.405 243.732C677.204 250.087 694.731 263.974 706.252 282.569C717.78 301.176 723.309 324.521 724.05 349.794C725.533 400.347 707.856 458.483 680.968 501.462C677.526 506.965 674.142 512.396 670.806 517.75C630.768 582.01 597.653 635.16 553.266 667.449C505.245 702.381 443.964 712.927 346.244 686.379C297.395 673.108 264.894 654.862 242.616 632.487C220.341 610.115 208.247 583.575 200.276 553.641C194.309 531.232 190.66 506.954 186.776 481.108C185.468 472.407 184.133 463.528 182.675 454.483C176.887 418.591 169.149 380.133 153.367 339.948C121.966 259.991 167.867 184.935 234.938 140.706C268.463 118.599 307.234 104.23 344.181 100.833C381.13 97.4352 416.214 105.011 442.43 126.736Z" stroke="#212121"/>
<path d="M440.905 141.05L441.624 141.646C491.138 182.679 517.163 204.245 542.528 218.546C568.033 232.924 592.862 239.952 640.157 252.071C663.682 258.1 680.307 271.273 691.236 288.912C702.172 306.562 707.417 328.71 708.121 352.688C709.528 400.651 692.756 455.811 667.245 496.589C663.979 501.81 660.768 506.963 657.603 512.043C619.61 573.02 588.191 623.449 546.077 654.084C500.519 687.224 442.379 697.232 349.659 672.042C303.31 659.45 272.475 642.139 251.34 620.912C230.207 599.687 218.733 574.508 211.171 546.108C205.509 524.845 202.047 501.81 198.361 477.286C197.12 469.029 195.854 460.604 194.469 452.021C188.977 417.962 181.635 381.468 166.659 343.335C136.869 267.481 180.412 196.273 244.05 154.308C275.858 133.333 312.643 119.701 347.697 116.477C382.752 113.254 416.036 120.441 440.905 141.05Z" stroke="#212121"/>
<path d="M439.255 156.536L439.935 157.099C486.561 195.738 511.071 216.049 534.96 229.517C558.982 243.06 582.367 249.679 626.906 261.092C649.052 266.767 664.702 279.168 674.99 295.772C685.285 312.389 690.224 333.24 690.886 355.817C692.211 400.979 676.419 452.918 652.398 491.315C649.322 496.231 646.299 501.083 643.318 505.867C607.539 563.292 577.953 610.776 538.299 639.623C495.405 670.825 440.664 680.25 353.353 656.53C309.709 644.673 280.676 628.372 260.777 608.387C240.881 588.404 230.078 564.698 222.957 537.956C217.626 517.934 214.366 496.244 210.895 473.15C209.726 465.374 208.533 457.439 207.23 449.355C202.057 417.281 195.143 382.911 181.038 346.998C152.992 275.583 193.985 208.538 253.908 169.023C283.859 149.273 318.495 136.437 351.501 133.402C384.508 130.366 415.843 137.134 439.255 156.536Z" stroke="#212121"/>
<path d="M437.537 172.667L438.175 173.196C481.793 209.342 504.725 228.345 527.077 240.947C549.555 253.619 571.436 259.812 613.103 270.489C633.814 275.797 648.448 287.392 658.068 302.92C667.696 318.459 672.316 337.96 672.935 359.078C674.174 401.321 659.402 449.906 636.932 485.823C634.055 490.422 631.227 494.961 628.439 499.435C594.965 553.16 567.29 597.578 530.197 624.561C490.079 653.744 438.878 662.563 357.201 640.373C316.374 629.281 289.219 614.034 270.608 595.342C251.999 576.653 241.894 554.481 235.233 529.466C230.246 510.737 227.197 490.447 223.95 468.842C222.856 461.567 221.74 454.144 220.521 446.58C215.682 416.572 209.212 384.416 196.016 350.814C169.785 284.023 208.122 221.314 264.176 184.351C292.192 165.876 324.591 153.87 355.463 151.031C386.336 148.192 415.642 154.523 437.537 172.667Z" stroke="#212121"/>
<path d="M435.782 189.131L436.38 189.627C476.926 223.227 498.248 240.896 519.03 252.613C539.932 264.397 560.279 270.155 599.015 280.081C618.26 285.013 631.858 295.787 640.797 310.215C649.743 324.654 654.037 342.777 654.613 362.406C655.764 401.67 642.034 446.831 621.147 480.217C618.473 484.492 615.844 488.711 613.253 492.87C582.131 542.819 556.406 584.107 521.928 609.188C484.643 636.31 437.055 644.51 361.129 623.883C323.177 613.572 297.937 599.4 280.641 582.028C263.347 564.659 253.955 544.052 247.764 520.8C243.128 503.391 240.293 484.531 237.275 464.446C236.258 457.683 235.221 450.78 234.087 443.747C229.588 415.849 223.573 385.952 211.303 354.71C186.926 292.638 222.551 234.355 274.656 199.996C300.697 182.824 330.812 171.664 359.507 169.025C388.202 166.387 415.437 172.271 435.782 189.131Z" stroke="#212121"/>
<path d="M434.001 205.859L434.558 206.32C471.983 237.335 491.668 253.648 510.856 264.465C530.157 275.346 548.945 280.663 584.704 289.826C602.46 294.376 615.004 304.317 623.251 317.627C631.505 330.949 635.468 347.672 635.999 365.788C637.062 402.026 624.389 443.709 605.111 474.524C602.643 478.469 600.217 482.363 597.825 486.202C569.094 532.315 545.35 570.423 513.527 593.572C479.121 618.601 435.203 626.171 365.119 607.131C330.088 597.614 306.796 584.534 290.834 568.503C274.876 552.475 266.208 533.459 260.494 511.998C256.215 495.929 253.599 478.522 250.812 459.981C249.874 453.737 248.916 447.364 247.869 440.871C243.715 415.116 238.162 387.513 226.834 358.668C204.34 301.391 237.211 247.605 285.304 215.891C309.339 200.041 337.133 189.742 363.615 187.307C390.099 184.871 415.229 190.303 434.001 205.859Z" stroke="#212121"/>
<path d="M431.995 224.683L432.504 225.104C466.419 253.209 484.263 267.997 501.657 277.803C519.155 287.668 536.189 292.488 568.597 300.792C584.677 304.913 596.036 313.915 603.504 325.968C610.979 338.033 614.569 353.18 615.051 369.593C616.014 402.426 604.532 440.194 587.064 468.115C584.828 471.69 582.629 475.218 580.462 478.696C554.421 520.492 532.906 555.022 504.073 575.996C472.905 598.669 433.118 605.532 369.609 588.278C337.866 579.654 316.763 567.802 302.305 553.281C287.85 538.762 279.997 521.537 274.819 502.091C270.942 487.53 268.571 471.757 266.046 454.955C265.195 449.295 264.327 443.519 263.378 437.632C259.614 414.289 254.58 389.269 244.312 363.122C223.936 311.241 253.707 262.514 297.285 233.778C319.063 219.417 344.246 210.085 368.238 207.879C392.232 205.673 414.994 210.594 431.995 224.683Z" stroke="#212121"/>
<path d="M430.18 241.723L430.647 242.11C461.383 267.58 477.559 280.986 493.329 289.877C509.196 298.822 524.642 303.192 554.015 310.719C568.579 314.451 578.865 322.603 585.628 333.518C592.398 344.445 595.651 358.166 596.087 373.037C596.96 402.787 586.555 437.012 570.727 462.312C568.7 465.552 566.708 468.749 564.744 471.901C541.138 509.788 521.641 541.079 495.515 560.084C467.279 580.624 431.232 586.846 373.675 571.209C344.907 563.394 325.788 552.654 312.69 539.5C299.595 526.348 292.481 510.742 287.789 493.122C284.275 479.926 282.127 465.633 279.838 450.404C279.067 445.273 278.28 440.037 277.419 434.7C274.007 413.54 269.444 390.857 260.135 367.153C241.678 320.157 268.642 276.011 308.133 249.97C327.867 236.957 350.685 228.502 372.424 226.503C394.164 224.504 414.782 228.963 430.18 241.723Z" stroke="#212121"/>
<path d="M428.062 261.596L428.479 261.941C455.508 284.34 469.74 296.135 483.616 303.958C497.581 311.83 511.174 315.676 537.01 322.296C549.805 325.575 558.839 332.735 564.78 342.323C570.727 351.923 573.587 363.98 573.971 377.054C574.738 403.208 565.59 433.301 551.673 455.546C549.891 458.395 548.139 461.206 546.413 463.977C525.646 497.307 508.504 524.819 485.533 541.529C460.716 559.581 429.03 565.056 378.415 551.305C353.118 544.432 336.311 534.99 324.8 523.429C313.292 511.871 307.038 498.155 302.913 482.662C299.823 471.059 297.934 458.492 295.921 445.097C295.242 440.584 294.55 435.977 293.793 431.281C290.791 412.668 286.777 392.711 278.586 371.855C262.366 330.555 286.058 291.751 320.782 268.854C338.132 257.413 358.194 249.979 377.304 248.222C396.415 246.465 414.534 250.385 428.062 261.596Z" stroke="#212121"/>
<path d="M425.836 282.498L426.2 282.801C449.33 301.968 461.518 312.068 473.402 318.768C485.365 325.512 497.01 328.806 519.125 334.473C530.059 337.275 537.777 343.393 542.853 351.585C547.935 359.788 550.382 370.096 550.71 381.279C551.366 403.652 543.54 429.397 531.634 448.429C530.109 450.866 528.61 453.272 527.133 455.642C509.353 484.177 494.687 507.716 475.035 522.012C453.815 537.448 426.716 542.136 383.402 530.369C361.755 524.488 347.381 516.41 337.539 506.525C327.699 496.643 322.351 484.915 318.821 471.661C316.178 461.732 314.562 450.98 312.839 439.515C312.258 435.651 311.665 431.706 311.016 427.684C308.446 411.749 305.009 394.66 297.995 376.8C284.128 341.492 304.378 308.307 334.088 288.716C348.931 278.928 366.093 272.569 382.439 271.066C398.785 269.563 414.274 272.917 425.836 282.498Z" stroke="#212121"/>
<path d="M423.629 303.211L423.942 303.47C443.208 319.436 453.37 327.857 463.279 333.444C473.26 339.07 482.975 341.817 501.403 346.54C510.493 348.869 516.907 353.954 521.126 360.763C525.351 367.583 527.388 376.157 527.661 385.466C528.207 404.092 521.691 425.53 511.776 441.378C510.507 443.408 509.259 445.411 508.029 447.385C493.209 471.17 480.995 490.771 464.633 502.674C446.976 515.517 424.423 519.427 388.342 509.625C370.313 504.727 358.349 498.001 350.16 489.777C341.974 481.555 337.523 471.797 334.584 460.76C332.382 452.492 331.036 443.538 329.601 433.986C329.117 430.765 328.622 427.476 328.081 424.122C325.94 410.84 323.074 396.592 317.225 381.701C305.691 352.33 322.53 324.713 347.271 308.397C359.631 300.247 373.92 294.954 387.526 293.703C401.133 292.452 414.016 295.245 423.629 303.211Z" stroke="#212121"/>
</svg>
